<?xml version="1.0" encoding="UTF-8"?>
<svg xmlns="http://www.w3.org/2000/svg" xmlns:xlink="http://www.w3.org/1999/xlink"
     width="23.800000000000004cm" height="23.800000000000004cm" viewBox="0 0 4096 4096.0">
<defs>
</defs>
<rect x="0" y="0" width="4096" height="4096.0" fill="#BF9B7A" />
<rect x="232.3361344537815" y="232.3361344537815" width="361.4117647058823" height="361.4117647058823" fill="green" />
<rect x="275.3613445378151" y="275.3613445378151" width="275.3613445378151" height="275.3613445378151" fill="black" />
<circle cx="413.0420168067227" cy="413.0420168067227" r="68.84033613445378" fill-opacity="0" stroke="white" stroke-width="34.42016806722689" />
<rect x="869.109243697479" y="232.3361344537815" width="361.4117647058823" height="361.4117647058823" fill="green" />
<rect x="912.1344537815125" y="275.3613445378151" width="275.3613445378151" height="275.3613445378151" fill="black" />
<circle cx="1049.81512605042" cy="413.0420168067227" r="68.84033613445378" fill-opacity="0" stroke="white" stroke-width="34.42016806722689" />
<rect x="1505.8823529411764" y="232.3361344537815" width="361.4117647058823" height="361.4117647058823" fill="green" />
<rect x="1548.90756302521" y="275.3613445378151" width="275.3613445378151" height="275.3613445378151" fill="black" />
<circle cx="1686.5882352941176" cy="413.0420168067227" r="68.84033613445378" fill-opacity="0" stroke="white" stroke-width="34.42016806722689" />
<rect x="2142.655462184874" y="232.3361344537815" width="361.4117647058823" height="361.4117647058823" fill="green" />
<rect x="2185.6806722689075" y="275.3613445378151" width="275.3613445378151" height="275.3613445378151" fill="black" />
<circle cx="2323.361344537815" cy="413.0420168067227" r="68.84033613445378" fill-opacity="0" stroke="white" stroke-width="34.42016806722689" />
<rect x="2779.4285714285716" y="232.3361344537815" width="361.4117647058823" height="361.4117647058823" fill="green" />
<rect x="2822.453781512605" y="275.3613445378151" width="275.3613445378151" height="275.3613445378151" fill="black" />
<circle cx="2960.1344537815125" cy="413.0420168067227" r="68.84033613445378" fill-opacity="0" stroke="white" stroke-width="34.42016806722689" />
<rect x="3416.201680672269" y="232.3361344537815" width="361.4117647058823" height="361.4117647058823" fill="green" />
<rect x="3459.2268907563025" y="275.3613445378151" width="275.3613445378151" height="275.3613445378151" fill="black" />
<circle cx="3596.90756302521" cy="413.0420168067227" r="68.84033613445378" fill-opacity="0" stroke="white" stroke-width="34.42016806722689" />
<rect x="232.3361344537815" y="869.109243697479" width="361.4117647058823" height="361.4117647058823" fill="green" />
<rect x="275.3613445378151" y="912.1344537815125" width="275.3613445378151" height="275.3613445378151" fill="black" />
<circle cx="413.0420168067227" cy="1049.81512605042" r="68.84033613445378" fill-opacity="0" stroke="white" stroke-width="34.42016806722689" />
<rect x="869.109243697479" y="869.109243697479" width="361.4117647058823" height="361.4117647058823" fill="green" />
<rect x="912.1344537815125" y="912.1344537815125" width="275.3613445378151" height="275.3613445378151" fill="black" />
<circle cx="1049.81512605042" cy="1049.81512605042" r="68.84033613445378" fill-opacity="0" stroke="white" stroke-width="34.42016806722689" />
<rect x="1505.8823529411764" y="869.109243697479" width="361.4117647058823" height="361.4117647058823" fill="green" />
<rect x="1548.90756302521" y="912.1344537815125" width="275.3613445378151" height="275.3613445378151" fill="black" />
<circle cx="1686.5882352941176" cy="1049.81512605042" r="68.84033613445378" fill-opacity="0" stroke="white" stroke-width="34.42016806722689" />
<rect x="2142.655462184874" y="869.109243697479" width="361.4117647058823" height="361.4117647058823" fill="green" />
<rect x="2185.6806722689075" y="912.1344537815125" width="275.3613445378151" height="275.3613445378151" fill="black" />
<circle cx="2323.361344537815" cy="1049.81512605042" r="68.84033613445378" fill-opacity="0" stroke="white" stroke-width="34.42016806722689" />
<rect x="232.3361344537815" y="1505.8823529411764" width="361.4117647058823" height="361.4117647058823" fill="green" />
<rect x="275.3613445378151" y="1548.90756302521" width="275.3613445378151" height="275.3613445378151" fill="black" />
<circle cx="413.0420168067227" cy="1686.5882352941176" r="68.84033613445378" fill-opacity="0" stroke="white" stroke-width="34.42016806722689" />
<rect x="869.109243697479" y="1505.8823529411764" width="361.4117647058823" height="361.4117647058823" fill="green" />
<rect x="912.1344537815125" y="1548.90756302521" width="275.3613445378151" height="275.3613445378151" fill="black" />
<circle cx="1049.81512605042" cy="1686.5882352941176" r="68.84033613445378" fill-opacity="0" stroke="white" stroke-width="34.42016806722689" />
<rect x="1505.8823529411764" y="1505.8823529411764" width="361.4117647058823" height="361.4117647058823" fill="green" />
<rect x="1548.90756302521" y="1548.90756302521" width="275.3613445378151" height="275.3613445378151" fill="black" />
<circle cx="1686.5882352941176" cy="1686.5882352941176" r="68.84033613445378" fill-opacity="0" stroke="white" stroke-width="34.42016806722689" />
<rect x="2142.655462184874" y="1505.8823529411764" width="361.4117647058823" height="361.4117647058823" fill="green" />
<rect x="2185.6806722689075" y="1548.90756302521" width="275.3613445378151" height="275.3613445378151" fill="black" />
<circle cx="2323.361344537815" cy="1686.5882352941176" r="68.84033613445378" fill-opacity="0" stroke="white" stroke-width="34.42016806722689" />
<rect x="232.3361344537815" y="2142.655462184874" width="361.4117647058823" height="361.4117647058823" fill="green" />
<rect x="275.3613445378151" y="2185.6806722689075" width="275.3613445378151" height="275.3613445378151" fill="white" />
<circle cx="413.0420168067227" cy="2323.361344537815" r="68.84033613445378" fill-opacity="0" stroke="black" stroke-width="34.42016806722689" />
<rect x="869.109243697479" y="2142.655462184874" width="361.4117647058823" height="361.4117647058823" fill="green" />
<rect x="912.1344537815125" y="2185.6806722689075" width="275.3613445378151" height="275.3613445378151" fill="white" />
<circle cx="1049.81512605042" cy="2323.361344537815" r="68.84033613445378" fill-opacity="0" stroke="black" stroke-width="34.42016806722689" />
<rect x="1505.8823529411764" y="2142.655462184874" width="361.4117647058823" height="361.4117647058823" fill="green" />
<rect x="1548.90756302521" y="2185.6806722689075" width="275.3613445378151" height="275.3613445378151" fill="white" />
<circle cx="1686.5882352941176" cy="2323.361344537815" r="68.84033613445378" fill-opacity="0" stroke="black" stroke-width="34.42016806722689" />
<rect x="2142.655462184874" y="2142.655462184874" width="361.4117647058823" height="361.4117647058823" fill="green" />
<rect x="2185.6806722689075" y="2185.6806722689075" width="275.3613445378151" height="275.3613445378151" fill="white" />
<circle cx="2323.361344537815" cy="2323.361344537815" r="68.84033613445378" fill-opacity="0" stroke="black" stroke-width="34.42016806722689" />
<rect x="232.3361344537815" y="2779.4285714285716" width="361.4117647058823" height="361.4117647058823" fill="green" />
<rect x="275.3613445378151" y="2822.453781512605" width="275.3613445378151" height="275.3613445378151" fill="white" />
<circle cx="413.0420168067227" cy="2960.1344537815125" r="68.84033613445378" fill-opacity="0" stroke="black" stroke-width="34.42016806722689" />
<rect x="869.109243697479" y="2779.4285714285716" width="361.4117647058823" height="361.4117647058823" fill="green" />
<rect x="912.1344537815125" y="2822.453781512605" width="275.3613445378151" height="275.3613445378151" fill="white" />
<circle cx="1049.81512605042" cy="2960.1344537815125" r="68.84033613445378" fill-opacity="0" stroke="black" stroke-width="34.42016806722689" />
<rect x="1505.8823529411764" y="2779.4285714285716" width="361.4117647058823" height="361.4117647058823" fill="green" />
<rect x="1548.90756302521" y="2822.453781512605" width="275.3613445378151" height="275.3613445378151" fill="white" />
<circle cx="1686.5882352941176" cy="2960.1344537815125" r="68.84033613445378" fill-opacity="0" stroke="black" stroke-width="34.42016806722689" />
<rect x="2142.655462184874" y="2779.4285714285716" width="361.4117647058823" height="361.4117647058823" fill="green" />
<rect x="2185.6806722689075" y="2822.453781512605" width="275.3613445378151" height="275.3613445378151" fill="white" />
<circle cx="2323.361344537815" cy="2960.1344537815125" r="68.84033613445378" fill-opacity="0" stroke="black" stroke-width="34.42016806722689" />
<rect x="232.3361344537815" y="3416.201680672269" width="361.4117647058823" height="361.4117647058823" fill="green" />
<rect x="275.3613445378151" y="3459.2268907563025" width="275.3613445378151" height="275.3613445378151" fill="white" />
<circle cx="413.0420168067227" cy="3596.90756302521" r="68.84033613445378" fill-opacity="0" stroke="black" stroke-width="34.42016806722689" />
<rect x="869.109243697479" y="3416.201680672269" width="361.4117647058823" height="361.4117647058823" fill="green" />
<rect x="912.1344537815125" y="3459.2268907563025" width="275.3613445378151" height="275.3613445378151" fill="white" />
<circle cx="1049.81512605042" cy="3596.90756302521" r="68.84033613445378" fill-opacity="0" stroke="black" stroke-width="34.42016806722689" />
<rect x="1505.8823529411764" y="3416.201680672269" width="361.4117647058823" height="361.4117647058823" fill="green" />
<rect x="1548.90756302521" y="3459.2268907563025" width="275.3613445378151" height="275.3613445378151" fill="white" />
<circle cx="1686.5882352941176" cy="3596.90756302521" r="68.84033613445378" fill-opacity="0" stroke="black" stroke-width="34.42016806722689" />
<rect x="2142.655462184874" y="3416.201680672269" width="361.4117647058823" height="361.4117647058823" fill="green" />
<rect x="2185.6806722689075" y="3459.2268907563025" width="275.3613445378151" height="275.3613445378151" fill="white" />
<circle cx="2323.361344537815" cy="3596.90756302521" r="68.84033613445378" fill-opacity="0" stroke="black" stroke-width="34.42016806722689" />
<rect x="2779.4285714285716" y="3416.201680672269" width="361.4117647058823" height="361.4117647058823" fill="green" />
<rect x="2822.453781512605" y="3459.2268907563025" width="275.3613445378151" height="275.3613445378151" fill="white" />
<circle cx="2960.1344537815125" cy="3596.90756302521" r="68.84033613445378" fill-opacity="0" stroke="black" stroke-width="34.42016806722689" />
<rect x="3416.201680672269" y="3416.201680672269" width="361.4117647058823" height="361.4117647058823" fill="green" />
<rect x="3459.2268907563025" y="3459.2268907563025" width="275.3613445378151" height="275.3613445378151" fill="white" />
<circle cx="3596.90756302521" cy="3596.90756302521" r="68.84033613445378" fill-opacity="0" stroke="black" stroke-width="34.42016806722689" />
</svg>