<?xml version="1.0" encoding="UTF-8"?>
<svg xmlns="http://www.w3.org/2000/svg" xmlns:xlink="http://www.w3.org/1999/xlink"
     width="20.880000000000003cm" height="20.880000000000003cm" viewBox="0 0 4096 4096.0">
<defs>
</defs>
<rect x="0" y="0" width="4096" height="4096.0" fill="white" stroke="black" />
<rect x="313.86973180076626" y="313.86973180076626" width="313.86973180076626" height="313.86973180076626" fill="black" />
<rect x="324.90421455938696" y="324.90421455938696" width="291.80076628352487" height="291.80076628352487" stroke="white" stroke-width="22.068965517241377" />
<circle cx="470.8045977011494" cy="470.8045977011494" r="78.46743295019157" fill-opacity="0" stroke="white" stroke-width="29.425287356321835" />
<rect x="943.5708812260536" y="313.86973180076626" width="313.86973180076626" height="313.86973180076626" fill="black" />
<rect x="954.6053639846743" y="324.90421455938696" width="291.80076628352487" height="291.80076628352487" stroke="white" stroke-width="22.068965517241377" />
<circle cx="1100.5057471264367" cy="470.8045977011494" r="78.46743295019157" fill-opacity="0" stroke="white" stroke-width="29.425287356321835" />
<rect x="1573.2720306513409" y="313.86973180076626" width="313.86973180076626" height="313.86973180076626" fill="black" />
<rect x="1584.3065134099616" y="324.90421455938696" width="291.80076628352487" height="291.80076628352487" stroke="white" stroke-width="22.068965517241377" />
<circle cx="1730.206896551724" cy="470.8045977011494" r="78.46743295019157" fill-opacity="0" stroke="white" stroke-width="29.425287356321835" />
<rect x="2202.973180076628" y="313.86973180076626" width="313.86973180076626" height="313.86973180076626" fill="black" />
<rect x="2214.0076628352485" y="324.90421455938696" width="291.80076628352487" height="291.80076628352487" stroke="white" stroke-width="22.068965517241377" />
<circle cx="2359.908045977011" cy="470.8045977011494" r="78.46743295019157" fill-opacity="0" stroke="white" stroke-width="29.425287356321835" />
<rect x="2832.6743295019155" y="313.86973180076626" width="313.86973180076626" height="313.86973180076626" fill="black" />
<rect x="2843.708812260536" y="324.90421455938696" width="291.80076628352487" height="291.80076628352487" stroke="white" stroke-width="22.068965517241377" />
<path d="M3068.0766283524904,470.8045977011494 L3067.6142442431983,480.60055278640857 L3066.253921698399,490.01686046583217 L3064.072226528145,498.7105590219472 L3061.1847223753884,506.40481715455485 L3057.7310961497146,512.9062477412995 L3053.859451868165,518.108791543895 L3049.712621292367,521.986185893364 L3045.4182071390046,524.5769906054372 L3041.082827531211,525.9665003602754 L3036.790085529798,526.2690605151007 L3032.601298475694,525.6129934386104 L3028.5579304348553,524.1290853933891 L3024.6848258074506,521.9426660059185 L3020.9935948449174,519.1687884753552 L3017.4857520665737,515.9098138732587 L3014.1554078284485,512.254702934555 L3010.9914498581816,508.279422529325 L3007.9792331579306,504.0480119333853 L3005.101837760665,499.6139868393202 L3002.3409686248356,495.0218694757216 L2999.6775716466045,490.3087170814339 L2997.0922320539626,485.5055807004791 L2994.5654111104463,480.6388666350272 L2992.0775668042784,475.73159897087726 L2989.6091954022986,470.8045977011494 L2987.140824000319,465.8775964314216 L2984.652979694151,460.9703287672716 L2982.1261587506347,456.1036147018198 L2979.5408191579927,451.30047832086495 L2976.8774221797617,446.58732592657725 L2974.116553043932,441.99520856297863 L2971.2391576466666,437.56118346891355 L2968.2269409464157,433.3297728729738 L2965.0629829761488,429.35449246774385 L2961.7326387380235,425.6993815290401 L2958.22479595968,422.44040692694364 L2954.5335649971466,419.66652939638044 L2950.6604603697424,417.4801100089097 L2946.6170923289033,415.99620196368846 L2942.428305274799,415.3401348871982 L2938.135563273386,415.64269504202343 L2933.8001836655926,417.03220479686166 L2929.50576951223,419.62300950893484 L2925.3589389364324,423.50040385840384 L2921.4872946548826,428.7029476609993 L2918.033668429209,435.204378247744 L2915.146164276452,442.89863638035166 L2912.964469106198,451.59233493646667 L2911.604146561399,461.00864261589027 L2911.141762452107,470.8045977011494 L2911.604146561399,480.60055278640857 L2912.964469106198,490.01686046583217 L2915.146164276452,498.7105590219472 L2918.033668429209,506.4048171545548 L2921.4872946548826,512.9062477412995 L2925.3589389364324,518.108791543895 L2929.50576951223,521.986185893364 L2933.8001836655926,524.5769906054372 L2938.135563273386,525.9665003602754 L2942.428305274799,526.2690605151007 L2946.6170923289033,525.6129934386104 L2950.660460369742,524.1290853933891 L2954.5335649971466,521.9426660059185 L2958.22479595968,519.1687884753552 L2961.7326387380235,515.9098138732587 L2965.0629829761488,512.254702934555 L2968.2269409464157,508.279422529325 L2971.2391576466666,504.0480119333853 L2974.116553043932,499.6139868393202 L2976.8774221797617,495.0218694757216 L2979.5408191579927,490.3087170814338 L2982.1261587506347,485.505580700479 L2984.652979694151,480.6388666350273 L2987.140824000319,475.7315989708772 L2989.6091954022986,470.8045977011494 L2992.0775668042784,465.87759643142164 L2994.5654111104463,460.9703287672716 L2997.0922320539626,456.1036147018198 L2999.6775716466045,451.30047832086495 L3002.3409686248356,446.58732592657725 L3005.101837760665,441.99520856297863 L3007.9792331579306,437.5611834689136 L3010.9914498581816,433.32977287297376 L3014.1554078284485,429.35449246774385 L3017.4857520665737,425.6993815290401 L3020.9935948449174,422.4404069269437 L3024.6848258074506,419.6665293963805 L3028.557930434855,417.4801100089097 L3032.601298475694,415.99620196368846 L3036.790085529798,415.3401348871982 L3041.082827531211,415.64269504202343 L3045.4182071390046,417.0322047968616 L3049.712621292367,419.62300950893484 L3053.859451868165,423.50040385840384 L3057.7310961497146,428.7029476609993 L3061.1847223753884,435.20437824774393 L3064.072226528145,442.89863638035166 L3066.253921698399,451.5923349364666 L3067.6142442431983,461.0086426158903 Z" fill-opacity="0" stroke="white" stroke-width="29.425287356321835" />
<rect x="3462.375478927203" y="313.86973180076626" width="313.86973180076626" height="313.86973180076626" fill="black" />
<rect x="3473.4099616858234" y="324.90421455938696" width="291.80076628352487" height="291.80076628352487" stroke="white" stroke-width="22.068965517241377" />
<path d="M3697.777777777778,470.8045977011494 L3697.3153936684857,480.60055278640857 L3695.9550711236866,490.01686046583217 L3693.7733759534326,498.7105590219472 L3690.885871800676,506.40481715455485 L3687.432245575002,512.9062477412995 L3683.5606012934522,518.108791543895 L3679.4137707176546,521.986185893364 L3675.119356564292,524.5769906054372 L3670.7839769564985,525.9665003602754 L3666.4912349550855,526.2690605151007 L3662.3024479009814,525.6129934386104 L3658.2590798601427,524.1290853933891 L3654.385975232738,521.9426660059185 L3650.694744270205,519.1687884753552 L3647.186901491861,515.9098138732587 L3643.856557253736,512.254702934555 L3640.692599283469,508.279422529325 L3637.680382583218,504.0480119333853 L3634.8029871859526,499.6139868393202 L3632.042118050123,495.0218694757216 L3629.378721071892,490.3087170814339 L3626.79338147925,485.5055807004791 L3624.266560535734,480.6388666350272 L3621.778716229566,475.73159897087726 L3619.310344827586,470.8045977011494 L3616.8419734256063,465.8775964314216 L3614.3541291194383,460.9703287672716 L3611.827308175922,456.1036147018198 L3609.24196858328,451.30047832086495 L3606.578571605049,446.58732592657725 L3603.8177024692195,441.99520856297863 L3600.940307071954,437.56118346891355 L3597.928090371703,433.3297728729738 L3594.764132401436,429.35449246774385 L3591.433788163311,425.6993815290401 L3587.9259453849672,422.44040692694364 L3584.234714422434,419.66652939638044 L3580.36160979503,417.4801100089097 L3576.3182417541907,415.99620196368846 L3572.1294547000866,415.3401348871982 L3567.8367126986736,415.64269504202343 L3563.50133309088,417.03220479686166 L3559.2069189375175,419.62300950893484 L3555.06008836172,423.50040385840384 L3551.18844408017,428.7029476609993 L3547.734817854496,435.204378247744 L3544.8473137017395,442.89863638035166 L3542.6656185314855,451.59233493646667 L3541.3052959866864,461.00864261589027 L3540.8429118773943,470.8045977011494 L3541.3052959866864,480.60055278640857 L3542.6656185314855,490.01686046583217 L3544.8473137017395,498.7105590219472 L3547.734817854496,506.4048171545548 L3551.18844408017,512.9062477412995 L3555.06008836172,518.108791543895 L3559.2069189375175,521.986185893364 L3563.50133309088,524.5769906054372 L3567.8367126986736,525.9665003602754 L3572.1294547000866,526.2690605151007 L3576.3182417541907,525.6129934386104 L3580.3616097950294,524.1290853933891 L3584.234714422434,521.9426660059185 L3587.9259453849672,519.1687884753552 L3591.433788163311,515.9098138732587 L3594.764132401436,512.254702934555 L3597.928090371703,508.279422529325 L3600.940307071954,504.0480119333853 L3603.8177024692195,499.6139868393202 L3606.578571605049,495.0218694757216 L3609.24196858328,490.3087170814338 L3611.827308175922,485.505580700479 L3614.3541291194383,480.6388666350273 L3616.8419734256063,475.7315989708772 L3619.310344827586,470.8045977011494 L3621.778716229566,465.87759643142164 L3624.266560535734,460.9703287672716 L3626.79338147925,456.1036147018198 L3629.378721071892,451.30047832086495 L3632.042118050123,446.58732592657725 L3634.8029871859526,441.99520856297863 L3637.680382583218,437.5611834689136 L3640.692599283469,433.32977287297376 L3643.856557253736,429.35449246774385 L3647.186901491861,425.6993815290401 L3650.694744270205,422.4404069269437 L3654.385975232738,419.6665293963805 L3658.2590798601423,417.4801100089097 L3662.3024479009814,415.99620196368846 L3666.4912349550855,415.3401348871982 L3670.7839769564985,415.64269504202343 L3675.119356564292,417.0322047968616 L3679.4137707176546,419.62300950893484 L3683.5606012934522,423.50040385840384 L3687.432245575002,428.7029476609993 L3690.885871800676,435.20437824774393 L3693.7733759534326,442.89863638035166 L3695.9550711236866,451.5923349364666 L3697.3153936684857,461.0086426158903 Z" fill-opacity="0" stroke="white" stroke-width="29.425287356321835" />
<rect x="313.86973180076626" y="943.5708812260536" width="313.86973180076626" height="313.86973180076626" fill="black" />
<rect x="324.90421455938696" y="954.6053639846743" width="291.80076628352487" height="291.80076628352487" stroke="white" stroke-width="22.068965517241377" />
<rect x="392.3371647509578" y="1022.0383141762452" width="156.93486590038313" height="156.93486590038313" fill-opacity="0" stroke="white" stroke-width="29.425287356321835" stroke-linejoin="miter" />
<rect x="943.5708812260536" y="943.5708812260536" width="313.86973180076626" height="313.86973180076626" fill="black" />
<rect x="954.6053639846743" y="954.6053639846743" width="291.80076628352487" height="291.80076628352487" stroke="white" stroke-width="22.068965517241377" />
<rect x="1022.0383141762452" y="1022.0383141762452" width="156.93486590038313" height="156.93486590038313" fill-opacity="0" stroke="white" stroke-width="29.425287356321835" stroke-linejoin="miter" />
<rect x="1573.2720306513409" y="943.5708812260536" width="313.86973180076626" height="313.86973180076626" fill="black" />
<rect x="1584.3065134099616" y="954.6053639846743" width="291.80076628352487" height="291.80076628352487" stroke="white" stroke-width="22.068965517241377" />
<rect x="1651.7394636015324" y="1022.0383141762452" width="156.93486590038313" height="156.93486590038313" fill-opacity="0" stroke="white" stroke-width="29.425287356321835" stroke-linejoin="miter" />
<rect x="2202.973180076628" y="943.5708812260536" width="313.86973180076626" height="313.86973180076626" fill="black" />
<rect x="2214.0076628352485" y="954.6053639846743" width="291.80076628352487" height="291.80076628352487" stroke="white" stroke-width="22.068965517241377" />
<rect x="2281.44061302682" y="1022.0383141762452" width="156.93486590038313" height="156.93486590038313" fill-opacity="0" stroke="white" stroke-width="29.425287356321835" stroke-linejoin="miter" />
<rect x="313.86973180076626" y="1573.2720306513409" width="313.86973180076626" height="313.86973180076626" fill="black" />
<rect x="324.90421455938696" y="1584.3065134099616" width="291.80076628352487" height="291.80076628352487" stroke="white" stroke-width="22.068965517241377" />
<path d="M392.3371647509578,1651.7394636015324 L549.272030651341,1808.6743295019155" fill-opacity="0" stroke="white" stroke-width="29.425287356321835" stroke-linecap="butt" />
<path d="M549.272030651341,1651.7394636015324 L392.3371647509578,1808.6743295019155" fill-opacity="0" stroke="white" stroke-width="29.425287356321835" stroke-linecap="butt" />
<rect x="943.5708812260536" y="1573.2720306513409" width="313.86973180076626" height="313.86973180076626" fill="black" />
<rect x="954.6053639846743" y="1584.3065134099616" width="291.80076628352487" height="291.80076628352487" stroke="white" stroke-width="22.068965517241377" />
<path d="M1022.0383141762452,1651.7394636015324 L1178.9731800766283,1808.6743295019155" fill-opacity="0" stroke="white" stroke-width="29.425287356321835" stroke-linecap="butt" />
<path d="M1178.9731800766283,1651.7394636015324 L1022.0383141762452,1808.6743295019155" fill-opacity="0" stroke="white" stroke-width="29.425287356321835" stroke-linecap="butt" />
<rect x="1573.2720306513409" y="1573.2720306513409" width="313.86973180076626" height="313.86973180076626" fill="black" />
<rect x="1584.3065134099616" y="1584.3065134099616" width="291.80076628352487" height="291.80076628352487" stroke="white" stroke-width="22.068965517241377" />
<path d="M1651.7394636015324,1651.7394636015324 L1808.6743295019155,1808.6743295019155" fill-opacity="0" stroke="white" stroke-width="29.425287356321835" stroke-linecap="butt" />
<path d="M1808.6743295019155,1651.7394636015324 L1651.7394636015324,1808.6743295019155" fill-opacity="0" stroke="white" stroke-width="29.425287356321835" stroke-linecap="butt" />
<rect x="2202.973180076628" y="1573.2720306513409" width="313.86973180076626" height="313.86973180076626" fill="black" />
<rect x="2214.0076628352485" y="1584.3065134099616" width="291.80076628352487" height="291.80076628352487" stroke="white" stroke-width="22.068965517241377" />
<path d="M2281.44061302682,1651.7394636015324 L2438.375478927203,1808.6743295019155" fill-opacity="0" stroke="white" stroke-width="29.425287356321835" stroke-linecap="butt" />
<path d="M2438.375478927203,1651.7394636015324 L2281.44061302682,1808.6743295019155" fill-opacity="0" stroke="white" stroke-width="29.425287356321835" stroke-linecap="butt" />
<rect x="313.86973180076626" y="2202.973180076628" width="313.86973180076626" height="313.86973180076626" fill="white" />
<path d="M392.3371647509578,2281.44061302682 L549.272030651341,2438.375478927203" fill-opacity="0" stroke="black" stroke-width="29.425287356321835" stroke-linecap="butt" />
<path d="M549.272030651341,2281.44061302682 L392.3371647509578,2438.375478927203" fill-opacity="0" stroke="black" stroke-width="29.425287356321835" stroke-linecap="butt" />
<rect x="943.5708812260536" y="2202.973180076628" width="313.86973180076626" height="313.86973180076626" fill="white" />
<path d="M1022.0383141762452,2281.44061302682 L1178.9731800766283,2438.375478927203" fill-opacity="0" stroke="black" stroke-width="29.425287356321835" stroke-linecap="butt" />
<path d="M1178.9731800766283,2281.44061302682 L1022.0383141762452,2438.375478927203" fill-opacity="0" stroke="black" stroke-width="29.425287356321835" stroke-linecap="butt" />
<rect x="1573.2720306513409" y="2202.973180076628" width="313.86973180076626" height="313.86973180076626" fill="white" />
<path d="M1651.7394636015324,2281.44061302682 L1808.6743295019155,2438.375478927203" fill-opacity="0" stroke="black" stroke-width="29.425287356321835" stroke-linecap="butt" />
<path d="M1808.6743295019155,2281.44061302682 L1651.7394636015324,2438.375478927203" fill-opacity="0" stroke="black" stroke-width="29.425287356321835" stroke-linecap="butt" />
<rect x="2202.973180076628" y="2202.973180076628" width="313.86973180076626" height="313.86973180076626" fill="white" />
<path d="M2281.44061302682,2281.44061302682 L2438.375478927203,2438.375478927203" fill-opacity="0" stroke="black" stroke-width="29.425287356321835" stroke-linecap="butt" />
<path d="M2438.375478927203,2281.44061302682 L2281.44061302682,2438.375478927203" fill-opacity="0" stroke="black" stroke-width="29.425287356321835" stroke-linecap="butt" />
<rect x="313.86973180076626" y="2832.6743295019155" width="313.86973180076626" height="313.86973180076626" fill="white" />
<rect x="392.3371647509578" y="2911.1417624521073" width="156.93486590038313" height="156.93486590038313" fill-opacity="0" stroke="black" stroke-width="29.425287356321835" stroke-linejoin="miter" />
<rect x="943.5708812260536" y="2832.6743295019155" width="313.86973180076626" height="313.86973180076626" fill="white" />
<rect x="1022.0383141762452" y="2911.1417624521073" width="156.93486590038313" height="156.93486590038313" fill-opacity="0" stroke="black" stroke-width="29.425287356321835" stroke-linejoin="miter" />
<rect x="1573.2720306513409" y="2832.6743295019155" width="313.86973180076626" height="313.86973180076626" fill="white" />
<rect x="1651.7394636015324" y="2911.1417624521073" width="156.93486590038313" height="156.93486590038313" fill-opacity="0" stroke="black" stroke-width="29.425287356321835" stroke-linejoin="miter" />
<rect x="2202.973180076628" y="2832.6743295019155" width="313.86973180076626" height="313.86973180076626" fill="white" />
<rect x="2281.44061302682" y="2911.1417624521073" width="156.93486590038313" height="156.93486590038313" fill-opacity="0" stroke="black" stroke-width="29.425287356321835" stroke-linejoin="miter" />
<rect x="313.86973180076626" y="3462.375478927203" width="313.86973180076626" height="313.86973180076626" fill="white" />
<circle cx="470.8045977011494" cy="3619.310344827586" r="78.46743295019157" fill-opacity="0" stroke="black" stroke-width="29.425287356321835" />
<rect x="943.5708812260536" y="3462.375478927203" width="313.86973180076626" height="313.86973180076626" fill="white" />
<circle cx="1100.5057471264367" cy="3619.310344827586" r="78.46743295019157" fill-opacity="0" stroke="black" stroke-width="29.425287356321835" />
<rect x="1573.2720306513409" y="3462.375478927203" width="313.86973180076626" height="313.86973180076626" fill="white" />
<circle cx="1730.206896551724" cy="3619.310344827586" r="78.46743295019157" fill-opacity="0" stroke="black" stroke-width="29.425287356321835" />
<rect x="2202.973180076628" y="3462.375478927203" width="313.86973180076626" height="313.86973180076626" fill="white" />
<circle cx="2359.908045977011" cy="3619.310344827586" r="78.46743295019157" fill-opacity="0" stroke="black" stroke-width="29.425287356321835" />
<rect x="2832.6743295019155" y="3462.375478927203" width="313.86973180076626" height="313.86973180076626" fill="white" />
<path d="M3068.0766283524904,3619.310344827586 L3067.6142442431983,3629.1062999128453 L3066.253921698399,3638.5226075922687 L3064.072226528145,3647.216306148384 L3061.1847223753884,3654.9105642809914 L3057.7310961497146,3661.411994867736 L3053.859451868165,3666.6145386703315 L3049.712621292367,3670.4919330198004 L3045.4182071390046,3673.0827377318737 L3041.082827531211,3674.472247486712 L3036.790085529798,3674.7748076415373 L3032.601298475694,3674.118740565047 L3028.5579304348553,3672.6348325198255 L3024.6848258074506,3670.448413132355 L3020.9935948449174,3667.674535601792 L3017.4857520665737,3664.4155609996956 L3014.1554078284485,3660.7604500609914 L3010.9914498581816,3656.785169655762 L3007.9792331579306,3652.553759059822 L3005.101837760665,3648.119733965757 L3002.3409686248356,3643.527616602158 L2999.6775716466045,3638.8144642078705 L2997.0922320539626,3634.0113278269155 L2994.5654111104463,3629.144613761464 L2992.0775668042784,3624.237346097314 L2989.6091954022986,3619.310344827586 L2987.140824000319,3614.383343557858 L2984.652979694151,3609.476075893708 L2982.1261587506347,3604.6093618282566 L2979.5408191579927,3599.8062254473016 L2976.8774221797617,3595.093073053014 L2974.116553043932,3590.500955689415 L2971.2391576466666,3586.06693059535 L2968.2269409464157,3581.8355199994103 L2965.0629829761488,3577.8602395941807 L2961.7326387380235,3574.2051286554765 L2958.22479595968,3570.9461540533803 L2954.5335649971466,3568.172276522817 L2950.6604603697424,3565.9858571353466 L2946.6170923289033,3564.501949090125 L2942.428305274799,3563.8458820136348 L2938.135563273386,3564.14844216846 L2933.8001836655926,3565.5379519232984 L2929.50576951223,3568.1287566353717 L2925.3589389364324,3572.0061509848406 L2921.4872946548826,3577.208694787436 L2918.033668429209,3583.7101253741807 L2915.146164276452,3591.4043835067882 L2912.964469106198,3600.0980820629034 L2911.604146561399,3609.514389742327 L2911.141762452107,3619.310344827586 L2911.604146561399,3629.1062999128453 L2912.964469106198,3638.5226075922687 L2915.146164276452,3647.216306148384 L2918.033668429209,3654.9105642809914 L2921.4872946548826,3661.411994867736 L2925.3589389364324,3666.6145386703315 L2929.50576951223,3670.4919330198004 L2933.8001836655926,3673.0827377318737 L2938.135563273386,3674.472247486712 L2942.428305274799,3674.7748076415373 L2946.6170923289033,3674.118740565047 L2950.660460369742,3672.634832519826 L2954.5335649971466,3670.448413132355 L2958.22479595968,3667.674535601792 L2961.7326387380235,3664.4155609996956 L2965.0629829761488,3660.7604500609914 L2968.2269409464157,3656.785169655762 L2971.2391576466666,3652.553759059822 L2974.116553043932,3648.119733965757 L2976.8774221797617,3643.527616602158 L2979.5408191579927,3638.8144642078705 L2982.1261587506347,3634.0113278269155 L2984.652979694151,3629.144613761464 L2987.140824000319,3624.237346097314 L2989.6091954022986,3619.310344827586 L2992.0775668042784,3614.383343557858 L2994.5654111104463,3609.476075893708 L2997.0922320539626,3604.6093618282566 L2999.6775716466045,3599.8062254473016 L3002.3409686248356,3595.093073053014 L3005.101837760665,3590.500955689415 L3007.9792331579306,3586.06693059535 L3010.9914498581816,3581.8355199994103 L3014.1554078284485,3577.8602395941807 L3017.4857520665737,3574.2051286554765 L3020.9935948449174,3570.9461540533803 L3024.6848258074506,3568.172276522817 L3028.557930434855,3565.9858571353466 L3032.601298475694,3564.501949090125 L3036.790085529798,3563.8458820136348 L3041.082827531211,3564.14844216846 L3045.4182071390046,3565.5379519232984 L3049.712621292367,3568.1287566353712 L3053.859451868165,3572.0061509848406 L3057.7310961497146,3577.208694787436 L3061.1847223753884,3583.7101253741807 L3064.072226528145,3591.4043835067882 L3066.253921698399,3600.0980820629034 L3067.6142442431983,3609.514389742327 Z" fill-opacity="0" stroke="black" stroke-width="29.425287356321835" />
<rect x="3462.375478927203" y="3462.375478927203" width="313.86973180076626" height="313.86973180076626" fill="white" />
<path d="M3697.777777777778,3619.310344827586 L3697.3153936684857,3629.1062999128453 L3695.9550711236866,3638.5226075922687 L3693.7733759534326,3647.216306148384 L3690.885871800676,3654.9105642809914 L3687.432245575002,3661.411994867736 L3683.5606012934522,3666.6145386703315 L3679.4137707176546,3670.4919330198004 L3675.119356564292,3673.0827377318737 L3670.7839769564985,3674.472247486712 L3666.4912349550855,3674.7748076415373 L3662.3024479009814,3674.118740565047 L3658.2590798601427,3672.6348325198255 L3654.385975232738,3670.448413132355 L3650.694744270205,3667.674535601792 L3647.186901491861,3664.4155609996956 L3643.856557253736,3660.7604500609914 L3640.692599283469,3656.785169655762 L3637.680382583218,3652.553759059822 L3634.8029871859526,3648.119733965757 L3632.042118050123,3643.527616602158 L3629.378721071892,3638.8144642078705 L3626.79338147925,3634.0113278269155 L3624.266560535734,3629.144613761464 L3621.778716229566,3624.237346097314 L3619.310344827586,3619.310344827586 L3616.8419734256063,3614.383343557858 L3614.3541291194383,3609.476075893708 L3611.827308175922,3604.6093618282566 L3609.24196858328,3599.8062254473016 L3606.578571605049,3595.093073053014 L3603.8177024692195,3590.500955689415 L3600.940307071954,3586.06693059535 L3597.928090371703,3581.8355199994103 L3594.764132401436,3577.8602395941807 L3591.433788163311,3574.2051286554765 L3587.9259453849672,3570.9461540533803 L3584.234714422434,3568.172276522817 L3580.36160979503,3565.9858571353466 L3576.3182417541907,3564.501949090125 L3572.1294547000866,3563.8458820136348 L3567.8367126986736,3564.14844216846 L3563.50133309088,3565.5379519232984 L3559.2069189375175,3568.1287566353717 L3555.06008836172,3572.0061509848406 L3551.18844408017,3577.208694787436 L3547.734817854496,3583.7101253741807 L3544.8473137017395,3591.4043835067882 L3542.6656185314855,3600.0980820629034 L3541.3052959866864,3609.514389742327 L3540.8429118773943,3619.310344827586 L3541.3052959866864,3629.1062999128453 L3542.6656185314855,3638.5226075922687 L3544.8473137017395,3647.216306148384 L3547.734817854496,3654.9105642809914 L3551.18844408017,3661.411994867736 L3555.06008836172,3666.6145386703315 L3559.2069189375175,3670.4919330198004 L3563.50133309088,3673.0827377318737 L3567.8367126986736,3674.472247486712 L3572.1294547000866,3674.7748076415373 L3576.3182417541907,3674.118740565047 L3580.3616097950294,3672.634832519826 L3584.234714422434,3670.448413132355 L3587.9259453849672,3667.674535601792 L3591.433788163311,3664.4155609996956 L3594.764132401436,3660.7604500609914 L3597.928090371703,3656.785169655762 L3600.940307071954,3652.553759059822 L3603.8177024692195,3648.119733965757 L3606.578571605049,3643.527616602158 L3609.24196858328,3638.8144642078705 L3611.827308175922,3634.0113278269155 L3614.3541291194383,3629.144613761464 L3616.8419734256063,3624.237346097314 L3619.310344827586,3619.310344827586 L3621.778716229566,3614.383343557858 L3624.266560535734,3609.476075893708 L3626.79338147925,3604.6093618282566 L3629.378721071892,3599.8062254473016 L3632.042118050123,3595.093073053014 L3634.8029871859526,3590.500955689415 L3637.680382583218,3586.06693059535 L3640.692599283469,3581.8355199994103 L3643.856557253736,3577.8602395941807 L3647.186901491861,3574.2051286554765 L3650.694744270205,3570.9461540533803 L3654.385975232738,3568.172276522817 L3658.2590798601423,3565.9858571353466 L3662.3024479009814,3564.501949090125 L3666.4912349550855,3563.8458820136348 L3670.7839769564985,3564.14844216846 L3675.119356564292,3565.5379519232984 L3679.4137707176546,3568.1287566353712 L3683.5606012934522,3572.0061509848406 L3687.432245575002,3577.208694787436 L3690.885871800676,3583.7101253741807 L3693.7733759534326,3591.4043835067882 L3695.9550711236866,3600.0980820629034 L3697.3153936684857,3609.514389742327 Z" fill-opacity="0" stroke="black" stroke-width="29.425287356321835" />
</svg>