<?xml version="1.0" encoding="UTF-8"?>
<svg xmlns="http://www.w3.org/2000/svg" xmlns:xlink="http://www.w3.org/1999/xlink"
     width="24.0cm" height="22.516660498395407cm" viewBox="-2048.0 -1921.4216958630748 4096 3842.8433917261495">
<defs>
</defs>
<rect x="-2048.0" y="-1921.4216958630748" width="4096" height="3842.8433917261495" fill="#BF9B7A" />
<path d="M-1024.0000000000002,1182.4133513003535 L-1280.0000000000002,1034.6116823878094 L-1536.0000000000002,1182.4133513003535 L-1536.0000000000002,1478.0166891254419 L-1280.0000000000002,1625.8183580379862 L-1024.0000000000002,1478.016689125442 Z" fill-opacity="0.2" stroke="black" stroke-width="4.266666666666667" />
<path d="M-512.0000000000002,1182.4133513003535 L-768.0000000000002,1034.6116823878094 L-1024.0000000000002,1182.4133513003535 L-1024.0000000000002,1478.0166891254419 L-768.0000000000002,1625.8183580379862 L-512.0000000000002,1478.016689125442 Z" fill-opacity="0.2" stroke="black" stroke-width="4.266666666666667" />
<path d="M-1.7053025658242404e-13,1182.4133513003535 L-256.0000000000002,1034.6116823878094 L-512.0000000000002,1182.4133513003535 L-512.0000000000002,1478.0166891254419 L-256.0000000000003,1625.8183580379862 L-2.8421709430404007e-13,1478.016689125442 Z" fill-opacity="0.2" stroke="black" stroke-width="4.266666666666667" />
<path d="M511.99999999999983,1182.4133513003535 L255.9999999999998,1034.6116823878094 L-2.2737367544323206e-13,1182.4133513003535 L-2.8421709430404007e-13,1478.0166891254419 L255.99999999999972,1625.8183580379862 L511.9999999999997,1478.016689125442 Z" fill-opacity="0.2" stroke="black" stroke-width="4.266666666666667" />
<path d="M1023.9999999999998,1182.4133513003535 L767.9999999999998,1034.6116823878094 L511.9999999999998,1182.4133513003535 L511.9999999999997,1478.0166891254419 L767.9999999999998,1625.8183580379862 L1023.9999999999998,1478.016689125442 Z" fill-opacity="0.2" stroke="black" stroke-width="4.266666666666667" />
<path d="M1535.9999999999998,1182.4133513003535 L1279.9999999999998,1034.6116823878094 L1023.9999999999998,1182.4133513003535 L1023.9999999999998,1478.0166891254419 L1279.9999999999998,1625.8183580379862 L1535.9999999999998,1478.016689125442 Z" fill-opacity="0.2" stroke="black" stroke-width="4.266666666666667" />
<path d="M-1280.0,739.0083445627209 L-1536.0,591.2066756501767 L-1792.0,739.0083445627208 L-1792.0,1034.6116823878092 L-1536.0,1182.4133513003535 L-1280.0,1034.6116823878094 Z" fill-opacity="0.2" stroke="black" stroke-width="4.266666666666667" />
<path d="M-768.0,739.0083445627209 L-1024.0,591.2066756501767 L-1280.0,739.0083445627208 L-1280.0,1034.6116823878092 L-1024.0,1182.4133513003535 L-768.0,1034.6116823878094 Z" fill-opacity="0.0" stroke="black" stroke-width="4.266666666666667" />
<path d="M-256.00000000000006,739.0083445627209 L-512.0000000000001,591.2066756501767 L-768.0000000000001,739.0083445627208 L-768.0000000000002,1034.6116823878092 L-512.0000000000001,1182.4133513003535 L-256.00000000000017,1034.6116823878094 Z" fill-opacity="0.0" stroke="black" stroke-width="4.266666666666667" />
<path d="M255.99999999999994,739.0083445627209 L-9.558635364737762e-14,591.2066756501767 L-256.0000000000001,739.0083445627208 L-256.00000000000017,1034.6116823878092 L-1.6798828994433128e-13,1182.4133513003535 L255.99999999999983,1034.6116823878094 Z" fill-opacity="0.0" stroke="black" stroke-width="4.266666666666667" />
<path d="M768.0,739.0083445627209 L511.9999999999999,591.2066756501767 L255.9999999999999,739.0083445627208 L255.99999999999983,1034.6116823878092 L511.99999999999983,1182.4133513003535 L767.9999999999998,1034.6116823878094 Z" fill-opacity="0.0" stroke="black" stroke-width="4.266666666666667" />
<path d="M1280.0,739.0083445627209 L1023.9999999999999,591.2066756501767 L767.9999999999999,739.0083445627208 L767.9999999999998,1034.6116823878092 L1023.9999999999999,1182.4133513003535 L1279.9999999999998,1034.6116823878094 Z" fill-opacity="0.0" stroke="black" stroke-width="4.266666666666667" />
<path d="M1792.0,739.0083445627209 L1536.0,591.2066756501767 L1280.0,739.0083445627208 L1280.0,1034.6116823878092 L1536.0,1182.4133513003535 L1792.0,1034.6116823878094 Z" fill-opacity="0.2" stroke="black" stroke-width="4.266666666666667" />
<path d="M-1024.0,295.6033378250884 L-1280.0,147.80166891254413 L-1536.0,295.60333782508826 L-1536.0,591.2066756501767 L-1280.0,739.008344562721 L-1024.0,591.206675650177 Z" fill-opacity="0.2" stroke="black" stroke-width="4.266666666666667" />
<path d="M-511.99999999999994,295.6033378250884 L-768.0,147.80166891254413 L-1024.0,295.60333782508826 L-1024.0,591.2066756501767 L-768.0,739.008344562721 L-512.0,591.206675650177 Z" fill-opacity="0.0" stroke="black" stroke-width="4.266666666666667" />
<path d="M0.0,295.6033378250884 L-256.00000000000006,147.80166891254413 L-512.0,295.60333782508826 L-512.0000000000001,591.2066756501767 L-256.0000000000001,739.008344562721 L-1.1368683772161603e-13,591.206675650177 Z" fill-opacity="0.2" stroke="black" stroke-width="4.266666666666667" />
<path d="M512.0,295.6033378250884 L255.99999999999997,147.80166891254413 L-5.684341886080802e-14,295.60333782508826 L-1.1368683772161603e-13,591.2066756501767 L255.9999999999999,739.008344562721 L511.9999999999999,591.206675650177 Z" fill-opacity="0.2" stroke="black" stroke-width="4.266666666666667" />
<path d="M1024.0,295.6033378250884 L768.0,147.80166891254413 L512.0,295.60333782508826 L511.99999999999994,591.2066756501767 L768.0,739.008344562721 L1024.0,591.206675650177 Z" fill-opacity="0.0" stroke="black" stroke-width="4.266666666666667" />
<path d="M1536.0,295.6033378250884 L1280.0,147.80166891254413 L1024.0,295.60333782508826 L1024.0,591.2066756501767 L1280.0,739.008344562721 L1536.0,591.206675650177 Z" fill-opacity="0.2" stroke="black" stroke-width="4.266666666666667" />
<path d="M-1280.0,-147.8016689125442 L-1536.0,-295.60333782508843 L-1792.0,-147.8016689125443 L-1792.0,147.80166891254413 L-1536.0,295.60333782508843 L-1280.0,147.80166891254436 Z" fill-opacity="0.2" stroke="black" stroke-width="4.266666666666667" />
<path d="M-768.0,-147.8016689125442 L-1024.0,-295.60333782508843 L-1280.0,-147.8016689125443 L-1280.0,147.80166891254413 L-1024.0,295.60333782508843 L-768.0,147.80166891254436 Z" fill-opacity="0.0" stroke="black" stroke-width="4.266666666666667" />
<path d="M-255.99999999999994,-147.8016689125442 L-512.0,-295.60333782508843 L-768.0,-147.8016689125443 L-768.0,147.80166891254413 L-512.0,295.60333782508843 L-256.00000000000006,147.80166891254436 Z" fill-opacity="0.2" stroke="black" stroke-width="4.266666666666667" />
<path d="M256.00000000000006,-147.8016689125442 L1.8100484074238413e-14,-295.60333782508843 L-256.0,-147.8016689125443 L-256.00000000000006,147.80166891254413 L-5.4301452222715234e-14,295.60333782508843 L255.99999999999994,147.80166891254436 Z" fill-opacity="0.0" stroke="black" stroke-width="4.266666666666667" />
<path d="M768.0,-147.8016689125442 L512.0,-295.60333782508843 L256.0,-147.8016689125443 L255.99999999999994,147.80166891254413 L511.99999999999994,295.60333782508843 L768.0,147.80166891254436 Z" fill-opacity="0.2" stroke="black" stroke-width="4.266666666666667" />
<path d="M1280.0,-147.8016689125442 L1024.0,-295.60333782508843 L768.0,-147.8016689125443 L768.0,147.80166891254413 L1024.0,295.60333782508843 L1280.0,147.80166891254436 Z" fill-opacity="0.0" stroke="black" stroke-width="4.266666666666667" />
<path d="M1792.0,-147.8016689125442 L1536.0,-295.60333782508843 L1280.0,-147.8016689125443 L1280.0,147.80166891254413 L1536.0,295.60333782508843 L1792.0,147.80166891254436 Z" fill-opacity="0.2" stroke="black" stroke-width="4.266666666666667" />
<path d="M-1024.0,-591.2066756501767 L-1280.0,-739.008344562721 L-1536.0,-591.2066756501769 L-1536.0,-295.60333782508843 L-1280.0,-147.80166891254413 L-1024.0,-295.6033378250882 Z" fill-opacity="0.2" stroke="black" stroke-width="4.266666666666667" />
<path d="M-511.99999999999994,-591.2066756501767 L-768.0,-739.008344562721 L-1024.0,-591.2066756501769 L-1024.0,-295.60333782508843 L-768.0,-147.80166891254413 L-512.0,-295.6033378250882 Z" fill-opacity="0.0" stroke="black" stroke-width="4.266666666666667" />
<path d="M1.1368683772161603e-13,-591.2066756501767 L-255.99999999999991,-739.008344562721 L-511.99999999999994,-591.2066756501769 L-512.0,-295.60333782508843 L-256.0,-147.80166891254413 L0.0,-295.6033378250882 Z" fill-opacity="0.2" stroke="black" stroke-width="4.266666666666667" />
<path d="M512.0000000000001,-591.2066756501767 L256.00000000000006,-739.008344562721 L5.684341886080802e-14,-591.2066756501769 L0.0,-295.60333782508843 L256.0,-147.80166891254413 L512.0,-295.6033378250882 Z" fill-opacity="0.2" stroke="black" stroke-width="4.266666666666667" />
<path d="M1024.0,-591.2066756501767 L768.0,-739.008344562721 L512.0,-591.2066756501769 L511.99999999999994,-295.60333782508843 L768.0,-147.80166891254413 L1024.0,-295.6033378250882 Z" fill-opacity="0.0" stroke="black" stroke-width="4.266666666666667" />
<path d="M1536.0,-591.2066756501767 L1280.0,-739.008344562721 L1024.0,-591.2066756501769 L1024.0,-295.60333782508843 L1280.0,-147.80166891254413 L1536.0,-295.6033378250882 Z" fill-opacity="0.2" stroke="black" stroke-width="4.266666666666667" />
<path d="M-1280.0,-1034.6116823878092 L-1536.0,-1182.4133513003535 L-1792.0,-1034.6116823878094 L-1792.0,-739.008344562721 L-1536.0,-591.2066756501767 L-1280.0,-739.0083445627208 Z" fill-opacity="0.2" stroke="black" stroke-width="4.266666666666667" />
<path d="M-767.9999999999998,-1034.6116823878092 L-1023.9999999999999,-1182.4133513003535 L-1280.0,-1034.6116823878094 L-1280.0,-739.008344562721 L-1023.9999999999999,-591.2066756501767 L-768.0,-739.0083445627208 Z" fill-opacity="0.0" stroke="black" stroke-width="4.266666666666667" />
<path d="M-255.99999999999983,-1034.6116823878092 L-511.9999999999999,-1182.4133513003535 L-767.9999999999999,-1034.6116823878094 L-768.0,-739.008344562721 L-511.99999999999994,-591.2066756501767 L-255.99999999999994,-739.0083445627208 Z" fill-opacity="0.0" stroke="black" stroke-width="4.266666666666667" />
<path d="M256.00000000000017,-1034.6116823878092 L1.3178732179585444e-13,-1182.4133513003535 L-255.9999999999999,-1034.6116823878094 L-255.99999999999994,-739.008344562721 L5.93853854989008e-14,-591.2066756501767 L256.00000000000006,-739.0083445627208 Z" fill-opacity="0.0" stroke="black" stroke-width="4.266666666666667" />
<path d="M768.0000000000002,-1034.6116823878092 L512.0000000000001,-1182.4133513003535 L256.0000000000001,-1034.6116823878094 L256.00000000000006,-739.008344562721 L512.0000000000001,-591.2066756501767 L768.0,-739.0083445627208 Z" fill-opacity="0.0" stroke="black" stroke-width="4.266666666666667" />
<path d="M1280.0,-1034.6116823878092 L1024.0,-1182.4133513003535 L768.0,-1034.6116823878094 L768.0,-739.008344562721 L1024.0,-591.2066756501767 L1280.0,-739.0083445627208 Z" fill-opacity="0.0" stroke="black" stroke-width="4.266666666666667" />
<path d="M1792.0,-1034.6116823878092 L1536.0,-1182.4133513003535 L1280.0,-1034.6116823878094 L1280.0,-739.008344562721 L1536.0,-591.2066756501767 L1792.0,-739.0083445627208 Z" fill-opacity="0.2" stroke="black" stroke-width="4.266666666666667" />
<path d="M-1023.9999999999998,-1478.016689125442 L-1279.9999999999998,-1625.8183580379862 L-1535.9999999999998,-1478.016689125442 L-1535.9999999999998,-1182.4133513003537 L-1279.9999999999998,-1034.6116823878094 L-1023.9999999999998,-1182.4133513003535 Z" fill-opacity="0.2" stroke="black" stroke-width="4.266666666666667" />
<path d="M-511.9999999999997,-1478.016689125442 L-767.9999999999998,-1625.8183580379862 L-1023.9999999999998,-1478.016689125442 L-1023.9999999999998,-1182.4133513003537 L-767.9999999999998,-1034.6116823878094 L-511.99999999999983,-1182.4133513003535 Z" fill-opacity="0.2" stroke="black" stroke-width="4.266666666666667" />
<path d="M2.8421709430404007e-13,-1478.016689125442 L-255.99999999999974,-1625.8183580379862 L-511.9999999999998,-1478.016689125442 L-511.99999999999983,-1182.4133513003537 L-255.99999999999983,-1034.6116823878094 L1.7053025658242404e-13,-1182.4133513003535 Z" fill-opacity="0.2" stroke="black" stroke-width="4.266666666666667" />
<path d="M512.0000000000002,-1478.016689125442 L256.0000000000002,-1625.8183580379862 L2.2737367544323206e-13,-1478.016689125442 L1.7053025658242404e-13,-1182.4133513003537 L256.00000000000017,-1034.6116823878094 L512.0000000000002,-1182.4133513003535 Z" fill-opacity="0.2" stroke="black" stroke-width="4.266666666666667" />
<path d="M1024.0000000000002,-1478.016689125442 L768.0000000000002,-1625.8183580379862 L512.0000000000002,-1478.016689125442 L512.0000000000002,-1182.4133513003537 L768.0000000000002,-1034.6116823878094 L1024.0000000000002,-1182.4133513003535 Z" fill-opacity="0.2" stroke="black" stroke-width="4.266666666666667" />
<path d="M1536.0000000000002,-1478.016689125442 L1280.0000000000002,-1625.8183580379862 L1024.0000000000002,-1478.016689125442 L1024.0000000000002,-1182.4133513003537 L1280.0000000000002,-1034.6116823878094 L1536.0000000000002,-1182.4133513003535 Z" fill-opacity="0.2" stroke="black" stroke-width="4.266666666666667" />
</svg>