<?xml version="1.0" encoding="UTF-8"?>
<svg xmlns="http://www.w3.org/2000/svg" xmlns:xlink="http://www.w3.org/1999/xlink"
     width="24.0cm" height="22.516660498395407cm" viewBox="-2048.0 -1921.4216958630748 4096 3842.8433917261495">
<defs>
</defs>
<rect x="-2048.0" y="-1921.4216958630748" width="4096" height="3842.8433917261495" fill="#BF9B7A" />
<path d="M-1049.6000000000001,1197.193518191608 L-1280.0000000000002,1064.1720161703183 L-1510.4,1197.1935181916078 L-1510.4000000000003,1463.2365222341875 L-1280.0000000000002,1596.2580242554773 L-1049.6000000000004,1463.2365222341878 Z" fill-opacity="0.1" stroke="black" stroke-width="4.266666666666667" />
<path d="M-537.6000000000001,1197.193518191608 L-768.0000000000002,1064.1720161703183 L-998.4000000000002,1197.1935181916078 L-998.4000000000003,1463.2365222341875 L-768.0000000000002,1596.2580242554773 L-537.6000000000003,1463.2365222341878 Z" fill-opacity="0.1" stroke="black" stroke-width="4.266666666666667" />
<path d="M-25.600000000000193,1197.193518191608 L-256.0000000000002,1064.1720161703183 L-486.4000000000002,1197.1935181916078 L-486.4000000000003,1463.2365222341875 L-256.0000000000003,1596.2580242554773 L-25.60000000000028,1463.2365222341878 Z" fill-opacity="0.1" stroke="black" stroke-width="4.266666666666667" />
<path d="M486.3999999999998,1197.193518191608 L255.9999999999998,1064.1720161703183 L25.599999999999795,1197.1935181916078 L25.59999999999971,1463.2365222341875 L255.99999999999972,1596.2580242554773 L486.39999999999975,1463.2365222341878 Z" fill-opacity="0.1" stroke="black" stroke-width="4.266666666666667" />
<path d="M998.3999999999999,1197.193518191608 L767.9999999999998,1064.1720161703183 L537.5999999999998,1197.1935181916078 L537.5999999999997,1463.2365222341875 L767.9999999999998,1596.2580242554773 L998.3999999999997,1463.2365222341878 Z" fill-opacity="0.1" stroke="black" stroke-width="4.266666666666667" />
<path d="M1510.3999999999999,1197.193518191608 L1279.9999999999998,1064.1720161703183 L1049.6,1197.1935181916078 L1049.5999999999997,1463.2365222341875 L1279.9999999999998,1596.2580242554773 L1510.3999999999996,1463.2365222341878 Z" fill-opacity="0.1" stroke="black" stroke-width="4.266666666666667" />
<path d="M-1305.6,753.7885114539754 L-1536.0,620.7670094326855 L-1766.4,753.7885114539753 L-1766.4,1019.8315154965549 L-1536.0,1152.8530175178448 L-1305.6000000000001,1019.8315154965551 Z" fill-opacity="0.1" stroke="black" stroke-width="4.266666666666667" />
<path d="M-793.5999999999999,753.7885114539754 L-1024.0,620.7670094326855 L-1254.4,753.7885114539753 L-1254.4,1019.8315154965549 L-1024.0,1152.8530175178448 L-793.6,1019.8315154965551 Z" fill-opacity="0.2" stroke="black" stroke-width="4.266666666666667" />
<path d="M-281.6000000000001,753.7885114539754 L-512.0000000000001,620.7670094326855 L-742.4000000000001,753.7885114539753 L-742.4000000000002,1019.8315154965549 L-512.0000000000001,1152.8530175178448 L-281.60000000000014,1019.8315154965551 Z" fill-opacity="0.2" stroke="black" stroke-width="4.266666666666667" />
<path d="M230.39999999999992,753.7885114539754 L-9.739640205480146e-14,620.7670094326855 L-230.4000000000001,753.7885114539753 L-230.40000000000018,1019.8315154965549 L-1.6255814472205976e-13,1152.8530175178448 L230.39999999999984,1019.8315154965551 Z" fill-opacity="0.2" stroke="black" stroke-width="4.266666666666667" />
<path d="M742.3999999999999,753.7885114539754 L511.9999999999999,620.7670094326855 L281.5999999999999,753.7885114539753 L281.5999999999998,1019.8315154965549 L511.99999999999983,1152.8530175178448 L742.3999999999999,1019.8315154965551 Z" fill-opacity="0.2" stroke="black" stroke-width="4.266666666666667" />
<path d="M1254.3999999999999,753.7885114539754 L1023.9999999999999,620.7670094326855 L793.5999999999999,753.7885114539753 L793.5999999999998,1019.8315154965549 L1023.9999999999999,1152.8530175178448 L1254.3999999999999,1019.8315154965551 Z" fill-opacity="0.2" stroke="black" stroke-width="4.266666666666667" />
<path d="M1766.4,753.7885114539754 L1536.0,620.7670094326855 L1305.6,753.7885114539753 L1305.6,1019.8315154965549 L1536.0,1152.8530175178448 L1766.3999999999999,1019.8315154965551 Z" fill-opacity="0.1" stroke="black" stroke-width="4.266666666666667" />
<path d="M-1049.6,310.3835047163428 L-1280.0,177.36200269505298 L-1510.4,310.3835047163427 L-1510.4,576.4265087589223 L-1280.0,709.4480107802121 L-1049.6000000000001,576.4265087589224 Z" fill-opacity="0.1" stroke="black" stroke-width="4.266666666666667" />
<path d="M-537.5999999999999,310.3835047163428 L-768.0,177.36200269505298 L-998.4,310.3835047163427 L-998.4000000000001,576.4265087589223 L-768.0,709.4480107802121 L-537.6,576.4265087589224 Z" fill-opacity="0.2" stroke="black" stroke-width="4.266666666666667" />
<path d="M-25.600000000000023,310.3835047163428 L-256.00000000000006,177.36200269505298 L-486.40000000000003,310.3835047163427 L-486.4000000000001,576.4265087589223 L-256.0000000000001,709.4480107802121 L-25.600000000000108,576.4265087589224 Z" fill-opacity="0.1" stroke="black" stroke-width="4.266666666666667" />
<path d="M486.4,310.3835047163428 L255.99999999999997,177.36200269505298 L25.599999999999966,310.3835047163427 L25.59999999999988,576.4265087589223 L255.9999999999999,709.4480107802121 L486.39999999999986,576.4265087589224 Z" fill-opacity="0.1" stroke="black" stroke-width="4.266666666666667" />
<path d="M998.4000000000001,310.3835047163428 L768.0,177.36200269505298 L537.6,310.3835047163427 L537.5999999999999,576.4265087589223 L768.0,709.4480107802121 L998.4,576.4265087589224 Z" fill-opacity="0.2" stroke="black" stroke-width="4.266666666666667" />
<path d="M1510.4,310.3835047163428 L1280.0,177.36200269505298 L1049.6,310.3835047163427 L1049.6,576.4265087589223 L1280.0,709.4480107802121 L1510.3999999999999,576.4265087589224 Z" fill-opacity="0.1" stroke="black" stroke-width="4.266666666666667" />
<path d="M-1305.6,-133.02150202128976 L-1536.0,-266.0430040425796 L-1766.4,-133.02150202128988 L-1766.4,133.0215020212897 L-1536.0,266.0430040425796 L-1305.6000000000001,133.0215020212899 Z" fill-opacity="0.1" stroke="black" stroke-width="4.266666666666667" />
<path d="M-793.5999999999999,-133.02150202128976 L-1024.0,-266.0430040425796 L-1254.4,-133.02150202128988 L-1254.4,133.0215020212897 L-1024.0,266.0430040425796 L-793.6,133.0215020212899 Z" fill-opacity="0.2" stroke="black" stroke-width="4.266666666666667" />
<path d="M-281.59999999999997,-133.02150202128976 L-512.0,-266.0430040425796 L-742.4,-133.02150202128988 L-742.4000000000001,133.0215020212897 L-512.0,266.0430040425796 L-281.6,133.0215020212899 Z" fill-opacity="0.1" stroke="black" stroke-width="4.266666666666667" />
<path d="M230.40000000000003,-133.02150202128976 L1.629043566681457e-14,-266.0430040425796 L-230.39999999999998,-133.02150202128988 L-230.40000000000006,133.0215020212897 L-4.8871307000443714e-14,266.0430040425796 L230.39999999999995,133.0215020212899 Z" fill-opacity="0.2" stroke="black" stroke-width="4.266666666666667" />
<path d="M742.4000000000001,-133.02150202128976 L512.0,-266.0430040425796 L281.6,-133.02150202128988 L281.5999999999999,133.0215020212897 L511.99999999999994,266.0430040425796 L742.4,133.0215020212899 Z" fill-opacity="0.1" stroke="black" stroke-width="4.266666666666667" />
<path d="M1254.4,-133.02150202128976 L1024.0,-266.0430040425796 L793.6,-133.02150202128988 L793.5999999999999,133.0215020212897 L1024.0,266.0430040425796 L1254.3999999999999,133.0215020212899 Z" fill-opacity="0.2" stroke="black" stroke-width="4.266666666666667" />
<path d="M1766.4,-133.02150202128976 L1536.0,-266.0430040425796 L1305.6,-133.02150202128988 L1305.6,133.0215020212897 L1536.0,266.0430040425796 L1766.3999999999999,133.0215020212899 Z" fill-opacity="0.1" stroke="black" stroke-width="4.266666666666667" />
<path d="M-1049.6,-576.4265087589223 L-1280.0,-709.4480107802121 L-1510.4,-576.4265087589224 L-1510.4,-310.3835047163428 L-1280.0,-177.36200269505298 L-1049.6000000000001,-310.38350471634266 Z" fill-opacity="0.1" stroke="black" stroke-width="4.266666666666667" />
<path d="M-537.5999999999999,-576.4265087589223 L-768.0,-709.4480107802121 L-998.4,-576.4265087589224 L-998.4000000000001,-310.3835047163428 L-768.0,-177.36200269505298 L-537.6,-310.38350471634266 Z" fill-opacity="0.2" stroke="black" stroke-width="4.266666666666667" />
<path d="M-25.59999999999991,-576.4265087589223 L-255.99999999999991,-709.4480107802121 L-486.3999999999999,-576.4265087589224 L-486.4,-310.3835047163428 L-256.0,-177.36200269505298 L-25.599999999999994,-310.38350471634266 Z" fill-opacity="0.1" stroke="black" stroke-width="4.266666666666667" />
<path d="M486.4000000000001,-576.4265087589223 L256.00000000000006,-709.4480107802121 L25.60000000000008,-576.4265087589224 L25.599999999999994,-310.3835047163428 L256.0,-177.36200269505298 L486.4,-310.38350471634266 Z" fill-opacity="0.1" stroke="black" stroke-width="4.266666666666667" />
<path d="M998.4000000000001,-576.4265087589223 L768.0,-709.4480107802121 L537.6,-576.4265087589224 L537.5999999999999,-310.3835047163428 L768.0,-177.36200269505298 L998.4,-310.38350471634266 Z" fill-opacity="0.2" stroke="black" stroke-width="4.266666666666667" />
<path d="M1510.4,-576.4265087589223 L1280.0,-709.4480107802121 L1049.6,-576.4265087589224 L1049.6,-310.3835047163428 L1280.0,-177.36200269505298 L1510.3999999999999,-310.38350471634266 Z" fill-opacity="0.1" stroke="black" stroke-width="4.266666666666667" />
<path d="M-1305.6,-1019.8315154965549 L-1536.0,-1152.8530175178448 L-1766.4,-1019.831515496555 L-1766.4,-753.7885114539754 L-1536.0,-620.7670094326855 L-1305.6000000000001,-753.7885114539752 Z" fill-opacity="0.1" stroke="black" stroke-width="4.266666666666667" />
<path d="M-793.5999999999999,-1019.8315154965549 L-1023.9999999999999,-1152.8530175178448 L-1254.3999999999999,-1019.831515496555 L-1254.3999999999999,-753.7885114539754 L-1023.9999999999999,-620.7670094326855 L-793.5999999999999,-753.7885114539752 Z" fill-opacity="0.2" stroke="black" stroke-width="4.266666666666667" />
<path d="M-281.59999999999985,-1019.8315154965549 L-511.9999999999999,-1152.8530175178448 L-742.3999999999999,-1019.831515496555 L-742.4,-753.7885114539754 L-511.99999999999994,-620.7670094326855 L-281.5999999999999,-753.7885114539752 Z" fill-opacity="0.2" stroke="black" stroke-width="4.266666666666667" />
<path d="M230.40000000000015,-1019.8315154965549 L1.299772733884306e-13,-1152.8530175178448 L-230.39999999999986,-1019.831515496555 L-230.39999999999995,-753.7885114539754 L6.481553072117232e-14,-620.7670094326855 L230.40000000000006,-753.7885114539752 Z" fill-opacity="0.2" stroke="black" stroke-width="4.266666666666667" />
<path d="M742.4000000000001,-1019.8315154965549 L512.0000000000001,-1152.8530175178448 L281.60000000000014,-1019.831515496555 L281.6,-753.7885114539754 L512.0000000000001,-620.7670094326855 L742.4000000000001,-753.7885114539752 Z" fill-opacity="0.2" stroke="black" stroke-width="4.266666666666667" />
<path d="M1254.4,-1019.8315154965549 L1024.0,-1152.8530175178448 L793.6,-1019.831515496555 L793.5999999999999,-753.7885114539754 L1024.0,-620.7670094326855 L1254.3999999999999,-753.7885114539752 Z" fill-opacity="0.2" stroke="black" stroke-width="4.266666666666667" />
<path d="M1766.4,-1019.8315154965549 L1536.0,-1152.8530175178448 L1305.6,-1019.831515496555 L1305.6,-753.7885114539754 L1536.0,-620.7670094326855 L1766.3999999999999,-753.7885114539752 Z" fill-opacity="0.1" stroke="black" stroke-width="4.266666666666667" />
<path d="M-1049.5999999999997,-1463.2365222341875 L-1279.9999999999998,-1596.2580242554773 L-1510.3999999999996,-1463.2365222341878 L-1510.3999999999999,-1197.193518191608 L-1279.9999999999998,-1064.1720161703183 L-1049.6,-1197.1935181916078 Z" fill-opacity="0.1" stroke="black" stroke-width="4.266666666666667" />
<path d="M-537.5999999999997,-1463.2365222341875 L-767.9999999999998,-1596.2580242554773 L-998.3999999999997,-1463.2365222341878 L-998.3999999999999,-1197.193518191608 L-767.9999999999998,-1064.1720161703183 L-537.5999999999998,-1197.1935181916078 Z" fill-opacity="0.1" stroke="black" stroke-width="4.266666666666667" />
<path d="M-25.59999999999974,-1463.2365222341875 L-255.99999999999974,-1596.2580242554773 L-486.39999999999975,-1463.2365222341878 L-486.39999999999986,-1197.193518191608 L-255.99999999999983,-1064.1720161703183 L-25.599999999999824,-1197.1935181916078 Z" fill-opacity="0.1" stroke="black" stroke-width="4.266666666666667" />
<path d="M486.40000000000026,-1463.2365222341875 L256.0000000000002,-1596.2580242554773 L25.60000000000025,-1463.2365222341878 L25.600000000000165,-1197.193518191608 L256.00000000000017,-1064.1720161703183 L486.4000000000002,-1197.1935181916078 Z" fill-opacity="0.1" stroke="black" stroke-width="4.266666666666667" />
<path d="M998.4000000000003,-1463.2365222341875 L768.0000000000002,-1596.2580242554773 L537.6000000000003,-1463.2365222341878 L537.6000000000001,-1197.193518191608 L768.0000000000002,-1064.1720161703183 L998.4000000000002,-1197.1935181916078 Z" fill-opacity="0.1" stroke="black" stroke-width="4.266666666666667" />
<path d="M1510.4000000000003,-1463.2365222341875 L1280.0000000000002,-1596.2580242554773 L1049.6000000000004,-1463.2365222341878 L1049.6000000000001,-1197.193518191608 L1280.0000000000002,-1064.1720161703183 L1510.4,-1197.1935181916078 Z" fill-opacity="0.1" stroke="black" stroke-width="4.266666666666667" />
</svg>