<?xml version="1.0" encoding="UTF-8"?>
<svg xmlns="http://www.w3.org/2000/svg" xmlns:xlink="http://www.w3.org/1999/xlink"
     width="20.86cm" height="20.86cm" viewBox="0 0 4096 4096.0">
<defs>
</defs>
<rect x="0" y="0" width="4096" height="4096.0" fill="#BF9B7A" />
<rect x="313.1888782358581" y="313.1888782358581" width="316.13422818791946" height="316.13422818791946" fill="green" />
<rect x="314.1706615532119" y="314.1706615532119" width="314.1706615532119" height="314.1706615532119" fill="black" />
<circle cx="471.2559923298179" cy="471.2559923298179" r="78.54266538830298" fill-opacity="0" stroke="white" stroke-width="29.453499520613615" />
<rect x="943.4937679769894" y="313.1888782358581" width="316.13422818791946" height="316.13422818791946" fill="green" />
<rect x="944.4755512943432" y="314.1706615532119" width="314.1706615532119" height="314.1706615532119" fill="black" />
<circle cx="1101.5608820709492" cy="471.2559923298179" r="78.54266538830298" fill-opacity="0" stroke="white" stroke-width="29.453499520613615" />
<rect x="1573.7986577181207" y="313.1888782358581" width="316.13422818791946" height="316.13422818791946" fill="green" />
<rect x="1574.7804410354745" y="314.1706615532119" width="314.1706615532119" height="314.1706615532119" fill="black" />
<circle cx="1731.8657718120805" cy="471.2559923298179" r="78.54266538830298" fill-opacity="0" stroke="white" stroke-width="29.453499520613615" />
<rect x="2204.1035474592522" y="313.1888782358581" width="316.13422818791946" height="316.13422818791946" fill="green" />
<rect x="2205.085330776606" y="314.1706615532119" width="314.1706615532119" height="314.1706615532119" fill="black" />
<circle cx="2362.170661553212" cy="471.2559923298179" r="78.54266538830298" fill-opacity="0" stroke="white" stroke-width="29.453499520613615" />
<rect x="2834.4084372003836" y="313.1888782358581" width="316.13422818791946" height="316.13422818791946" fill="green" />
<rect x="2835.3902205177374" y="314.1706615532119" width="314.1706615532119" height="314.1706615532119" fill="black" />
<path d="M3071.018216682646,471.2559923298179 L3070.555389252061,481.0613395100773 L3069.1937624670463,490.4866752889059 L3067.0099755468686,499.1887091264745 L3064.1197029337545,506.89034430427165 L3060.662765465295,513.3980082856344 L3056.787409156629,518.605540145567 L3052.6366027125905,522.4866520351602 L3048.3380711918708,525.0799407402459 L3043.9985349401577,526.4707827192019 L3039.7016771746016,526.7736329604652 L3035.508874025527,526.1169368647261 L3031.461629313508,524.6316060888767 L3027.5848112588487,522.4430904220316 L3023.8900412445773,519.6665533732223 L3020.3788352420934,516.4044541550165 L3017.045297960595,512.7458387954703 L3013.878306473578,508.7667469996312 L3010.863201741975,504.5312794424299 L3007.9830475763515,500.09300312583935 L3005.219531394371,495.49648296515187 L3002.553580823639,490.77881172868365 L2999.965762477792,485.9710702313521 L2997.4365188871584,481.0996900929708 L2994.946289303612,476.1877174742051 L2992.4755512943434,471.2559923298179 L2990.0048132850748,466.3242671854307 L2987.5145837015284,461.412294566665 L2984.985340110895,456.54091442828377 L2982.3975217650477,451.73317293095215 L2979.7315711943156,447.01550169448393 L2976.9680550123353,442.4189815337965 L2974.087900846712,437.9807052172059 L2971.0727961151088,433.74523766000453 L2967.905804628092,429.76614586416554 L2964.5722673465934,426.1075305046193 L2961.0610613441095,422.84543128641343 L2957.366291329838,420.06889423760424 L2953.4894732751786,417.88037857075915 L2949.44222856316,416.3950477949097 L2945.249425414085,415.7383516991706 L2940.952567648529,416.0412019404339 L2936.613031396816,417.4320439193899 L2932.3144998760963,420.0253326244756 L2928.1636934320577,423.9064445140687 L2924.288337123392,429.1139763740013 L2920.8313996549323,435.6216403553641 L2917.941127041818,443.3232755331613 L2915.7573401216405,452.0253093707299 L2914.3957133366257,461.4506451495585 L2913.9328859060406,471.2559923298179 L2914.3957133366257,481.0613395100773 L2915.7573401216405,490.4866752889059 L2917.941127041818,499.1887091264745 L2920.8313996549323,506.8903443042716 L2924.288337123392,513.3980082856344 L2928.1636934320577,518.605540145567 L2932.3144998760963,522.4866520351602 L2936.613031396816,525.0799407402459 L2940.952567648529,526.4707827192019 L2945.249425414085,526.7736329604652 L2949.44222856316,526.1169368647261 L2953.4894732751786,524.6316060888767 L2957.366291329838,522.4430904220316 L2961.0610613441095,519.6665533732223 L2964.5722673465934,516.4044541550165 L2967.905804628092,512.7458387954703 L2971.0727961151088,508.76674699963127 L2974.087900846712,504.5312794424298 L2976.9680550123353,500.0930031258393 L2979.7315711943156,495.49648296515187 L2982.3975217650477,490.7788117286836 L2984.985340110895,485.97107023135203 L2987.5145837015284,481.0996900929708 L2990.0048132850748,476.18771747420504 L2992.4755512943434,471.2559923298179 L2994.946289303612,466.32426718543076 L2997.4365188871584,461.412294566665 L2999.965762477792,456.54091442828377 L3002.553580823639,451.73317293095215 L3005.219531394371,447.01550169448393 L3007.9830475763515,442.4189815337965 L3010.863201741975,437.98070521720604 L3013.878306473578,433.74523766000453 L3017.045297960595,429.76614586416554 L3020.3788352420934,426.1075305046193 L3023.8900412445773,422.8454312864135 L3027.5848112588483,420.0688942376043 L3031.461629313508,417.8803785707592 L3035.508874025527,416.3950477949097 L3039.7016771746016,415.7383516991706 L3043.9985349401577,416.0412019404339 L3048.3380711918708,417.43204391938986 L3052.6366027125905,420.0253326244756 L3056.787409156629,423.9064445140687 L3060.662765465295,429.1139763740013 L3064.1197029337545,435.6216403553641 L3067.0099755468686,443.3232755331613 L3069.1937624670463,452.0253093707299 L3070.555389252061,461.45064514955857 Z" fill-opacity="0" stroke="white" stroke-width="29.453499520613615" />
<rect x="3464.713326941515" y="313.1888782358581" width="316.13422818791946" height="316.13422818791946" fill="green" />
<rect x="3465.6951102588687" y="314.1706615532119" width="314.1706615532119" height="314.1706615532119" fill="black" />
<path d="M3701.3231064237775,471.2559923298179 L3700.8602789931924,481.0613395100773 L3699.4986522081776,490.4866752889059 L3697.314865288,499.1887091264745 L3694.424592674886,506.89034430427165 L3690.967655206426,513.3980082856344 L3687.0922988977604,518.605540145567 L3682.941492453722,522.4866520351602 L3678.642960933002,525.0799407402459 L3674.303424681289,526.4707827192019 L3670.006566915733,526.7736329604652 L3665.813763766658,526.1169368647261 L3661.7665190546395,524.6316060888767 L3657.88970099998,522.4430904220316 L3654.1949309857087,519.6665533732223 L3650.6837249832247,516.4044541550165 L3647.350187701726,512.7458387954703 L3644.1831962147094,508.7667469996312 L3641.1680914831063,504.5312794424299 L3638.287937317483,500.09300312583935 L3635.5244211355025,495.49648296515187 L3632.8584705647704,490.77881172868365 L3630.2706522189233,485.9710702313521 L3627.7414086282897,481.0996900929708 L3625.2511790447434,476.1877174742051 L3622.7804410354747,471.2559923298179 L3620.309703026206,466.3242671854307 L3617.8194734426597,461.412294566665 L3615.290229852026,456.54091442828377 L3612.702411506179,451.73317293095215 L3610.036460935447,447.01550169448393 L3607.2729447534666,442.4189815337965 L3604.392790587843,437.9807052172059 L3601.37768585624,433.74523766000453 L3598.2106943692233,429.76614586416554 L3594.8771570877248,426.1075305046193 L3591.365951085241,422.84543128641343 L3587.6711810709694,420.06889423760424 L3583.79436301631,417.88037857075915 L3579.7471183042912,416.3950477949097 L3575.5543151552165,415.7383516991706 L3571.2574573896604,416.0412019404339 L3566.9179211379474,417.4320439193899 L3562.6193896172276,420.0253326244756 L3558.468583173189,423.9064445140687 L3554.5932268645233,429.1139763740013 L3551.1362893960636,435.6216403553641 L3548.2460167829495,443.3232755331613 L3546.062229862772,452.0253093707299 L3544.700603077757,461.4506451495585 L3544.237775647172,471.2559923298179 L3544.700603077757,481.0613395100773 L3546.062229862772,490.4866752889059 L3548.2460167829495,499.1887091264745 L3551.1362893960636,506.8903443042716 L3554.593226864523,513.3980082856344 L3558.468583173189,518.605540145567 L3562.6193896172276,522.4866520351602 L3566.9179211379474,525.0799407402459 L3571.2574573896604,526.4707827192019 L3575.5543151552165,526.7736329604652 L3579.7471183042912,526.1169368647261 L3583.79436301631,524.6316060888767 L3587.6711810709694,522.4430904220316 L3591.365951085241,519.6665533732223 L3594.8771570877248,516.4044541550165 L3598.2106943692233,512.7458387954703 L3601.37768585624,508.76674699963127 L3604.392790587843,504.5312794424298 L3607.2729447534666,500.0930031258393 L3610.036460935447,495.49648296515187 L3612.702411506179,490.7788117286836 L3615.290229852026,485.97107023135203 L3617.8194734426597,481.0996900929708 L3620.309703026206,476.18771747420504 L3622.7804410354747,471.2559923298179 L3625.2511790447434,466.32426718543076 L3627.7414086282897,461.412294566665 L3630.2706522189233,456.54091442828377 L3632.8584705647704,451.73317293095215 L3635.5244211355025,447.01550169448393 L3638.287937317483,442.4189815337965 L3641.1680914831063,437.98070521720604 L3644.1831962147094,433.74523766000453 L3647.350187701726,429.76614586416554 L3650.6837249832247,426.1075305046193 L3654.1949309857087,422.8454312864135 L3657.8897009999796,420.0688942376043 L3661.7665190546395,417.8803785707592 L3665.813763766658,416.3950477949097 L3670.006566915733,415.7383516991706 L3674.303424681289,416.0412019404339 L3678.642960933002,417.43204391938986 L3682.941492453722,420.0253326244756 L3687.0922988977604,423.9064445140687 L3690.967655206426,429.1139763740013 L3694.424592674886,435.6216403553641 L3697.314865288,443.3232755331613 L3699.4986522081776,452.0253093707299 L3700.8602789931924,461.45064514955857 Z" fill-opacity="0" stroke="white" stroke-width="29.453499520613615" />
<rect x="313.1888782358581" y="943.4937679769894" width="316.13422818791946" height="316.13422818791946" fill="green" />
<rect x="314.1706615532119" y="944.4755512943432" width="314.1706615532119" height="314.1706615532119" fill="black" />
<rect x="392.7133269415149" y="1023.0182166826462" width="157.08533077660596" height="157.08533077660596" fill-opacity="0" stroke="white" stroke-width="29.453499520613615" stroke-linejoin="miter" />
<rect x="943.4937679769894" y="943.4937679769894" width="316.13422818791946" height="316.13422818791946" fill="green" />
<rect x="944.4755512943432" y="944.4755512943432" width="314.1706615532119" height="314.1706615532119" fill="black" />
<rect x="1023.0182166826462" y="1023.0182166826462" width="157.08533077660596" height="157.08533077660596" fill-opacity="0" stroke="white" stroke-width="29.453499520613615" stroke-linejoin="miter" />
<rect x="1573.7986577181207" y="943.4937679769894" width="316.13422818791946" height="316.13422818791946" fill="green" />
<rect x="1574.7804410354745" y="944.4755512943432" width="314.1706615532119" height="314.1706615532119" fill="black" />
<rect x="1653.3231064237775" y="1023.0182166826462" width="157.08533077660596" height="157.08533077660596" fill-opacity="0" stroke="white" stroke-width="29.453499520613615" stroke-linejoin="miter" />
<rect x="2204.1035474592522" y="943.4937679769894" width="316.13422818791946" height="316.13422818791946" fill="green" />
<rect x="2205.085330776606" y="944.4755512943432" width="314.1706615532119" height="314.1706615532119" fill="black" />
<rect x="2283.627996164909" y="1023.0182166826462" width="157.08533077660596" height="157.08533077660596" fill-opacity="0" stroke="white" stroke-width="29.453499520613615" stroke-linejoin="miter" />
<rect x="313.1888782358581" y="1573.7986577181207" width="316.13422818791946" height="316.13422818791946" fill="green" />
<rect x="314.1706615532119" y="1574.7804410354745" width="314.1706615532119" height="314.1706615532119" fill="black" />
<path d="M392.7133269415149,1653.3231064237775 L549.7986577181209,1810.4084372003836" fill-opacity="0" stroke="white" stroke-width="29.453499520613615" stroke-linecap="butt" />
<path d="M549.7986577181209,1653.3231064237775 L392.7133269415149,1810.4084372003836" fill-opacity="0" stroke="white" stroke-width="29.453499520613615" stroke-linecap="butt" />
<rect x="943.4937679769894" y="1573.7986577181207" width="316.13422818791946" height="316.13422818791946" fill="green" />
<rect x="944.4755512943432" y="1574.7804410354745" width="314.1706615532119" height="314.1706615532119" fill="black" />
<path d="M1023.0182166826462,1653.3231064237775 L1180.1035474592522,1810.4084372003836" fill-opacity="0" stroke="white" stroke-width="29.453499520613615" stroke-linecap="butt" />
<path d="M1180.1035474592522,1653.3231064237775 L1023.0182166826462,1810.4084372003836" fill-opacity="0" stroke="white" stroke-width="29.453499520613615" stroke-linecap="butt" />
<rect x="1573.7986577181207" y="1573.7986577181207" width="316.13422818791946" height="316.13422818791946" fill="green" />
<rect x="1574.7804410354745" y="1574.7804410354745" width="314.1706615532119" height="314.1706615532119" fill="black" />
<path d="M1653.3231064237775,1653.3231064237775 L1810.4084372003836,1810.4084372003836" fill-opacity="0" stroke="white" stroke-width="29.453499520613615" stroke-linecap="butt" />
<path d="M1810.4084372003836,1653.3231064237775 L1653.3231064237775,1810.4084372003836" fill-opacity="0" stroke="white" stroke-width="29.453499520613615" stroke-linecap="butt" />
<rect x="2204.1035474592522" y="1573.7986577181207" width="316.13422818791946" height="316.13422818791946" fill="green" />
<rect x="2205.085330776606" y="1574.7804410354745" width="314.1706615532119" height="314.1706615532119" fill="black" />
<path d="M2283.627996164909,1653.3231064237775 L2440.713326941515,1810.4084372003836" fill-opacity="0" stroke="white" stroke-width="29.453499520613615" stroke-linecap="butt" />
<path d="M2440.713326941515,1653.3231064237775 L2283.627996164909,1810.4084372003836" fill-opacity="0" stroke="white" stroke-width="29.453499520613615" stroke-linecap="butt" />
<rect x="313.1888782358581" y="2204.1035474592522" width="316.13422818791946" height="316.13422818791946" fill="green" />
<rect x="314.1706615532119" y="2205.085330776606" width="314.1706615532119" height="314.1706615532119" fill="white" />
<path d="M392.7133269415149,2283.627996164909 L549.7986577181209,2440.713326941515" fill-opacity="0" stroke="black" stroke-width="29.453499520613615" stroke-linecap="butt" />
<path d="M549.7986577181209,2283.627996164909 L392.7133269415149,2440.713326941515" fill-opacity="0" stroke="black" stroke-width="29.453499520613615" stroke-linecap="butt" />
<rect x="943.4937679769894" y="2204.1035474592522" width="316.13422818791946" height="316.13422818791946" fill="green" />
<rect x="944.4755512943432" y="2205.085330776606" width="314.1706615532119" height="314.1706615532119" fill="white" />
<path d="M1023.0182166826462,2283.627996164909 L1180.1035474592522,2440.713326941515" fill-opacity="0" stroke="black" stroke-width="29.453499520613615" stroke-linecap="butt" />
<path d="M1180.1035474592522,2283.627996164909 L1023.0182166826462,2440.713326941515" fill-opacity="0" stroke="black" stroke-width="29.453499520613615" stroke-linecap="butt" />
<rect x="1573.7986577181207" y="2204.1035474592522" width="316.13422818791946" height="316.13422818791946" fill="green" />
<rect x="1574.7804410354745" y="2205.085330776606" width="314.1706615532119" height="314.1706615532119" fill="white" />
<path d="M1653.3231064237775,2283.627996164909 L1810.4084372003836,2440.713326941515" fill-opacity="0" stroke="black" stroke-width="29.453499520613615" stroke-linecap="butt" />
<path d="M1810.4084372003836,2283.627996164909 L1653.3231064237775,2440.713326941515" fill-opacity="0" stroke="black" stroke-width="29.453499520613615" stroke-linecap="butt" />
<rect x="2204.1035474592522" y="2204.1035474592522" width="316.13422818791946" height="316.13422818791946" fill="green" />
<rect x="2205.085330776606" y="2205.085330776606" width="314.1706615532119" height="314.1706615532119" fill="white" />
<path d="M2283.627996164909,2283.627996164909 L2440.713326941515,2440.713326941515" fill-opacity="0" stroke="black" stroke-width="29.453499520613615" stroke-linecap="butt" />
<path d="M2440.713326941515,2283.627996164909 L2283.627996164909,2440.713326941515" fill-opacity="0" stroke="black" stroke-width="29.453499520613615" stroke-linecap="butt" />
<rect x="313.1888782358581" y="2834.4084372003836" width="316.13422818791946" height="316.13422818791946" fill="green" />
<rect x="314.1706615532119" y="2835.3902205177374" width="314.1706615532119" height="314.1706615532119" fill="white" />
<rect x="392.7133269415149" y="2913.93288590604" width="157.08533077660596" height="157.08533077660596" fill-opacity="0" stroke="black" stroke-width="29.453499520613615" stroke-linejoin="miter" />
<rect x="943.4937679769894" y="2834.4084372003836" width="316.13422818791946" height="316.13422818791946" fill="green" />
<rect x="944.4755512943432" y="2835.3902205177374" width="314.1706615532119" height="314.1706615532119" fill="white" />
<rect x="1023.0182166826462" y="2913.93288590604" width="157.08533077660596" height="157.08533077660596" fill-opacity="0" stroke="black" stroke-width="29.453499520613615" stroke-linejoin="miter" />
<rect x="1573.7986577181207" y="2834.4084372003836" width="316.13422818791946" height="316.13422818791946" fill="green" />
<rect x="1574.7804410354745" y="2835.3902205177374" width="314.1706615532119" height="314.1706615532119" fill="white" />
<rect x="1653.3231064237775" y="2913.93288590604" width="157.08533077660596" height="157.08533077660596" fill-opacity="0" stroke="black" stroke-width="29.453499520613615" stroke-linejoin="miter" />
<rect x="2204.1035474592522" y="2834.4084372003836" width="316.13422818791946" height="316.13422818791946" fill="green" />
<rect x="2205.085330776606" y="2835.3902205177374" width="314.1706615532119" height="314.1706615532119" fill="white" />
<rect x="2283.627996164909" y="2913.93288590604" width="157.08533077660596" height="157.08533077660596" fill-opacity="0" stroke="black" stroke-width="29.453499520613615" stroke-linejoin="miter" />
<rect x="313.1888782358581" y="3464.713326941515" width="316.13422818791946" height="316.13422818791946" fill="green" />
<rect x="314.1706615532119" y="3465.6951102588687" width="314.1706615532119" height="314.1706615532119" fill="white" />
<circle cx="471.2559923298179" cy="3622.7804410354747" r="78.54266538830298" fill-opacity="0" stroke="black" stroke-width="29.453499520613615" />
<rect x="943.4937679769894" y="3464.713326941515" width="316.13422818791946" height="316.13422818791946" fill="green" />
<rect x="944.4755512943432" y="3465.6951102588687" width="314.1706615532119" height="314.1706615532119" fill="white" />
<circle cx="1101.5608820709492" cy="3622.7804410354747" r="78.54266538830298" fill-opacity="0" stroke="black" stroke-width="29.453499520613615" />
<rect x="1573.7986577181207" y="3464.713326941515" width="316.13422818791946" height="316.13422818791946" fill="green" />
<rect x="1574.7804410354745" y="3465.6951102588687" width="314.1706615532119" height="314.1706615532119" fill="white" />
<circle cx="1731.8657718120805" cy="3622.7804410354747" r="78.54266538830298" fill-opacity="0" stroke="black" stroke-width="29.453499520613615" />
<rect x="2204.1035474592522" y="3464.713326941515" width="316.13422818791946" height="316.13422818791946" fill="green" />
<rect x="2205.085330776606" y="3465.6951102588687" width="314.1706615532119" height="314.1706615532119" fill="white" />
<circle cx="2362.170661553212" cy="3622.7804410354747" r="78.54266538830298" fill-opacity="0" stroke="black" stroke-width="29.453499520613615" />
<rect x="2834.4084372003836" y="3464.713326941515" width="316.13422818791946" height="316.13422818791946" fill="green" />
<rect x="2835.3902205177374" y="3465.6951102588687" width="314.1706615532119" height="314.1706615532119" fill="white" />
<path d="M3071.018216682646,3622.7804410354747 L3070.555389252061,3632.5857882157343 L3069.1937624670463,3642.0111239945627 L3067.0099755468686,3650.7131578321314 L3064.1197029337545,3658.4147930099284 L3060.662765465295,3664.9224569912913 L3056.787409156629,3670.129988851224 L3052.6366027125905,3674.011100740817 L3048.3380711918708,3676.6043894459026 L3043.9985349401577,3677.9952314248585 L3039.7016771746016,3678.298081666122 L3035.508874025527,3677.6413855703827 L3031.461629313508,3676.1560547945332 L3027.5848112588487,3673.9675391276883 L3023.8900412445773,3671.191002078879 L3020.3788352420934,3667.928902860673 L3017.045297960595,3664.270287501127 L3013.878306473578,3660.291195705288 L3010.863201741975,3656.0557281480865 L3007.9830475763515,3651.617451831496 L3005.219531394371,3647.0209316708087 L3002.553580823639,3642.3032604343402 L2999.965762477792,3637.495518937009 L2997.4365188871584,3632.6241387986274 L2994.946289303612,3627.712166179862 L2992.4755512943434,3622.7804410354747 L2990.0048132850748,3617.8487158910875 L2987.5145837015284,3612.936743272322 L2984.985340110895,3608.0653631339405 L2982.3975217650477,3603.257621636609 L2979.7315711943156,3598.5399504001407 L2976.9680550123353,3593.9434302394534 L2974.087900846712,3589.505153922863 L2971.0727961151088,3585.2696863656615 L2967.905804628092,3581.2905945698226 L2964.5722673465934,3577.6319792102763 L2961.0610613441095,3574.3698799920703 L2957.366291329838,3571.593342943261 L2953.4894732751786,3569.404827276416 L2949.44222856316,3567.9194965005663 L2945.249425414085,3567.2628004048274 L2940.952567648529,3567.565650646091 L2936.613031396816,3568.956492625047 L2932.3144998760963,3571.5497813301326 L2928.1636934320577,3575.4308932197255 L2924.288337123392,3580.638425079658 L2920.8313996549323,3587.146089061021 L2917.941127041818,3594.847724238818 L2915.7573401216405,3603.5497580763868 L2914.3957133366257,3612.975093855215 L2913.9328859060406,3622.7804410354747 L2914.3957133366257,3632.5857882157343 L2915.7573401216405,3642.0111239945627 L2917.941127041818,3650.7131578321314 L2920.8313996549323,3658.4147930099284 L2924.288337123392,3664.9224569912913 L2928.1636934320577,3670.129988851224 L2932.3144998760963,3674.011100740817 L2936.613031396816,3676.6043894459026 L2940.952567648529,3677.9952314248585 L2945.249425414085,3678.298081666122 L2949.44222856316,3677.6413855703827 L2953.4894732751786,3676.1560547945337 L2957.366291329838,3673.9675391276883 L2961.0610613441095,3671.191002078879 L2964.5722673465934,3667.928902860673 L2967.905804628092,3664.270287501127 L2971.0727961151088,3660.291195705288 L2974.087900846712,3656.0557281480865 L2976.9680550123353,3651.617451831496 L2979.7315711943156,3647.0209316708087 L2982.3975217650477,3642.3032604343402 L2984.985340110895,3637.495518937009 L2987.5145837015284,3632.6241387986274 L2990.0048132850748,3627.712166179862 L2992.4755512943434,3622.7804410354747 L2994.946289303612,3617.8487158910875 L2997.4365188871584,3612.936743272322 L2999.965762477792,3608.0653631339405 L3002.553580823639,3603.257621636609 L3005.219531394371,3598.5399504001407 L3007.9830475763515,3593.9434302394534 L3010.863201741975,3589.505153922863 L3013.878306473578,3585.2696863656615 L3017.045297960595,3581.2905945698226 L3020.3788352420934,3577.6319792102763 L3023.8900412445773,3574.3698799920703 L3027.5848112588483,3571.593342943261 L3031.461629313508,3569.404827276416 L3035.508874025527,3567.9194965005663 L3039.7016771746016,3567.2628004048274 L3043.9985349401577,3567.565650646091 L3048.3380711918708,3568.956492625047 L3052.6366027125905,3571.549781330132 L3056.787409156629,3575.4308932197255 L3060.662765465295,3580.638425079658 L3064.1197029337545,3587.146089061021 L3067.0099755468686,3594.847724238818 L3069.1937624670463,3603.5497580763868 L3070.555389252061,3612.975093855215 Z" fill-opacity="0" stroke="black" stroke-width="29.453499520613615" />
<rect x="3464.713326941515" y="3464.713326941515" width="316.13422818791946" height="316.13422818791946" fill="green" />
<rect x="3465.6951102588687" y="3465.6951102588687" width="314.1706615532119" height="314.1706615532119" fill="white" />
<path d="M3701.3231064237775,3622.7804410354747 L3700.8602789931924,3632.5857882157343 L3699.4986522081776,3642.0111239945627 L3697.314865288,3650.7131578321314 L3694.424592674886,3658.4147930099284 L3690.967655206426,3664.9224569912913 L3687.0922988977604,3670.129988851224 L3682.941492453722,3674.011100740817 L3678.642960933002,3676.6043894459026 L3674.303424681289,3677.9952314248585 L3670.006566915733,3678.298081666122 L3665.813763766658,3677.6413855703827 L3661.7665190546395,3676.1560547945332 L3657.88970099998,3673.9675391276883 L3654.1949309857087,3671.191002078879 L3650.6837249832247,3667.928902860673 L3647.350187701726,3664.270287501127 L3644.1831962147094,3660.291195705288 L3641.1680914831063,3656.0557281480865 L3638.287937317483,3651.617451831496 L3635.5244211355025,3647.0209316708087 L3632.8584705647704,3642.3032604343402 L3630.2706522189233,3637.495518937009 L3627.7414086282897,3632.6241387986274 L3625.2511790447434,3627.712166179862 L3622.7804410354747,3622.7804410354747 L3620.309703026206,3617.8487158910875 L3617.8194734426597,3612.936743272322 L3615.290229852026,3608.0653631339405 L3612.702411506179,3603.257621636609 L3610.036460935447,3598.5399504001407 L3607.2729447534666,3593.9434302394534 L3604.392790587843,3589.505153922863 L3601.37768585624,3585.2696863656615 L3598.2106943692233,3581.2905945698226 L3594.8771570877248,3577.6319792102763 L3591.365951085241,3574.3698799920703 L3587.6711810709694,3571.593342943261 L3583.79436301631,3569.404827276416 L3579.7471183042912,3567.9194965005663 L3575.5543151552165,3567.2628004048274 L3571.2574573896604,3567.565650646091 L3566.9179211379474,3568.956492625047 L3562.6193896172276,3571.5497813301326 L3558.468583173189,3575.4308932197255 L3554.5932268645233,3580.638425079658 L3551.1362893960636,3587.146089061021 L3548.2460167829495,3594.847724238818 L3546.062229862772,3603.5497580763868 L3544.700603077757,3612.975093855215 L3544.237775647172,3622.7804410354747 L3544.700603077757,3632.5857882157343 L3546.062229862772,3642.0111239945627 L3548.2460167829495,3650.7131578321314 L3551.1362893960636,3658.4147930099284 L3554.593226864523,3664.9224569912913 L3558.468583173189,3670.129988851224 L3562.6193896172276,3674.011100740817 L3566.9179211379474,3676.6043894459026 L3571.2574573896604,3677.9952314248585 L3575.5543151552165,3678.298081666122 L3579.7471183042912,3677.6413855703827 L3583.79436301631,3676.1560547945337 L3587.6711810709694,3673.9675391276883 L3591.365951085241,3671.191002078879 L3594.8771570877248,3667.928902860673 L3598.2106943692233,3664.270287501127 L3601.37768585624,3660.291195705288 L3604.392790587843,3656.0557281480865 L3607.2729447534666,3651.617451831496 L3610.036460935447,3647.0209316708087 L3612.702411506179,3642.3032604343402 L3615.290229852026,3637.495518937009 L3617.8194734426597,3632.6241387986274 L3620.309703026206,3627.712166179862 L3622.7804410354747,3622.7804410354747 L3625.2511790447434,3617.8487158910875 L3627.7414086282897,3612.936743272322 L3630.2706522189233,3608.0653631339405 L3632.8584705647704,3603.257621636609 L3635.5244211355025,3598.5399504001407 L3638.287937317483,3593.9434302394534 L3641.1680914831063,3589.505153922863 L3644.1831962147094,3585.2696863656615 L3647.350187701726,3581.2905945698226 L3650.6837249832247,3577.6319792102763 L3654.1949309857087,3574.3698799920703 L3657.8897009999796,3571.593342943261 L3661.7665190546395,3569.404827276416 L3665.813763766658,3567.9194965005663 L3670.006566915733,3567.2628004048274 L3674.303424681289,3567.565650646091 L3678.642960933002,3568.956492625047 L3682.941492453722,3571.549781330132 L3687.0922988977604,3575.4308932197255 L3690.967655206426,3580.638425079658 L3694.424592674886,3587.146089061021 L3697.314865288,3594.847724238818 L3699.4986522081776,3603.5497580763868 L3700.8602789931924,3612.975093855215 Z" fill-opacity="0" stroke="black" stroke-width="29.453499520613615" />
</svg>