<?xml version="1.0" encoding="UTF-8"?>
<svg xmlns="http://www.w3.org/2000/svg" xmlns:xlink="http://www.w3.org/1999/xlink"
     width="20.880000000000003cm" height="20.880000000000003cm" viewBox="0 0 4096 4096.0">
<defs>
</defs>
<rect x="1.9616858237547892" y="1.9616858237547892" width="4092.0766283524904" height="4092.0766283524904" fill="white" stroke="rgb(51,102,153)" stroke-width="1.9616858237547892" />
<rect x="312.88888888888886" y="312.88888888888886" width="315.83141762452107" height="315.83141762452107" fill="white" stroke="rgb(0,0,255)" stroke-width="1.9616858237547892" />
<rect x="942.5900383141762" y="312.88888888888886" width="315.83141762452107" height="315.83141762452107" fill="white" stroke="rgb(0,0,255)" stroke-width="1.9616858237547892" />
<rect x="1572.2911877394636" y="312.88888888888886" width="315.83141762452107" height="315.83141762452107" fill="white" stroke="rgb(0,0,255)" stroke-width="1.9616858237547892" />
<rect x="2201.9923371647506" y="312.88888888888886" width="315.83141762452107" height="315.83141762452107" fill="white" stroke="rgb(0,0,255)" stroke-width="1.9616858237547892" />
<rect x="2831.693486590038" y="312.88888888888886" width="315.83141762452107" height="315.83141762452107" fill="white" stroke="rgb(0,0,255)" stroke-width="1.9616858237547892" />
<rect x="3461.3946360153254" y="312.88888888888886" width="315.83141762452107" height="315.83141762452107" fill="white" stroke="rgb(0,0,255)" stroke-width="1.9616858237547892" />
<rect x="312.88888888888886" y="942.5900383141762" width="315.83141762452107" height="315.83141762452107" fill="white" stroke="rgb(0,0,255)" stroke-width="1.9616858237547892" />
<rect x="942.5900383141762" y="942.5900383141762" width="315.83141762452107" height="315.83141762452107" fill="white" stroke="rgb(0,0,255)" stroke-width="1.9616858237547892" />
<rect x="1572.2911877394636" y="942.5900383141762" width="315.83141762452107" height="315.83141762452107" fill="white" stroke="rgb(0,0,255)" stroke-width="1.9616858237547892" />
<rect x="2201.9923371647506" y="942.5900383141762" width="315.83141762452107" height="315.83141762452107" fill="white" stroke="rgb(0,0,255)" stroke-width="1.9616858237547892" />
<rect x="312.88888888888886" y="1572.2911877394636" width="315.83141762452107" height="315.83141762452107" fill="white" stroke="rgb(0,0,255)" stroke-width="1.9616858237547892" />
<rect x="942.5900383141762" y="1572.2911877394636" width="315.83141762452107" height="315.83141762452107" fill="white" stroke="rgb(0,0,255)" stroke-width="1.9616858237547892" />
<rect x="1572.2911877394636" y="1572.2911877394636" width="315.83141762452107" height="315.83141762452107" fill="white" stroke="rgb(0,0,255)" stroke-width="1.9616858237547892" />
<rect x="2201.9923371647506" y="1572.2911877394636" width="315.83141762452107" height="315.83141762452107" fill="white" stroke="rgb(0,0,255)" stroke-width="1.9616858237547892" />
<rect x="312.88888888888886" y="2201.9923371647506" width="315.83141762452107" height="315.83141762452107" fill="white" stroke="rgb(0,0,255)" stroke-width="1.9616858237547892" />
<rect x="942.5900383141762" y="2201.9923371647506" width="315.83141762452107" height="315.83141762452107" fill="white" stroke="rgb(0,0,255)" stroke-width="1.9616858237547892" />
<rect x="1572.2911877394636" y="2201.9923371647506" width="315.83141762452107" height="315.83141762452107" fill="white" stroke="rgb(0,0,255)" stroke-width="1.9616858237547892" />
<rect x="2201.9923371647506" y="2201.9923371647506" width="315.83141762452107" height="315.83141762452107" fill="white" stroke="rgb(0,0,255)" stroke-width="1.9616858237547892" />
<rect x="312.88888888888886" y="2831.693486590038" width="315.83141762452107" height="315.83141762452107" fill="white" stroke="rgb(0,0,255)" stroke-width="1.9616858237547892" />
<rect x="942.5900383141762" y="2831.693486590038" width="315.83141762452107" height="315.83141762452107" fill="white" stroke="rgb(0,0,255)" stroke-width="1.9616858237547892" />
<rect x="1572.2911877394636" y="2831.693486590038" width="315.83141762452107" height="315.83141762452107" fill="white" stroke="rgb(0,0,255)" stroke-width="1.9616858237547892" />
<rect x="2201.9923371647506" y="2831.693486590038" width="315.83141762452107" height="315.83141762452107" fill="white" stroke="rgb(0,0,255)" stroke-width="1.9616858237547892" />
<rect x="312.88888888888886" y="3461.3946360153254" width="315.83141762452107" height="315.83141762452107" fill="white" stroke="rgb(0,0,255)" stroke-width="1.9616858237547892" />
<rect x="942.5900383141762" y="3461.3946360153254" width="315.83141762452107" height="315.83141762452107" fill="white" stroke="rgb(0,0,255)" stroke-width="1.9616858237547892" />
<rect x="1572.2911877394636" y="3461.3946360153254" width="315.83141762452107" height="315.83141762452107" fill="white" stroke="rgb(0,0,255)" stroke-width="1.9616858237547892" />
<rect x="2201.9923371647506" y="3461.3946360153254" width="315.83141762452107" height="315.83141762452107" fill="white" stroke="rgb(0,0,255)" stroke-width="1.9616858237547892" />
<rect x="2831.693486590038" y="3461.3946360153254" width="315.83141762452107" height="315.83141762452107" fill="white" stroke="rgb(0,0,255)" stroke-width="1.9616858237547892" />
<rect x="3461.3946360153254" y="3461.3946360153254" width="315.83141762452107" height="315.83141762452107" fill="white" stroke="rgb(0,0,255)" stroke-width="1.9616858237547892" />
</svg>