<?xml version="1.0" encoding="UTF-8"?>
<svg xmlns="http://www.w3.org/2000/svg" xmlns:xlink="http://www.w3.org/1999/xlink"
     width="24.0cm" height="22.516660498395407cm" viewBox="-2048.0 -1921.4216958630748 4096 3842.8433917261495">
<defs>
<radialGradient cx="-1280.0000000000002" cy="1330.2150202128978" r="266.0430040425796" gradientUnits="userSpaceOnUse" id="d0">
<stop offset="0" stop-color="black" stop-opacity="0.0" />
<stop offset="1" stop-color="black" stop-opacity="0.45" />
</radialGradient>
<radialGradient cx="-768.0000000000002" cy="1330.2150202128978" r="266.0430040425796" gradientUnits="userSpaceOnUse" id="d1">
<stop offset="0" stop-color="black" stop-opacity="0.0" />
<stop offset="1" stop-color="black" stop-opacity="0.45" />
</radialGradient>
<radialGradient cx="-256.0000000000002" cy="1330.2150202128978" r="266.0430040425796" gradientUnits="userSpaceOnUse" id="d2">
<stop offset="0" stop-color="black" stop-opacity="0.0" />
<stop offset="1" stop-color="black" stop-opacity="0.45" />
</radialGradient>
<radialGradient cx="255.99999999999977" cy="1330.2150202128978" r="266.0430040425796" gradientUnits="userSpaceOnUse" id="d3">
<stop offset="0" stop-color="black" stop-opacity="0.0" />
<stop offset="1" stop-color="black" stop-opacity="0.45" />
</radialGradient>
<radialGradient cx="767.9999999999998" cy="1330.2150202128978" r="266.0430040425796" gradientUnits="userSpaceOnUse" id="d4">
<stop offset="0" stop-color="black" stop-opacity="0.0" />
<stop offset="1" stop-color="black" stop-opacity="0.45" />
</radialGradient>
<radialGradient cx="1279.9999999999998" cy="1330.2150202128978" r="266.0430040425796" gradientUnits="userSpaceOnUse" id="d5">
<stop offset="0" stop-color="black" stop-opacity="0.0" />
<stop offset="1" stop-color="black" stop-opacity="0.45" />
</radialGradient>
<radialGradient cx="-1536.0" cy="886.8100134752651" r="266.0430040425796" gradientUnits="userSpaceOnUse" id="d6">
<stop offset="0" stop-color="black" stop-opacity="0.0" />
<stop offset="1" stop-color="black" stop-opacity="0.45" />
</radialGradient>
<radialGradient cx="-1024.0" cy="886.8100134752651" r="266.0430040425796" gradientUnits="userSpaceOnUse" id="d7">
<stop offset="0" stop-color="black" stop-opacity="0.0" />
<stop offset="1" stop-color="black" stop-opacity="0.225" />
</radialGradient>
<radialGradient cx="-512.0000000000001" cy="886.8100134752651" r="266.0430040425796" gradientUnits="userSpaceOnUse" id="d8">
<stop offset="0" stop-color="black" stop-opacity="0.0" />
<stop offset="1" stop-color="black" stop-opacity="0.225" />
</radialGradient>
<radialGradient cx="-1.1368683772161603e-13" cy="886.8100134752651" r="266.0430040425796" gradientUnits="userSpaceOnUse" id="d9">
<stop offset="0" stop-color="black" stop-opacity="0.0" />
<stop offset="1" stop-color="black" stop-opacity="0.225" />
</radialGradient>
<radialGradient cx="511.9999999999999" cy="886.8100134752651" r="266.0430040425796" gradientUnits="userSpaceOnUse" id="d10">
<stop offset="0" stop-color="black" stop-opacity="0.0" />
<stop offset="1" stop-color="black" stop-opacity="0.225" />
</radialGradient>
<radialGradient cx="1023.9999999999999" cy="886.8100134752651" r="266.0430040425796" gradientUnits="userSpaceOnUse" id="d11">
<stop offset="0" stop-color="black" stop-opacity="0.0" />
<stop offset="1" stop-color="black" stop-opacity="0.225" />
</radialGradient>
<radialGradient cx="1536.0" cy="886.8100134752651" r="266.0430040425796" gradientUnits="userSpaceOnUse" id="d12">
<stop offset="0" stop-color="black" stop-opacity="0.0" />
<stop offset="1" stop-color="black" stop-opacity="0.45" />
</radialGradient>
<radialGradient cx="-1280.0" cy="443.40500673763256" r="266.0430040425796" gradientUnits="userSpaceOnUse" id="d13">
<stop offset="0" stop-color="black" stop-opacity="0.0" />
<stop offset="1" stop-color="black" stop-opacity="0.45" />
</radialGradient>
<radialGradient cx="-768.0" cy="443.40500673763256" r="266.0430040425796" gradientUnits="userSpaceOnUse" id="d14">
<stop offset="0" stop-color="black" stop-opacity="0.0" />
<stop offset="1" stop-color="black" stop-opacity="0.225" />
</radialGradient>
<radialGradient cx="-256.00000000000006" cy="443.40500673763256" r="266.0430040425796" gradientUnits="userSpaceOnUse" id="d15">
<stop offset="0" stop-color="black" stop-opacity="0.0" />
<stop offset="1" stop-color="black" stop-opacity="0.45" />
</radialGradient>
<radialGradient cx="255.99999999999994" cy="443.40500673763256" r="266.0430040425796" gradientUnits="userSpaceOnUse" id="d16">
<stop offset="0" stop-color="black" stop-opacity="0.0" />
<stop offset="1" stop-color="black" stop-opacity="0.45" />
</radialGradient>
<radialGradient cx="768.0" cy="443.40500673763256" r="266.0430040425796" gradientUnits="userSpaceOnUse" id="d17">
<stop offset="0" stop-color="black" stop-opacity="0.0" />
<stop offset="1" stop-color="black" stop-opacity="0.225" />
</radialGradient>
<radialGradient cx="1280.0" cy="443.40500673763256" r="266.0430040425796" gradientUnits="userSpaceOnUse" id="d18">
<stop offset="0" stop-color="black" stop-opacity="0.0" />
<stop offset="1" stop-color="black" stop-opacity="0.45" />
</radialGradient>
<radialGradient cx="-1536.0" cy="0.0" r="266.0430040425796" gradientUnits="userSpaceOnUse" id="d19">
<stop offset="0" stop-color="black" stop-opacity="0.0" />
<stop offset="1" stop-color="black" stop-opacity="0.45" />
</radialGradient>
<radialGradient cx="-1024.0" cy="0.0" r="266.0430040425796" gradientUnits="userSpaceOnUse" id="d20">
<stop offset="0" stop-color="black" stop-opacity="0.0" />
<stop offset="1" stop-color="black" stop-opacity="0.225" />
</radialGradient>
<radialGradient cx="-512.0" cy="0.0" r="266.0430040425796" gradientUnits="userSpaceOnUse" id="d21">
<stop offset="0" stop-color="black" stop-opacity="0.0" />
<stop offset="1" stop-color="black" stop-opacity="0.45" />
</radialGradient>
<radialGradient cx="0.0" cy="0.0" r="266.0430040425796" gradientUnits="userSpaceOnUse" id="d22">
<stop offset="0" stop-color="black" stop-opacity="0.0" />
<stop offset="1" stop-color="black" stop-opacity="0.225" />
</radialGradient>
<radialGradient cx="512.0" cy="0.0" r="266.0430040425796" gradientUnits="userSpaceOnUse" id="d23">
<stop offset="0" stop-color="black" stop-opacity="0.0" />
<stop offset="1" stop-color="black" stop-opacity="0.45" />
</radialGradient>
<radialGradient cx="1024.0" cy="0.0" r="266.0430040425796" gradientUnits="userSpaceOnUse" id="d24">
<stop offset="0" stop-color="black" stop-opacity="0.0" />
<stop offset="1" stop-color="black" stop-opacity="0.225" />
</radialGradient>
<radialGradient cx="1536.0" cy="0.0" r="266.0430040425796" gradientUnits="userSpaceOnUse" id="d25">
<stop offset="0" stop-color="black" stop-opacity="0.0" />
<stop offset="1" stop-color="black" stop-opacity="0.45" />
</radialGradient>
<radialGradient cx="-1280.0" cy="-443.40500673763256" r="266.0430040425796" gradientUnits="userSpaceOnUse" id="d26">
<stop offset="0" stop-color="black" stop-opacity="0.0" />
<stop offset="1" stop-color="black" stop-opacity="0.45" />
</radialGradient>
<radialGradient cx="-768.0" cy="-443.40500673763256" r="266.0430040425796" gradientUnits="userSpaceOnUse" id="d27">
<stop offset="0" stop-color="black" stop-opacity="0.0" />
<stop offset="1" stop-color="black" stop-opacity="0.225" />
</radialGradient>
<radialGradient cx="-255.99999999999994" cy="-443.40500673763256" r="266.0430040425796" gradientUnits="userSpaceOnUse" id="d28">
<stop offset="0" stop-color="black" stop-opacity="0.0" />
<stop offset="1" stop-color="black" stop-opacity="0.45" />
</radialGradient>
<radialGradient cx="256.00000000000006" cy="-443.40500673763256" r="266.0430040425796" gradientUnits="userSpaceOnUse" id="d29">
<stop offset="0" stop-color="black" stop-opacity="0.0" />
<stop offset="1" stop-color="black" stop-opacity="0.45" />
</radialGradient>
<radialGradient cx="768.0" cy="-443.40500673763256" r="266.0430040425796" gradientUnits="userSpaceOnUse" id="d30">
<stop offset="0" stop-color="black" stop-opacity="0.0" />
<stop offset="1" stop-color="black" stop-opacity="0.225" />
</radialGradient>
<radialGradient cx="1280.0" cy="-443.40500673763256" r="266.0430040425796" gradientUnits="userSpaceOnUse" id="d31">
<stop offset="0" stop-color="black" stop-opacity="0.0" />
<stop offset="1" stop-color="black" stop-opacity="0.45" />
</radialGradient>
<radialGradient cx="-1536.0" cy="-886.8100134752651" r="266.0430040425796" gradientUnits="userSpaceOnUse" id="d32">
<stop offset="0" stop-color="black" stop-opacity="0.0" />
<stop offset="1" stop-color="black" stop-opacity="0.45" />
</radialGradient>
<radialGradient cx="-1023.9999999999999" cy="-886.8100134752651" r="266.0430040425796" gradientUnits="userSpaceOnUse" id="d33">
<stop offset="0" stop-color="black" stop-opacity="0.0" />
<stop offset="1" stop-color="black" stop-opacity="0.225" />
</radialGradient>
<radialGradient cx="-511.9999999999999" cy="-886.8100134752651" r="266.0430040425796" gradientUnits="userSpaceOnUse" id="d34">
<stop offset="0" stop-color="black" stop-opacity="0.0" />
<stop offset="1" stop-color="black" stop-opacity="0.225" />
</radialGradient>
<radialGradient cx="1.1368683772161603e-13" cy="-886.8100134752651" r="266.0430040425796" gradientUnits="userSpaceOnUse" id="d35">
<stop offset="0" stop-color="black" stop-opacity="0.0" />
<stop offset="1" stop-color="black" stop-opacity="0.225" />
</radialGradient>
<radialGradient cx="512.0000000000001" cy="-886.8100134752651" r="266.0430040425796" gradientUnits="userSpaceOnUse" id="d36">
<stop offset="0" stop-color="black" stop-opacity="0.0" />
<stop offset="1" stop-color="black" stop-opacity="0.225" />
</radialGradient>
<radialGradient cx="1024.0" cy="-886.8100134752651" r="266.0430040425796" gradientUnits="userSpaceOnUse" id="d37">
<stop offset="0" stop-color="black" stop-opacity="0.0" />
<stop offset="1" stop-color="black" stop-opacity="0.225" />
</radialGradient>
<radialGradient cx="1536.0" cy="-886.8100134752651" r="266.0430040425796" gradientUnits="userSpaceOnUse" id="d38">
<stop offset="0" stop-color="black" stop-opacity="0.0" />
<stop offset="1" stop-color="black" stop-opacity="0.45" />
</radialGradient>
<radialGradient cx="-1279.9999999999998" cy="-1330.2150202128978" r="266.0430040425796" gradientUnits="userSpaceOnUse" id="d39">
<stop offset="0" stop-color="black" stop-opacity="0.0" />
<stop offset="1" stop-color="black" stop-opacity="0.45" />
</radialGradient>
<radialGradient cx="-767.9999999999998" cy="-1330.2150202128978" r="266.0430040425796" gradientUnits="userSpaceOnUse" id="d40">
<stop offset="0" stop-color="black" stop-opacity="0.0" />
<stop offset="1" stop-color="black" stop-opacity="0.45" />
</radialGradient>
<radialGradient cx="-255.99999999999977" cy="-1330.2150202128978" r="266.0430040425796" gradientUnits="userSpaceOnUse" id="d41">
<stop offset="0" stop-color="black" stop-opacity="0.0" />
<stop offset="1" stop-color="black" stop-opacity="0.45" />
</radialGradient>
<radialGradient cx="256.0000000000002" cy="-1330.2150202128978" r="266.0430040425796" gradientUnits="userSpaceOnUse" id="d42">
<stop offset="0" stop-color="black" stop-opacity="0.0" />
<stop offset="1" stop-color="black" stop-opacity="0.45" />
</radialGradient>
<radialGradient cx="768.0000000000002" cy="-1330.2150202128978" r="266.0430040425796" gradientUnits="userSpaceOnUse" id="d43">
<stop offset="0" stop-color="black" stop-opacity="0.0" />
<stop offset="1" stop-color="black" stop-opacity="0.45" />
</radialGradient>
<radialGradient cx="1280.0000000000002" cy="-1330.2150202128978" r="266.0430040425796" gradientUnits="userSpaceOnUse" id="d44">
<stop offset="0" stop-color="black" stop-opacity="0.0" />
<stop offset="1" stop-color="black" stop-opacity="0.45" />
</radialGradient>
</defs>
<rect x="-2048.0" y="-1921.4216958630748" width="4096" height="3842.8433917261495" fill="#BF9B7A" />
<path d="M-1049.6000000000001,1197.193518191608 L-1280.0000000000002,1064.1720161703183 L-1510.4,1197.1935181916078 L-1510.4000000000003,1463.2365222341875 L-1280.0000000000002,1596.2580242554773 L-1049.6000000000004,1463.2365222341878 Z" fill="url(#d0)" stroke="black" stroke-width="4.266666666666667" />
<text x="-1280.0000000000002" y="1507.5770229079508" font-size="102" font-family="Helvetica" fill="black" text-anchor="middle" dominant-baseline="central">a1</text>
<path d="M-537.6000000000001,1197.193518191608 L-768.0000000000002,1064.1720161703183 L-998.4000000000002,1197.1935181916078 L-998.4000000000003,1463.2365222341875 L-768.0000000000002,1596.2580242554773 L-537.6000000000003,1463.2365222341878 Z" fill="url(#d1)" stroke="black" stroke-width="4.266666666666667" />
<text x="-768.0000000000002" y="1507.5770229079508" font-size="102" font-family="Helvetica" fill="black" text-anchor="middle" dominant-baseline="central">a2</text>
<path d="M-25.600000000000193,1197.193518191608 L-256.0000000000002,1064.1720161703183 L-486.4000000000002,1197.1935181916078 L-486.4000000000003,1463.2365222341875 L-256.0000000000003,1596.2580242554773 L-25.60000000000028,1463.2365222341878 Z" fill="url(#d2)" stroke="black" stroke-width="4.266666666666667" />
<text x="-256.0000000000002" y="1507.5770229079508" font-size="102" font-family="Helvetica" fill="black" text-anchor="middle" dominant-baseline="central">a3</text>
<path d="M486.3999999999998,1197.193518191608 L255.9999999999998,1064.1720161703183 L25.599999999999795,1197.1935181916078 L25.59999999999971,1463.2365222341875 L255.99999999999972,1596.2580242554773 L486.39999999999975,1463.2365222341878 Z" fill="url(#d3)" stroke="black" stroke-width="4.266666666666667" />
<text x="255.99999999999977" y="1507.5770229079508" font-size="102" font-family="Helvetica" fill="black" text-anchor="middle" dominant-baseline="central">a4</text>
<path d="M998.3999999999999,1197.193518191608 L767.9999999999998,1064.1720161703183 L537.5999999999998,1197.1935181916078 L537.5999999999997,1463.2365222341875 L767.9999999999998,1596.2580242554773 L998.3999999999997,1463.2365222341878 Z" fill="url(#d4)" stroke="black" stroke-width="4.266666666666667" />
<text x="767.9999999999998" y="1507.5770229079508" font-size="102" font-family="Helvetica" fill="black" text-anchor="middle" dominant-baseline="central">a5</text>
<path d="M1510.3999999999999,1197.193518191608 L1279.9999999999998,1064.1720161703183 L1049.6,1197.1935181916078 L1049.5999999999997,1463.2365222341875 L1279.9999999999998,1596.2580242554773 L1510.3999999999996,1463.2365222341878 Z" fill="url(#d5)" stroke="black" stroke-width="4.266666666666667" />
<text x="1279.9999999999998" y="1507.5770229079508" font-size="102" font-family="Helvetica" fill="black" text-anchor="middle" dominant-baseline="central">a6</text>
<path d="M-1305.6,753.7885114539754 L-1536.0,620.7670094326855 L-1766.4,753.7885114539753 L-1766.4,1019.8315154965549 L-1536.0,1152.8530175178448 L-1305.6000000000001,1019.8315154965551 Z" fill="url(#d6)" stroke="black" stroke-width="4.266666666666667" />
<text x="-1536.0" y="1064.172016170318" font-size="102" font-family="Helvetica" fill="black" text-anchor="middle" dominant-baseline="central">b1</text>
<path d="M-793.5999999999999,753.7885114539754 L-1024.0,620.7670094326855 L-1254.4,753.7885114539753 L-1254.4,1019.8315154965549 L-1024.0,1152.8530175178448 L-793.6,1019.8315154965551 Z" fill="url(#d7)" stroke="black" stroke-width="4.266666666666667" />
<text x="-1024.0" y="1064.172016170318" font-size="102" font-family="Helvetica" fill="black" text-anchor="middle" dominant-baseline="central">b2</text>
<path d="M-281.6000000000001,753.7885114539754 L-512.0000000000001,620.7670094326855 L-742.4000000000001,753.7885114539753 L-742.4000000000002,1019.8315154965549 L-512.0000000000001,1152.8530175178448 L-281.60000000000014,1019.8315154965551 Z" fill="url(#d8)" stroke="black" stroke-width="4.266666666666667" />
<text x="-512.0000000000001" y="1064.172016170318" font-size="102" font-family="Helvetica" fill="black" text-anchor="middle" dominant-baseline="central">b3</text>
<path d="M230.39999999999992,753.7885114539754 L-9.739640205480146e-14,620.7670094326855 L-230.4000000000001,753.7885114539753 L-230.40000000000018,1019.8315154965549 L-1.6255814472205976e-13,1152.8530175178448 L230.39999999999984,1019.8315154965551 Z" fill="url(#d9)" stroke="black" stroke-width="4.266666666666667" />
<text x="-1.1368683772161603e-13" y="1064.172016170318" font-size="102" font-family="Helvetica" fill="black" text-anchor="middle" dominant-baseline="central">b4</text>
<path d="M742.3999999999999,753.7885114539754 L511.9999999999999,620.7670094326855 L281.5999999999999,753.7885114539753 L281.5999999999998,1019.8315154965549 L511.99999999999983,1152.8530175178448 L742.3999999999999,1019.8315154965551 Z" fill="url(#d10)" stroke="black" stroke-width="4.266666666666667" />
<text x="511.9999999999999" y="1064.172016170318" font-size="102" font-family="Helvetica" fill="black" text-anchor="middle" dominant-baseline="central">b5</text>
<path d="M1254.3999999999999,753.7885114539754 L1023.9999999999999,620.7670094326855 L793.5999999999999,753.7885114539753 L793.5999999999998,1019.8315154965549 L1023.9999999999999,1152.8530175178448 L1254.3999999999999,1019.8315154965551 Z" fill="url(#d11)" stroke="black" stroke-width="4.266666666666667" />
<text x="1023.9999999999999" y="1064.172016170318" font-size="102" font-family="Helvetica" fill="black" text-anchor="middle" dominant-baseline="central">b6</text>
<path d="M1766.4,753.7885114539754 L1536.0,620.7670094326855 L1305.6,753.7885114539753 L1305.6,1019.8315154965549 L1536.0,1152.8530175178448 L1766.3999999999999,1019.8315154965551 Z" fill="url(#d12)" stroke="black" stroke-width="4.266666666666667" />
<text x="1536.0" y="1064.172016170318" font-size="102" font-family="Helvetica" fill="black" text-anchor="middle" dominant-baseline="central">b7</text>
<path d="M-1049.6,310.3835047163428 L-1280.0,177.36200269505298 L-1510.4,310.3835047163427 L-1510.4,576.4265087589223 L-1280.0,709.4480107802121 L-1049.6000000000001,576.4265087589224 Z" fill="url(#d13)" stroke="black" stroke-width="4.266666666666667" />
<text x="-1280.0" y="620.7670094326857" font-size="102" font-family="Helvetica" fill="black" text-anchor="middle" dominant-baseline="central">c1</text>
<path d="M-537.5999999999999,310.3835047163428 L-768.0,177.36200269505298 L-998.4,310.3835047163427 L-998.4000000000001,576.4265087589223 L-768.0,709.4480107802121 L-537.6,576.4265087589224 Z" fill="url(#d14)" stroke="black" stroke-width="4.266666666666667" />
<text x="-768.0" y="620.7670094326857" font-size="102" font-family="Helvetica" fill="black" text-anchor="middle" dominant-baseline="central">c2</text>
<path d="M-25.600000000000023,310.3835047163428 L-256.00000000000006,177.36200269505298 L-486.40000000000003,310.3835047163427 L-486.4000000000001,576.4265087589223 L-256.0000000000001,709.4480107802121 L-25.600000000000108,576.4265087589224 Z" fill="url(#d15)" stroke="black" stroke-width="4.266666666666667" />
<text x="-256.00000000000006" y="620.7670094326857" font-size="102" font-family="Helvetica" fill="black" text-anchor="middle" dominant-baseline="central">c3</text>
<path d="M486.4,310.3835047163428 L255.99999999999997,177.36200269505298 L25.599999999999966,310.3835047163427 L25.59999999999988,576.4265087589223 L255.9999999999999,709.4480107802121 L486.39999999999986,576.4265087589224 Z" fill="url(#d16)" stroke="black" stroke-width="4.266666666666667" />
<text x="255.99999999999994" y="620.7670094326857" font-size="102" font-family="Helvetica" fill="black" text-anchor="middle" dominant-baseline="central">c4</text>
<path d="M998.4000000000001,310.3835047163428 L768.0,177.36200269505298 L537.6,310.3835047163427 L537.5999999999999,576.4265087589223 L768.0,709.4480107802121 L998.4,576.4265087589224 Z" fill="url(#d17)" stroke="black" stroke-width="4.266666666666667" />
<text x="768.0" y="620.7670094326857" font-size="102" font-family="Helvetica" fill="black" text-anchor="middle" dominant-baseline="central">c5</text>
<path d="M1510.4,310.3835047163428 L1280.0,177.36200269505298 L1049.6,310.3835047163427 L1049.6,576.4265087589223 L1280.0,709.4480107802121 L1510.3999999999999,576.4265087589224 Z" fill="url(#d18)" stroke="black" stroke-width="4.266666666666667" />
<text x="1280.0" y="620.7670094326857" font-size="102" font-family="Helvetica" fill="black" text-anchor="middle" dominant-baseline="central">c6</text>
<path d="M-1305.6,-133.02150202128976 L-1536.0,-266.0430040425796 L-1766.4,-133.02150202128988 L-1766.4,133.0215020212897 L-1536.0,266.0430040425796 L-1305.6000000000001,133.0215020212899 Z" fill="url(#d19)" stroke="black" stroke-width="4.266666666666667" />
<text x="-1536.0" y="177.36200269505306" font-size="102" font-family="Helvetica" fill="black" text-anchor="middle" dominant-baseline="central">d1</text>
<path d="M-793.5999999999999,-133.02150202128976 L-1024.0,-266.0430040425796 L-1254.4,-133.02150202128988 L-1254.4,133.0215020212897 L-1024.0,266.0430040425796 L-793.6,133.0215020212899 Z" fill="url(#d20)" stroke="black" stroke-width="4.266666666666667" />
<text x="-1024.0" y="177.36200269505306" font-size="102" font-family="Helvetica" fill="black" text-anchor="middle" dominant-baseline="central">d2</text>
<path d="M-281.59999999999997,-133.02150202128976 L-512.0,-266.0430040425796 L-742.4,-133.02150202128988 L-742.4000000000001,133.0215020212897 L-512.0,266.0430040425796 L-281.6,133.0215020212899 Z" fill="url(#d21)" stroke="black" stroke-width="4.266666666666667" />
<text x="-512.0" y="177.36200269505306" font-size="102" font-family="Helvetica" fill="black" text-anchor="middle" dominant-baseline="central">d3</text>
<path d="M230.40000000000003,-133.02150202128976 L1.629043566681457e-14,-266.0430040425796 L-230.39999999999998,-133.02150202128988 L-230.40000000000006,133.0215020212897 L-4.8871307000443714e-14,266.0430040425796 L230.39999999999995,133.0215020212899 Z" fill="url(#d22)" stroke="black" stroke-width="4.266666666666667" />
<text x="0.0" y="177.36200269505306" font-size="102" font-family="Helvetica" fill="black" text-anchor="middle" dominant-baseline="central">d4</text>
<path d="M742.4000000000001,-133.02150202128976 L512.0,-266.0430040425796 L281.6,-133.02150202128988 L281.5999999999999,133.0215020212897 L511.99999999999994,266.0430040425796 L742.4,133.0215020212899 Z" fill="url(#d23)" stroke="black" stroke-width="4.266666666666667" />
<text x="512.0" y="177.36200269505306" font-size="102" font-family="Helvetica" fill="black" text-anchor="middle" dominant-baseline="central">d5</text>
<path d="M1254.4,-133.02150202128976 L1024.0,-266.0430040425796 L793.6,-133.02150202128988 L793.5999999999999,133.0215020212897 L1024.0,266.0430040425796 L1254.3999999999999,133.0215020212899 Z" fill="url(#d24)" stroke="black" stroke-width="4.266666666666667" />
<text x="1024.0" y="177.36200269505306" font-size="102" font-family="Helvetica" fill="black" text-anchor="middle" dominant-baseline="central">d6</text>
<path d="M1766.4,-133.02150202128976 L1536.0,-266.0430040425796 L1305.6,-133.02150202128988 L1305.6,133.0215020212897 L1536.0,266.0430040425796 L1766.3999999999999,133.0215020212899 Z" fill="url(#d25)" stroke="black" stroke-width="4.266666666666667" />
<text x="1536.0" y="177.36200269505306" font-size="102" font-family="Helvetica" fill="black" text-anchor="middle" dominant-baseline="central">d7</text>
<path d="M-1049.6,-576.4265087589223 L-1280.0,-709.4480107802121 L-1510.4,-576.4265087589224 L-1510.4,-310.3835047163428 L-1280.0,-177.36200269505298 L-1049.6000000000001,-310.38350471634266 Z" fill="url(#d26)" stroke="black" stroke-width="4.266666666666667" />
<text x="-1280.0" y="-266.04300404257947" font-size="102" font-family="Helvetica" fill="black" text-anchor="middle" dominant-baseline="central">e1</text>
<path d="M-537.5999999999999,-576.4265087589223 L-768.0,-709.4480107802121 L-998.4,-576.4265087589224 L-998.4000000000001,-310.3835047163428 L-768.0,-177.36200269505298 L-537.6,-310.38350471634266 Z" fill="url(#d27)" stroke="black" stroke-width="4.266666666666667" />
<text x="-768.0" y="-266.04300404257947" font-size="102" font-family="Helvetica" fill="black" text-anchor="middle" dominant-baseline="central">e2</text>
<path d="M-25.59999999999991,-576.4265087589223 L-255.99999999999991,-709.4480107802121 L-486.3999999999999,-576.4265087589224 L-486.4,-310.3835047163428 L-256.0,-177.36200269505298 L-25.599999999999994,-310.38350471634266 Z" fill="url(#d28)" stroke="black" stroke-width="4.266666666666667" />
<text x="-255.99999999999994" y="-266.04300404257947" font-size="102" font-family="Helvetica" fill="black" text-anchor="middle" dominant-baseline="central">e3</text>
<path d="M486.4000000000001,-576.4265087589223 L256.00000000000006,-709.4480107802121 L25.60000000000008,-576.4265087589224 L25.599999999999994,-310.3835047163428 L256.0,-177.36200269505298 L486.4,-310.38350471634266 Z" fill="url(#d29)" stroke="black" stroke-width="4.266666666666667" />
<text x="256.00000000000006" y="-266.04300404257947" font-size="102" font-family="Helvetica" fill="black" text-anchor="middle" dominant-baseline="central">e4</text>
<path d="M998.4000000000001,-576.4265087589223 L768.0,-709.4480107802121 L537.6,-576.4265087589224 L537.5999999999999,-310.3835047163428 L768.0,-177.36200269505298 L998.4,-310.38350471634266 Z" fill="url(#d30)" stroke="black" stroke-width="4.266666666666667" />
<text x="768.0" y="-266.04300404257947" font-size="102" font-family="Helvetica" fill="black" text-anchor="middle" dominant-baseline="central">e5</text>
<path d="M1510.4,-576.4265087589223 L1280.0,-709.4480107802121 L1049.6,-576.4265087589224 L1049.6,-310.3835047163428 L1280.0,-177.36200269505298 L1510.3999999999999,-310.38350471634266 Z" fill="url(#d31)" stroke="black" stroke-width="4.266666666666667" />
<text x="1280.0" y="-266.04300404257947" font-size="102" font-family="Helvetica" fill="black" text-anchor="middle" dominant-baseline="central">e6</text>
<path d="M-1305.6,-1019.8315154965549 L-1536.0,-1152.8530175178448 L-1766.4,-1019.831515496555 L-1766.4,-753.7885114539754 L-1536.0,-620.7670094326855 L-1305.6000000000001,-753.7885114539752 Z" fill="url(#d32)" stroke="black" stroke-width="4.266666666666667" />
<text x="-1536.0" y="-709.448010780212" font-size="102" font-family="Helvetica" fill="black" text-anchor="middle" dominant-baseline="central">f1</text>
<path d="M-793.5999999999999,-1019.8315154965549 L-1023.9999999999999,-1152.8530175178448 L-1254.3999999999999,-1019.831515496555 L-1254.3999999999999,-753.7885114539754 L-1023.9999999999999,-620.7670094326855 L-793.5999999999999,-753.7885114539752 Z" fill="url(#d33)" stroke="black" stroke-width="4.266666666666667" />
<text x="-1023.9999999999999" y="-709.448010780212" font-size="102" font-family="Helvetica" fill="black" text-anchor="middle" dominant-baseline="central">f2</text>
<path d="M-281.59999999999985,-1019.8315154965549 L-511.9999999999999,-1152.8530175178448 L-742.3999999999999,-1019.831515496555 L-742.4,-753.7885114539754 L-511.99999999999994,-620.7670094326855 L-281.5999999999999,-753.7885114539752 Z" fill="url(#d34)" stroke="black" stroke-width="4.266666666666667" />
<text x="-511.9999999999999" y="-709.448010780212" font-size="102" font-family="Helvetica" fill="black" text-anchor="middle" dominant-baseline="central">f3</text>
<path d="M230.40000000000015,-1019.8315154965549 L1.299772733884306e-13,-1152.8530175178448 L-230.39999999999986,-1019.831515496555 L-230.39999999999995,-753.7885114539754 L6.481553072117232e-14,-620.7670094326855 L230.40000000000006,-753.7885114539752 Z" fill="url(#d35)" stroke="black" stroke-width="4.266666666666667" />
<text x="1.1368683772161603e-13" y="-709.448010780212" font-size="102" font-family="Helvetica" fill="black" text-anchor="middle" dominant-baseline="central">f4</text>
<path d="M742.4000000000001,-1019.8315154965549 L512.0000000000001,-1152.8530175178448 L281.60000000000014,-1019.831515496555 L281.6,-753.7885114539754 L512.0000000000001,-620.7670094326855 L742.4000000000001,-753.7885114539752 Z" fill="url(#d36)" stroke="black" stroke-width="4.266666666666667" />
<text x="512.0000000000001" y="-709.448010780212" font-size="102" font-family="Helvetica" fill="black" text-anchor="middle" dominant-baseline="central">f5</text>
<path d="M1254.4,-1019.8315154965549 L1024.0,-1152.8530175178448 L793.6,-1019.831515496555 L793.5999999999999,-753.7885114539754 L1024.0,-620.7670094326855 L1254.3999999999999,-753.7885114539752 Z" fill="url(#d37)" stroke="black" stroke-width="4.266666666666667" />
<text x="1024.0" y="-709.448010780212" font-size="102" font-family="Helvetica" fill="black" text-anchor="middle" dominant-baseline="central">f6</text>
<path d="M1766.4,-1019.8315154965549 L1536.0,-1152.8530175178448 L1305.6,-1019.831515496555 L1305.6,-753.7885114539754 L1536.0,-620.7670094326855 L1766.3999999999999,-753.7885114539752 Z" fill="url(#d38)" stroke="black" stroke-width="4.266666666666667" />
<text x="1536.0" y="-709.448010780212" font-size="102" font-family="Helvetica" fill="black" text-anchor="middle" dominant-baseline="central">f7</text>
<path d="M-1049.5999999999997,-1463.2365222341875 L-1279.9999999999998,-1596.2580242554773 L-1510.3999999999996,-1463.2365222341878 L-1510.3999999999999,-1197.193518191608 L-1279.9999999999998,-1064.1720161703183 L-1049.6,-1197.1935181916078 Z" fill="url(#d39)" stroke="black" stroke-width="4.266666666666667" />
<text x="-1279.9999999999998" y="-1152.8530175178448" font-size="102" font-family="Helvetica" fill="black" text-anchor="middle" dominant-baseline="central">g1</text>
<path d="M-537.5999999999997,-1463.2365222341875 L-767.9999999999998,-1596.2580242554773 L-998.3999999999997,-1463.2365222341878 L-998.3999999999999,-1197.193518191608 L-767.9999999999998,-1064.1720161703183 L-537.5999999999998,-1197.1935181916078 Z" fill="url(#d40)" stroke="black" stroke-width="4.266666666666667" />
<text x="-767.9999999999998" y="-1152.8530175178448" font-size="102" font-family="Helvetica" fill="black" text-anchor="middle" dominant-baseline="central">g2</text>
<path d="M-25.59999999999974,-1463.2365222341875 L-255.99999999999974,-1596.2580242554773 L-486.39999999999975,-1463.2365222341878 L-486.39999999999986,-1197.193518191608 L-255.99999999999983,-1064.1720161703183 L-25.599999999999824,-1197.1935181916078 Z" fill="url(#d41)" stroke="black" stroke-width="4.266666666666667" />
<text x="-255.99999999999977" y="-1152.8530175178448" font-size="102" font-family="Helvetica" fill="black" text-anchor="middle" dominant-baseline="central">g3</text>
<path d="M486.40000000000026,-1463.2365222341875 L256.0000000000002,-1596.2580242554773 L25.60000000000025,-1463.2365222341878 L25.600000000000165,-1197.193518191608 L256.00000000000017,-1064.1720161703183 L486.4000000000002,-1197.1935181916078 Z" fill="url(#d42)" stroke="black" stroke-width="4.266666666666667" />
<text x="256.0000000000002" y="-1152.8530175178448" font-size="102" font-family="Helvetica" fill="black" text-anchor="middle" dominant-baseline="central">g4</text>
<path d="M998.4000000000003,-1463.2365222341875 L768.0000000000002,-1596.2580242554773 L537.6000000000003,-1463.2365222341878 L537.6000000000001,-1197.193518191608 L768.0000000000002,-1064.1720161703183 L998.4000000000002,-1197.1935181916078 Z" fill="url(#d43)" stroke="black" stroke-width="4.266666666666667" />
<text x="768.0000000000002" y="-1152.8530175178448" font-size="102" font-family="Helvetica" fill="black" text-anchor="middle" dominant-baseline="central">g5</text>
<path d="M1510.4000000000003,-1463.2365222341875 L1280.0000000000002,-1596.2580242554773 L1049.6000000000004,-1463.2365222341878 L1049.6000000000001,-1197.193518191608 L1280.0000000000002,-1064.1720161703183 L1510.4,-1197.1935181916078 Z" fill="url(#d44)" stroke="black" stroke-width="4.266666666666667" />
<text x="1280.0000000000002" y="-1152.8530175178448" font-size="102" font-family="Helvetica" fill="black" text-anchor="middle" dominant-baseline="central">g6</text>
</svg>