<?xml version="1.0" encoding="UTF-8"?>
<svg xmlns="http://www.w3.org/2000/svg" xmlns:xlink="http://www.w3.org/1999/xlink"
     width="20.86cm" height="20.86cm" viewBox="0 0 4096 4096.0">
<defs>
</defs>
<rect x="0" y="0" width="4096" height="4096.0" fill="#BF9B7A" />
<rect x="313.1888782358581" y="313.1888782358581" width="316.13422818791946" height="316.13422818791946" fill="green" />
<rect x="314.1706615532119" y="314.1706615532119" width="314.1706615532119" height="314.1706615532119" fill="black" />
<circle cx="471.2559923298179" cy="471.2559923298179" r="78.54266538830298" fill-opacity="0" stroke="white" stroke-width="29.453499520613615" />
<rect x="943.4937679769894" y="313.1888782358581" width="316.13422818791946" height="316.13422818791946" fill="green" />
<rect x="944.4755512943432" y="314.1706615532119" width="314.1706615532119" height="314.1706615532119" fill="black" />
<circle cx="1101.5608820709492" cy="471.2559923298179" r="78.54266538830298" fill-opacity="0" stroke="white" stroke-width="29.453499520613615" />
<rect x="1573.7986577181207" y="313.1888782358581" width="316.13422818791946" height="316.13422818791946" fill="green" />
<rect x="1574.7804410354745" y="314.1706615532119" width="314.1706615532119" height="314.1706615532119" fill="black" />
<circle cx="1731.8657718120805" cy="471.2559923298179" r="78.54266538830298" fill-opacity="0" stroke="white" stroke-width="29.453499520613615" />
<rect x="2204.1035474592522" y="313.1888782358581" width="316.13422818791946" height="316.13422818791946" fill="green" />
<rect x="2205.085330776606" y="314.1706615532119" width="314.1706615532119" height="314.1706615532119" fill="black" />
<circle cx="2362.170661553212" cy="471.2559923298179" r="78.54266538830298" fill-opacity="0" stroke="white" stroke-width="29.453499520613615" />
<rect x="2834.4084372003836" y="313.1888782358581" width="316.13422818791946" height="316.13422818791946" fill="green" />
<rect x="2835.3902205177374" y="314.1706615532119" width="314.1706615532119" height="314.1706615532119" fill="black" />
<path d="M3071.018216682646,471.2559923298179 L3070.5553892520606,476.15866591994757 L3069.1937624670463,480.8713338093619 L3067.0099755468686,485.2223507281462 L3064.119702933754,489.07316831704475 L3060.662765465295,492.32700030772617 L3056.787409156629,494.9307662376924 L3052.6366027125905,496.871322182489 L3048.3380711918708,498.16796653503184 L3043.9985349401577,498.86338752450985 L3039.7016771746016,499.0148126451415 L3035.508874025527,498.68646459727194 L3031.461629313508,497.9437992093472 L3027.5848112588483,496.8495413759247 L3023.8900412445773,495.46127285152005 L3020.3788352420934,493.83022324241716 L3017.045297960595,492.000915562644 L3013.878306473578,490.0113696647245 L3010.863201741975,487.89363588612383 L3007.9830475763515,485.67449772782857 L3005.2195313943707,483.37623764748486 L3002.553580823639,481.0174020292507 L2999.965762477792,478.61353128058494 L2997.4365188871584,476.1778412113943 L2994.946289303612,473.7218549020115 L2992.4755512943434,471.2559923298179 L2990.0048132850748,468.7901297576243 L2987.5145837015284,466.3341434482415 L2984.985340110895,463.89845337905086 L2982.3975217650477,461.494582630385 L2979.731571194316,459.13574701215094 L2976.9680550123353,456.83748693180723 L2974.087900846712,454.61834877351197 L2971.0727961151088,452.50061499491125 L2967.905804628092,450.5110690969918 L2964.5722673465934,448.68176141721864 L2961.0610613441095,447.05071180811575 L2957.3662913298385,445.6624432837111 L2953.4894732751786,444.5681854502886 L2949.44222856316,443.82552006236386 L2945.249425414085,443.4971720144943 L2940.952567648529,443.64859713512595 L2936.613031396816,444.34401812460396 L2932.3144998760963,445.6406624771468 L2928.1636934320577,447.58121842194333 L2924.288337123392,450.18498435190963 L2920.8313996549327,453.43881634259105 L2917.941127041818,457.2896339314896 L2915.7573401216405,461.6406508502739 L2914.395713336626,466.35331873968823 L2913.9328859060406,471.2559923298179 L2914.395713336626,476.15866591994757 L2915.7573401216405,480.8713338093619 L2917.941127041818,485.2223507281462 L2920.8313996549327,489.0731683170447 L2924.288337123392,492.3270003077261 L2928.1636934320577,494.9307662376924 L2932.3144998760963,496.87132218248894 L2936.613031396816,498.16796653503184 L2940.952567648529,498.86338752450985 L2945.249425414085,499.0148126451415 L2949.44222856316,498.68646459727194 L2953.4894732751786,497.9437992093472 L2957.3662913298385,496.8495413759247 L2961.0610613441095,495.46127285152005 L2964.5722673465934,493.83022324241716 L2967.905804628092,492.000915562644 L2971.0727961151088,490.01136966472455 L2974.087900846712,487.89363588612383 L2976.9680550123353,485.67449772782857 L2979.7315711943156,483.37623764748486 L2982.3975217650477,481.0174020292507 L2984.985340110895,478.61353128058494 L2987.5145837015284,476.1778412113943 L2990.0048132850748,473.7218549020115 L2992.4755512943434,471.2559923298179 L2994.946289303612,468.79012975762436 L2997.4365188871584,466.3341434482415 L2999.965762477792,463.89845337905086 L3002.553580823639,461.494582630385 L3005.2195313943707,459.13574701215094 L3007.9830475763515,456.83748693180723 L3010.863201741975,454.61834877351197 L3013.878306473578,452.50061499491125 L3017.045297960595,450.5110690969918 L3020.3788352420934,448.68176141721864 L3023.8900412445773,447.05071180811575 L3027.5848112588483,445.6624432837112 L3031.461629313508,444.5681854502886 L3035.508874025527,443.82552006236386 L3039.7016771746016,443.4971720144943 L3043.9985349401577,443.64859713512595 L3048.3380711918708,444.34401812460396 L3052.6366027125905,445.6406624771468 L3056.787409156629,447.5812184219434 L3060.662765465295,450.18498435190963 L3064.119702933754,453.43881634259105 L3067.0099755468686,457.2896339314896 L3069.1937624670463,461.6406508502739 L3070.5553892520606,466.35331873968823 Z" fill-opacity="0" stroke="white" stroke-width="29.453499520613615" />
<rect x="3464.713326941515" y="313.1888782358581" width="316.13422818791946" height="316.13422818791946" fill="green" />
<rect x="3465.6951102588687" y="314.1706615532119" width="314.1706615532119" height="314.1706615532119" fill="black" />
<path d="M3701.3231064237775,471.2559923298179 L3700.860278993192,476.15866591994757 L3699.4986522081776,480.8713338093619 L3697.314865288,485.2223507281462 L3694.4245926748854,489.07316831704475 L3690.967655206426,492.32700030772617 L3687.0922988977604,494.9307662376924 L3682.941492453722,496.871322182489 L3678.642960933002,498.16796653503184 L3674.303424681289,498.86338752450985 L3670.006566915733,499.0148126451415 L3665.813763766658,498.68646459727194 L3661.7665190546395,497.9437992093472 L3657.8897009999796,496.8495413759247 L3654.1949309857087,495.46127285152005 L3650.6837249832247,493.83022324241716 L3647.350187701726,492.000915562644 L3644.1831962147094,490.0113696647245 L3641.1680914831063,487.89363588612383 L3638.287937317483,485.67449772782857 L3635.524421135502,483.37623764748486 L3632.8584705647704,481.0174020292507 L3630.2706522189233,478.61353128058494 L3627.7414086282897,476.1778412113943 L3625.2511790447434,473.7218549020115 L3622.7804410354747,471.2559923298179 L3620.309703026206,468.7901297576243 L3617.8194734426597,466.3341434482415 L3615.290229852026,463.89845337905086 L3612.702411506179,461.494582630385 L3610.0364609354474,459.13574701215094 L3607.2729447534666,456.83748693180723 L3604.392790587843,454.61834877351197 L3601.37768585624,452.50061499491125 L3598.2106943692233,450.5110690969918 L3594.8771570877248,448.68176141721864 L3591.365951085241,447.05071180811575 L3587.67118107097,445.6624432837111 L3583.79436301631,444.5681854502886 L3579.7471183042912,443.82552006236386 L3575.5543151552165,443.4971720144943 L3571.2574573896604,443.64859713512595 L3566.9179211379474,444.34401812460396 L3562.6193896172276,445.6406624771468 L3558.468583173189,447.58121842194333 L3554.5932268645233,450.18498435190963 L3551.136289396064,453.43881634259105 L3548.2460167829495,457.2896339314896 L3546.062229862772,461.6406508502739 L3544.7006030777575,466.35331873968823 L3544.237775647172,471.2559923298179 L3544.7006030777575,476.15866591994757 L3546.062229862772,480.8713338093619 L3548.2460167829495,485.2223507281462 L3551.136289396064,489.0731683170447 L3554.5932268645233,492.3270003077261 L3558.468583173189,494.9307662376924 L3562.6193896172276,496.87132218248894 L3566.9179211379474,498.16796653503184 L3571.2574573896604,498.86338752450985 L3575.5543151552165,499.0148126451415 L3579.7471183042912,498.68646459727194 L3583.79436301631,497.9437992093472 L3587.67118107097,496.8495413759247 L3591.365951085241,495.46127285152005 L3594.8771570877248,493.83022324241716 L3598.2106943692233,492.000915562644 L3601.37768585624,490.01136966472455 L3604.392790587843,487.89363588612383 L3607.2729447534666,485.67449772782857 L3610.0364609354474,483.37623764748486 L3612.702411506179,481.0174020292507 L3615.290229852026,478.61353128058494 L3617.8194734426597,476.1778412113943 L3620.309703026206,473.7218549020115 L3622.7804410354747,471.2559923298179 L3625.2511790447434,468.79012975762436 L3627.7414086282897,466.3341434482415 L3630.2706522189233,463.89845337905086 L3632.8584705647704,461.494582630385 L3635.524421135502,459.13574701215094 L3638.287937317483,456.83748693180723 L3641.1680914831063,454.61834877351197 L3644.1831962147094,452.50061499491125 L3647.350187701726,450.5110690969918 L3650.6837249832247,448.68176141721864 L3654.1949309857087,447.05071180811575 L3657.8897009999796,445.6624432837112 L3661.7665190546395,444.5681854502886 L3665.813763766658,443.82552006236386 L3670.006566915733,443.4971720144943 L3674.303424681289,443.64859713512595 L3678.642960933002,444.34401812460396 L3682.941492453722,445.6406624771468 L3687.0922988977604,447.5812184219434 L3690.967655206426,450.18498435190963 L3694.4245926748854,453.43881634259105 L3697.314865288,457.2896339314896 L3699.4986522081776,461.6406508502739 L3700.860278993192,466.35331873968823 Z" fill-opacity="0" stroke="white" stroke-width="29.453499520613615" />
<rect x="313.1888782358581" y="943.4937679769894" width="316.13422818791946" height="316.13422818791946" fill="green" />
<rect x="314.1706615532119" y="944.4755512943432" width="314.1706615532119" height="314.1706615532119" fill="black" />
<rect x="392.7133269415149" y="1023.0182166826462" width="157.08533077660596" height="157.08533077660596" fill-opacity="0" stroke="white" stroke-width="29.453499520613615" />
<rect x="943.4937679769894" y="943.4937679769894" width="316.13422818791946" height="316.13422818791946" fill="green" />
<rect x="944.4755512943432" y="944.4755512943432" width="314.1706615532119" height="314.1706615532119" fill="black" />
<rect x="1023.0182166826462" y="1023.0182166826462" width="157.08533077660596" height="157.08533077660596" fill-opacity="0" stroke="white" stroke-width="29.453499520613615" />
<rect x="1573.7986577181207" y="943.4937679769894" width="316.13422818791946" height="316.13422818791946" fill="green" />
<rect x="1574.7804410354745" y="944.4755512943432" width="314.1706615532119" height="314.1706615532119" fill="black" />
<rect x="1653.3231064237775" y="1023.0182166826462" width="157.08533077660596" height="157.08533077660596" fill-opacity="0" stroke="white" stroke-width="29.453499520613615" />
<rect x="2204.1035474592522" y="943.4937679769894" width="316.13422818791946" height="316.13422818791946" fill="green" />
<rect x="2205.085330776606" y="944.4755512943432" width="314.1706615532119" height="314.1706615532119" fill="black" />
<rect x="2283.627996164909" y="1023.0182166826462" width="157.08533077660596" height="157.08533077660596" fill-opacity="0" stroke="white" stroke-width="29.453499520613615" />
<rect x="313.1888782358581" y="1573.7986577181207" width="316.13422818791946" height="316.13422818791946" fill="green" />
<rect x="314.1706615532119" y="1574.7804410354745" width="314.1706615532119" height="314.1706615532119" fill="black" />
<path d="M392.7133269415149,1653.3231064237775 L549.7986577181209,1810.4084372003836" fill-opacity="0" stroke="white" stroke-width="29.453499520613615" />
<path d="M549.7986577181209,1653.3231064237775 L392.7133269415149,1810.4084372003836" fill-opacity="0" stroke="white" stroke-width="29.453499520613615" />
<rect x="943.4937679769894" y="1573.7986577181207" width="316.13422818791946" height="316.13422818791946" fill="green" />
<rect x="944.4755512943432" y="1574.7804410354745" width="314.1706615532119" height="314.1706615532119" fill="black" />
<path d="M1023.0182166826462,1653.3231064237775 L1180.1035474592522,1810.4084372003836" fill-opacity="0" stroke="white" stroke-width="29.453499520613615" />
<path d="M1180.1035474592522,1653.3231064237775 L1023.0182166826462,1810.4084372003836" fill-opacity="0" stroke="white" stroke-width="29.453499520613615" />
<rect x="1573.7986577181207" y="1573.7986577181207" width="316.13422818791946" height="316.13422818791946" fill="green" />
<rect x="1574.7804410354745" y="1574.7804410354745" width="314.1706615532119" height="314.1706615532119" fill="black" />
<path d="M1653.3231064237775,1653.3231064237775 L1810.4084372003836,1810.4084372003836" fill-opacity="0" stroke="white" stroke-width="29.453499520613615" />
<path d="M1810.4084372003836,1653.3231064237775 L1653.3231064237775,1810.4084372003836" fill-opacity="0" stroke="white" stroke-width="29.453499520613615" />
<rect x="2204.1035474592522" y="1573.7986577181207" width="316.13422818791946" height="316.13422818791946" fill="green" />
<rect x="2205.085330776606" y="1574.7804410354745" width="314.1706615532119" height="314.1706615532119" fill="black" />
<path d="M2283.627996164909,1653.3231064237775 L2440.713326941515,1810.4084372003836" fill-opacity="0" stroke="white" stroke-width="29.453499520613615" />
<path d="M2440.713326941515,1653.3231064237775 L2283.627996164909,1810.4084372003836" fill-opacity="0" stroke="white" stroke-width="29.453499520613615" />
<rect x="313.1888782358581" y="2204.1035474592522" width="316.13422818791946" height="316.13422818791946" fill="green" />
<rect x="314.1706615532119" y="2205.085330776606" width="314.1706615532119" height="314.1706615532119" fill="white" />
<path d="M392.7133269415149,2283.627996164909 L549.7986577181209,2440.713326941515" fill-opacity="0" stroke="black" stroke-width="29.453499520613615" />
<path d="M549.7986577181209,2283.627996164909 L392.7133269415149,2440.713326941515" fill-opacity="0" stroke="black" stroke-width="29.453499520613615" />
<rect x="943.4937679769894" y="2204.1035474592522" width="316.13422818791946" height="316.13422818791946" fill="green" />
<rect x="944.4755512943432" y="2205.085330776606" width="314.1706615532119" height="314.1706615532119" fill="white" />
<path d="M1023.0182166826462,2283.627996164909 L1180.1035474592522,2440.713326941515" fill-opacity="0" stroke="black" stroke-width="29.453499520613615" />
<path d="M1180.1035474592522,2283.627996164909 L1023.0182166826462,2440.713326941515" fill-opacity="0" stroke="black" stroke-width="29.453499520613615" />
<rect x="1573.7986577181207" y="2204.1035474592522" width="316.13422818791946" height="316.13422818791946" fill="green" />
<rect x="1574.7804410354745" y="2205.085330776606" width="314.1706615532119" height="314.1706615532119" fill="white" />
<path d="M1653.3231064237775,2283.627996164909 L1810.4084372003836,2440.713326941515" fill-opacity="0" stroke="black" stroke-width="29.453499520613615" />
<path d="M1810.4084372003836,2283.627996164909 L1653.3231064237775,2440.713326941515" fill-opacity="0" stroke="black" stroke-width="29.453499520613615" />
<rect x="2204.1035474592522" y="2204.1035474592522" width="316.13422818791946" height="316.13422818791946" fill="green" />
<rect x="2205.085330776606" y="2205.085330776606" width="314.1706615532119" height="314.1706615532119" fill="white" />
<path d="M2283.627996164909,2283.627996164909 L2440.713326941515,2440.713326941515" fill-opacity="0" stroke="black" stroke-width="29.453499520613615" />
<path d="M2440.713326941515,2283.627996164909 L2283.627996164909,2440.713326941515" fill-opacity="0" stroke="black" stroke-width="29.453499520613615" />
<rect x="313.1888782358581" y="2834.4084372003836" width="316.13422818791946" height="316.13422818791946" fill="green" />
<rect x="314.1706615532119" y="2835.3902205177374" width="314.1706615532119" height="314.1706615532119" fill="white" />
<rect x="392.7133269415149" y="2913.93288590604" width="157.08533077660596" height="157.08533077660596" fill-opacity="0" stroke="black" stroke-width="29.453499520613615" />
<rect x="943.4937679769894" y="2834.4084372003836" width="316.13422818791946" height="316.13422818791946" fill="green" />
<rect x="944.4755512943432" y="2835.3902205177374" width="314.1706615532119" height="314.1706615532119" fill="white" />
<rect x="1023.0182166826462" y="2913.93288590604" width="157.08533077660596" height="157.08533077660596" fill-opacity="0" stroke="black" stroke-width="29.453499520613615" />
<rect x="1573.7986577181207" y="2834.4084372003836" width="316.13422818791946" height="316.13422818791946" fill="green" />
<rect x="1574.7804410354745" y="2835.3902205177374" width="314.1706615532119" height="314.1706615532119" fill="white" />
<rect x="1653.3231064237775" y="2913.93288590604" width="157.08533077660596" height="157.08533077660596" fill-opacity="0" stroke="black" stroke-width="29.453499520613615" />
<rect x="2204.1035474592522" y="2834.4084372003836" width="316.13422818791946" height="316.13422818791946" fill="green" />
<rect x="2205.085330776606" y="2835.3902205177374" width="314.1706615532119" height="314.1706615532119" fill="white" />
<rect x="2283.627996164909" y="2913.93288590604" width="157.08533077660596" height="157.08533077660596" fill-opacity="0" stroke="black" stroke-width="29.453499520613615" />
<rect x="313.1888782358581" y="3464.713326941515" width="316.13422818791946" height="316.13422818791946" fill="green" />
<rect x="314.1706615532119" y="3465.6951102588687" width="314.1706615532119" height="314.1706615532119" fill="white" />
<circle cx="471.2559923298179" cy="3622.7804410354747" r="78.54266538830298" fill-opacity="0" stroke="black" stroke-width="29.453499520613615" />
<rect x="943.4937679769894" y="3464.713326941515" width="316.13422818791946" height="316.13422818791946" fill="green" />
<rect x="944.4755512943432" y="3465.6951102588687" width="314.1706615532119" height="314.1706615532119" fill="white" />
<circle cx="1101.5608820709492" cy="3622.7804410354747" r="78.54266538830298" fill-opacity="0" stroke="black" stroke-width="29.453499520613615" />
<rect x="1573.7986577181207" y="3464.713326941515" width="316.13422818791946" height="316.13422818791946" fill="green" />
<rect x="1574.7804410354745" y="3465.6951102588687" width="314.1706615532119" height="314.1706615532119" fill="white" />
<circle cx="1731.8657718120805" cy="3622.7804410354747" r="78.54266538830298" fill-opacity="0" stroke="black" stroke-width="29.453499520613615" />
<rect x="2204.1035474592522" y="3464.713326941515" width="316.13422818791946" height="316.13422818791946" fill="green" />
<rect x="2205.085330776606" y="3465.6951102588687" width="314.1706615532119" height="314.1706615532119" fill="white" />
<circle cx="2362.170661553212" cy="3622.7804410354747" r="78.54266538830298" fill-opacity="0" stroke="black" stroke-width="29.453499520613615" />
<rect x="2834.4084372003836" y="3464.713326941515" width="316.13422818791946" height="316.13422818791946" fill="green" />
<rect x="2835.3902205177374" y="3465.6951102588687" width="314.1706615532119" height="314.1706615532119" fill="white" />
<path d="M3071.018216682646,3622.7804410354747 L3070.5553892520606,3627.6831146256045 L3069.1937624670463,3632.3957825150187 L3067.0099755468686,3636.746799433803 L3064.119702933754,3640.5976170227013 L3060.662765465295,3643.851449013383 L3056.787409156629,3646.4552149433493 L3052.6366027125905,3648.3957708881458 L3048.3380711918708,3649.6924152406887 L3043.9985349401577,3650.3878362301666 L3039.7016771746016,3650.5392613507984 L3035.508874025527,3650.210913302929 L3031.461629313508,3649.468247915004 L3027.5848112588483,3648.3739900815813 L3023.8900412445773,3646.985721557177 L3020.3788352420934,3645.354671948074 L3017.045297960595,3643.525364268301 L3013.878306473578,3641.5358183703815 L3010.863201741975,3639.418084591781 L3007.9830475763515,3637.1989464334856 L3005.2195313943707,3634.9006863531417 L3002.553580823639,3632.5418507349077 L2999.965762477792,3630.1379799862416 L2997.4365188871584,3627.702289917051 L2994.946289303612,3625.2463036076683 L2992.4755512943434,3622.7804410354747 L2990.0048132850748,3620.314578463281 L2987.5145837015284,3617.8585921538984 L2984.985340110895,3615.422902084708 L2982.3975217650477,3613.0190313360417 L2979.731571194316,3610.6601957178077 L2976.9680550123353,3608.3619356374643 L2974.087900846712,3606.1427974791686 L2971.0727961151088,3604.025063700568 L2967.905804628092,3602.0355178026484 L2964.5722673465934,3600.2062101228753 L2961.0610613441095,3598.5751605137725 L2957.3662913298385,3597.186891989368 L2953.4894732751786,3596.0926341559452 L2949.44222856316,3595.3499687680205 L2945.249425414085,3595.021620720151 L2940.952567648529,3595.173045840783 L2936.613031396816,3595.868466830261 L2932.3144998760963,3597.1651111828037 L2928.1636934320577,3599.1056671276 L2924.288337123392,3601.7094330575665 L2920.8313996549327,3604.9632650482476 L2917.941127041818,3608.8140826371464 L2915.7573401216405,3613.1650995559307 L2914.395713336626,3617.877767445345 L2913.9328859060406,3622.7804410354747 L2914.395713336626,3627.6831146256045 L2915.7573401216405,3632.3957825150187 L2917.941127041818,3636.746799433803 L2920.8313996549327,3640.5976170227013 L2924.288337123392,3643.851449013383 L2928.1636934320577,3646.4552149433493 L2932.3144998760963,3648.3957708881458 L2936.613031396816,3649.6924152406887 L2940.952567648529,3650.3878362301666 L2945.249425414085,3650.5392613507984 L2949.44222856316,3650.210913302929 L2953.4894732751786,3649.468247915004 L2957.3662913298385,3648.3739900815813 L2961.0610613441095,3646.985721557177 L2964.5722673465934,3645.354671948074 L2967.905804628092,3643.525364268301 L2971.0727961151088,3641.5358183703815 L2974.087900846712,3639.418084591781 L2976.9680550123353,3637.198946433485 L2979.7315711943156,3634.9006863531417 L2982.3975217650477,3632.5418507349077 L2984.985340110895,3630.1379799862416 L2987.5145837015284,3627.702289917051 L2990.0048132850748,3625.2463036076683 L2992.4755512943434,3622.7804410354747 L2994.946289303612,3620.314578463281 L2997.4365188871584,3617.8585921538984 L2999.965762477792,3615.422902084708 L3002.553580823639,3613.0190313360417 L3005.2195313943707,3610.6601957178077 L3007.9830475763515,3608.3619356374643 L3010.863201741975,3606.1427974791686 L3013.878306473578,3604.025063700568 L3017.045297960595,3602.0355178026484 L3020.3788352420934,3600.2062101228753 L3023.8900412445773,3598.5751605137725 L3027.5848112588483,3597.186891989368 L3031.461629313508,3596.0926341559452 L3035.508874025527,3595.3499687680205 L3039.7016771746016,3595.021620720151 L3043.9985349401577,3595.173045840783 L3048.3380711918708,3595.868466830261 L3052.6366027125905,3597.1651111828037 L3056.787409156629,3599.1056671276 L3060.662765465295,3601.7094330575665 L3064.119702933754,3604.9632650482476 L3067.0099755468686,3608.8140826371464 L3069.1937624670463,3613.1650995559307 L3070.5553892520606,3617.877767445345 Z" fill-opacity="0" stroke="black" stroke-width="29.453499520613615" />
<rect x="3464.713326941515" y="3464.713326941515" width="316.13422818791946" height="316.13422818791946" fill="green" />
<rect x="3465.6951102588687" y="3465.6951102588687" width="314.1706615532119" height="314.1706615532119" fill="white" />
<path d="M3701.3231064237775,3622.7804410354747 L3700.860278993192,3627.6831146256045 L3699.4986522081776,3632.3957825150187 L3697.314865288,3636.746799433803 L3694.4245926748854,3640.5976170227013 L3690.967655206426,3643.851449013383 L3687.0922988977604,3646.4552149433493 L3682.941492453722,3648.3957708881458 L3678.642960933002,3649.6924152406887 L3674.303424681289,3650.3878362301666 L3670.006566915733,3650.5392613507984 L3665.813763766658,3650.210913302929 L3661.7665190546395,3649.468247915004 L3657.8897009999796,3648.3739900815813 L3654.1949309857087,3646.985721557177 L3650.6837249832247,3645.354671948074 L3647.350187701726,3643.525364268301 L3644.1831962147094,3641.5358183703815 L3641.1680914831063,3639.418084591781 L3638.287937317483,3637.1989464334856 L3635.524421135502,3634.9006863531417 L3632.8584705647704,3632.5418507349077 L3630.2706522189233,3630.1379799862416 L3627.7414086282897,3627.702289917051 L3625.2511790447434,3625.2463036076683 L3622.7804410354747,3622.7804410354747 L3620.309703026206,3620.314578463281 L3617.8194734426597,3617.8585921538984 L3615.290229852026,3615.422902084708 L3612.702411506179,3613.0190313360417 L3610.0364609354474,3610.6601957178077 L3607.2729447534666,3608.3619356374643 L3604.392790587843,3606.1427974791686 L3601.37768585624,3604.025063700568 L3598.2106943692233,3602.0355178026484 L3594.8771570877248,3600.2062101228753 L3591.365951085241,3598.5751605137725 L3587.67118107097,3597.186891989368 L3583.79436301631,3596.0926341559452 L3579.7471183042912,3595.3499687680205 L3575.5543151552165,3595.021620720151 L3571.2574573896604,3595.173045840783 L3566.9179211379474,3595.868466830261 L3562.6193896172276,3597.1651111828037 L3558.468583173189,3599.1056671276 L3554.5932268645233,3601.7094330575665 L3551.136289396064,3604.9632650482476 L3548.2460167829495,3608.8140826371464 L3546.062229862772,3613.1650995559307 L3544.7006030777575,3617.877767445345 L3544.237775647172,3622.7804410354747 L3544.7006030777575,3627.6831146256045 L3546.062229862772,3632.3957825150187 L3548.2460167829495,3636.746799433803 L3551.136289396064,3640.5976170227013 L3554.5932268645233,3643.851449013383 L3558.468583173189,3646.4552149433493 L3562.6193896172276,3648.3957708881458 L3566.9179211379474,3649.6924152406887 L3571.2574573896604,3650.3878362301666 L3575.5543151552165,3650.5392613507984 L3579.7471183042912,3650.210913302929 L3583.79436301631,3649.468247915004 L3587.67118107097,3648.3739900815813 L3591.365951085241,3646.985721557177 L3594.8771570877248,3645.354671948074 L3598.2106943692233,3643.525364268301 L3601.37768585624,3641.5358183703815 L3604.392790587843,3639.418084591781 L3607.2729447534666,3637.198946433485 L3610.0364609354474,3634.9006863531417 L3612.702411506179,3632.5418507349077 L3615.290229852026,3630.1379799862416 L3617.8194734426597,3627.702289917051 L3620.309703026206,3625.2463036076683 L3622.7804410354747,3622.7804410354747 L3625.2511790447434,3620.314578463281 L3627.7414086282897,3617.8585921538984 L3630.2706522189233,3615.422902084708 L3632.8584705647704,3613.0190313360417 L3635.524421135502,3610.6601957178077 L3638.287937317483,3608.3619356374643 L3641.1680914831063,3606.1427974791686 L3644.1831962147094,3604.025063700568 L3647.350187701726,3602.0355178026484 L3650.6837249832247,3600.2062101228753 L3654.1949309857087,3598.5751605137725 L3657.8897009999796,3597.186891989368 L3661.7665190546395,3596.0926341559452 L3665.813763766658,3595.3499687680205 L3670.006566915733,3595.021620720151 L3674.303424681289,3595.173045840783 L3678.642960933002,3595.868466830261 L3682.941492453722,3597.1651111828037 L3687.0922988977604,3599.1056671276 L3690.967655206426,3601.7094330575665 L3694.4245926748854,3604.9632650482476 L3697.314865288,3608.8140826371464 L3699.4986522081776,3613.1650995559307 L3700.860278993192,3617.877767445345 Z" fill-opacity="0" stroke="black" stroke-width="29.453499520613615" />
</svg>