<?xml version="1.0" encoding="UTF-8"?>
<svg xmlns="http://www.w3.org/2000/svg" xmlns:xlink="http://www.w3.org/1999/xlink"
     width="24.0cm" height="22.516660498395407cm" viewBox="-2048.0 -1921.4216958630748 4096 3842.8433917261495">
<defs>
</defs>
<rect x="-2048.0" y="-1921.4216958630748" width="4096" height="3842.8433917261495" fill="#BF9B7A" />
<path d="M-1041.0666666666668,1192.2667958945233 L-1280.0000000000002,1054.3185715761485 L-1518.9333333333336,1192.266795894523 L-1518.9333333333336,1468.1632445312723 L-1280.0000000000002,1606.111468849647 L-1041.066666666667,1468.1632445312725 Z" fill-opacity="0.2" stroke-width="4.266666666666667" />
<text x="-1634.7240053901064" y="1330.2150202128978" font-size="102" font-family="Helvetica" fill="black" text-anchor="middle" dominant-baseline="central">a1</text>
<path d="M-529.0666666666668,1192.2667958945233 L-768.0000000000002,1054.3185715761485 L-1006.9333333333335,1192.266795894523 L-1006.9333333333336,1468.1632445312723 L-768.0000000000002,1606.111468849647 L-529.066666666667,1468.1632445312725 Z" fill-opacity="0.2" stroke-width="4.266666666666667" />
<path d="M-17.066666666666862,1192.2667958945233 L-256.0000000000002,1054.3185715761485 L-494.9333333333335,1192.266795894523 L-494.9333333333336,1468.1632445312723 L-256.0000000000003,1606.111468849647 L-17.066666666666947,1468.1632445312725 Z" fill-opacity="0.2" stroke-width="4.266666666666667" />
<path d="M494.93333333333317,1192.2667958945233 L255.9999999999998,1054.3185715761485 L17.066666666666464,1192.266795894523 L17.06666666666635,1468.1632445312723 L255.99999999999972,1606.111468849647 L494.93333333333305,1468.1632445312725 Z" fill-opacity="0.2" stroke-width="4.266666666666667" />
<path d="M1006.9333333333332,1192.2667958945233 L767.9999999999998,1054.3185715761485 L529.0666666666665,1192.266795894523 L529.0666666666664,1468.1632445312723 L767.9999999999998,1606.111468849647 L1006.933333333333,1468.1632445312725 Z" fill-opacity="0.2" stroke-width="4.266666666666667" />
<path d="M1518.9333333333332,1192.2667958945233 L1279.9999999999998,1054.3185715761485 L1041.0666666666664,1192.266795894523 L1041.0666666666664,1468.1632445312723 L1279.9999999999998,1606.111468849647 L1518.933333333333,1468.1632445312725 Z" fill-opacity="0.2" stroke-width="4.266666666666667" />
<text x="1634.724005390106" y="1330.2150202128978" font-size="102" font-family="Helvetica" fill="black" text-anchor="middle" dominant-baseline="central">a6</text>
<path d="M-1297.0666666666666,748.8617891568906 L-1536.0,610.9135648385159 L-1774.9333333333334,748.8617891568904 L-1774.9333333333334,1024.7582377936396 L-1536.0,1162.7064621120144 L-1297.0666666666666,1024.7582377936399 Z" fill-opacity="0.2" stroke-width="4.266666666666667" />
<text x="-1890.7240053901062" y="886.8100134752651" font-size="102" font-family="Helvetica" fill="black" text-anchor="middle" dominant-baseline="central">b1</text>
<path d="M-785.0666666666666,748.8617891568906 L-1024.0,610.9135648385159 L-1262.9333333333334,748.8617891568904 L-1262.9333333333334,1024.7582377936396 L-1024.0,1162.7064621120144 L-785.0666666666667,1024.7582377936399 Z" fill-opacity="0.1" stroke-width="4.266666666666667" />
<path d="M-273.0666666666667,748.8617891568906 L-512.0000000000001,610.9135648385159 L-750.9333333333334,748.8617891568904 L-750.9333333333335,1024.7582377936396 L-512.0000000000001,1162.7064621120144 L-273.06666666666683,1024.7582377936399 Z" fill-opacity="0.1" stroke-width="4.266666666666667" />
<path d="M238.93333333333325,748.8617891568906 L-9.679305258566017e-14,610.9135648385159 L-238.93333333333342,748.8617891568904 L-238.93333333333354,1024.7582377936396 L-1.6436819312948358e-13,1162.7064621120144 L238.93333333333317,1024.7582377936399 Z" fill-opacity="0.1" stroke-width="4.266666666666667" />
<path d="M750.9333333333333,748.8617891568906 L511.9999999999999,610.9135648385159 L273.0666666666666,748.8617891568904 L273.0666666666665,1024.7582377936396 L511.99999999999983,1162.7064621120144 L750.9333333333332,1024.7582377936399 Z" fill-opacity="0.1" stroke-width="4.266666666666667" />
<path d="M1262.9333333333332,748.8617891568906 L1023.9999999999999,610.9135648385159 L785.0666666666666,748.8617891568904 L785.0666666666665,1024.7582377936396 L1023.9999999999999,1162.7064621120144 L1262.9333333333332,1024.7582377936399 Z" fill-opacity="0.1" stroke-width="4.266666666666667" />
<path d="M1774.9333333333334,748.8617891568906 L1536.0,610.9135648385159 L1297.0666666666666,748.8617891568904 L1297.0666666666666,1024.7582377936396 L1536.0,1162.7064621120144 L1774.9333333333334,1024.7582377936399 Z" fill-opacity="0.2" stroke-width="4.266666666666667" />
<text x="1890.7240053901062" y="886.8100134752651" font-size="102" font-family="Helvetica" fill="black" text-anchor="middle" dominant-baseline="central">b7</text>
<path d="M-1041.0666666666666,305.456782419258 L-1280.0,167.50855810088336 L-1518.9333333333334,305.4567824192579 L-1518.9333333333334,581.3532310560071 L-1280.0,719.3014553743817 L-1041.0666666666666,581.3532310560073 Z" fill-opacity="0.2" stroke-width="4.266666666666667" />
<text x="-1634.7240053901062" y="443.40500673763256" font-size="102" font-family="Helvetica" fill="black" text-anchor="middle" dominant-baseline="central">c1</text>
<path d="M-529.0666666666666,305.456782419258 L-768.0,167.50855810088336 L-1006.9333333333333,305.4567824192579 L-1006.9333333333334,581.3532310560071 L-768.0,719.3014553743817 L-529.0666666666667,581.3532310560073 Z" fill-opacity="0.1" stroke-width="4.266666666666667" />
<path d="M-17.06666666666669,305.456782419258 L-256.00000000000006,167.50855810088336 L-494.9333333333334,305.4567824192579 L-494.9333333333335,581.3532310560071 L-256.0000000000001,719.3014553743817 L-17.066666666666777,581.3532310560073 Z" fill-opacity="0.2" stroke-width="4.266666666666667" />
<path d="M494.9333333333333,305.456782419258 L255.99999999999997,167.50855810088336 L17.066666666666634,305.4567824192579 L17.06666666666652,581.3532310560071 L255.9999999999999,719.3014553743817 L494.9333333333332,581.3532310560073 Z" fill-opacity="0.2" stroke-width="4.266666666666667" />
<path d="M1006.9333333333334,305.456782419258 L768.0,167.50855810088336 L529.0666666666667,305.4567824192579 L529.0666666666666,581.3532310560071 L768.0,719.3014553743817 L1006.9333333333333,581.3532310560073 Z" fill-opacity="0.1" stroke-width="4.266666666666667" />
<path d="M1518.9333333333334,305.456782419258 L1280.0,167.50855810088336 L1041.0666666666666,305.4567824192579 L1041.0666666666666,581.3532310560071 L1280.0,719.3014553743817 L1518.9333333333334,581.3532310560073 Z" fill-opacity="0.2" stroke-width="4.266666666666667" />
<text x="1634.7240053901062" y="443.40500673763256" font-size="102" font-family="Helvetica" fill="black" text-anchor="middle" dominant-baseline="central">c6</text>
<path d="M-1297.0666666666666,-137.94822431837457 L-1536.0,-275.8964486367492 L-1774.9333333333334,-137.94822431837468 L-1774.9333333333334,137.9482243183745 L-1536.0,275.8964486367492 L-1297.0666666666666,137.9482243183747 Z" fill-opacity="0.2" stroke-width="4.266666666666667" />
<text x="-1890.7240053901062" y="0.0" font-size="102" font-family="Helvetica" fill="black" text-anchor="middle" dominant-baseline="central">d1</text>
<path d="M-785.0666666666666,-137.94822431837457 L-1024.0,-275.8964486367492 L-1262.9333333333334,-137.94822431837468 L-1262.9333333333334,137.9482243183745 L-1024.0,275.8964486367492 L-785.0666666666667,137.9482243183747 Z" fill-opacity="0.1" stroke-width="4.266666666666667" />
<path d="M-273.0666666666666,-137.94822431837457 L-512.0,-275.8964486367492 L-750.9333333333333,-137.94822431837468 L-750.9333333333334,137.9482243183745 L-512.0,275.8964486367492 L-273.0666666666667,137.9482243183747 Z" fill-opacity="0.2" stroke-width="4.266666666666667" />
<path d="M238.93333333333337,-137.94822431837457 L1.6893785135955852e-14,-275.8964486367492 L-238.9333333333333,-137.94822431837468 L-238.93333333333342,137.9482243183745 L-5.0681355407867556e-14,275.8964486367492 L238.93333333333328,137.9482243183747 Z" fill-opacity="0.1" stroke-width="4.266666666666667" />
<path d="M750.9333333333334,-137.94822431837457 L512.0,-275.8964486367492 L273.0666666666667,-137.94822431837468 L273.0666666666666,137.9482243183745 L511.99999999999994,275.8964486367492 L750.9333333333333,137.9482243183747 Z" fill-opacity="0.2" stroke-width="4.266666666666667" />
<path d="M1262.9333333333334,-137.94822431837457 L1024.0,-275.8964486367492 L785.0666666666667,-137.94822431837468 L785.0666666666666,137.9482243183745 L1024.0,275.8964486367492 L1262.9333333333334,137.9482243183747 Z" fill-opacity="0.1" stroke-width="4.266666666666667" />
<path d="M1774.9333333333334,-137.94822431837457 L1536.0,-275.8964486367492 L1297.0666666666666,-137.94822431837468 L1297.0666666666666,137.9482243183745 L1536.0,275.8964486367492 L1774.9333333333334,137.9482243183747 Z" fill-opacity="0.2" stroke-width="4.266666666666667" />
<text x="1890.7240053901062" y="0.0" font-size="102" font-family="Helvetica" fill="black" text-anchor="middle" dominant-baseline="central">d7</text>
<path d="M-1041.0666666666666,-581.3532310560072 L-1280.0,-719.3014553743817 L-1518.9333333333334,-581.3532310560072 L-1518.9333333333334,-305.45678241925805 L-1280.0,-167.50855810088336 L-1041.0666666666666,-305.4567824192578 Z" fill-opacity="0.2" stroke-width="4.266666666666667" />
<text x="-1634.7240053901062" y="-443.40500673763256" font-size="102" font-family="Helvetica" fill="black" text-anchor="middle" dominant-baseline="central">e1</text>
<path d="M-529.0666666666666,-581.3532310560072 L-768.0,-719.3014553743817 L-1006.9333333333333,-581.3532310560072 L-1006.9333333333334,-305.45678241925805 L-768.0,-167.50855810088336 L-529.0666666666667,-305.4567824192578 Z" fill-opacity="0.1" stroke-width="4.266666666666667" />
<path d="M-17.066666666666578,-581.3532310560072 L-255.99999999999991,-719.3014553743817 L-494.9333333333333,-581.3532310560072 L-494.9333333333334,-305.45678241925805 L-256.0,-167.50855810088336 L-17.066666666666663,-305.4567824192578 Z" fill-opacity="0.2" stroke-width="4.266666666666667" />
<path d="M494.9333333333334,-581.3532310560072 L256.00000000000006,-719.3014553743817 L17.066666666666748,-581.3532310560072 L17.066666666666634,-305.45678241925805 L256.0,-167.50855810088336 L494.93333333333334,-305.4567824192578 Z" fill-opacity="0.2" stroke-width="4.266666666666667" />
<path d="M1006.9333333333334,-581.3532310560072 L768.0,-719.3014553743817 L529.0666666666667,-581.3532310560072 L529.0666666666666,-305.45678241925805 L768.0,-167.50855810088336 L1006.9333333333333,-305.4567824192578 Z" fill-opacity="0.1" stroke-width="4.266666666666667" />
<path d="M1518.9333333333334,-581.3532310560072 L1280.0,-719.3014553743817 L1041.0666666666666,-581.3532310560072 L1041.0666666666666,-305.45678241925805 L1280.0,-167.50855810088336 L1518.9333333333334,-305.4567824192578 Z" fill-opacity="0.2" stroke-width="4.266666666666667" />
<text x="1634.7240053901062" y="-443.40500673763256" font-size="102" font-family="Helvetica" fill="black" text-anchor="middle" dominant-baseline="central">e6</text>
<path d="M-1297.0666666666666,-1024.7582377936396 L-1536.0,-1162.7064621120144 L-1774.9333333333334,-1024.7582377936399 L-1774.9333333333334,-748.8617891568906 L-1536.0,-610.9135648385159 L-1297.0666666666666,-748.8617891568904 Z" fill-opacity="0.2" stroke-width="4.266666666666667" />
<text x="-1890.7240053901062" y="-886.8100134752651" font-size="102" font-family="Helvetica" fill="black" text-anchor="middle" dominant-baseline="central">f1</text>
<path d="M-785.0666666666665,-1024.7582377936396 L-1023.9999999999999,-1162.7064621120144 L-1262.9333333333332,-1024.7582377936399 L-1262.9333333333334,-748.8617891568906 L-1023.9999999999999,-610.9135648385159 L-785.0666666666666,-748.8617891568904 Z" fill-opacity="0.1" stroke-width="4.266666666666667" />
<path d="M-273.0666666666665,-1024.7582377936396 L-511.9999999999999,-1162.7064621120144 L-750.9333333333332,-1024.7582377936399 L-750.9333333333333,-748.8617891568906 L-511.99999999999994,-610.9135648385159 L-273.0666666666666,-748.8617891568904 Z" fill-opacity="0.1" stroke-width="4.266666666666667" />
<path d="M238.93333333333348,-1024.7582377936396 L1.305806228575719e-13,-1162.7064621120144 L-238.9333333333332,-1024.7582377936399 L-238.9333333333333,-748.8617891568906 L6.300548231374848e-14,-610.9135648385159 L238.9333333333334,-748.8617891568904 Z" fill-opacity="0.1" stroke-width="4.266666666666667" />
<path d="M750.9333333333335,-1024.7582377936396 L512.0000000000001,-1162.7064621120144 L273.06666666666683,-1024.7582377936399 L273.0666666666667,-748.8617891568906 L512.0000000000001,-610.9135648385159 L750.9333333333334,-748.8617891568904 Z" fill-opacity="0.1" stroke-width="4.266666666666667" />
<path d="M1262.9333333333334,-1024.7582377936396 L1024.0,-1162.7064621120144 L785.0666666666667,-1024.7582377936399 L785.0666666666666,-748.8617891568906 L1024.0,-610.9135648385159 L1262.9333333333334,-748.8617891568904 Z" fill-opacity="0.1" stroke-width="4.266666666666667" />
<path d="M1774.9333333333334,-1024.7582377936396 L1536.0,-1162.7064621120144 L1297.0666666666666,-1024.7582377936399 L1297.0666666666666,-748.8617891568906 L1536.0,-610.9135648385159 L1774.9333333333334,-748.8617891568904 Z" fill-opacity="0.2" stroke-width="4.266666666666667" />
<text x="1890.7240053901062" y="-886.8100134752651" font-size="102" font-family="Helvetica" fill="black" text-anchor="middle" dominant-baseline="central">f7</text>
<path d="M-1041.0666666666664,-1468.1632445312723 L-1279.9999999999998,-1606.111468849647 L-1518.9333333333332,-1468.1632445312725 L-1518.9333333333332,-1192.2667958945233 L-1279.9999999999998,-1054.3185715761485 L-1041.0666666666666,-1192.266795894523 Z" fill-opacity="0.2" stroke-width="4.266666666666667" />
<text x="-1634.724005390106" y="-1330.2150202128978" font-size="102" font-family="Helvetica" fill="black" text-anchor="middle" dominant-baseline="central">g1</text>
<path d="M-529.0666666666664,-1468.1632445312723 L-767.9999999999998,-1606.111468849647 L-1006.933333333333,-1468.1632445312725 L-1006.9333333333332,-1192.2667958945233 L-767.9999999999998,-1054.3185715761485 L-529.0666666666665,-1192.266795894523 Z" fill-opacity="0.2" stroke-width="4.266666666666667" />
<path d="M-17.066666666666407,-1468.1632445312723 L-255.99999999999974,-1606.111468849647 L-494.93333333333305,-1468.1632445312725 L-494.93333333333317,-1192.2667958945233 L-255.99999999999983,-1054.3185715761485 L-17.066666666666492,-1192.266795894523 Z" fill-opacity="0.2" stroke-width="4.266666666666667" />
<path d="M494.9333333333336,-1468.1632445312723 L256.0000000000002,-1606.111468849647 L17.06666666666692,-1468.1632445312725 L17.066666666666805,-1192.2667958945233 L256.00000000000017,-1054.3185715761485 L494.9333333333335,-1192.266795894523 Z" fill-opacity="0.2" stroke-width="4.266666666666667" />
<path d="M1006.9333333333336,-1468.1632445312723 L768.0000000000002,-1606.111468849647 L529.066666666667,-1468.1632445312725 L529.0666666666668,-1192.2667958945233 L768.0000000000002,-1054.3185715761485 L1006.9333333333335,-1192.266795894523 Z" fill-opacity="0.2" stroke-width="4.266666666666667" />
<path d="M1518.9333333333336,-1468.1632445312723 L1280.0000000000002,-1606.111468849647 L1041.0666666666668,-1468.1632445312725 L1041.0666666666668,-1192.2667958945233 L1280.0000000000002,-1054.3185715761485 L1518.9333333333334,-1192.266795894523 Z" fill-opacity="0.2" stroke-width="4.266666666666667" />
<text x="1634.7240053901064" y="-1330.2150202128978" font-size="102" font-family="Helvetica" fill="black" text-anchor="middle" dominant-baseline="central">g6</text>
</svg>