<?xml version="1.0" encoding="UTF-8"?>
<svg xmlns="http://www.w3.org/2000/svg" xmlns:xlink="http://www.w3.org/1999/xlink"
     width="24.0cm" height="22.516660498395407cm" viewBox="-2048.0 -1921.4216958630748 4096 3842.8433917261495">
<defs>
</defs>
<rect x="-2048.0" y="-1921.4216958630748" width="4096" height="3842.8433917261495" fill="#BF9B7A" />
<path d="M-1041.0666666666668,1192.2667958945233 L-1280.0000000000002,1054.3185715761485 L-1518.9333333333336,1192.266795894523 L-1518.9333333333336,1468.1632445312723 L-1280.0000000000002,1606.111468849647 L-1041.066666666667,1468.1632445312725 Z" fill-opacity="0.2" stroke="black" stroke-width="4.266666666666667" />
<text x="-1634.7240053901064" y="1330.2150202128978" font-size="102" font-family="Helvetica" fill="black" text-anchor="middle" dominant-baseline="central">a1</text>
<path d="M-529.0666666666668,1192.2667958945233 L-768.0000000000002,1054.3185715761485 L-1006.9333333333335,1192.266795894523 L-1006.9333333333336,1468.1632445312723 L-768.0000000000002,1606.111468849647 L-529.066666666667,1468.1632445312725 Z" fill-opacity="0.2" stroke="black" stroke-width="4.266666666666667" />
<path d="M-17.066666666666862,1192.2667958945233 L-256.0000000000002,1054.3185715761485 L-494.9333333333335,1192.266795894523 L-494.9333333333336,1468.1632445312723 L-256.0000000000003,1606.111468849647 L-17.066666666666947,1468.1632445312725 Z" fill-opacity="0.2" stroke="black" stroke-width="4.266666666666667" />
<path d="M494.93333333333317,1192.2667958945233 L255.9999999999998,1054.3185715761485 L17.066666666666464,1192.266795894523 L17.06666666666635,1468.1632445312723 L255.99999999999972,1606.111468849647 L494.93333333333305,1468.1632445312725 Z" fill-opacity="0.2" stroke="black" stroke-width="4.266666666666667" />
<path d="M1006.9333333333332,1192.2667958945233 L767.9999999999998,1054.3185715761485 L529.0666666666665,1192.266795894523 L529.0666666666664,1468.1632445312723 L767.9999999999998,1606.111468849647 L1006.933333333333,1468.1632445312725 Z" fill-opacity="0.2" stroke="black" stroke-width="4.266666666666667" />
<path d="M1518.9333333333332,1192.2667958945233 L1279.9999999999998,1054.3185715761485 L1041.0666666666664,1192.266795894523 L1041.0666666666664,1468.1632445312723 L1279.9999999999998,1606.111468849647 L1518.933333333333,1468.1632445312725 Z" fill-opacity="0.2" stroke="black" stroke-width="4.266666666666667" />
<text x="1634.724005390106" y="1330.2150202128978" font-size="102" font-family="Helvetica" fill="black" text-anchor="middle" dominant-baseline="central">a6</text>
<path d="M-1297.0666666666666,748.8617891568906 L-1536.0,610.9135648385159 L-1774.9333333333334,748.8617891568904 L-1774.9333333333334,1024.7582377936396 L-1536.0,1162.7064621120144 L-1297.0666666666666,1024.7582377936399 Z" fill-opacity="0.2" stroke="black" stroke-width="4.266666666666667" />
<text x="-1890.7240053901062" y="886.8100134752651" font-size="102" font-family="Helvetica" fill="black" text-anchor="middle" dominant-baseline="central">b1</text>
<path d="M-785.0666666666666,748.8617891568906 L-1024.0,610.9135648385159 L-1262.9333333333334,748.8617891568904 L-1262.9333333333334,1024.7582377936396 L-1024.0,1162.7064621120144 L-785.0666666666667,1024.7582377936399 Z" fill-opacity="0.1" stroke="black" stroke-width="4.266666666666667" />
<path d="M-846.6379973049469,886.8100134752651 L-935.3189986524735,733.2100134752651 L-1112.6810013475265,733.2100134752651 L-1201.362002695053,886.8100134752651 L-1112.6810013475267,1040.410013475265 L-935.3189986524736,1040.4100134752653 Z" fill-opacity="0" stroke="black" stroke-width="8.533333333333333" />
<path d="M-846.6379973049469,886.8100134752651 L-935.3189986524735,733.2100134752651 L-1088.9189986524734,821.8910148227917 L-1000.2379973049468,975.4910148227917 L-846.6379973049469,886.8100134752651 Z" fill-opacity="0" stroke="black" stroke-width="8.533333333333333" />
<path d="M-935.3189986524735,733.2100134752651 L-1112.6810013475265,733.2100134752651 L-1112.6810013475265,910.5720161703181 L-935.3189986524735,910.5720161703181 L-935.3189986524735,733.2100134752651 Z" fill-opacity="0" stroke="black" stroke-width="8.533333333333333" />
<path d="M-1112.6810013475265,733.2100134752651 L-1201.362002695053,886.8100134752651 L-1047.762002695053,975.4910148227916 L-959.0810013475266,821.8910148227916 L-1112.6810013475265,733.2100134752651 Z" fill-opacity="0" stroke="black" stroke-width="8.533333333333333" />
<path d="M-1201.362002695053,886.8100134752651 L-1112.6810013475267,1040.410013475265 L-959.0810013475268,951.7290121277388 L-1047.762002695053,798.1290121277389 L-1201.362002695053,886.8100134752651 Z" fill-opacity="0" stroke="black" stroke-width="8.533333333333333" />
<path d="M-1112.6810013475267,1040.410013475265 L-935.3189986524736,1040.4100134752653 L-935.3189986524734,863.0480107802122 L-1112.6810013475265,863.0480107802119 L-1112.6810013475267,1040.410013475265 Z" fill-opacity="0" stroke="black" stroke-width="8.533333333333333" />
<path d="M-935.3189986524736,1040.4100134752653 L-846.6379973049469,886.8100134752651 L-1000.237997304947,798.1290121277384 L-1088.9189986524739,951.7290121277385 L-935.3189986524736,1040.4100134752653 Z" fill-opacity="0" stroke="black" stroke-width="8.533333333333333" />
<path d="M-273.0666666666667,748.8617891568906 L-512.0000000000001,610.9135648385159 L-750.9333333333334,748.8617891568904 L-750.9333333333335,1024.7582377936396 L-512.0000000000001,1162.7064621120144 L-273.06666666666683,1024.7582377936399 Z" fill-opacity="0.1" stroke="black" stroke-width="4.266666666666667" />
<path d="M-334.637997304947,886.8100134752651 L-423.31899865247357,733.2100134752651 L-600.6810013475266,733.2100134752651 L-689.3620026950532,886.8100134752651 L-600.6810013475267,1040.410013475265 L-423.3189986524737,1040.4100134752653 Z" fill-opacity="0" stroke="black" stroke-width="8.533333333333333" />
<path d="M-334.637997304947,886.8100134752651 L-423.31899865247357,733.2100134752651 L-576.9189986524736,821.8910148227916 L-488.23799730494716,975.4910148227916 L-334.637997304947,886.8100134752651 Z" fill-opacity="0" stroke="black" stroke-width="8.533333333333333" />
<path d="M-423.31899865247357,733.2100134752651 L-600.6810013475266,733.2100134752651 L-600.6810013475266,910.5720161703182 L-423.31899865247357,910.5720161703182 L-423.31899865247357,733.2100134752651 Z" fill-opacity="0" stroke="black" stroke-width="8.533333333333333" />
<path d="M-600.6810013475266,733.2100134752651 L-689.3620026950532,886.8100134752651 L-535.7620026950532,975.4910148227917 L-447.0810013475266,821.8910148227917 L-600.6810013475266,733.2100134752651 Z" fill-opacity="0" stroke="black" stroke-width="8.533333333333333" />
<path d="M-689.3620026950532,886.8100134752651 L-600.6810013475267,1040.410013475265 L-447.0810013475268,951.7290121277385 L-535.7620026950533,798.1290121277386 L-689.3620026950532,886.8100134752651 Z" fill-opacity="0" stroke="black" stroke-width="8.533333333333333" />
<path d="M-600.6810013475267,1040.410013475265 L-423.3189986524737,1040.4100134752653 L-423.31899865247345,863.0480107802123 L-600.6810013475265,863.048010780212 L-600.6810013475267,1040.410013475265 Z" fill-opacity="0" stroke="black" stroke-width="8.533333333333333" />
<path d="M-423.3189986524737,1040.4100134752653 L-334.637997304947,886.8100134752651 L-488.23799730494716,798.1290121277384 L-576.9189986524739,951.7290121277385 L-423.3189986524737,1040.4100134752653 Z" fill-opacity="0" stroke="black" stroke-width="8.533333333333333" />
<path d="M238.93333333333325,748.8617891568906 L-9.679305258566017e-14,610.9135648385159 L-238.93333333333342,748.8617891568904 L-238.93333333333354,1024.7582377936396 L-1.6436819312948358e-13,1162.7064621120144 L238.93333333333317,1024.7582377936399 Z" fill-opacity="0.1" stroke="black" stroke-width="4.266666666666667" />
<path d="M177.36200269505295,886.8100134752651 L88.68100134752643,733.2100134752651 L-88.6810013475266,733.2100134752651 L-177.36200269505318,886.8100134752651 L-88.68100134752673,1040.410013475265 L88.6810013475263,1040.4100134752653 Z" fill-opacity="0" stroke="black" stroke-width="8.533333333333333" />
<path d="M177.36200269505295,886.8100134752651 L88.68100134752643,733.2100134752651 L-64.91899865247359,821.8910148227916 L23.7620026950529,975.4910148227916 L177.36200269505295,886.8100134752651 Z" fill-opacity="0" stroke="black" stroke-width="8.533333333333333" />
<path d="M88.68100134752643,733.2100134752651 L-88.6810013475266,733.2100134752651 L-88.68100134752662,910.5720161703182 L88.68100134752642,910.5720161703182 L88.68100134752643,733.2100134752651 Z" fill-opacity="0" stroke="black" stroke-width="8.533333333333333" />
<path d="M-88.6810013475266,733.2100134752651 L-177.36200269505318,886.8100134752651 L-23.762002695053155,975.4910148227917 L64.91899865247345,821.8910148227917 L-88.6810013475266,733.2100134752651 Z" fill-opacity="0" stroke="black" stroke-width="8.533333333333333" />
<path d="M-177.36200269505318,886.8100134752651 L-88.68100134752673,1040.410013475265 L64.91899865247318,951.7290121277385 L-23.76200269505324,798.1290121277386 L-177.36200269505318,886.8100134752651 Z" fill-opacity="0" stroke="black" stroke-width="8.533333333333333" />
<path d="M-88.68100134752673,1040.410013475265 L88.6810013475263,1040.4100134752653 L88.68100134752655,863.0480107802123 L-88.68100134752649,863.048010780212 L-88.68100134752673,1040.410013475265 Z" fill-opacity="0" stroke="black" stroke-width="8.533333333333333" />
<path d="M88.6810013475263,1040.4100134752653 L177.36200269505295,886.8100134752651 L23.762002695052814,798.1290121277384 L-64.91899865247386,951.7290121277385 L88.6810013475263,1040.4100134752653 Z" fill-opacity="0" stroke="black" stroke-width="8.533333333333333" />
<path d="M750.9333333333333,748.8617891568906 L511.9999999999999,610.9135648385159 L273.0666666666666,748.8617891568904 L273.0666666666665,1024.7582377936396 L511.99999999999983,1162.7064621120144 L750.9333333333332,1024.7582377936399 Z" fill-opacity="0.1" stroke="black" stroke-width="4.266666666666667" />
<path d="M689.362002695053,886.8100134752651 L600.6810013475265,733.2100134752651 L423.3189986524734,733.2100134752651 L334.6379973049468,886.8100134752651 L423.3189986524733,1040.410013475265 L600.6810013475263,1040.4100134752653 Z" fill-opacity="0" stroke="black" stroke-width="8.533333333333333" />
<path d="M689.362002695053,886.8100134752651 L600.6810013475265,733.2100134752651 L447.08100134752647,821.8910148227916 L535.762002695053,975.4910148227916 L689.362002695053,886.8100134752651 Z" fill-opacity="0" stroke="black" stroke-width="8.533333333333333" />
<path d="M600.6810013475265,733.2100134752651 L423.3189986524734,733.2100134752651 L423.3189986524734,910.5720161703182 L600.6810013475265,910.5720161703182 L600.6810013475265,733.2100134752651 Z" fill-opacity="0" stroke="black" stroke-width="8.533333333333333" />
<path d="M423.3189986524734,733.2100134752651 L334.6379973049468,886.8100134752651 L488.2379973049468,975.4910148227917 L576.9189986524734,821.8910148227917 L423.3189986524734,733.2100134752651 Z" fill-opacity="0" stroke="black" stroke-width="8.533333333333333" />
<path d="M334.6379973049468,886.8100134752651 L423.3189986524733,1040.410013475265 L576.9189986524732,951.7290121277385 L488.2379973049467,798.1290121277386 L334.6379973049468,886.8100134752651 Z" fill-opacity="0" stroke="black" stroke-width="8.533333333333333" />
<path d="M423.3189986524733,1040.410013475265 L600.6810013475263,1040.4100134752653 L600.6810013475265,863.0480107802123 L423.3189986524735,863.048010780212 L423.3189986524733,1040.410013475265 Z" fill-opacity="0" stroke="black" stroke-width="8.533333333333333" />
<path d="M600.6810013475263,1040.4100134752653 L689.362002695053,886.8100134752651 L535.7620026950528,798.1290121277384 L447.0810013475261,951.7290121277385 L600.6810013475263,1040.4100134752653 Z" fill-opacity="0" stroke="black" stroke-width="8.533333333333333" />
<path d="M1262.9333333333332,748.8617891568906 L1023.9999999999999,610.9135648385159 L785.0666666666666,748.8617891568904 L785.0666666666665,1024.7582377936396 L1023.9999999999999,1162.7064621120144 L1262.9333333333332,1024.7582377936399 Z" fill-opacity="0.1" stroke="black" stroke-width="4.266666666666667" />
<path d="M1201.362002695053,886.8100134752651 L1112.6810013475265,733.2100134752651 L935.3189986524734,733.2100134752651 L846.6379973049468,886.8100134752651 L935.3189986524733,1040.410013475265 L1112.6810013475263,1040.4100134752653 Z" fill-opacity="0" stroke="black" stroke-width="8.533333333333333" />
<path d="M1201.362002695053,886.8100134752651 L1112.6810013475265,733.2100134752651 L959.0810013475265,821.8910148227916 L1047.7620026950528,975.4910148227916 L1201.362002695053,886.8100134752651 Z" fill-opacity="0" stroke="black" stroke-width="8.533333333333333" />
<path d="M1112.6810013475265,733.2100134752651 L935.3189986524734,733.2100134752651 L935.3189986524734,910.5720161703182 L1112.6810013475265,910.5720161703182 L1112.6810013475265,733.2100134752651 Z" fill-opacity="0" stroke="black" stroke-width="8.533333333333333" />
<path d="M935.3189986524734,733.2100134752651 L846.6379973049468,886.8100134752651 L1000.2379973049468,975.4910148227917 L1088.9189986524734,821.8910148227917 L935.3189986524734,733.2100134752651 Z" fill-opacity="0" stroke="black" stroke-width="8.533333333333333" />
<path d="M846.6379973049468,886.8100134752651 L935.3189986524733,1040.410013475265 L1088.9189986524732,951.7290121277385 L1000.2379973049467,798.1290121277386 L846.6379973049468,886.8100134752651 Z" fill-opacity="0" stroke="black" stroke-width="8.533333333333333" />
<path d="M935.3189986524733,1040.410013475265 L1112.6810013475263,1040.4100134752653 L1112.6810013475265,863.0480107802123 L935.3189986524735,863.048010780212 L935.3189986524733,1040.410013475265 Z" fill-opacity="0" stroke="black" stroke-width="8.533333333333333" />
<path d="M1112.6810013475263,1040.4100134752653 L1201.362002695053,886.8100134752651 L1047.7620026950528,798.1290121277384 L959.0810013475261,951.7290121277385 L1112.6810013475263,1040.4100134752653 Z" fill-opacity="0" stroke="black" stroke-width="8.533333333333333" />
<path d="M1774.9333333333334,748.8617891568906 L1536.0,610.9135648385159 L1297.0666666666666,748.8617891568904 L1297.0666666666666,1024.7582377936396 L1536.0,1162.7064621120144 L1774.9333333333334,1024.7582377936399 Z" fill-opacity="0.2" stroke="black" stroke-width="4.266666666666667" />
<text x="1890.7240053901062" y="886.8100134752651" font-size="102" font-family="Helvetica" fill="black" text-anchor="middle" dominant-baseline="central">b7</text>
<path d="M-1041.0666666666666,305.456782419258 L-1280.0,167.50855810088336 L-1518.9333333333334,305.4567824192579 L-1518.9333333333334,581.3532310560071 L-1280.0,719.3014553743817 L-1041.0666666666666,581.3532310560073 Z" fill-opacity="0.2" stroke="black" stroke-width="4.266666666666667" />
<text x="-1634.7240053901062" y="443.40500673763256" font-size="102" font-family="Helvetica" fill="black" text-anchor="middle" dominant-baseline="central">c1</text>
<path d="M-529.0666666666666,305.456782419258 L-768.0,167.50855810088336 L-1006.9333333333333,305.4567824192579 L-1006.9333333333334,581.3532310560071 L-768.0,719.3014553743817 L-529.0666666666667,581.3532310560073 Z" fill-opacity="0.1" stroke="black" stroke-width="4.266666666666667" />
<path d="M-590.6379973049469,443.40500673763256 L-679.3189986524735,289.80500673763254 L-856.6810013475265,289.80500673763254 L-945.3620026950531,443.40500673763256 L-856.6810013475266,597.0050067376326 L-679.3189986524736,597.0050067376327 Z" fill-opacity="0" stroke="black" stroke-width="8.533333333333333" />
<path d="M-590.6379973049469,443.40500673763256 L-679.3189986524735,289.80500673763254 L-832.9189986524735,378.48600808515914 L-744.2379973049469,532.0860080851592 L-590.6379973049469,443.40500673763256 Z" fill-opacity="0" stroke="black" stroke-width="8.533333333333333" />
<path d="M-679.3189986524735,289.80500673763254 L-856.6810013475265,289.80500673763254 L-856.6810013475265,467.1670094326855 L-679.3189986524735,467.1670094326855 L-679.3189986524735,289.80500673763254 Z" fill-opacity="0" stroke="black" stroke-width="8.533333333333333" />
<path d="M-856.6810013475265,289.80500673763254 L-945.3620026950531,443.40500673763256 L-791.7620026950531,532.0860080851592 L-703.0810013475265,378.48600808515914 L-856.6810013475265,289.80500673763254 Z" fill-opacity="0" stroke="black" stroke-width="8.533333333333333" />
<path d="M-945.3620026950531,443.40500673763256 L-856.6810013475266,597.0050067376326 L-703.0810013475266,508.3240053901061 L-791.7620026950531,354.7240053901061 L-945.3620026950531,443.40500673763256 Z" fill-opacity="0" stroke="black" stroke-width="8.533333333333333" />
<path d="M-856.6810013475266,597.0050067376326 L-679.3189986524736,597.0050067376327 L-679.3189986524735,419.6430040425797 L-856.6810013475265,419.6430040425796 L-856.6810013475266,597.0050067376326 Z" fill-opacity="0" stroke="black" stroke-width="8.533333333333333" />
<path d="M-679.3189986524736,597.0050067376327 L-590.6379973049469,443.40500673763256 L-744.237997304947,354.72400539010584 L-832.9189986524738,508.324005390106 L-679.3189986524736,597.0050067376327 Z" fill-opacity="0" stroke="black" stroke-width="8.533333333333333" />
<path d="M-17.06666666666669,305.456782419258 L-256.00000000000006,167.50855810088336 L-494.9333333333334,305.4567824192579 L-494.9333333333335,581.3532310560071 L-256.0000000000001,719.3014553743817 L-17.066666666666777,581.3532310560073 Z" fill-opacity="0.2" stroke="black" stroke-width="4.266666666666667" />
<path d="M494.9333333333333,305.456782419258 L255.99999999999997,167.50855810088336 L17.066666666666634,305.4567824192579 L17.06666666666652,581.3532310560071 L255.9999999999999,719.3014553743817 L494.9333333333332,581.3532310560073 Z" fill-opacity="0.2" stroke="black" stroke-width="4.266666666666667" />
<path d="M1006.9333333333334,305.456782419258 L768.0,167.50855810088336 L529.0666666666667,305.4567824192579 L529.0666666666666,581.3532310560071 L768.0,719.3014553743817 L1006.9333333333333,581.3532310560073 Z" fill-opacity="0.1" stroke="black" stroke-width="4.266666666666667" />
<path d="M945.3620026950531,443.40500673763256 L856.6810013475265,289.80500673763254 L679.3189986524735,289.80500673763254 L590.6379973049469,443.40500673763256 L679.3189986524734,597.0050067376326 L856.6810013475264,597.0050067376327 Z" fill-opacity="0" stroke="black" stroke-width="8.533333333333333" />
<path d="M945.3620026950531,443.40500673763256 L856.6810013475265,289.80500673763254 L703.0810013475265,378.48600808515914 L791.7620026950531,532.0860080851592 L945.3620026950531,443.40500673763256 Z" fill-opacity="0" stroke="black" stroke-width="8.533333333333333" />
<path d="M856.6810013475265,289.80500673763254 L679.3189986524735,289.80500673763254 L679.3189986524735,467.1670094326855 L856.6810013475265,467.1670094326855 L856.6810013475265,289.80500673763254 Z" fill-opacity="0" stroke="black" stroke-width="8.533333333333333" />
<path d="M679.3189986524735,289.80500673763254 L590.6379973049469,443.40500673763256 L744.2379973049469,532.0860080851592 L832.9189986524735,378.48600808515914 L679.3189986524735,289.80500673763254 Z" fill-opacity="0" stroke="black" stroke-width="8.533333333333333" />
<path d="M590.6379973049469,443.40500673763256 L679.3189986524734,597.0050067376326 L832.9189986524734,508.3240053901061 L744.2379973049469,354.7240053901061 L590.6379973049469,443.40500673763256 Z" fill-opacity="0" stroke="black" stroke-width="8.533333333333333" />
<path d="M679.3189986524734,597.0050067376326 L856.6810013475264,597.0050067376327 L856.6810013475265,419.6430040425797 L679.3189986524735,419.6430040425796 L679.3189986524734,597.0050067376326 Z" fill-opacity="0" stroke="black" stroke-width="8.533333333333333" />
<path d="M856.6810013475264,597.0050067376327 L945.3620026950531,443.40500673763256 L791.762002695053,354.72400539010584 L703.0810013475262,508.324005390106 L856.6810013475264,597.0050067376327 Z" fill-opacity="0" stroke="black" stroke-width="8.533333333333333" />
<path d="M1518.9333333333334,305.456782419258 L1280.0,167.50855810088336 L1041.0666666666666,305.4567824192579 L1041.0666666666666,581.3532310560071 L1280.0,719.3014553743817 L1518.9333333333334,581.3532310560073 Z" fill-opacity="0.2" stroke="black" stroke-width="4.266666666666667" />
<text x="1634.7240053901062" y="443.40500673763256" font-size="102" font-family="Helvetica" fill="black" text-anchor="middle" dominant-baseline="central">c6</text>
<path d="M-1297.0666666666666,-137.94822431837457 L-1536.0,-275.8964486367492 L-1774.9333333333334,-137.94822431837468 L-1774.9333333333334,137.9482243183745 L-1536.0,275.8964486367492 L-1297.0666666666666,137.9482243183747 Z" fill-opacity="0.2" stroke="black" stroke-width="4.266666666666667" />
<text x="-1890.7240053901062" y="0.0" font-size="102" font-family="Helvetica" fill="black" text-anchor="middle" dominant-baseline="central">d1</text>
<path d="M-785.0666666666666,-137.94822431837457 L-1024.0,-275.8964486367492 L-1262.9333333333334,-137.94822431837468 L-1262.9333333333334,137.9482243183745 L-1024.0,275.8964486367492 L-785.0666666666667,137.9482243183747 Z" fill-opacity="0.1" stroke="black" stroke-width="4.266666666666667" />
<path d="M-846.6379973049469,0.0 L-935.3189986524735,-153.60000000000002 L-1112.6810013475265,-153.60000000000002 L-1201.362002695053,-2.1720580889086097e-14 L-1112.6810013475267,153.6 L-935.3189986524736,153.6000000000001 Z" fill-opacity="0" stroke="black" stroke-width="8.533333333333333" />
<path d="M-846.6379973049469,0.0 L-935.3189986524735,-153.60000000000002 L-1088.9189986524734,-64.91899865247343 L-1000.2379973049468,88.68100134752659 L-846.6379973049469,0.0 Z" fill-opacity="0" stroke="black" stroke-width="8.533333333333333" />
<path d="M-935.3189986524735,-153.60000000000002 L-1112.6810013475265,-153.60000000000002 L-1112.6810013475265,23.762002695052956 L-935.3189986524735,23.762002695052978 L-935.3189986524735,-153.60000000000002 Z" fill-opacity="0" stroke="black" stroke-width="8.533333333333333" />
<path d="M-1112.6810013475265,-153.60000000000002 L-1201.362002695053,-2.842170943040401e-14 L-1047.762002695053,88.68100134752648 L-959.0810013475266,-64.91899865247352 L-1112.6810013475265,-153.60000000000002 Z" fill-opacity="0" stroke="black" stroke-width="8.533333333333333" />
<path d="M-1201.362002695053,-2.1720580889086097e-14 L-1112.6810013475267,153.6 L-959.0810013475267,64.91899865247375 L-1047.7620026950528,-88.68100134752628 L-1201.362002695053,-2.1720580889086097e-14 Z" fill-opacity="0" stroke="black" stroke-width="8.533333333333333" />
<path d="M-1112.6810013475267,153.6 L-935.3189986524736,153.6000000000001 L-935.3189986524735,-23.762002695052985 L-1112.6810013475265,-23.76200269505312 L-1112.6810013475267,153.6 Z" fill-opacity="0" stroke="black" stroke-width="8.533333333333333" />
<path d="M-935.3189986524736,153.6000000000001 L-846.6379973049469,0.0 L-1000.237997304947,-88.68100134752673 L-1088.9189986524739,64.91899865247338 L-935.3189986524736,153.6000000000001 Z" fill-opacity="0" stroke="black" stroke-width="8.533333333333333" />
<path d="M-273.0666666666666,-137.94822431837457 L-512.0,-275.8964486367492 L-750.9333333333333,-137.94822431837468 L-750.9333333333334,137.9482243183745 L-512.0,275.8964486367492 L-273.0666666666667,137.9482243183747 Z" fill-opacity="0.2" stroke="black" stroke-width="4.266666666666667" />
<path d="M238.93333333333337,-137.94822431837457 L1.6893785135955852e-14,-275.8964486367492 L-238.9333333333333,-137.94822431837468 L-238.93333333333342,137.9482243183745 L-5.0681355407867556e-14,275.8964486367492 L238.93333333333328,137.9482243183747 Z" fill-opacity="0.1" stroke="black" stroke-width="4.266666666666667" />
<path d="M177.36200269505306,0.0 L88.68100134752655,-153.60000000000002 L-88.68100134752649,-153.60000000000002 L-177.36200269505306,-2.1720580889086097e-14 L-88.68100134752662,153.6 L88.68100134752642,153.6000000000001 Z" fill-opacity="0" stroke="black" stroke-width="8.533333333333333" />
<path d="M177.36200269505306,0.0 L88.68100134752655,-153.60000000000002 L-64.91899865247348,-64.91899865247352 L23.762002695053013,88.6810013475265 L177.36200269505306,0.0 Z" fill-opacity="0" stroke="black" stroke-width="8.533333333333333" />
<path d="M88.68100134752655,-153.60000000000002 L-88.68100134752649,-153.60000000000002 L-88.6810013475265,23.762002695053013 L88.68100134752653,23.762002695053035 L88.68100134752655,-153.60000000000002 Z" fill-opacity="0" stroke="black" stroke-width="8.533333333333333" />
<path d="M-88.68100134752649,-153.60000000000002 L-177.36200269505306,-2.842170943040401e-14 L-23.76200269505307,88.68100134752656 L64.91899865247353,-64.91899865247343 L-88.68100134752649,-153.60000000000002 Z" fill-opacity="0" stroke="black" stroke-width="8.533333333333333" />
<path d="M-177.36200269505306,-2.1720580889086097e-14 L-88.68100134752662,153.6 L64.9189986524734,64.91899865247356 L-23.762002695053013,-88.68100134752646 L-177.36200269505306,-2.1720580889086097e-14 Z" fill-opacity="0" stroke="black" stroke-width="8.533333333333333" />
<path d="M-88.68100134752662,153.6 L88.68100134752642,153.6000000000001 L88.68100134752655,-23.762002695052928 L-88.68100134752649,-23.762002695053063 L-88.68100134752662,153.6 Z" fill-opacity="0" stroke="black" stroke-width="8.533333333333333" />
<path d="M88.68100134752642,153.6000000000001 L177.36200269505306,0.0 L23.762002695052956,-88.68100134752666 L-64.91899865247372,64.91899865247345 L88.68100134752642,153.6000000000001 Z" fill-opacity="0" stroke="black" stroke-width="8.533333333333333" />
<path d="M750.9333333333334,-137.94822431837457 L512.0,-275.8964486367492 L273.0666666666667,-137.94822431837468 L273.0666666666666,137.9482243183745 L511.99999999999994,275.8964486367492 L750.9333333333333,137.9482243183747 Z" fill-opacity="0.2" stroke="black" stroke-width="4.266666666666667" />
<path d="M1262.9333333333334,-137.94822431837457 L1024.0,-275.8964486367492 L785.0666666666667,-137.94822431837468 L785.0666666666666,137.9482243183745 L1024.0,275.8964486367492 L1262.9333333333334,137.9482243183747 Z" fill-opacity="0.1" stroke="black" stroke-width="4.266666666666667" />
<path d="M1201.362002695053,0.0 L1112.6810013475265,-153.60000000000002 L935.3189986524735,-153.60000000000002 L846.6379973049469,-2.1720580889086097e-14 L935.3189986524734,153.6 L1112.6810013475265,153.6000000000001 Z" fill-opacity="0" stroke="black" stroke-width="8.533333333333333" />
<path d="M1201.362002695053,0.0 L1112.6810013475265,-153.60000000000002 L959.0810013475265,-64.91899865247355 L1047.7620026950528,88.68100134752648 L1201.362002695053,0.0 Z" fill-opacity="0" stroke="black" stroke-width="8.533333333333333" />
<path d="M1112.6810013475265,-153.60000000000002 L935.3189986524735,-153.60000000000002 L935.3189986524735,23.762002695052956 L1112.6810013475265,23.762002695052978 L1112.6810013475265,-153.60000000000002 Z" fill-opacity="0" stroke="black" stroke-width="8.533333333333333" />
<path d="M935.3189986524735,-153.60000000000002 L846.6379973049469,-2.842170943040401e-14 L1000.2379973049469,88.68100134752659 L1088.9189986524736,-64.9189986524734 L935.3189986524735,-153.60000000000002 Z" fill-opacity="0" stroke="black" stroke-width="8.533333333333333" />
<path d="M846.6379973049469,-2.1720580889086097e-14 L935.3189986524734,153.6 L1088.9189986524734,64.91899865247352 L1000.2379973049469,-88.6810013475265 L846.6379973049469,-2.1720580889086097e-14 Z" fill-opacity="0" stroke="black" stroke-width="8.533333333333333" />
<path d="M935.3189986524734,153.6 L1112.6810013475265,153.6000000000001 L1112.6810013475267,-23.762002695052985 L935.3189986524736,-23.76200269505312 L935.3189986524734,153.6 Z" fill-opacity="0" stroke="black" stroke-width="8.533333333333333" />
<path d="M1112.6810013475265,153.6000000000001 L1201.362002695053,0.0 L1047.7620026950528,-88.6810013475265 L959.0810013475264,64.9189986524736 L1112.6810013475265,153.6000000000001 Z" fill-opacity="0" stroke="black" stroke-width="8.533333333333333" />
<path d="M1774.9333333333334,-137.94822431837457 L1536.0,-275.8964486367492 L1297.0666666666666,-137.94822431837468 L1297.0666666666666,137.9482243183745 L1536.0,275.8964486367492 L1774.9333333333334,137.9482243183747 Z" fill-opacity="0.2" stroke="black" stroke-width="4.266666666666667" />
<text x="1890.7240053901062" y="0.0" font-size="102" font-family="Helvetica" fill="black" text-anchor="middle" dominant-baseline="central">d7</text>
<path d="M-1041.0666666666666,-581.3532310560072 L-1280.0,-719.3014553743817 L-1518.9333333333334,-581.3532310560072 L-1518.9333333333334,-305.45678241925805 L-1280.0,-167.50855810088336 L-1041.0666666666666,-305.4567824192578 Z" fill-opacity="0.2" stroke="black" stroke-width="4.266666666666667" />
<text x="-1634.7240053901062" y="-443.40500673763256" font-size="102" font-family="Helvetica" fill="black" text-anchor="middle" dominant-baseline="central">e1</text>
<path d="M-529.0666666666666,-581.3532310560072 L-768.0,-719.3014553743817 L-1006.9333333333333,-581.3532310560072 L-1006.9333333333334,-305.45678241925805 L-768.0,-167.50855810088336 L-529.0666666666667,-305.4567824192578 Z" fill-opacity="0.1" stroke="black" stroke-width="4.266666666666667" />
<path d="M-590.6379973049469,-443.40500673763256 L-679.3189986524735,-597.0050067376326 L-856.6810013475265,-597.0050067376326 L-945.3620026950531,-443.40500673763256 L-856.6810013475266,-289.80500673763254 L-679.3189986524736,-289.8050067376324 Z" fill-opacity="0" stroke="black" stroke-width="8.533333333333333" />
<path d="M-590.6379973049469,-443.40500673763256 L-679.3189986524735,-597.0050067376326 L-832.9189986524735,-508.324005390106 L-744.2379973049469,-354.72400539010596 L-590.6379973049469,-443.40500673763256 Z" fill-opacity="0" stroke="black" stroke-width="8.533333333333333" />
<path d="M-679.3189986524735,-597.0050067376326 L-856.6810013475265,-597.0050067376326 L-856.6810013475265,-419.6430040425796 L-679.3189986524735,-419.6430040425796 L-679.3189986524735,-597.0050067376326 Z" fill-opacity="0" stroke="black" stroke-width="8.533333333333333" />
<path d="M-856.6810013475265,-597.0050067376326 L-945.3620026950531,-443.40500673763256 L-791.7620026950531,-354.72400539010596 L-703.0810013475265,-508.324005390106 L-856.6810013475265,-597.0050067376326 Z" fill-opacity="0" stroke="black" stroke-width="8.533333333333333" />
<path d="M-945.3620026950531,-443.40500673763256 L-856.6810013475266,-289.80500673763254 L-703.0810013475266,-378.486008085159 L-791.7620026950531,-532.086008085159 L-945.3620026950531,-443.40500673763256 Z" fill-opacity="0" stroke="black" stroke-width="8.533333333333333" />
<path d="M-856.6810013475266,-289.80500673763254 L-679.3189986524736,-289.8050067376324 L-679.3189986524735,-467.1670094326854 L-856.6810013475265,-467.1670094326855 L-856.6810013475266,-289.80500673763254 Z" fill-opacity="0" stroke="black" stroke-width="8.533333333333333" />
<path d="M-679.3189986524736,-289.8050067376324 L-590.6379973049469,-443.40500673763256 L-744.237997304947,-532.0860080851593 L-832.9189986524738,-378.48600808515914 L-679.3189986524736,-289.8050067376324 Z" fill-opacity="0" stroke="black" stroke-width="8.533333333333333" />
<path d="M-17.066666666666578,-581.3532310560072 L-255.99999999999991,-719.3014553743817 L-494.9333333333333,-581.3532310560072 L-494.9333333333334,-305.45678241925805 L-256.0,-167.50855810088336 L-17.066666666666663,-305.4567824192578 Z" fill-opacity="0.2" stroke="black" stroke-width="4.266666666666667" />
<path d="M494.9333333333334,-581.3532310560072 L256.00000000000006,-719.3014553743817 L17.066666666666748,-581.3532310560072 L17.066666666666634,-305.45678241925805 L256.0,-167.50855810088336 L494.93333333333334,-305.4567824192578 Z" fill-opacity="0.2" stroke="black" stroke-width="4.266666666666667" />
<path d="M1006.9333333333334,-581.3532310560072 L768.0,-719.3014553743817 L529.0666666666667,-581.3532310560072 L529.0666666666666,-305.45678241925805 L768.0,-167.50855810088336 L1006.9333333333333,-305.4567824192578 Z" fill-opacity="0.1" stroke="black" stroke-width="4.266666666666667" />
<path d="M945.3620026950531,-443.40500673763256 L856.6810013475265,-597.0050067376326 L679.3189986524735,-597.0050067376326 L590.6379973049469,-443.40500673763256 L679.3189986524734,-289.80500673763254 L856.6810013475264,-289.8050067376324 Z" fill-opacity="0" stroke="black" stroke-width="8.533333333333333" />
<path d="M945.3620026950531,-443.40500673763256 L856.6810013475265,-597.0050067376326 L703.0810013475265,-508.324005390106 L791.7620026950531,-354.72400539010596 L945.3620026950531,-443.40500673763256 Z" fill-opacity="0" stroke="black" stroke-width="8.533333333333333" />
<path d="M856.6810013475265,-597.0050067376326 L679.3189986524735,-597.0050067376326 L679.3189986524735,-419.6430040425796 L856.6810013475265,-419.6430040425796 L856.6810013475265,-597.0050067376326 Z" fill-opacity="0" stroke="black" stroke-width="8.533333333333333" />
<path d="M679.3189986524735,-597.0050067376326 L590.6379973049469,-443.40500673763256 L744.2379973049469,-354.72400539010596 L832.9189986524735,-508.324005390106 L679.3189986524735,-597.0050067376326 Z" fill-opacity="0" stroke="black" stroke-width="8.533333333333333" />
<path d="M590.6379973049469,-443.40500673763256 L679.3189986524734,-289.80500673763254 L832.9189986524734,-378.486008085159 L744.2379973049469,-532.086008085159 L590.6379973049469,-443.40500673763256 Z" fill-opacity="0" stroke="black" stroke-width="8.533333333333333" />
<path d="M679.3189986524734,-289.80500673763254 L856.6810013475264,-289.8050067376324 L856.6810013475265,-467.1670094326854 L679.3189986524735,-467.1670094326855 L679.3189986524734,-289.80500673763254 Z" fill-opacity="0" stroke="black" stroke-width="8.533333333333333" />
<path d="M856.6810013475264,-289.8050067376324 L945.3620026950531,-443.40500673763256 L791.762002695053,-532.0860080851593 L703.0810013475262,-378.48600808515914 L856.6810013475264,-289.8050067376324 Z" fill-opacity="0" stroke="black" stroke-width="8.533333333333333" />
<path d="M1518.9333333333334,-581.3532310560072 L1280.0,-719.3014553743817 L1041.0666666666666,-581.3532310560072 L1041.0666666666666,-305.45678241925805 L1280.0,-167.50855810088336 L1518.9333333333334,-305.4567824192578 Z" fill-opacity="0.2" stroke="black" stroke-width="4.266666666666667" />
<text x="1634.7240053901062" y="-443.40500673763256" font-size="102" font-family="Helvetica" fill="black" text-anchor="middle" dominant-baseline="central">e6</text>
<path d="M-1297.0666666666666,-1024.7582377936396 L-1536.0,-1162.7064621120144 L-1774.9333333333334,-1024.7582377936399 L-1774.9333333333334,-748.8617891568906 L-1536.0,-610.9135648385159 L-1297.0666666666666,-748.8617891568904 Z" fill-opacity="0.2" stroke="black" stroke-width="4.266666666666667" />
<text x="-1890.7240053901062" y="-886.8100134752651" font-size="102" font-family="Helvetica" fill="black" text-anchor="middle" dominant-baseline="central">f1</text>
<path d="M-785.0666666666665,-1024.7582377936396 L-1023.9999999999999,-1162.7064621120144 L-1262.9333333333332,-1024.7582377936399 L-1262.9333333333334,-748.8617891568906 L-1023.9999999999999,-610.9135648385159 L-785.0666666666666,-748.8617891568904 Z" fill-opacity="0.1" stroke="black" stroke-width="4.266666666666667" />
<path d="M-846.6379973049468,-886.8100134752651 L-935.3189986524733,-1040.4100134752653 L-1112.6810013475265,-1040.4100134752653 L-1201.362002695053,-886.8100134752651 L-1112.6810013475265,-733.2100134752651 L-935.3189986524735,-733.210013475265 Z" fill-opacity="0" stroke="black" stroke-width="8.533333333333333" />
<path d="M-846.6379973049468,-886.8100134752651 L-935.3189986524733,-1040.4100134752653 L-1088.9189986524734,-951.7290121277388 L-1000.2379973049469,-798.1290121277386 L-846.6379973049468,-886.8100134752651 Z" fill-opacity="0" stroke="black" stroke-width="8.533333333333333" />
<path d="M-935.3189986524733,-1040.4100134752653 L-1112.6810013475265,-1040.4100134752653 L-1112.6810013475265,-863.048010780212 L-935.3189986524733,-863.048010780212 L-935.3189986524733,-1040.4100134752653 Z" fill-opacity="0" stroke="black" stroke-width="8.533333333333333" />
<path d="M-1112.6810013475265,-1040.4100134752653 L-1201.362002695053,-886.8100134752651 L-1047.7620026950528,-798.1290121277386 L-959.0810013475264,-951.7290121277388 L-1112.6810013475265,-1040.4100134752653 Z" fill-opacity="0" stroke="black" stroke-width="8.533333333333333" />
<path d="M-1201.362002695053,-886.8100134752651 L-1112.6810013475265,-733.2100134752651 L-959.0810013475265,-821.8910148227916 L-1047.7620026950528,-975.4910148227916 L-1201.362002695053,-886.8100134752651 Z" fill-opacity="0" stroke="black" stroke-width="8.533333333333333" />
<path d="M-1112.6810013475265,-733.2100134752651 L-935.3189986524735,-733.210013475265 L-935.3189986524734,-910.572016170318 L-1112.6810013475265,-910.5720161703181 L-1112.6810013475265,-733.2100134752651 Z" fill-opacity="0" stroke="black" stroke-width="8.533333333333333" />
<path d="M-935.3189986524735,-733.210013475265 L-846.6379973049468,-886.8100134752651 L-1000.2379973049469,-975.4910148227918 L-1088.9189986524736,-821.8910148227917 L-935.3189986524735,-733.210013475265 Z" fill-opacity="0" stroke="black" stroke-width="8.533333333333333" />
<path d="M-273.0666666666665,-1024.7582377936396 L-511.9999999999999,-1162.7064621120144 L-750.9333333333332,-1024.7582377936399 L-750.9333333333333,-748.8617891568906 L-511.99999999999994,-610.9135648385159 L-273.0666666666666,-748.8617891568904 Z" fill-opacity="0.1" stroke="black" stroke-width="4.266666666666667" />
<path d="M-334.6379973049468,-886.8100134752651 L-423.31899865247334,-1040.4100134752653 L-600.6810013475264,-1040.4100134752653 L-689.362002695053,-886.8100134752651 L-600.6810013475265,-733.2100134752651 L-423.31899865247345,-733.210013475265 Z" fill-opacity="0" stroke="black" stroke-width="8.533333333333333" />
<path d="M-334.6379973049468,-886.8100134752651 L-423.31899865247334,-1040.4100134752653 L-576.9189986524734,-951.7290121277388 L-488.23799730494693,-798.1290121277386 L-334.6379973049468,-886.8100134752651 Z" fill-opacity="0" stroke="black" stroke-width="8.533333333333333" />
<path d="M-423.31899865247334,-1040.4100134752653 L-600.6810013475264,-1040.4100134752653 L-600.6810013475264,-863.0480107802123 L-423.31899865247334,-863.0480107802123 L-423.31899865247334,-1040.4100134752653 Z" fill-opacity="0" stroke="black" stroke-width="8.533333333333333" />
<path d="M-600.6810013475264,-1040.4100134752653 L-689.362002695053,-886.8100134752651 L-535.7620026950528,-798.1290121277385 L-447.08100134752624,-951.7290121277387 L-600.6810013475264,-1040.4100134752653 Z" fill-opacity="0" stroke="black" stroke-width="8.533333333333333" />
<path d="M-689.362002695053,-886.8100134752651 L-600.6810013475265,-733.2100134752651 L-447.08100134752647,-821.8910148227916 L-535.762002695053,-975.4910148227916 L-689.362002695053,-886.8100134752651 Z" fill-opacity="0" stroke="black" stroke-width="8.533333333333333" />
<path d="M-600.6810013475265,-733.2100134752651 L-423.31899865247345,-733.210013475265 L-423.31899865247334,-910.572016170318 L-600.6810013475264,-910.5720161703181 L-600.6810013475265,-733.2100134752651 Z" fill-opacity="0" stroke="black" stroke-width="8.533333333333333" />
<path d="M-423.31899865247345,-733.210013475265 L-334.6379973049468,-886.8100134752651 L-488.23799730494693,-975.4910148227918 L-576.9189986524736,-821.8910148227917 L-423.31899865247345,-733.210013475265 Z" fill-opacity="0" stroke="black" stroke-width="8.533333333333333" />
<path d="M238.93333333333348,-1024.7582377936396 L1.305806228575719e-13,-1162.7064621120144 L-238.9333333333332,-1024.7582377936399 L-238.9333333333333,-748.8617891568906 L6.300548231374848e-14,-610.9135648385159 L238.9333333333334,-748.8617891568904 Z" fill-opacity="0.1" stroke="black" stroke-width="4.266666666666667" />
<path d="M177.36200269505318,-886.8100134752651 L88.68100134752666,-1040.4100134752653 L-88.68100134752638,-1040.4100134752653 L-177.36200269505295,-886.8100134752651 L-88.6810013475265,-733.2100134752651 L88.68100134752653,-733.210013475265 Z" fill-opacity="0" stroke="black" stroke-width="8.533333333333333" />
<path d="M177.36200269505318,-886.8100134752651 L88.68100134752666,-1040.4100134752653 L-64.91899865247348,-951.7290121277388 L23.762002695053013,-798.1290121277386 L177.36200269505318,-886.8100134752651 Z" fill-opacity="0" stroke="black" stroke-width="8.533333333333333" />
<path d="M88.68100134752666,-1040.4100134752653 L-88.68100134752638,-1040.4100134752653 L-88.68100134752639,-863.0480107802123 L88.68100134752665,-863.0480107802123 L88.68100134752666,-1040.4100134752653 Z" fill-opacity="0" stroke="black" stroke-width="8.533333333333333" />
<path d="M-88.68100134752638,-1040.4100134752653 L-177.36200269505295,-886.8100134752651 L-23.762002695052814,-798.1290121277385 L64.91899865247379,-951.7290121277387 L-88.68100134752638,-1040.4100134752653 Z" fill-opacity="0" stroke="black" stroke-width="8.533333333333333" />
<path d="M-177.36200269505295,-886.8100134752651 L-88.6810013475265,-733.2100134752651 L64.91899865247352,-821.8910148227915 L-23.7620026950529,-975.4910148227915 L-177.36200269505295,-886.8100134752651 Z" fill-opacity="0" stroke="black" stroke-width="8.533333333333333" />
<path d="M-88.6810013475265,-733.2100134752651 L88.68100134752653,-733.210013475265 L88.68100134752666,-910.572016170318 L-88.68100134752638,-910.5720161703181 L-88.6810013475265,-733.2100134752651 Z" fill-opacity="0" stroke="black" stroke-width="8.533333333333333" />
<path d="M88.68100134752653,-733.210013475265 L177.36200269505318,-886.8100134752651 L23.76200269505304,-975.4910148227918 L-64.91899865247363,-821.8910148227917 L88.68100134752653,-733.210013475265 Z" fill-opacity="0" stroke="black" stroke-width="8.533333333333333" />
<path d="M750.9333333333335,-1024.7582377936396 L512.0000000000001,-1162.7064621120144 L273.06666666666683,-1024.7582377936399 L273.0666666666667,-748.8617891568906 L512.0000000000001,-610.9135648385159 L750.9333333333334,-748.8617891568904 Z" fill-opacity="0.1" stroke="black" stroke-width="4.266666666666667" />
<path d="M689.3620026950532,-886.8100134752651 L600.6810013475267,-1040.4100134752653 L423.3189986524736,-1040.4100134752653 L334.637997304947,-886.8100134752651 L423.3189986524735,-733.2100134752651 L600.6810013475265,-733.210013475265 Z" fill-opacity="0" stroke="black" stroke-width="8.533333333333333" />
<path d="M689.3620026950532,-886.8100134752651 L600.6810013475267,-1040.4100134752653 L447.0810013475266,-951.7290121277388 L535.7620026950531,-798.1290121277386 L689.3620026950532,-886.8100134752651 Z" fill-opacity="0" stroke="black" stroke-width="8.533333333333333" />
<path d="M600.6810013475267,-1040.4100134752653 L423.3189986524736,-1040.4100134752653 L423.3189986524736,-863.0480107802122 L600.6810013475267,-863.0480107802122 L600.6810013475267,-1040.4100134752653 Z" fill-opacity="0" stroke="black" stroke-width="8.533333333333333" />
<path d="M423.3189986524736,-1040.4100134752653 L334.637997304947,-886.8100134752651 L488.23799730494716,-798.1290121277385 L576.9189986524738,-951.7290121277387 L423.3189986524736,-1040.4100134752653 Z" fill-opacity="0" stroke="black" stroke-width="8.533333333333333" />
<path d="M334.637997304947,-886.8100134752651 L423.3189986524735,-733.2100134752651 L576.9189986524735,-821.8910148227916 L488.23799730494704,-975.4910148227916 L334.637997304947,-886.8100134752651 Z" fill-opacity="0" stroke="black" stroke-width="8.533333333333333" />
<path d="M423.3189986524735,-733.2100134752651 L600.6810013475265,-733.210013475265 L600.6810013475266,-910.572016170318 L423.3189986524736,-910.5720161703181 L423.3189986524735,-733.2100134752651 Z" fill-opacity="0" stroke="black" stroke-width="8.533333333333333" />
<path d="M600.6810013475265,-733.210013475265 L689.3620026950532,-886.8100134752651 L535.7620026950531,-975.4910148227918 L447.08100134752635,-821.8910148227917 L600.6810013475265,-733.210013475265 Z" fill-opacity="0" stroke="black" stroke-width="8.533333333333333" />
<path d="M1262.9333333333334,-1024.7582377936396 L1024.0,-1162.7064621120144 L785.0666666666667,-1024.7582377936399 L785.0666666666666,-748.8617891568906 L1024.0,-610.9135648385159 L1262.9333333333334,-748.8617891568904 Z" fill-opacity="0.1" stroke="black" stroke-width="4.266666666666667" />
<path d="M1201.362002695053,-886.8100134752651 L1112.6810013475265,-1040.4100134752653 L935.3189986524735,-1040.4100134752653 L846.6379973049469,-886.8100134752651 L935.3189986524734,-733.2100134752651 L1112.6810013475265,-733.210013475265 Z" fill-opacity="0" stroke="black" stroke-width="8.533333333333333" />
<path d="M1201.362002695053,-886.8100134752651 L1112.6810013475265,-1040.4100134752653 L959.0810013475264,-951.7290121277388 L1047.7620026950528,-798.1290121277386 L1201.362002695053,-886.8100134752651 Z" fill-opacity="0" stroke="black" stroke-width="8.533333333333333" />
<path d="M1112.6810013475265,-1040.4100134752653 L935.3189986524735,-1040.4100134752653 L935.3189986524735,-863.0480107802123 L1112.6810013475265,-863.0480107802123 L1112.6810013475265,-1040.4100134752653 Z" fill-opacity="0" stroke="black" stroke-width="8.533333333333333" />
<path d="M935.3189986524735,-1040.4100134752653 L846.6379973049469,-886.8100134752651 L1000.237997304947,-798.1290121277385 L1088.9189986524736,-951.7290121277387 L935.3189986524735,-1040.4100134752653 Z" fill-opacity="0" stroke="black" stroke-width="8.533333333333333" />
<path d="M846.6379973049469,-886.8100134752651 L935.3189986524734,-733.2100134752651 L1088.9189986524734,-821.8910148227916 L1000.2379973049469,-975.4910148227916 L846.6379973049469,-886.8100134752651 Z" fill-opacity="0" stroke="black" stroke-width="8.533333333333333" />
<path d="M935.3189986524734,-733.2100134752651 L1112.6810013475265,-733.210013475265 L1112.6810013475267,-910.5720161703181 L935.3189986524736,-910.5720161703182 L935.3189986524734,-733.2100134752651 Z" fill-opacity="0" stroke="black" stroke-width="8.533333333333333" />
<path d="M1112.6810013475265,-733.210013475265 L1201.362002695053,-886.8100134752651 L1047.7620026950528,-975.4910148227916 L959.0810013475264,-821.8910148227915 L1112.6810013475265,-733.210013475265 Z" fill-opacity="0" stroke="black" stroke-width="8.533333333333333" />
<path d="M1774.9333333333334,-1024.7582377936396 L1536.0,-1162.7064621120144 L1297.0666666666666,-1024.7582377936399 L1297.0666666666666,-748.8617891568906 L1536.0,-610.9135648385159 L1774.9333333333334,-748.8617891568904 Z" fill-opacity="0.2" stroke="black" stroke-width="4.266666666666667" />
<text x="1890.7240053901062" y="-886.8100134752651" font-size="102" font-family="Helvetica" fill="black" text-anchor="middle" dominant-baseline="central">f7</text>
<path d="M-1041.0666666666664,-1468.1632445312723 L-1279.9999999999998,-1606.111468849647 L-1518.9333333333332,-1468.1632445312725 L-1518.9333333333332,-1192.2667958945233 L-1279.9999999999998,-1054.3185715761485 L-1041.0666666666666,-1192.266795894523 Z" fill-opacity="0.2" stroke="black" stroke-width="4.266666666666667" />
<text x="-1634.724005390106" y="-1330.2150202128978" font-size="102" font-family="Helvetica" fill="black" text-anchor="middle" dominant-baseline="central">g1</text>
<path d="M-529.0666666666664,-1468.1632445312723 L-767.9999999999998,-1606.111468849647 L-1006.933333333333,-1468.1632445312725 L-1006.9333333333332,-1192.2667958945233 L-767.9999999999998,-1054.3185715761485 L-529.0666666666665,-1192.266795894523 Z" fill-opacity="0.2" stroke="black" stroke-width="4.266666666666667" />
<path d="M-17.066666666666407,-1468.1632445312723 L-255.99999999999974,-1606.111468849647 L-494.93333333333305,-1468.1632445312725 L-494.93333333333317,-1192.2667958945233 L-255.99999999999983,-1054.3185715761485 L-17.066666666666492,-1192.266795894523 Z" fill-opacity="0.2" stroke="black" stroke-width="4.266666666666667" />
<path d="M494.9333333333336,-1468.1632445312723 L256.0000000000002,-1606.111468849647 L17.06666666666692,-1468.1632445312725 L17.066666666666805,-1192.2667958945233 L256.00000000000017,-1054.3185715761485 L494.9333333333335,-1192.266795894523 Z" fill-opacity="0.2" stroke="black" stroke-width="4.266666666666667" />
<path d="M1006.9333333333336,-1468.1632445312723 L768.0000000000002,-1606.111468849647 L529.066666666667,-1468.1632445312725 L529.0666666666668,-1192.2667958945233 L768.0000000000002,-1054.3185715761485 L1006.9333333333335,-1192.266795894523 Z" fill-opacity="0.2" stroke="black" stroke-width="4.266666666666667" />
<path d="M1518.9333333333336,-1468.1632445312723 L1280.0000000000002,-1606.111468849647 L1041.0666666666668,-1468.1632445312725 L1041.0666666666668,-1192.2667958945233 L1280.0000000000002,-1054.3185715761485 L1518.9333333333334,-1192.266795894523 Z" fill-opacity="0.2" stroke="black" stroke-width="4.266666666666667" />
<text x="1634.7240053901064" y="-1330.2150202128978" font-size="102" font-family="Helvetica" fill="black" text-anchor="middle" dominant-baseline="central">g6</text>
</svg>