<?xml version="1.0" encoding="UTF-8"?>
<svg xmlns="http://www.w3.org/2000/svg" xmlns:xlink="http://www.w3.org/1999/xlink"
     width="12.82cm" height="5.562562584220408cm" viewBox="-2048.0 -888.6215423153974 4096 1777.2430846307948">
<defs>
<radialGradient cx="-1022.402496099844" cy="0.0" r="534.9451979361975" gradientUnits="userSpaceOnUse" id="d0">
<stop offset="0" stop-color="rgb(0,0,0)" stop-opacity="0.0" />
<stop offset="1" stop-color="rgb(0,0,0)" stop-opacity="0.45" />
</radialGradient>
<radialGradient cx="0.0" cy="0.0" r="534.9451979361975" gradientUnits="userSpaceOnUse" id="d1">
<stop offset="0" stop-color="rgb(0,0,0)" stop-opacity="0.0" />
<stop offset="1" stop-color="rgb(0,0,0)" stop-opacity="0.225" />
</radialGradient>
<radialGradient cx="1022.402496099844" cy="0.0" r="534.9451979361975" gradientUnits="userSpaceOnUse" id="d2">
<stop offset="0" stop-color="rgb(0,0,0)" stop-opacity="0.0" />
<stop offset="1" stop-color="rgb(0,0,0)" stop-opacity="0.45" />
</radialGradient>
</defs>
<rect x="-2044.804992199688" y="-885.4265345150853" width="4089.609984399376" height="1770.8530690301707" fill="white" stroke="rgb(0,0,255)" stroke-width="2" />
<path d="M-559.126365054602,-267.4725989680987 L-1022.402496099844,-534.9451979361975 L-1485.6786271450858,-267.4725989680989 L-1485.678627145086,267.47259896809857 L-1022.4024960998441,534.9451979361975 L-559.1263650546023,267.47259896809896 Z" fill="url(#d0)" stroke="rgb(0,0,0)" stroke-width="7.9875195007800315" />
<path d="M-609.2034466594708,0.0 L-664.5616224648986,-206.59952472018657 L-815.8029713796574,-357.8408736349454 L-1022.402496099844,-413.1990494403732 L-1229.0020208200306,-357.84087363494547 L-1380.2433697347894,-206.59952472018657 L-1435.601545540217,-5.0602289330788195e-14 L-1380.2433697347894,206.59952472018648 L-1229.0020208200308,357.84087363494535 L-1022.4024960998441,413.1990494403732 L-815.8029713796574,357.8408736349454 L-664.5616224648987,206.59952472018676 Z" fill-opacity="0" stroke="rgb(0,0,0)" stroke-width="7.9875195007800315" />
<path d="M-609.2034466594708,0.0 L-664.5616224648986,-206.59952472018657 L-871.1611471850852,-261.95770052561437 L-1022.402496099844,-110.71635161085558 L-967.0443202944164,95.88317310933101 L-760.4447955742298,151.24134891475885 L-609.203446659471,8.526512829121202e-14 L-609.2034466594708,0.0 Z" fill-opacity="0" stroke="rgb(0,0,0)" stroke-width="7.9875195007800315" />
<path d="M-664.5616224648986,-206.59952472018657 L-815.8029713796574,-357.8408736349454 L-1022.402496099844,-302.48269782951775 L-1077.760671905272,-95.88317310933118 L-926.5193229905132,55.35817580542775 L-719.9197982703265,1.2789769243681803e-13 L-664.5616224648985,-206.59952472018642 L-664.5616224648986,-206.59952472018657 Z" fill-opacity="0" stroke="rgb(0,0,0)" stroke-width="7.9875195007800315" />
<path d="M-815.8029713796574,-357.8408736349454 L-1022.402496099844,-413.1990494403732 L-1173.643845014603,-261.9577005256143 L-1118.2856692091752,-55.35817580542766 L-911.6861444889887,1.9895196601282805e-13 L-760.4447955742298,-151.24134891475856 L-815.8029713796575,-357.8408736349452 L-815.8029713796574,-357.8408736349454 Z" fill-opacity="0" stroke="rgb(0,0,0)" stroke-width="7.9875195007800315" />
<path d="M-1022.402496099844,-413.1990494403732 L-1229.0020208200306,-357.84087363494547 L-1284.3601966254585,-151.24134891475896 L-1133.1188477106998,-1.1368683772161603e-13 L-926.5193229905133,-55.35817580542775 L-871.1611471850854,-261.9577005256142 L-1022.402496099844,-413.1990494403731 L-1022.402496099844,-413.1990494403732 Z" fill-opacity="0" stroke="rgb(0,0,0)" stroke-width="7.9875195007800315" />
<path d="M-1229.0020208200306,-357.84087363494547 L-1380.2433697347894,-206.59952472018657 L-1324.8851939293615,1.1368683772161603e-13 L-1118.285669209175,55.35817580542794 L-967.0443202944161,-95.88317310933087 L-1022.4024960998438,-302.4826978295176 L-1229.0020208200303,-357.8408736349455 L-1229.0020208200306,-357.84087363494547 Z" fill-opacity="0" stroke="rgb(0,0,0)" stroke-width="7.9875195007800315" />
<path d="M-1380.2433697347894,-206.59952472018657 L-1435.601545540217,-5.684341886080802e-14 L-1284.3601966254582,151.24134891475865 L-1077.7606719052717,95.88317310933085 L-1022.4024960998439,-110.71635161085563 L-1173.6438450146027,-261.95770052561437 L-1380.2433697347892,-206.59952472018665 L-1380.2433697347894,-206.59952472018657 Z" fill-opacity="0" stroke="rgb(0,0,0)" stroke-width="7.9875195007800315" />
<path d="M-1435.601545540217,-5.0602289330788195e-14 L-1380.2433697347894,206.59952472018648 L-1173.643845014603,261.9577005256143 L-1022.402496099844,110.71635161085567 L-1077.7606719052717,-95.88317310933087 L-1284.3601966254582,-151.24134891475882 L-1435.601545540217,-2.2737367544323206e-13 L-1435.601545540217,-5.0602289330788195e-14 Z" fill-opacity="0" stroke="rgb(0,0,0)" stroke-width="7.9875195007800315" />
<path d="M-1380.2433697347894,206.59952472018648 L-1229.0020208200308,357.84087363494535 L-1022.4024960998443,302.4826978295178 L-967.0443202944163,95.88317310933138 L-1118.2856692091748,-55.35817580542755 L-1324.8851939293613,-7.105427357601002e-14 L-1380.2433697347894,206.59952472018637 L-1380.2433697347894,206.59952472018648 Z" fill-opacity="0" stroke="rgb(0,0,0)" stroke-width="7.9875195007800315" />
<path d="M-1229.0020208200308,357.84087363494535 L-1022.4024960998441,413.1990494403732 L-871.1611471850852,261.95770052561437 L-926.5193229905128,55.35817580542766 L-1133.1188477106994,-2.7711166694643907e-13 L-1284.3601966254585,151.24134891475848 L-1229.0020208200308,357.8408736349452 L-1229.0020208200308,357.84087363494535 Z" fill-opacity="0" stroke="rgb(0,0,0)" stroke-width="7.9875195007800315" />
<path d="M-1022.4024960998441,413.1990494403732 L-815.8029713796574,357.8408736349454 L-760.4447955742295,151.24134891475867 L-911.6861444889884,-3.410605131648481e-13 L-1118.285669209175,55.35817580542735 L-1173.643845014603,261.9577005256141 L-1022.402496099844,413.1990494403732 L-1022.4024960998441,413.1990494403732 Z" fill-opacity="0" stroke="rgb(0,0,0)" stroke-width="7.9875195007800315" />
<path d="M-815.8029713796574,357.8408736349454 L-664.5616224648987,206.59952472018676 L-719.9197982703264,3.979039320256561e-13 L-926.5193229905128,-55.35817580542737 L-1077.7606719052715,95.88317310933124 L-1022.4024960998438,302.48269782951763 L-815.8029713796575,357.84087363494547 L-815.8029713796574,357.8408736349454 Z" fill-opacity="0" stroke="rgb(0,0,0)" stroke-width="7.9875195007800315" />
<path d="M-664.5616224648987,206.59952472018676 L-609.2034466594708,0.0 L-760.4447955742297,-151.24134891475904 L-967.0443202944166,-95.88317310933134 L-1022.4024960998446,110.71635161085543 L-871.1611471850857,261.95770052561454 L-664.5616224648988,206.59952472018693 L-664.5616224648987,206.59952472018676 Z" fill-opacity="0" stroke="rgb(0,0,0)" stroke-width="7.9875195007800315" />
<text x="-1730.7437237119125" y="0.0" font-size="204" font-family="Helvetica" fill="rgb(0,0,0)" text-anchor="middle" dominant-baseline="central">d3</text>
<path d="M463.2761310452419,-267.4725989680987 L3.2755946218590575e-14,-534.9451979361975 L-463.2761310452418,-267.4725989680989 L-463.276131045242,267.47259896809857 L-9.826783865577172e-14,534.9451979361975 L463.27613104524175,267.47259896809896 Z" fill="url(#d1)" stroke="rgb(0,0,0)" stroke-width="7.9875195007800315" />
<path d="M-214.37674801698958,-109.84255612168477 L-192.03131639716787,-97.50885179974517" fill-opacity="0" stroke="rgb(0,0,0)" stroke-width="7.9875195007800315" />
<path d="M-247.28791536928196,121.83422722764863 L-228.7269971541082,136.7170967023901" fill-opacity="0" stroke="rgb(0,0,0)" stroke-width="7.9875195007800315" />
<path d="M-197.23505534103373,-248.92953469437478 L-180.12330672059255,-270.76329429208" fill-opacity="0" stroke="rgb(0,0,0)" stroke-width="7.9875195007800315" />
<path d="M-353.1697130240647,-331.04256905213094 L-350.6670996753928,-326.55163231399143" fill-opacity="0" stroke="rgb(0,0,0)" stroke-width="7.9875195007800315" />
<path d="M-64.82426632545216,190.1535081804504 L-62.924485356998495,173.36601319972232" fill-opacity="0" stroke="rgb(0,0,0)" stroke-width="7.9875195007800315" />
<path d="M255.52613484107874,-50.85851374691312 L249.17432501416147,-54.46376338899137" fill-opacity="0" stroke="rgb(0,0,0)" stroke-width="7.9875195007800315" />
<path d="M132.63318843042703,-91.8480442745423 L123.22460045994848,-102.97947952914245" fill-opacity="0" stroke="rgb(0,0,0)" stroke-width="7.9875195007800315" />
<path d="M-168.41718057701772,-317.40500398196286 L-162.72611911758426,-323.12357839517114" fill-opacity="0" stroke="rgb(0,0,0)" stroke-width="7.9875195007800315" />
<path d="M168.4206344757288,-8.409858287000773 L161.97550952343346,15.876744428673021" fill-opacity="0" stroke="rgb(0,0,0)" stroke-width="7.9875195007800315" />
<path d="M-2.671275549615956,-194.2494398401966 L10.411954949413001,-231.16273911031612" fill-opacity="0" stroke="rgb(0,0,0)" stroke-width="7.9875195007800315" />
<path d="M-128.81984678646154,-232.3771016862486 L-137.11137760828137,-241.04507370483296" fill-opacity="0" stroke="rgb(0,0,0)" stroke-width="7.9875195007800315" />
<path d="M111.66594679787566,327.394450366083 L102.18315704142796,335.3613950716836" fill-opacity="0" stroke="rgb(0,0,0)" stroke-width="7.9875195007800315" />
<path d="M-9.364766855608252,452.7273844116306 L-21.120912435189723,459.6208071761085" fill-opacity="0" stroke="rgb(0,0,0)" stroke-width="7.9875195007800315" />
<path d="M-173.99752939040204,-233.57263664056217 L-177.16298675438884,-228.089903656944" fill-opacity="0" stroke="rgb(0,0,0)" stroke-width="7.9875195007800315" />
<path d="M-64.72923266076896,26.97322653053174 L-71.41836211375676,28.14678232736913" fill-opacity="0" stroke="rgb(0,0,0)" stroke-width="7.9875195007800315" />
<path d="M-137.8353357222869,240.11104292850789 L-125.52062696772771,243.75501296715015" fill-opacity="0" stroke="rgb(0,0,0)" stroke-width="7.9875195007800315" />
<path d="M-87.66188682211822,28.977836102739957 L-93.69176158332223,19.62396633261106" fill-opacity="0" stroke="rgb(0,0,0)" stroke-width="7.9875195007800315" />
<path d="M-279.03091405230094,-31.164752972995526 L-270.04597277688134,-27.85621052395254" fill-opacity="0" stroke="rgb(0,0,0)" stroke-width="7.9875195007800315" />
<path d="M-396.1660714683872,-236.45548628214613 L-414.1020582666668,-222.52994438598563" fill-opacity="0" stroke="rgb(0,0,0)" stroke-width="7.9875195007800315" />
<path d="M295.6293253685522,119.03998071347391 L273.9816867557374,109.27273211925339" fill-opacity="0" stroke="rgb(0,0,0)" stroke-width="7.9875195007800315" />
<path d="M92.80757054026503,286.1672114387926 L80.22147097209694,281.95883701155094" fill-opacity="0" stroke="rgb(0,0,0)" stroke-width="7.9875195007800315" />
<path d="M-463.2761310452419,148.8157795824128 L-463.2761310452419,157.29163170405172" fill-opacity="0" stroke="rgb(0,0,0)" stroke-width="7.9875195007800315" />
<path d="M312.4700956035123,66.80548749282494 L305.9297925221596,38.86860772134884" fill-opacity="0" stroke="rgb(0,0,0)" stroke-width="7.9875195007800315" />
<path d="M93.16299478954559,131.5520165740254 L91.01339203324046,115.39270889997346" fill-opacity="0" stroke="rgb(0,0,0)" stroke-width="7.9875195007800315" />
<path d="M-299.7618847621512,192.6286558224461 L-296.64523394264205,192.6771840063137" fill-opacity="0" stroke="rgb(0,0,0)" stroke-width="7.9875195007800315" />
<path d="M-289.97303964743844,26.375897100956706 L-291.82024057879585,45.845860892183936" fill-opacity="0" stroke="rgb(0,0,0)" stroke-width="7.9875195007800315" />
<path d="M-396.5147037557968,-160.59468509037566 L-391.9648670419415,-152.24959370914928" fill-opacity="0" stroke="rgb(0,0,0)" stroke-width="7.9875195007800315" />
<path d="M-111.72065145922977,-85.99141172029883 L-130.6634267246626,-96.47971748652631" fill-opacity="0" stroke="rgb(0,0,0)" stroke-width="7.9875195007800315" />
<path d="M71.2469108377424,170.9926648646409 L85.42654288975535,168.1269318176138" fill-opacity="0" stroke="rgb(0,0,0)" stroke-width="7.9875195007800315" />
<path d="M-4.361808033058166e-14,88.69605603471734 L-4.4022112781355484e-14,91.99523136474004" fill-opacity="0" stroke="rgb(0,0,0)" stroke-width="7.9875195007800315" />
<path d="M-64.49491662595874,-474.51405332494335 L-64.72060398170517,-497.5787398052448" fill-opacity="0" stroke="rgb(0,0,0)" stroke-width="7.9875195007800315" />
<path d="M430.3349363037779,105.09395219853371 L445.5057409936405,97.86724387901157" fill-opacity="0" stroke="rgb(0,0,0)" stroke-width="7.9875195007800315" />
<path d="M-191.62110144610432,-267.47259896809885 L-183.98011898563988,-234.43534167112654" fill-opacity="0" stroke="rgb(0,0,0)" stroke-width="7.9875195007800315" />
<path d="M-130.8714016997592,-195.8985058258041 L-143.2800980527125,-194.93131137458192" fill-opacity="0" stroke="rgb(0,0,0)" stroke-width="7.9875195007800315" />
<path d="M29.410573453950207,18.317566776757648 L34.61504353859914,30.222133004684878" fill-opacity="0" stroke="rgb(0,0,0)" stroke-width="7.9875195007800315" />
<path d="M433.73155293830735,195.12052739735398 L431.3245236913562,203.88460575401874" fill-opacity="0" stroke="rgb(0,0,0)" stroke-width="7.9875195007800315" />
<path d="M230.46312376981058,-186.77554983441024 L248.50987686330717,-196.54341926612682" fill-opacity="0" stroke="rgb(0,0,0)" stroke-width="7.9875195007800315" />
<path d="M205.17687817294018,-189.8405152275592 L210.500667427615,-179.54677522680151" fill-opacity="0" stroke="rgb(0,0,0)" stroke-width="7.9875195007800315" />
<path d="M63.78943457253132,58.95798785021043 L32.211091924088066,54.927827806365414" fill-opacity="0" stroke="rgb(0,0,0)" stroke-width="7.9875195007800315" />
<path d="M-21.79195925414473,-461.29715275549205 L-33.5960062804632,-476.0352373998293" fill-opacity="0" stroke="rgb(0,0,0)" stroke-width="7.9875195007800315" />
<path d="M14.55189818541318,-72.24383889597948 L9.26599545558048,-94.47245381537653" fill-opacity="0" stroke="rgb(0,0,0)" stroke-width="7.9875195007800315" />
<path d="M-130.88729642204146,-99.80124683977813 L-91.34176766920183,-80.9153505251856" fill-opacity="0" stroke="rgb(0,0,0)" stroke-width="7.9875195007800315" />
<path d="M-182.9144345789706,-212.1039373744786 L-195.66141961191303,-222.5955687168839" fill-opacity="0" stroke="rgb(0,0,0)" stroke-width="7.9875195007800315" />
<path d="M-107.38370499815687,-443.44277071634076 L-112.4357134398094,-441.75850226869255" fill-opacity="0" stroke="rgb(0,0,0)" stroke-width="7.9875195007800315" />
<path d="M-40.447186829144584,476.3049717836248 L-30.856281749234427,481.50055021386333" fill-opacity="0" stroke="rgb(0,0,0)" stroke-width="7.9875195007800315" />
<path d="M215.65429305923948,-345.13190390220655 L241.13528244167304,-349.6144636416096" fill-opacity="0" stroke="rgb(0,0,0)" stroke-width="7.9875195007800315" />
<path d="M195.47758357181038,323.04382253248093 L192.45640774352412,319.4535545416021" fill-opacity="0" stroke="rgb(0,0,0)" stroke-width="7.9875195007800315" />
<path d="M-153.75916649063902,-446.1723017724546 L-150.3856660504634,-448.1199931597013" fill-opacity="0" stroke="rgb(0,0,0)" stroke-width="7.9875195007800315" />
<path d="M-78.29932110629215,-231.66843126281356 L-47.513073994997114,-232.25026660426536" fill-opacity="0" stroke="rgb(0,0,0)" stroke-width="7.9875195007800315" />
<path d="M-228.64895701258425,-7.640361390133023 L-227.4725301803849,12.469936494448007" fill-opacity="0" stroke="rgb(0,0,0)" stroke-width="7.9875195007800315" />
<path d="M397.1527493503756,-224.7921143876179 L369.8064108981339,-206.48895794082406" fill-opacity="0" stroke="rgb(0,0,0)" stroke-width="7.9875195007800315" />
<path d="M-37.23840573118139,-79.11133653070354 L-23.493847948302545,-63.168813141927245" fill-opacity="0" stroke="rgb(0,0,0)" stroke-width="7.9875195007800315" />
<path d="M-265.08033640102695,-345.5825365247777 L-264.7813824049232,-335.7308800138407" fill-opacity="0" stroke="rgb(0,0,0)" stroke-width="7.9875195007800315" />
<path d="M-358.39786583717773,17.41197327973063 L-352.59299752692687,19.86364886820614" fill-opacity="0" stroke="rgb(0,0,0)" stroke-width="7.9875195007800315" />
<path d="M-24.16139056765573,-373.0277591203152 L-11.650786470671335,-388.34580402983147" fill-opacity="0" stroke="rgb(0,0,0)" stroke-width="7.9875195007800315" />
<path d="M-78.85119121942452,353.7362163962109 L-81.45184283342374,343.32508789108215" fill-opacity="0" stroke="rgb(0,0,0)" stroke-width="7.9875195007800315" />
<path d="M156.64104757256231,-72.99368424994299 L168.15836228029696,-49.23472016618649" fill-opacity="0" stroke="rgb(0,0,0)" stroke-width="7.9875195007800315" />
<path d="M183.38796968069147,26.38609593242677 L218.0307200419631,1.1271731581106792" fill-opacity="0" stroke="rgb(0,0,0)" stroke-width="7.9875195007800315" />
<path d="M-6.313725409517391e-14,248.08220539780115 L-6.230270148600424e-14,241.2675661912094" fill-opacity="0" stroke="rgb(0,0,0)" stroke-width="7.9875195007800315" />
<path d="M418.35543980476206,188.17646933215482 L420.8504145281535,165.71728841993036" fill-opacity="0" stroke="rgb(0,0,0)" stroke-width="7.9875195007800315" />
<path d="M90.37001486571262,-482.77004552680785 L80.29954735641076,-488.58423265416866" fill-opacity="0" stroke="rgb(0,0,0)" stroke-width="7.9875195007800315" />
<path d="M-346.29817795964266,-335.0098516713209 L-340.6759859503245,-328.1519491016585" fill-opacity="0" stroke="rgb(0,0,0)" stroke-width="7.9875195007800315" />
<path d="M284.4427906071802,233.10271674300225 L276.8075468481389,250.05602440776826" fill-opacity="0" stroke="rgb(0,0,0)" stroke-width="7.9875195007800315" />
<path d="M-74.76515014529049,-293.50015555490717 L-66.17108264467517,-292.04836764712644" fill-opacity="0" stroke="rgb(0,0,0)" stroke-width="7.9875195007800315" />
<path d="M-220.0687324292448,9.707402366769145 L-227.81695989725364,34.999378043168406" fill-opacity="0" stroke="rgb(0,0,0)" stroke-width="7.9875195007800315" />
<path d="M-317.79104923196434,-117.64446181360898 L-312.32142398824084,-110.80537707926064" fill-opacity="0" stroke="rgb(0,0,0)" stroke-width="7.9875195007800315" />
<path d="M-24.229271421013294,-9.850654995637171 L-12.383519861785317,-26.223376507457317" fill-opacity="0" stroke="rgb(0,0,0)" stroke-width="7.9875195007800315" />
<path d="M231.21714206591002,116.85614027568715 L228.67039024774732,98.1256714463161" fill-opacity="0" stroke="rgb(0,0,0)" stroke-width="7.9875195007800315" />
<path d="M-107.29079255825593,-308.1590694610321 L-122.00538373199458,-300.1797351676448" fill-opacity="0" stroke="rgb(0,0,0)" stroke-width="7.9875195007800315" />
<path d="M-87.30981015116126,76.0759785293074 L-97.45231925788272,100.34896355121595" fill-opacity="0" stroke="rgb(0,0,0)" stroke-width="7.9875195007800315" />
<path d="M235.04019441274747,-229.1772180669018 L249.52895096295632,-212.62272054400233" fill-opacity="0" stroke="rgb(0,0,0)" stroke-width="7.9875195007800315" />
<path d="M-402.3396832716959,-212.5768380768625 L-440.3127694740931,-213.96803700606048" fill-opacity="0" stroke="rgb(0,0,0)" stroke-width="7.9875195007800315" />
<path d="M-415.2823969687881,-205.6793818713554 L-415.0187054040411,-204.04242498284336" fill-opacity="0" stroke="rgb(0,0,0)" stroke-width="7.9875195007800315" />
<path d="M-278.79204191812687,-267.4805986004086 L-275.07661573008124,-267.5083367736362" fill-opacity="0" stroke="rgb(0,0,0)" stroke-width="7.9875195007800315" />
<path d="M-21.80295172024964,287.5982514929197 L-20.503754171420113,274.2982330330648" fill-opacity="0" stroke="rgb(0,0,0)" stroke-width="7.9875195007800315" />
<path d="M-105.80182091586157,-266.0289472283915 L-102.9382520323515,-266.22440151036307" fill-opacity="0" stroke="rgb(0,0,0)" stroke-width="7.9875195007800315" />
<path d="M-417.6254525915249,-41.08591543875224 L-433.158669006942,-39.24859253275699" fill-opacity="0" stroke="rgb(0,0,0)" stroke-width="7.9875195007800315" />
<path d="M9.234832748199466,-487.1003606590835 L21.290763170171175,-491.604073499969" fill-opacity="0" stroke="rgb(0,0,0)" stroke-width="7.9875195007800315" />
<path d="M61.910211095188856,58.254631745227584 L72.25696705203939,69.94500197164183" fill-opacity="0" stroke="rgb(0,0,0)" stroke-width="7.9875195007800315" />
<path d="M-271.847648958652,-377.99388463135296 L-264.75672144848323,-382.087833538153" fill-opacity="0" stroke="rgb(0,0,0)" stroke-width="7.9875195007800315" />
<path d="M-196.25004674884212,32.472587963446244 L-210.44126965072792,21.570632014948785" fill-opacity="0" stroke="rgb(0,0,0)" stroke-width="7.9875195007800315" />
<path d="M-260.4169091194459,-284.15305821998896 L-254.2775467239222,-291.2424463944209" fill-opacity="0" stroke="rgb(0,0,0)" stroke-width="7.9875195007800315" />
<path d="M-35.43894744157703,-148.50550941708852 L-4.726428540319603,-131.7074733144285" fill-opacity="0" stroke="rgb(0,0,0)" stroke-width="7.9875195007800315" />
<path d="M218.04902243410834,105.09492660333429 L252.94922590971385,109.55104336807388" fill-opacity="0" stroke="rgb(0,0,0)" stroke-width="7.9875195007800315" />
<path d="M279.25345854969476,18.26341180318093 L303.83854486806524,8.681400926912602" fill-opacity="0" stroke="rgb(0,0,0)" stroke-width="7.9875195007800315" />
<path d="M231.10187038774293,-288.0185177895583 L243.65963233566427,-285.05829376179884" fill-opacity="0" stroke="rgb(0,0,0)" stroke-width="7.9875195007800315" />
<path d="M-449.72979561608236,-230.21691544902527 L-449.0549437874619,-241.542869115919" fill-opacity="0" stroke="rgb(0,0,0)" stroke-width="7.9875195007800315" />
<path d="M263.29235367975497,225.8230898435117 L266.85021776935474,222.01889694153235" fill-opacity="0" stroke="rgb(0,0,0)" stroke-width="7.9875195007800315" />
<path d="M80.61335001941288,341.6986049112754 L87.52684880610968,337.7800454526641" fill-opacity="0" stroke="rgb(0,0,0)" stroke-width="7.9875195007800315" />
<path d="M146.00194135513095,440.5406184498784 L143.61944217954994,431.55240931872675" fill-opacity="0" stroke="rgb(0,0,0)" stroke-width="7.9875195007800315" />
<path d="M220.93635324596085,-303.1682910001484 L198.27731644800437,-301.0087323822342" fill-opacity="0" stroke="rgb(0,0,0)" stroke-width="7.9875195007800315" />
<path d="M-353.2459656031542,-249.40800622848246 L-360.1927143159402,-267.47259896809885" fill-opacity="0" stroke="rgb(0,0,0)" stroke-width="7.9875195007800315" />
<path d="M-413.8338364293532,109.09755304213283 L-428.498754134699,100.79164524399224" fill-opacity="0" stroke="rgb(0,0,0)" stroke-width="7.9875195007800315" />
<path d="M131.76133969467062,-144.54409307702565 L141.9011550268482,-151.05402839356782" fill-opacity="0" stroke="rgb(0,0,0)" stroke-width="7.9875195007800315" />
<path d="M56.63065404401786,354.6038320423205 L49.953652771057676,389.8011777029054" fill-opacity="0" stroke="rgb(0,0,0)" stroke-width="7.9875195007800315" />
<path d="M-81.00112681984416,304.01409549273416 L-109.46510676687507,331.43417958499066" fill-opacity="0" stroke="rgb(0,0,0)" stroke-width="7.9875195007800315" />
<path d="M-380.44443882801073,-315.29549876714947 L-376.1866717508944,-317.7537217352693" fill-opacity="0" stroke="rgb(0,0,0)" stroke-width="7.9875195007800315" />
<path d="M244.80553310436014,-357.52098696482045 L243.78979710586276,-342.05696341219124" fill-opacity="0" stroke="rgb(0,0,0)" stroke-width="7.9875195007800315" />
<path d="M124.48131818759124,197.6895138947985 L120.42022285804794,218.220190085159" fill-opacity="0" stroke="rgb(0,0,0)" stroke-width="7.9875195007800315" />
<path d="M12.100821658570235,-312.8135642147221 L16.160217396058385,-310.56043792705316" fill-opacity="0" stroke="rgb(0,0,0)" stroke-width="7.9875195007800315" />
<path d="M388.56244086058746,-160.31869340985185 L396.20740324800965,-158.4842857875547" fill-opacity="0" stroke="rgb(0,0,0)" stroke-width="7.9875195007800315" />
<path d="M282.8416661715238,120.2126823570149 L301.50378083451926,115.0832704975438" fill-opacity="0" stroke="rgb(0,0,0)" stroke-width="7.9875195007800315" />
<path d="M-61.88604483681836,-312.62798595338865 L-64.19241466293626,-333.1934766405191" fill-opacity="0" stroke="rgb(0,0,0)" stroke-width="7.9875195007800315" />
<path d="M-91.54247385698491,135.10320655208642 L-114.53819781382174,141.8779315936807" fill-opacity="0" stroke="rgb(0,0,0)" stroke-width="7.9875195007800315" />
<path d="M-180.9397529259155,84.60373093392693 L-218.6989425195302,93.88344651827214" fill-opacity="0" stroke="rgb(0,0,0)" stroke-width="7.9875195007800315" />
<path d="M-399.9558789558317,-236.1818354806758 L-421.41986240914315,-243.30687100377406" fill-opacity="0" stroke="rgb(0,0,0)" stroke-width="7.9875195007800315" />
<path d="M178.9720473682381,-191.5503767312489 L190.3530157842255,-171.9019610024505" fill-opacity="0" stroke="rgb(0,0,0)" stroke-width="7.9875195007800315" />
<path d="M-329.8723383089327,-298.97694563253344 L-297.8674592232845,-304.3154058156139" fill-opacity="0" stroke="rgb(0,0,0)" stroke-width="7.9875195007800315" />
<path d="M349.6566550375187,180.71041066791378 L387.55704883912335,175.69463503758823" fill-opacity="0" stroke="rgb(0,0,0)" stroke-width="7.9875195007800315" />
<path d="M170.1802976010503,240.18427604398636 L154.30492628677572,240.63802992740713" fill-opacity="0" stroke="rgb(0,0,0)" stroke-width="7.9875195007800315" />
<path d="M348.9948299659867,-322.93157475879343 L345.45120105318495,-304.975468466396" fill-opacity="0" stroke="rgb(0,0,0)" stroke-width="7.9875195007800315" />
<path d="M-258.531557476234,-239.72787893655047 L-278.1479650292094,-229.29676625000042" fill-opacity="0" stroke="rgb(0,0,0)" stroke-width="7.9875195007800315" />
<path d="M109.40958873793136,-289.65477903125736 L105.83874073148507,-260.870681527906" fill-opacity="0" stroke="rgb(0,0,0)" stroke-width="7.9875195007800315" />
<path d="M-265.9006164201758,-97.61501016378463 L-263.81505031039643,-115.00785987783973" fill-opacity="0" stroke="rgb(0,0,0)" stroke-width="7.9875195007800315" />
<path d="M19.147794048063247,394.96620261182125 L2.340603104604611,418.6889321916525" fill-opacity="0" stroke="rgb(0,0,0)" stroke-width="7.9875195007800315" />
<path d="M123.92717578868067,397.4914188170807 L121.67174338318841,404.7046213498482" fill-opacity="0" stroke="rgb(0,0,0)" stroke-width="7.9875195007800315" />
<path d="M-338.4346645499056,-220.5095789434551 L-381.2706608129779,-225.5224421663779" fill-opacity="0" stroke="rgb(0,0,0)" stroke-width="7.9875195007800315" />
<path d="M135.77498683179033,-390.73423296149343 L131.7099502563234,-401.547160206623" fill-opacity="0" stroke="rgb(0,0,0)" stroke-width="7.9875195007800315" />
<path d="M112.46385671266762,-420.00466821525157 L118.42169060119915,-398.8293387232579" fill-opacity="0" stroke="rgb(0,0,0)" stroke-width="7.9875195007800315" />
<path d="M58.60850299238556,254.76447154121198 L56.768404218182766,245.88880577292488" fill-opacity="0" stroke="rgb(0,0,0)" stroke-width="7.9875195007800315" />
<path d="M-305.75822578800376,-33.270682039292595 L-296.8685762233059,-50.1535074726339" fill-opacity="0" stroke="rgb(0,0,0)" stroke-width="7.9875195007800315" />
<path d="M-107.03683918748686,458.4955872646196 L-97.36326833814843,463.6537803927417" fill-opacity="0" stroke="rgb(0,0,0)" stroke-width="7.9875195007800315" />
<path d="M-106.84449507070957,58.56442777619044 L-121.33268969455492,47.23095738137722" fill-opacity="0" stroke="rgb(0,0,0)" stroke-width="7.9875195007800315" />
<path d="M-415.9594923762874,-207.82754154854993 L-416.0895637332329,-179.42432976888918" fill-opacity="0" stroke="rgb(0,0,0)" stroke-width="7.9875195007800315" />
<path d="M69.49336999278796,-20.307993177240938 L50.476059546602556,-20.662186265820267" fill-opacity="0" stroke="rgb(0,0,0)" stroke-width="7.9875195007800315" />
<path d="M428.92389758635284,137.50363943811882 L437.98028748271736,147.17401296776242" fill-opacity="0" stroke="rgb(0,0,0)" stroke-width="7.9875195007800315" />
<path d="M-245.70782370483167,-21.165466626842033 L-234.97910195019827,6.530076816024291" fill-opacity="0" stroke="rgb(0,0,0)" stroke-width="7.9875195007800315" />
<path d="M219.97904106840025,-168.61932163433542 L205.84311014151297,-153.32544253000952" fill-opacity="0" stroke="rgb(0,0,0)" stroke-width="7.9875195007800315" />
<path d="M-358.0681272804985,-328.2144682625766 L-340.3533563181161,-338.4420960463407" fill-opacity="0" stroke="rgb(0,0,0)" stroke-width="7.9875195007800315" />
<path d="M12.464380765395909,267.47259896809874 L22.490185958691903,267.47259896809874" fill-opacity="0" stroke="rgb(0,0,0)" stroke-width="7.9875195007800315" />
<path d="M-134.07520365025115,247.278233773421 L-145.28506877484736,229.92628587968898" fill-opacity="0" stroke="rgb(0,0,0)" stroke-width="7.9875195007800315" />
<path d="M-62.67355791221908,-3.607266176210061 L-77.26405133310774,5.162458585467732" fill-opacity="0" stroke="rgb(0,0,0)" stroke-width="7.9875195007800315" />
<path d="M29.372445643023696,-487.84708125328626 L21.68921346479476,-497.3783782389659" fill-opacity="0" stroke="rgb(0,0,0)" stroke-width="7.9875195007800315" />
<path d="M53.90046866410621,168.57785805414414 L67.9240895386672,173.61184400687983" fill-opacity="0" stroke="rgb(0,0,0)" stroke-width="7.9875195007800315" />
<path d="M425.822923816981,-29.153897802764906 L411.07150482554425,-36.24762008762366" fill-opacity="0" stroke="rgb(0,0,0)" stroke-width="7.9875195007800315" />
<path d="M-256.4376824574385,386.89083293903155 L-274.63040394781916,376.3872602892684" fill-opacity="0" stroke="rgb(0,0,0)" stroke-width="7.9875195007800315" />
<path d="M-31.36093636995693,404.7196945315362 L-30.453815722883135,393.8275376149951" fill-opacity="0" stroke="rgb(0,0,0)" stroke-width="7.9875195007800315" />
<path d="M-177.54581591726054,-223.79002611271636 L-140.41739635343606,-213.61667280644218" fill-opacity="0" stroke="rgb(0,0,0)" stroke-width="7.9875195007800315" />
<path d="M297.9910224855013,15.056647188358852 L283.6995462770625,40.11207582153105" fill-opacity="0" stroke="rgb(0,0,0)" stroke-width="7.9875195007800315" />
<path d="M-379.35262600304657,-302.9184995266202 L-387.53562477068056,-297.5649464187882" fill-opacity="0" stroke="rgb(0,0,0)" stroke-width="7.9875195007800315" />
<path d="M-153.72641714340233,-428.19703003120514 L-147.55202235113802,-429.92665304205406" fill-opacity="0" stroke="rgb(0,0,0)" stroke-width="7.9875195007800315" />
<path d="M369.30121769788923,59.41428687856762 L366.12193666497944,67.95553886594746" fill-opacity="0" stroke="rgb(0,0,0)" stroke-width="7.9875195007800315" />
<path d="M-408.40346727907615,-205.20380413743356 L-414.3634763481338,-204.48570666820436" fill-opacity="0" stroke="rgb(0,0,0)" stroke-width="7.9875195007800315" />
<path d="M136.2293569864743,-78.65205592767057 L132.41011228452126,-76.44701397089695" fill-opacity="0" stroke="rgb(0,0,0)" stroke-width="7.9875195007800315" />
<path d="M-83.29510240893809,-253.21455905355657 L-80.54169764385378,-259.3653500345871" fill-opacity="0" stroke="rgb(0,0,0)" stroke-width="7.9875195007800315" />
<path d="M230.62845398787468,144.85916474074241 L250.4138103508167,121.47273957573475" fill-opacity="0" stroke="rgb(0,0,0)" stroke-width="7.9875195007800315" />
<path d="M333.30544665452095,222.0943944267746 L339.93324573507294,233.7229219994963" fill-opacity="0" stroke="rgb(0,0,0)" stroke-width="7.9875195007800315" />
<path d="M-243.63337910204837,394.28340092805166 L-246.36907964112802,392.70394348539185" fill-opacity="0" stroke="rgb(0,0,0)" stroke-width="7.9875195007800315" />
<path d="M84.16284306964276,235.92337075030287 L81.236416932425,260.26129119408495" fill-opacity="0" stroke="rgb(0,0,0)" stroke-width="7.9875195007800315" />
<path d="M-185.45402576648826,390.09647337884724 L-203.64255075471965,387.15461076885464" fill-opacity="0" stroke="rgb(0,0,0)" stroke-width="7.9875195007800315" />
<path d="M30.281573687637774,139.23655226826807 L20.047443917357867,141.0484803588662" fill-opacity="0" stroke="rgb(0,0,0)" stroke-width="7.9875195007800315" />
<path d="M-24.98429335957153,-295.1100532908681 L-28.841384393660412,-287.4266361979372" fill-opacity="0" stroke="rgb(0,0,0)" stroke-width="7.9875195007800315" />
<path d="M-367.58788336851035,-220.56349916573507 L-347.5243467691277,-218.6702656707223" fill-opacity="0" stroke="rgb(0,0,0)" stroke-width="7.9875195007800315" />
<path d="M-306.2585905132998,-39.07300102849882 L-295.81767670596855,-53.90577418580398" fill-opacity="0" stroke="rgb(0,0,0)" stroke-width="7.9875195007800315" />
<path d="M273.28721050295076,62.547716525630065 L247.63343503070274,55.4818425972666" fill-opacity="0" stroke="rgb(0,0,0)" stroke-width="7.9875195007800315" />
<path d="M-372.652568902827,78.01321045906343 L-373.94907627248807,67.71001800495591" fill-opacity="0" stroke="rgb(0,0,0)" stroke-width="7.9875195007800315" />
<path d="M-428.04869998108217,-72.67494702800735 L-431.41704765419865,-53.19552159083895" fill-opacity="0" stroke="rgb(0,0,0)" stroke-width="7.9875195007800315" />
<path d="M-97.34030540854985,323.0897181227035 L-112.58239315145428,348.89064030035286" fill-opacity="0" stroke="rgb(0,0,0)" stroke-width="7.9875195007800315" />
<path d="M-40.700596330179124,416.9099439806495 L-42.360505137546475,420.3969070966789" fill-opacity="0" stroke="rgb(0,0,0)" stroke-width="7.9875195007800315" />
<path d="M-209.82260474548193,-301.5761226001942 L-224.6791465300323,-303.89009914336384" fill-opacity="0" stroke="rgb(0,0,0)" stroke-width="7.9875195007800315" />
<path d="M-88.2328566704184,244.4074174145059 L-88.90793575785187,210.35853007172767" fill-opacity="0" stroke="rgb(0,0,0)" stroke-width="7.9875195007800315" />
<path d="M120.95588234725011,-172.54921769563433 L92.66811453711017,-168.4565327979794" fill-opacity="0" stroke="rgb(0,0,0)" stroke-width="7.9875195007800315" />
<path d="M-68.39251618042515,-238.9872883524742 L-64.88896785172454,-237.80716603737272" fill-opacity="0" stroke="rgb(0,0,0)" stroke-width="7.9875195007800315" />
<path d="M285.7103317079302,-164.95493692183067 L311.46291284973574,-179.82319657637976" fill-opacity="0" stroke="rgb(0,0,0)" stroke-width="7.9875195007800315" />
<path d="M19.97859834548916,-6.396088456125089 L-4.6112538711659,-4.77376668016873" fill-opacity="0" stroke="rgb(0,0,0)" stroke-width="7.9875195007800315" />
<path d="M-308.47591673948926,332.2302610706474 L-278.91363157110584,335.55137650859155" fill-opacity="0" stroke="rgb(0,0,0)" stroke-width="7.9875195007800315" />
<path d="M76.25172915968966,218.1727081701032 L55.32330084958615,207.12144516684566" fill-opacity="0" stroke="rgb(0,0,0)" stroke-width="7.9875195007800315" />
<path d="M349.83695518625666,106.13167124129777 L366.05027584823074,116.43997296737604" fill-opacity="0" stroke="rgb(0,0,0)" stroke-width="7.9875195007800315" />
<path d="M-130.00560812726587,447.4769598689149 L-131.36061030669234,459.10411421471514" fill-opacity="0" stroke="rgb(0,0,0)" stroke-width="7.9875195007800315" />
<path d="M-16.53357752664361,267.4725989680988 L-11.790367989180325,267.4725989680988" fill-opacity="0" stroke="rgb(0,0,0)" stroke-width="7.9875195007800315" />
<path d="M350.7851407692556,81.58899765089626 L359.23457520589034,96.56033820479405" fill-opacity="0" stroke="rgb(0,0,0)" stroke-width="7.9875195007800315" />
<path d="M-364.9397402001325,135.14448754709213 L-371.5830514108114,151.63481969325676" fill-opacity="0" stroke="rgb(0,0,0)" stroke-width="7.9875195007800315" />
<path d="M-151.48873550260384,-86.94807827851184 L-164.07121565177596,-79.55003691286515" fill-opacity="0" stroke="rgb(0,0,0)" stroke-width="7.9875195007800315" />
<path d="M-243.45682155604553,-57.5377224424722 L-221.4089513658461,-65.53882443677286" fill-opacity="0" stroke="rgb(0,0,0)" stroke-width="7.9875195007800315" />
<path d="M-17.90859065371177,-45.00064597149424 L-42.19474062139773,-49.697445274157246" fill-opacity="0" stroke="rgb(0,0,0)" stroke-width="7.9875195007800315" />
<path d="M-13.544259655545346,48.747510705271964 L-8.71205914643184,37.10373552155909" fill-opacity="0" stroke="rgb(0,0,0)" stroke-width="7.9875195007800315" />
<path d="M40.23299382275816,-493.611921874984 L39.3214770639599,-490.52634774755853" fill-opacity="0" stroke="rgb(0,0,0)" stroke-width="7.9875195007800315" />
<path d="M-416.6512809835483,159.82550167375115 L-419.0897786051939,138.8091999071208" fill-opacity="0" stroke="rgb(0,0,0)" stroke-width="7.9875195007800315" />
<path d="M27.61684957220256,-494.6972408192444 L13.769491982436104,-476.8338742395787" fill-opacity="0" stroke="rgb(0,0,0)" stroke-width="7.9875195007800315" />
<path d="M-122.41814838428023,-146.85605918020076 L-129.8040960001539,-157.27117535271853" fill-opacity="0" stroke="rgb(0,0,0)" stroke-width="7.9875195007800315" />
<path d="M7.261479956109042,-20.169135630104847 L-9.160661522562009,-8.317402602600396" fill-opacity="0" stroke="rgb(0,0,0)" stroke-width="7.9875195007800315" />
<path d="M147.2383886585303,189.94465896267715 L165.26788760602562,189.38315653037085" fill-opacity="0" stroke="rgb(0,0,0)" stroke-width="7.9875195007800315" />
<path d="M-31.77461663406057,-267.10843348666276 L-12.881680971702643,-264.41610749791033" fill-opacity="0" stroke="rgb(0,0,0)" stroke-width="7.9875195007800315" />
<path d="M-131.50592048192402,-31.36862604246687 L-150.026424813223,-49.97788599216602" fill-opacity="0" stroke="rgb(0,0,0)" stroke-width="7.9875195007800315" />
<path d="M408.17305751952097,-164.65771820020657 L409.963640573393,-157.3373094661835" fill-opacity="0" stroke="rgb(0,0,0)" stroke-width="7.9875195007800315" />
<path d="M-194.44841063464028,-46.79638713303953 L-186.70382162383828,-23.201693024103207" fill-opacity="0" stroke="rgb(0,0,0)" stroke-width="7.9875195007800315" />
<path d="M-292.9735726555606,78.84668562558173 L-282.8357401047375,75.28746869541874" fill-opacity="0" stroke="rgb(0,0,0)" stroke-width="7.9875195007800315" />
<path d="M122.59217549980653,384.4732648452983 L119.13969387810472,369.3988189740055" fill-opacity="0" stroke="rgb(0,0,0)" stroke-width="7.9875195007800315" />
<path d="M-98.27459297558136,317.85339410849383 L-89.23919484548036,334.2527121030639" fill-opacity="0" stroke="rgb(0,0,0)" stroke-width="7.9875195007800315" />
<path d="M177.68841416516472,-5.474717494244061 L208.02451792556218,4.686932588853466" fill-opacity="0" stroke="rgb(0,0,0)" stroke-width="7.9875195007800315" />
<path d="M210.29772116199226,-226.89762916843057 L209.18609004387187,-258.43555844831326" fill-opacity="0" stroke="rgb(0,0,0)" stroke-width="7.9875195007800315" />
<path d="M190.1569681800686,244.05873476067114 L186.61729984356373,254.59792297668028" fill-opacity="0" stroke="rgb(0,0,0)" stroke-width="7.9875195007800315" />
<path d="M54.34885920391349,318.69448792131084 L44.740498378799714,311.16329128313214" fill-opacity="0" stroke="rgb(0,0,0)" stroke-width="7.9875195007800315" />
<path d="M115.72735020421194,-268.84572092534813 L121.32517317788506,-251.44027894616465" fill-opacity="0" stroke="rgb(0,0,0)" stroke-width="7.9875195007800315" />
<path d="M-100.4701505348691,-35.891441470941686 L-107.45900489006601,-22.303439218476655" fill-opacity="0" stroke="rgb(0,0,0)" stroke-width="7.9875195007800315" />
<path d="M181.91006932215504,146.47904597420364 L181.57057968827843,182.2731026074593" fill-opacity="0" stroke="rgb(0,0,0)" stroke-width="7.9875195007800315" />
<path d="M212.68687229246098,-370.82135483160124 L184.48161340991663,-357.40309074857595" fill-opacity="0" stroke="rgb(0,0,0)" stroke-width="7.9875195007800315" />
<path d="M-49.68530066152016,75.96496652062186 L-79.32628717286877,67.10209539182594" fill-opacity="0" stroke="rgb(0,0,0)" stroke-width="7.9875195007800315" />
<path d="M118.63845689730886,-356.33147201629015 L97.26904866073332,-348.1758744524007" fill-opacity="0" stroke="rgb(0,0,0)" stroke-width="7.9875195007800315" />
<path d="M-298.97938004400856,-108.18755264628838 L-295.8578962557402,-98.1470447097945" fill-opacity="0" stroke="rgb(0,0,0)" stroke-width="7.9875195007800315" />
<path d="M-56.84099332119261,334.04872673612897 L-53.312236877226844,316.9900401758739" fill-opacity="0" stroke="rgb(0,0,0)" stroke-width="7.9875195007800315" />
<path d="M156.75147711145124,280.266932587592 L149.88542939367667,287.18655879319965" fill-opacity="0" stroke="rgb(0,0,0)" stroke-width="7.9875195007800315" />
<path d="M-393.1382978588134,-276.053688538693 L-407.4282126142024,-289.54150498535853" fill-opacity="0" stroke="rgb(0,0,0)" stroke-width="7.9875195007800315" />
<path d="M-89.13371482158772,391.1451677035164 L-70.34006486162986,398.81889103048303" fill-opacity="0" stroke="rgb(0,0,0)" stroke-width="7.9875195007800315" />
<path d="M-463.276131045242,204.95471583820378 L-463.276131045242,197.97215917769208" fill-opacity="0" stroke="rgb(0,0,0)" stroke-width="7.9875195007800315" />
<path d="M70.14959350838785,62.42381681674878 L104.66544837931542,63.98473980375077" fill-opacity="0" stroke="rgb(0,0,0)" stroke-width="7.9875195007800315" />
<path d="M-309.6105585296402,-97.11519760646118 L-313.40356274632757,-92.69540229926739" fill-opacity="0" stroke="rgb(0,0,0)" stroke-width="7.9875195007800315" />
<path d="M439.9975607260923,-234.90771429866442 L441.2884270698989,-234.33095345641178" fill-opacity="0" stroke="rgb(0,0,0)" stroke-width="7.9875195007800315" />
<path d="M187.55064371287796,-36.02310019681346 L221.02403566793424,-59.52093532157869" fill-opacity="0" stroke="rgb(0,0,0)" stroke-width="7.9875195007800315" />
<path d="M-12.881662453539974,-317.59807041429934 L-19.64945202227358,-321.88409254227713" fill-opacity="0" stroke="rgb(0,0,0)" stroke-width="7.9875195007800315" />
<path d="M186.87642419518187,211.26573649334856 L189.176403983264,207.2820546440088" fill-opacity="0" stroke="rgb(0,0,0)" stroke-width="7.9875195007800315" />
<path d="M320.8357053835373,160.75445996054026 L323.06977380298935,177.46365423831156" fill-opacity="0" stroke="rgb(0,0,0)" stroke-width="7.9875195007800315" />
<path d="M84.66910978973374,-186.0551489678203 L63.58319814198302,-189.4008549548488" fill-opacity="0" stroke="rgb(0,0,0)" stroke-width="7.9875195007800315" />
<path d="M318.28923795012156,141.1049307432196 L330.03322944167036,166.26608107024265" fill-opacity="0" stroke="rgb(0,0,0)" stroke-width="7.9875195007800315" />
<path d="M444.07826146495574,218.32632818066892 L447.30404245838514,236.44996250230693" fill-opacity="0" stroke="rgb(0,0,0)" stroke-width="7.9875195007800315" />
<path d="M-89.80787100407343,368.4278579063161 L-67.06740197048282,374.76842845595104" fill-opacity="0" stroke="rgb(0,0,0)" stroke-width="7.9875195007800315" />
<path d="M-128.26021497097912,-43.20572465791346 L-105.85485849884168,-48.58562697702562" fill-opacity="0" stroke="rgb(0,0,0)" stroke-width="7.9875195007800315" />
<path d="M114.698528006294,-448.38815070082546 L121.71359216495114,-455.25960625589846" fill-opacity="0" stroke="rgb(0,0,0)" stroke-width="7.9875195007800315" />
<path d="M6.214027545986094,-304.73184616016124 L7.3316663682781815,-311.5679296363195" fill-opacity="0" stroke="rgb(0,0,0)" stroke-width="7.9875195007800315" />
<path d="M-152.02926843818364,5.9224596842282295 L-162.38418205595428,12.071897961313063" fill-opacity="0" stroke="rgb(0,0,0)" stroke-width="7.9875195007800315" />
<path d="M104.18762308086315,197.5456360816569 L85.56080741911029,187.14298373312488" fill-opacity="0" stroke="rgb(0,0,0)" stroke-width="7.9875195007800315" />
<path d="M-400.4588266953688,147.56426859627686 L-404.62625074234796,161.99678265686748" fill-opacity="0" stroke="rgb(0,0,0)" stroke-width="7.9875195007800315" />
<path d="M323.61662298023566,25.575235239432857 L325.9101694287507,29.547774217779946" fill-opacity="0" stroke="rgb(0,0,0)" stroke-width="7.9875195007800315" />
<path d="M-115.12201442481683,66.98734752593168 L-123.93896846651361,91.00974739673245" fill-opacity="0" stroke="rgb(0,0,0)" stroke-width="7.9875195007800315" />
<path d="M73.99040364961638,129.93182578444964 L83.08784128658073,119.34652606820222" fill-opacity="0" stroke="rgb(0,0,0)" stroke-width="7.9875195007800315" />
<path d="M-111.0896839908051,-188.14826723063467 L-97.98999867028834,-204.89669925816983" fill-opacity="0" stroke="rgb(0,0,0)" stroke-width="7.9875195007800315" />
<path d="M89.80225040731295,-126.47287245898465 L104.70278856392247,-142.4915107307399" fill-opacity="0" stroke="rgb(0,0,0)" stroke-width="7.9875195007800315" />
<path d="M-273.73754665032646,-310.7327887555391 L-273.74137932268485,-289.3215014957275" fill-opacity="0" stroke="rgb(0,0,0)" stroke-width="7.9875195007800315" />
<path d="M-107.88732702369589,-349.0668690437894 L-99.09075950339502,-363.4362270679108" fill-opacity="0" stroke="rgb(0,0,0)" stroke-width="7.9875195007800315" />
<path d="M-40.98282563312384,193.88717619839593 L-73.82318943040329,196.14714135349368" fill-opacity="0" stroke="rgb(0,0,0)" stroke-width="7.9875195007800315" />
<path d="M-377.17850156368553,-177.52727257064072 L-361.23784022201085,-152.33694765808983" fill-opacity="0" stroke="rgb(0,0,0)" stroke-width="7.9875195007800315" />
<path d="M345.789480676935,144.3520248720388 L351.20954407395686,158.53809954800738" fill-opacity="0" stroke="rgb(0,0,0)" stroke-width="7.9875195007800315" />
<path d="M310.0709600355776,83.08722534214363 L316.7337485200848,77.57090241325395" fill-opacity="0" stroke="rgb(0,0,0)" stroke-width="7.9875195007800315" />
<path d="M-360.51600276638203,131.50414702082975 L-349.5931883452788,129.43366137481317" fill-opacity="0" stroke="rgb(0,0,0)" stroke-width="7.9875195007800315" />
<path d="M-6.559127075091291e-14,268.120772088602 L-6.556419383423624e-14,267.8996722850054" fill-opacity="0" stroke="rgb(0,0,0)" stroke-width="7.9875195007800315" />
<path d="M381.5007053989761,-39.28352500457464 L412.7702563668998,-22.993033540103227" fill-opacity="0" stroke="rgb(0,0,0)" stroke-width="7.9875195007800315" />
<path d="M68.21762011587083,387.15392247123793 L72.68794178904227,401.1556209645097" fill-opacity="0" stroke="rgb(0,0,0)" stroke-width="7.9875195007800315" />
<path d="M247.11461140386632,-96.64021350246864 L273.1115621839581,-97.54335680045043" fill-opacity="0" stroke="rgb(0,0,0)" stroke-width="7.9875195007800315" />
<path d="M214.41070548413347,309.4949335813355 L197.0835899342052,305.8120239648455" fill-opacity="0" stroke="rgb(0,0,0)" stroke-width="7.9875195007800315" />
<path d="M-4.945468752705354e-14,136.3555706027998 L-5.042094384112743e-14,144.2456521736383" fill-opacity="0" stroke="rgb(0,0,0)" stroke-width="7.9875195007800315" />
<path d="M-24.61151839483164,-431.94828257716 L-32.75006212355372,-390.2388307087215" fill-opacity="0" stroke="rgb(0,0,0)" stroke-width="7.9875195007800315" />
<path d="M-66.18407180844619,258.66914480517613 L-59.463776391698076,264.10134986420906" fill-opacity="0" stroke="rgb(0,0,0)" stroke-width="7.9875195007800315" />
<path d="M-433.5533942861796,-90.33826193706244 L-437.4455495571975,-112.76715370079972" fill-opacity="0" stroke="rgb(0,0,0)" stroke-width="7.9875195007800315" />
<path d="M-64.88021571453699,-216.43427398603308 L-61.75323779708759,-211.24359115573046" fill-opacity="0" stroke="rgb(0,0,0)" stroke-width="7.9875195007800315" />
<path d="M-27.422904460192974,-369.51429307650653 L-32.07935659396112,-334.53562311208543" fill-opacity="0" stroke="rgb(0,0,0)" stroke-width="7.9875195007800315" />
<path d="M249.45179016510272,32.90137635929952 L266.7662418137037,39.62244642416414" fill-opacity="0" stroke="rgb(0,0,0)" stroke-width="7.9875195007800315" />
<path d="M-283.71298947309646,-197.2385242288547 L-291.1705263157786,-198.36043881824608" fill-opacity="0" stroke="rgb(0,0,0)" stroke-width="7.9875195007800315" />
<path d="M283.7518003126288,-104.17705160935263 L250.14622501894152,-83.73988201703408" fill-opacity="0" stroke="rgb(0,0,0)" stroke-width="7.9875195007800315" />
<path d="M-305.2558984593535,6.226472494510972 L-311.071489867065,-3.84642729970642" fill-opacity="0" stroke="rgb(0,0,0)" stroke-width="7.9875195007800315" />
<path d="M-444.0776461347813,-178.4402824341998 L-445.011722628143,-167.06276326140886" fill-opacity="0" stroke="rgb(0,0,0)" stroke-width="7.9875195007800315" />
<path d="M-144.39752725935261,-317.8253945413667 L-125.63559449628968,-339.71054455281956" fill-opacity="0" stroke="rgb(0,0,0)" stroke-width="7.9875195007800315" />
<path d="M-382.7466120989951,-224.6538813291628 L-407.8774489491052,-235.48815494714398" fill-opacity="0" stroke="rgb(0,0,0)" stroke-width="7.9875195007800315" />
<path d="M451.03106858765165,-136.8993236546831 L463.27613104524187,-151.99801403757414" fill-opacity="0" stroke="rgb(0,0,0)" stroke-width="7.9875195007800315" />
<path d="M-198.03993185685096,-420.6067899683495 L-204.5305338423485,-416.8594391648198" fill-opacity="0" stroke="rgb(0,0,0)" stroke-width="7.9875195007800315" />
<path d="M-318.9293802038952,141.28511828691484 L-342.5047600972191,125.03072091282263" fill-opacity="0" stroke="rgb(0,0,0)" stroke-width="7.9875195007800315" />
<path d="M-90.87135771744079,-183.96704747692638 L-59.3289011561269,-173.0154100268138" fill-opacity="0" stroke="rgb(0,0,0)" stroke-width="7.9875195007800315" />
<path d="M321.25429138061617,-214.05285939631983 L301.05138243284,-201.56620464421982" fill-opacity="0" stroke="rgb(0,0,0)" stroke-width="7.9875195007800315" />
<path d="M-4.122896877026999,-237.88495838839373 L4.830709803173782,-228.9871232726506" fill-opacity="0" stroke="rgb(0,0,0)" stroke-width="7.9875195007800315" />
<path d="M-436.5585129763258,-238.8425768764638 L-436.16632326248276,-260.0629610337091" fill-opacity="0" stroke="rgb(0,0,0)" stroke-width="7.9875195007800315" />
<path d="M69.2356951008891,-52.706071079052265 L70.05273460765696,-66.46060255972014" fill-opacity="0" stroke="rgb(0,0,0)" stroke-width="7.9875195007800315" />
<path d="M-41.62330095257736,-494.6142498368817 L-39.773432859905405,-485.1621480231524" fill-opacity="0" stroke="rgb(0,0,0)" stroke-width="7.9875195007800315" />
<path d="M-463.27613104524187,-62.221778594597296 L-463.27613104524187,-57.763934317458904" fill-opacity="0" stroke="rgb(0,0,0)" stroke-width="7.9875195007800315" />
<path d="M-6.871265111780872,24.561578460662503 L4.558650937960749,20.73506011929861" fill-opacity="0" stroke="rgb(0,0,0)" stroke-width="7.9875195007800315" />
<path d="M-109.03542039323708,256.4425350851031 L-93.78443383871178,267.47259896809874" fill-opacity="0" stroke="rgb(0,0,0)" stroke-width="7.9875195007800315" />
<path d="M-51.73703385198934,150.5346141177273 L-29.9073566276802,144.4371054736581" fill-opacity="0" stroke="rgb(0,0,0)" stroke-width="7.9875195007800315" />
<path d="M102.87998154206338,59.397785037534135 L86.76573564059908,50.094220828535896" fill-opacity="0" stroke="rgb(0,0,0)" stroke-width="7.9875195007800315" />
<path d="M-143.7194168990685,-33.18952018392318 L-109.18692180750907,-42.41803050613187" fill-opacity="0" stroke="rgb(0,0,0)" stroke-width="7.9875195007800315" />
<path d="M90.42882716161336,306.2721945670471 L82.43273147902198,315.0608082529618" fill-opacity="0" stroke="rgb(0,0,0)" stroke-width="7.9875195007800315" />
<path d="M-297.23166246920516,116.73772263006273 L-285.4990003012027,134.55231932348676" fill-opacity="0" stroke="rgb(0,0,0)" stroke-width="7.9875195007800315" />
<path d="M-206.16920542373663,-9.956247226941855 L-203.68599886067875,10.402598055528102" fill-opacity="0" stroke="rgb(0,0,0)" stroke-width="7.9875195007800315" />
<path d="M180.72896122019802,76.93541048293143 L169.4569279822332,83.11137930736676" fill-opacity="0" stroke="rgb(0,0,0)" stroke-width="7.9875195007800315" />
<path d="M235.02116054508485,-234.7531806547184 L266.1319462774851,-261.05907978035805" fill-opacity="0" stroke="rgb(0,0,0)" stroke-width="7.9875195007800315" />
<path d="M154.5912894651634,-49.57027383122491 L122.04467238076609,-28.574445035268695" fill-opacity="0" stroke="rgb(0,0,0)" stroke-width="7.9875195007800315" />
<path d="M-149.61789261406722,86.38193057631605 L-147.4551610573263,92.43713331702229" fill-opacity="0" stroke="rgb(0,0,0)" stroke-width="7.9875195007800315" />
<path d="M-149.77436863651195,211.13378704629412 L-163.83678041408922,235.29009121480607" fill-opacity="0" stroke="rgb(0,0,0)" stroke-width="7.9875195007800315" />
<path d="M-315.1838630337534,20.821384506724442 L-307.7601363597393,12.168101869969316" fill-opacity="0" stroke="rgb(0,0,0)" stroke-width="7.9875195007800315" />
<path d="M-90.35451407393023,-415.7425438425696 L-79.3311730726281,-427.69845706933586" fill-opacity="0" stroke="rgb(0,0,0)" stroke-width="7.9875195007800315" />
<path d="M-96.86983897891747,24.70735612370612 L-105.11764817473306,36.50789592743564" fill-opacity="0" stroke="rgb(0,0,0)" stroke-width="7.9875195007800315" />
<path d="M-422.9266936838282,-43.36916015199385 L-407.5337983169816,-59.6620114178971" fill-opacity="0" stroke="rgb(0,0,0)" stroke-width="7.9875195007800315" />
<path d="M426.70815252152846,-218.79785515008973 L406.50289300164985,-201.26864698885035" fill-opacity="0" stroke="rgb(0,0,0)" stroke-width="7.9875195007800315" />
<path d="M445.73824766279006,38.23923116103481 L440.88262683716476,29.242024901256258" fill-opacity="0" stroke="rgb(0,0,0)" stroke-width="7.9875195007800315" />
<path d="M19.48625781133316,-278.8613594381187 L0.668762707840358,-288.66595685122087" fill-opacity="0" stroke="rgb(0,0,0)" stroke-width="7.9875195007800315" />
<path d="M-142.72774902724598,108.02242996421876 L-144.4102980041323,80.60608762578121" fill-opacity="0" stroke="rgb(0,0,0)" stroke-width="7.9875195007800315" />
<path d="M41.24869465874042,280.72314505440806 L23.030565912685233,304.48550499329167" fill-opacity="0" stroke="rgb(0,0,0)" stroke-width="7.9875195007800315" />
<path d="M-262.9683320994707,-150.93103788068464 L-273.68218326586975,-157.42094114938334" fill-opacity="0" stroke="rgb(0,0,0)" stroke-width="7.9875195007800315" />
<path d="M453.7814822344655,202.39561031580456 L456.7927613960307,210.28569572964244" fill-opacity="0" stroke="rgb(0,0,0)" stroke-width="7.9875195007800315" />
<path d="M193.06390278710157,-269.2685671538596 L193.23524016807406,-282.70220877813927" fill-opacity="0" stroke="rgb(0,0,0)" stroke-width="7.9875195007800315" />
<path d="M14.778472331237229,-47.9471827351311 L21.385329784041247,-64.47748384779499" fill-opacity="0" stroke="rgb(0,0,0)" stroke-width="7.9875195007800315" />
<path d="M-238.47338212595335,-389.56418207422735 L-227.18913317304518,-402.25741770639706" fill-opacity="0" stroke="rgb(0,0,0)" stroke-width="7.9875195007800315" />
<path d="M296.7986725736464,242.68872240941562 L300.22745342154775,244.36464661904486" fill-opacity="0" stroke="rgb(0,0,0)" stroke-width="7.9875195007800315" />
<path d="M-411.3656782578442,-267.4725989680989 L-407.24487211471046,-264.4364769196106" fill-opacity="0" stroke="rgb(0,0,0)" stroke-width="7.9875195007800315" />
<path d="M-32.02593525901078,234.91511171763105 L-36.663862106940286,245.78138945005045" fill-opacity="0" stroke="rgb(0,0,0)" stroke-width="7.9875195007800315" />
<path d="M-60.90249732463178,-125.02118879997292 L-39.66084711030106,-107.49649809747802" fill-opacity="0" stroke="rgb(0,0,0)" stroke-width="7.9875195007800315" />
<path d="M463.27613104524175,168.57446168574114 L463.27613104524175,161.446385908777" fill-opacity="0" stroke="rgb(0,0,0)" stroke-width="7.9875195007800315" />
<path d="M-407.5612147585524,81.75541274999995 L-422.84182341243735,107.19064279050275" fill-opacity="0" stroke="rgb(0,0,0)" stroke-width="7.9875195007800315" />
<path d="M213.78977010713243,353.403215693431 L206.65948490479207,358.7099296535699" fill-opacity="0" stroke="rgb(0,0,0)" stroke-width="7.9875195007800315" />
<path d="M-438.10869933389665,-260.21522839953644 L-436.38121592419526,-244.99715019222603" fill-opacity="0" stroke="rgb(0,0,0)" stroke-width="7.9875195007800315" />
<path d="M-336.4095739083963,-340.7190398822177 L-327.136778669062,-346.07269070978765" fill-opacity="0" stroke="rgb(0,0,0)" stroke-width="7.9875195007800315" />
<path d="M63.20610291439555,-253.3195938140753 L42.94628322514562,-232.75149015314625" fill-opacity="0" stroke="rgb(0,0,0)" stroke-width="7.9875195007800315" />
<path d="M51.124799884564936,-116.04174641880002 L13.913079535621193,-112.67954965317864" fill-opacity="0" stroke="rgb(0,0,0)" stroke-width="7.9875195007800315" />
<path d="M-311.028268732675,-230.38795742501935 L-297.90636210857247,-241.0524169770036" fill-opacity="0" stroke="rgb(0,0,0)" stroke-width="7.9875195007800315" />
<path d="M-239.63213266861234,-396.59352163349007 L-245.63857418735952,-393.12570100576966" fill-opacity="0" stroke="rgb(0,0,0)" stroke-width="7.9875195007800315" />
<path d="M-97.09610420558653,417.41627122943623 L-91.50390242867991,428.4692982085309" fill-opacity="0" stroke="rgb(0,0,0)" stroke-width="7.9875195007800315" />
<path d="M-223.1211879216154,406.1261200277437 L-216.2732632884778,410.07977115807597" fill-opacity="0" stroke="rgb(0,0,0)" stroke-width="7.9875195007800315" />
<path d="M-93.38188468764741,339.7018482490606 L-102.452206812092,326.85994321339433" fill-opacity="0" stroke="rgb(0,0,0)" stroke-width="7.9875195007800315" />
<path d="M-402.9559452821902,-83.02520814042033 L-388.43545236151056,-89.76239413184315" fill-opacity="0" stroke="rgb(0,0,0)" stroke-width="7.9875195007800315" />
<path d="M-72.23282346268691,489.8773579598184 L-70.0179928370157,494.5202909236292" fill-opacity="0" stroke="rgb(0,0,0)" stroke-width="7.9875195007800315" />
<path d="M292.66193058143983,-264.28583390630894 L262.78667298604137,-263.9818553428803" fill-opacity="0" stroke="rgb(0,0,0)" stroke-width="7.9875195007800315" />
<path d="M4.323602361746509,-245.2553235498265 L22.588511112845765,-246.91242394527657" fill-opacity="0" stroke="rgb(0,0,0)" stroke-width="7.9875195007800315" />
<path d="M-173.4423253637058,265.1615485558466 L-179.7546677115623,242.01537667131913" fill-opacity="0" stroke="rgb(0,0,0)" stroke-width="7.9875195007800315" />
<path d="M-144.72684304554636,-308.0674455066543 L-154.82490560423244,-329.54110120369444" fill-opacity="0" stroke="rgb(0,0,0)" stroke-width="7.9875195007800315" />
<path d="M98.35962554441637,-128.39146979619534 L92.99695084647408,-139.85649430043406" fill-opacity="0" stroke="rgb(0,0,0)" stroke-width="7.9875195007800315" />
<path d="M-186.4328272046041,-141.13876634667497 L-171.5545890527497,-162.89270490192786" fill-opacity="0" stroke="rgb(0,0,0)" stroke-width="7.9875195007800315" />
<path d="M75.73351670014796,-272.93984038656953 L80.05408032783394,-276.77643940887793" fill-opacity="0" stroke="rgb(0,0,0)" stroke-width="7.9875195007800315" />
<path d="M23.160353681290403,248.72809055438682 L4.198279542503094,238.6238416916457" fill-opacity="0" stroke="rgb(0,0,0)" stroke-width="7.9875195007800315" />
<path d="M351.6526330108418,-74.13502905395299 L360.7454228090212,-89.88420296694377" fill-opacity="0" stroke="rgb(0,0,0)" stroke-width="7.9875195007800315" />
<path d="M66.22413941165999,-213.14752548547688 L89.2985277494241,-205.5213079432032" fill-opacity="0" stroke="rgb(0,0,0)" stroke-width="7.9875195007800315" />
<path d="M341.669605045218,189.87418163679882 L344.96612585057426,175.5670274749109" fill-opacity="0" stroke="rgb(0,0,0)" stroke-width="7.9875195007800315" />
<path d="M-281.66573774704295,304.1202714456697 L-290.0686648314612,325.17302267214086" fill-opacity="0" stroke="rgb(0,0,0)" stroke-width="7.9875195007800315" />
<path d="M-313.818919594028,325.9462186911929 L-312.7805376130968,311.8208432138292" fill-opacity="0" stroke="rgb(0,0,0)" stroke-width="7.9875195007800315" />
<path d="M-20.457645966006865,430.09935474633136 L-31.313770916115082,425.77662861049697" fill-opacity="0" stroke="rgb(0,0,0)" stroke-width="7.9875195007800315" />
<path d="M160.16528312876295,-82.03155304484329 L173.6695081471446,-68.00913277032413" fill-opacity="0" stroke="rgb(0,0,0)" stroke-width="7.9875195007800315" />
<path d="M347.62642471057103,-201.74616962379451 L344.3747940429228,-209.06591177132304" fill-opacity="0" stroke="rgb(0,0,0)" stroke-width="7.9875195007800315" />
<path d="M-108.72442850360216,-267.4725989680988 L-128.6087243333062,-267.4725989680988" fill-opacity="0" stroke="rgb(0,0,0)" stroke-width="7.9875195007800315" />
<path d="M-463.0071440467521,93.71333573899965 L-458.0035201877644,76.81577707130018" fill-opacity="0" stroke="rgb(0,0,0)" stroke-width="7.9875195007800315" />
<path d="M210.7604647569794,262.55995920771863 L203.39524256151594,244.57264295423067" fill-opacity="0" stroke="rgb(0,0,0)" stroke-width="7.9875195007800315" />
<path d="M-116.11994976050585,-57.3774829395486 L-93.6930356782168,-43.804144327329794" fill-opacity="0" stroke="rgb(0,0,0)" stroke-width="7.9875195007800315" />
<path d="M52.848617427101345,-147.97490781816032 L47.953116749812665,-168.7493015181994" fill-opacity="0" stroke="rgb(0,0,0)" stroke-width="7.9875195007800315" />
<path d="M197.98672193705767,-253.53799924246064 L203.47582409715244,-238.21292237426115" fill-opacity="0" stroke="rgb(0,0,0)" stroke-width="7.9875195007800315" />
<path d="M338.1217035746255,251.6328969555951 L374.42008180107257,245.97484480021967" fill-opacity="0" stroke="rgb(0,0,0)" stroke-width="7.9875195007800315" />
<path d="M-395.44482871554135,-156.66728094679752 L-389.69113395273,-161.47320468886235" fill-opacity="0" stroke="rgb(0,0,0)" stroke-width="7.9875195007800315" />
<path d="M151.5796867107529,210.17017518340577 L148.13750823423027,179.48691312795168" fill-opacity="0" stroke="rgb(0,0,0)" stroke-width="7.9875195007800315" />
<path d="M443.8736086131602,-97.0459503135126 L463.27613104524187,-92.70522520296271" fill-opacity="0" stroke="rgb(0,0,0)" stroke-width="7.9875195007800315" />
<path d="M310.1907515006006,-317.99082485143504 L287.0508893487099,-301.75421259597647" fill-opacity="0" stroke="rgb(0,0,0)" stroke-width="7.9875195007800315" />
<path d="M-179.24755590264797,-103.98415735006847 L-162.5260109225549,-91.832218385011" fill-opacity="0" stroke="rgb(0,0,0)" stroke-width="7.9875195007800315" />
<path d="M268.4865709832966,22.74023276914521 L249.87585182603078,12.03532573217747" fill-opacity="0" stroke="rgb(0,0,0)" stroke-width="7.9875195007800315" />
<path d="M-447.1056761121475,27.122349066671518 L-436.89159018426204,35.867971701860554" fill-opacity="0" stroke="rgb(0,0,0)" stroke-width="7.9875195007800315" />
<path d="M-449.54347042249196,-249.817477095649 L-460.71424611062,-263.03528409818875" fill-opacity="0" stroke="rgb(0,0,0)" stroke-width="7.9875195007800315" />
<path d="M-178.7152722423606,244.24980903389087 L-178.8382306471655,246.1728064511613" fill-opacity="0" stroke="rgb(0,0,0)" stroke-width="7.9875195007800315" />
<path d="M129.91446323493756,62.063623650555826 L110.2511879240023,88.27286859225012" fill-opacity="0" stroke="rgb(0,0,0)" stroke-width="7.9875195007800315" />
<path d="M162.0298367225825,-175.39100207526513 L168.35209853868446,-164.76011125915298" fill-opacity="0" stroke="rgb(0,0,0)" stroke-width="7.9875195007800315" />
<path d="M-34.48494649229456,-269.2222930780322 L-24.147196981056684,-272.5035973800382" fill-opacity="0" stroke="rgb(0,0,0)" stroke-width="7.9875195007800315" />
<path d="M285.69196138753784,-304.0925682695821 L293.1411001066548,-306.1564325034817" fill-opacity="0" stroke="rgb(0,0,0)" stroke-width="7.9875195007800315" />
<path d="M-213.71060723196118,390.82662409064847 L-207.05778762413354,397.939503715526" fill-opacity="0" stroke="rgb(0,0,0)" stroke-width="7.9875195007800315" />
<path d="M-463.276131045242,145.66585244521434 L-463.276131045242,153.40886577201292" fill-opacity="0" stroke="rgb(0,0,0)" stroke-width="7.9875195007800315" />
<path d="M-32.40364866441581,-272.78225726260496 L-11.67098169241865,-278.7046820847896" fill-opacity="0" stroke="rgb(0,0,0)" stroke-width="7.9875195007800315" />
<path d="M60.27307657134122,109.63383008450296 L63.9779531573446,93.82976160979877" fill-opacity="0" stroke="rgb(0,0,0)" stroke-width="7.9875195007800315" />
<path d="M-326.4807799773525,-188.49376620516364 L-343.58375142628256,-198.3681713751459" fill-opacity="0" stroke="rgb(0,0,0)" stroke-width="7.9875195007800315" />
<path d="M162.75886847280225,-149.56749399372333 L198.56860838103404,-162.27590330137767" fill-opacity="0" stroke="rgb(0,0,0)" stroke-width="7.9875195007800315" />
<path d="M348.4513417581657,8.830366903401625 L347.26558588994664,15.848039684858634" fill-opacity="0" stroke="rgb(0,0,0)" stroke-width="7.9875195007800315" />
<path d="M-11.099220254725935,-309.26713186437996 L-0.3277451171310304,-311.13818111272815" fill-opacity="0" stroke="rgb(0,0,0)" stroke-width="7.9875195007800315" />
<path d="M-219.73739293378654,-94.89248043967183 L-222.8463866723451,-79.8500432038687" fill-opacity="0" stroke="rgb(0,0,0)" stroke-width="7.9875195007800315" />
<path d="M-458.76827503353786,-22.910989009709315 L-456.5835347327548,-12.920359840614196" fill-opacity="0" stroke="rgb(0,0,0)" stroke-width="7.9875195007800315" />
<path d="M-87.49015488748347,-326.9805035541172 L-73.65507626745426,-327.4707769099215" fill-opacity="0" stroke="rgb(0,0,0)" stroke-width="7.9875195007800315" />
<path d="M134.8731577747386,-256.9860769648557 L147.26586454567118,-261.9058924286244" fill-opacity="0" stroke="rgb(0,0,0)" stroke-width="7.9875195007800315" />
<path d="M386.4438992908905,-52.36124467673977 L383.39138668520343,-61.453884649315626" fill-opacity="0" stroke="rgb(0,0,0)" stroke-width="7.9875195007800315" />
<path d="M-265.1082764345335,156.58640825630744 L-256.51712562709156,176.58601306677957" fill-opacity="0" stroke="rgb(0,0,0)" stroke-width="7.9875195007800315" />
<path d="M142.6818543331872,338.63613740901036 L132.03558079423146,334.3796594914283" fill-opacity="0" stroke="rgb(0,0,0)" stroke-width="7.9875195007800315" />
<path d="M-288.07758829114834,-368.6235247888049 L-277.7770336727508,-374.57055277053917" fill-opacity="0" stroke="rgb(0,0,0)" stroke-width="7.9875195007800315" />
<path d="M-119.93265816925503,327.2157405002572 L-122.0084831488366,320.0307011757291" fill-opacity="0" stroke="rgb(0,0,0)" stroke-width="7.9875195007800315" />
<path d="M-109.74929567411647,31.89005868717821 L-84.72598438427468,39.28917346756877" fill-opacity="0" stroke="rgb(0,0,0)" stroke-width="7.9875195007800315" />
<path d="M-273.4812831558093,56.79108824797049 L-284.7469966878766,35.65299712154484" fill-opacity="0" stroke="rgb(0,0,0)" stroke-width="7.9875195007800315" />
<path d="M-178.08585598107376,-226.49144726758405 L-178.26001080265735,-226.1898022682182" fill-opacity="0" stroke="rgb(0,0,0)" stroke-width="7.9875195007800315" />
<path d="M-412.6048662773795,-175.36242683217884 L-409.5837037644717,-190.4254836167533" fill-opacity="0" stroke="rgb(0,0,0)" stroke-width="7.9875195007800315" />
<path d="M433.3227001400255,126.67905704783811 L427.8570832619665,114.67959158174868" fill-opacity="0" stroke="rgb(0,0,0)" stroke-width="7.9875195007800315" />
<path d="M353.7114605827169,-245.18619131584106 L370.38431685980663,-240.99220855079918" fill-opacity="0" stroke="rgb(0,0,0)" stroke-width="7.9875195007800315" />
<path d="M-235.05207861565626,-84.98717193860153 L-224.8640168419826,-85.01934576247079" fill-opacity="0" stroke="rgb(0,0,0)" stroke-width="7.9875195007800315" />
<path d="M86.46984182781804,260.378823332715 L81.32530224106858,264.5130420805823" fill-opacity="0" stroke="rgb(0,0,0)" stroke-width="7.9875195007800315" />
<path d="M-415.57293978451634,-66.13309141095 L-390.21089652779136,-61.897140060857254" fill-opacity="0" stroke="rgb(0,0,0)" stroke-width="7.9875195007800315" />
<path d="M-140.28043244018573,202.96452013941007 L-147.49482406906543,207.23604981606616" fill-opacity="0" stroke="rgb(0,0,0)" stroke-width="7.9875195007800315" />
<path d="M-69.51688102669357,12.305332988840455 L-52.013125486115655,15.10123314439285" fill-opacity="0" stroke="rgb(0,0,0)" stroke-width="7.9875195007800315" />
<path d="M-229.30121913691198,87.25867142301243 L-193.30983574506058,95.65903251623087" fill-opacity="0" stroke="rgb(0,0,0)" stroke-width="7.9875195007800315" />
<path d="M-135.81773847643095,-222.84192293097226 L-147.93278135845065,-194.8795300488647" fill-opacity="0" stroke="rgb(0,0,0)" stroke-width="7.9875195007800315" />
<path d="M-147.16470695901816,168.35090458874913 L-116.54904216218344,149.70604763078788" fill-opacity="0" stroke="rgb(0,0,0)" stroke-width="7.9875195007800315" />
<path d="M407.14737870728214,-230.10183415758723 L417.6140432602693,-231.967010016159" fill-opacity="0" stroke="rgb(0,0,0)" stroke-width="7.9875195007800315" />
<path d="M183.69286034721242,-258.6723325827364 L209.9401353310641,-265.67205170146417" fill-opacity="0" stroke="rgb(0,0,0)" stroke-width="7.9875195007800315" />
<path d="M142.23040466326177,412.6348197451696 L165.09764268036872,439.62602949211396" fill-opacity="0" stroke="rgb(0,0,0)" stroke-width="7.9875195007800315" />
<path d="M223.25052729727932,169.59925785744906 L215.81644804936892,179.4178113798171" fill-opacity="0" stroke="rgb(0,0,0)" stroke-width="7.9875195007800315" />
<path d="M404.5135645767967,98.08921360333807 L426.1359034709545,117.77480880580458" fill-opacity="0" stroke="rgb(0,0,0)" stroke-width="7.9875195007800315" />
<path d="M237.6289761501358,-94.35761353001476 L223.06970174463552,-112.8370459729407" fill-opacity="0" stroke="rgb(0,0,0)" stroke-width="7.9875195007800315" />
<path d="M-353.1355801515227,319.6226733755068 L-346.5063554398663,323.8720492026079" fill-opacity="0" stroke="rgb(0,0,0)" stroke-width="7.9875195007800315" />
<path d="M154.663879256702,22.16609390917506 L146.498932005785,34.81510523109907" fill-opacity="0" stroke="rgb(0,0,0)" stroke-width="7.9875195007800315" />
<path d="M52.265468812582924,147.68177130240034 L69.73601233617688,152.68404159430372" fill-opacity="0" stroke="rgb(0,0,0)" stroke-width="7.9875195007800315" />
<path d="M155.430582134184,-330.7537257575137 L124.66090233838392,-310.7918748346599" fill-opacity="0" stroke="rgb(0,0,0)" stroke-width="7.9875195007800315" />
<path d="M-214.7348608302641,130.0712519385816 L-251.32835761371905,149.6491231271636" fill-opacity="0" stroke="rgb(0,0,0)" stroke-width="7.9875195007800315" />
<path d="M-179.8702071935004,71.89937117899728 L-205.14931010709472,78.47062845814713" fill-opacity="0" stroke="rgb(0,0,0)" stroke-width="7.9875195007800315" />
<path d="M-324.8548450208499,-305.15531514842144 L-345.74673115587564,-310.3950279176794" fill-opacity="0" stroke="rgb(0,0,0)" stroke-width="7.9875195007800315" />
<path d="M289.34055245704997,367.89435208764473 L296.60187807130626,363.7020237895803" fill-opacity="0" stroke="rgb(0,0,0)" stroke-width="7.9875195007800315" />
<path d="M-41.90347234200664,-199.99582167525904 L-58.1083703933968,-192.18615132297725" fill-opacity="0" stroke="rgb(0,0,0)" stroke-width="7.9875195007800315" />
<path d="M-24.420678504216184,-192.73453081108545 L-26.68526206950679,-172.38874309769366" fill-opacity="0" stroke="rgb(0,0,0)" stroke-width="7.9875195007800315" />
<path d="M-13.693536908284102,-94.92699266472098 L-47.181241055364524,-84.68207787755932" fill-opacity="0" stroke="rgb(0,0,0)" stroke-width="7.9875195007800315" />
<path d="M419.2253821450088,267.47259896809896 L404.04269547159186,267.47259896809896" fill-opacity="0" stroke="rgb(0,0,0)" stroke-width="7.9875195007800315" />
<path d="M-263.7654007517161,-199.33415888148141 L-242.5387423121376,-192.4942016170619" fill-opacity="0" stroke="rgb(0,0,0)" stroke-width="7.9875195007800315" />
<path d="M-180.92286995041937,-218.20895219218198 L-184.11770985124852,-212.3583279508656" fill-opacity="0" stroke="rgb(0,0,0)" stroke-width="7.9875195007800315" />
<path d="M-463.102774645227,203.61117962197505 L-463.276131045242,201.76536350157164" fill-opacity="0" stroke="rgb(0,0,0)" stroke-width="7.9875195007800315" />
<path d="M304.2352761641365,244.7834052072638 L302.1500787985006,255.5199543257413" fill-opacity="0" stroke="rgb(0,0,0)" stroke-width="7.9875195007800315" />
<path d="M222.2761480946701,-118.67905800873416 L219.68165651377663,-133.51916432912765" fill-opacity="0" stroke="rgb(0,0,0)" stroke-width="7.9875195007800315" />
<path d="M-270.99058273709164,-247.38694130515262 L-284.5191202814592,-263.765245028806" fill-opacity="0" stroke="rgb(0,0,0)" stroke-width="7.9875195007800315" />
<path d="M282.9436398863818,-13.72638771703862 L282.26225286396834,-24.280967006853814" fill-opacity="0" stroke="rgb(0,0,0)" stroke-width="7.9875195007800315" />
<path d="M-331.2346372067183,267.61562780942035 L-317.15640672067497,239.5075905709499" fill-opacity="0" stroke="rgb(0,0,0)" stroke-width="7.9875195007800315" />
<path d="M-312.00743234996355,-26.03975456395949 L-312.16396036939307,-4.28424038198682" fill-opacity="0" stroke="rgb(0,0,0)" stroke-width="7.9875195007800315" />
<path d="M150.79285248370934,273.76431601617406 L155.7781139175786,265.12958992369886" fill-opacity="0" stroke="rgb(0,0,0)" stroke-width="7.9875195007800315" />
<path d="M-106.29693381166857,-161.41137581453637 L-94.34655895774786,-148.80046917175306" fill-opacity="0" stroke="rgb(0,0,0)" stroke-width="7.9875195007800315" />
<path d="M209.28451963508985,-378.3918249414842 L229.7014191978286,-402.32702172909205" fill-opacity="0" stroke="rgb(0,0,0)" stroke-width="7.9875195007800315" />
<path d="M423.94730363568186,-113.06289478729413 L396.1646383583053,-109.7175170799637" fill-opacity="0" stroke="rgb(0,0,0)" stroke-width="7.9875195007800315" />
<path d="M-145.84590789722623,306.1902505514018 L-137.58373692104433,331.0872800549842" fill-opacity="0" stroke="rgb(0,0,0)" stroke-width="7.9875195007800315" />
<path d="M164.86234226488654,-182.19643178404675 L118.77998250945325,-181.5016666811699" fill-opacity="0" stroke="rgb(0,0,0)" stroke-width="7.9875195007800315" />
<path d="M-66.52546789702708,303.3203980231581 L-47.56656399990217,306.2946208289601" fill-opacity="0" stroke="rgb(0,0,0)" stroke-width="7.9875195007800315" />
<path d="M235.91108199019985,-236.51703777130615 L219.68277789003642,-237.735254554167" fill-opacity="0" stroke="rgb(0,0,0)" stroke-width="7.9875195007800315" />
<path d="M61.8811873713206,-450.62821559695084 L67.98503699820725,-437.29936382952184" fill-opacity="0" stroke="rgb(0,0,0)" stroke-width="7.9875195007800315" />
<path d="M-205.22148975075044,-9.513819630487646 L-189.40800124059638,-27.76019536696272" fill-opacity="0" stroke="rgb(0,0,0)" stroke-width="7.9875195007800315" />
<path d="M128.47780307490595,-101.5853326101213 L145.05752670211174,-100.06027715840425" fill-opacity="0" stroke="rgb(0,0,0)" stroke-width="7.9875195007800315" />
<path d="M-158.00062751705218,-217.46924462840263 L-152.5846295844375,-218.5586182803731" fill-opacity="0" stroke="rgb(0,0,0)" stroke-width="7.9875195007800315" />
<path d="M447.168528479963,98.16830550895472 L432.04256856820865,82.6798268981166" fill-opacity="0" stroke="rgb(0,0,0)" stroke-width="7.9875195007800315" />
<path d="M166.11150067478292,179.91717721493785 L165.99026320675623,192.0503087697976" fill-opacity="0" stroke="rgb(0,0,0)" stroke-width="7.9875195007800315" />
<path d="M-447.0594676968017,147.42242543804863 L-439.07941908587895,147.60805791471418" fill-opacity="0" stroke="rgb(0,0,0)" stroke-width="7.9875195007800315" />
<path d="M-277.81440828137994,-53.313832178897776 L-247.62346394046617,-38.21714548502318" fill-opacity="0" stroke="rgb(0,0,0)" stroke-width="7.9875195007800315" />
<path d="M51.82583772341934,42.31026018452056 L64.35632726880175,30.644607237299255" fill-opacity="0" stroke="rgb(0,0,0)" stroke-width="7.9875195007800315" />
<path d="M-156.71608509305943,-33.85530565277969 L-143.49533376029393,-5.71360786179639" fill-opacity="0" stroke="rgb(0,0,0)" stroke-width="7.9875195007800315" />
<path d="M-107.1330145628354,-253.90167693336193 L-119.89961056506212,-256.8263867262924" fill-opacity="0" stroke="rgb(0,0,0)" stroke-width="7.9875195007800315" />
<path d="M-96.5322661434044,-441.24679864934035 L-96.39698692775119,-457.4020607812937" fill-opacity="0" stroke="rgb(0,0,0)" stroke-width="7.9875195007800315" />
<path d="M-280.25354656607925,201.9103438850617 L-272.93811553614825,180.36959613730286" fill-opacity="0" stroke="rgb(0,0,0)" stroke-width="7.9875195007800315" />
<path d="M374.4768515141125,25.394297943567494 L380.44993932810996,7.499729730899162" fill-opacity="0" stroke="rgb(0,0,0)" stroke-width="7.9875195007800315" />
<path d="M-321.4625351317096,243.71016666776978 L-321.17076581429615,262.0144896805627" fill-opacity="0" stroke="rgb(0,0,0)" stroke-width="7.9875195007800315" />
<path d="M-37.416288237996746,-496.23305447810424 L-39.966465030474566,-495.76291001100356" fill-opacity="0" stroke="rgb(0,0,0)" stroke-width="7.9875195007800315" />
<path d="M-432.70314854931036,-132.30739310140532 L-430.0566390568106,-130.7086456280846" fill-opacity="0" stroke="rgb(0,0,0)" stroke-width="7.9875195007800315" />
<path d="M-32.33051347262687,450.7993521892787 L-35.068402287009775,448.5961964864734" fill-opacity="0" stroke="rgb(0,0,0)" stroke-width="7.9875195007800315" />
<path d="M-141.05462717801598,125.39881745202953 L-114.7408490273375,107.73213090602627" fill-opacity="0" stroke="rgb(0,0,0)" stroke-width="7.9875195007800315" />
<path d="M-410.4517696980045,-46.87203619709115 L-412.1445931770668,-32.58086101408415" fill-opacity="0" stroke="rgb(0,0,0)" stroke-width="7.9875195007800315" />
<path d="M-63.097841947200976,434.6084946533003 L-57.654033307876674,433.2183934855595" fill-opacity="0" stroke="rgb(0,0,0)" stroke-width="7.9875195007800315" />
<path d="M-232.70960861792926,-205.26696847902994 L-221.81209346997275,-181.4339004161904" fill-opacity="0" stroke="rgb(0,0,0)" stroke-width="7.9875195007800315" />
<path d="M-9.410884144040487,-27.816009171080793 L-8.118209035510002,-61.86604376322492" fill-opacity="0" stroke="rgb(0,0,0)" stroke-width="7.9875195007800315" />
<path d="M196.44436158603924,375.6803059035244 L180.4523666200113,387.7466568128791" fill-opacity="0" stroke="rgb(0,0,0)" stroke-width="7.9875195007800315" />
<path d="M25.889572344004293,-178.81577757098978 L32.31672259927363,-172.26473897623163" fill-opacity="0" stroke="rgb(0,0,0)" stroke-width="7.9875195007800315" />
<path d="M303.62199648560215,-327.03235859724236 L310.4196635223318,-354.1329196178584" fill-opacity="0" stroke="rgb(0,0,0)" stroke-width="7.9875195007800315" />
<path d="M-217.4114247934613,-159.71844333876015 L-214.86837124655997,-164.48180355038733" fill-opacity="0" stroke="rgb(0,0,0)" stroke-width="7.9875195007800315" />
<path d="M-26.84840741307471,433.6751068081112 L-10.35809979957861,446.5994805969449" fill-opacity="0" stroke="rgb(0,0,0)" stroke-width="7.9875195007800315" />
<path d="M134.29617717244003,117.75978221053239 L123.25085401956781,131.95902793425284" fill-opacity="0" stroke="rgb(0,0,0)" stroke-width="7.9875195007800315" />
<path d="M451.87998455622386,113.19227576150912 L437.7965483914629,88.29496228284863" fill-opacity="0" stroke="rgb(0,0,0)" stroke-width="7.9875195007800315" />
<path d="M-10.732578933402067,-276.5573775241019 L9.567570546247794,-274.61277941633165" fill-opacity="0" stroke="rgb(0,0,0)" stroke-width="7.9875195007800315" />
<path d="M169.87370258659854,-175.7378100103934 L140.71117556102195,-171.1855414140133" fill-opacity="0" stroke="rgb(0,0,0)" stroke-width="7.9875195007800315" />
<path d="M9.554861213594165,179.4474566879262 L-9.452195495377111,189.68904650853685" fill-opacity="0" stroke="rgb(0,0,0)" stroke-width="7.9875195007800315" />
<path d="M217.85556748435184,-138.8394601235791 L240.71786126299142,-111.99724917637576" fill-opacity="0" stroke="rgb(0,0,0)" stroke-width="7.9875195007800315" />
<path d="M36.53203731094234,-481.0950335698376 L41.964818118043866,-503.88975390061694" fill-opacity="0" stroke="rgb(0,0,0)" stroke-width="7.9875195007800315" />
<path d="M-122.33875507059088,-299.06462353762925 L-126.98209551872318,-276.198272747741" fill-opacity="0" stroke="rgb(0,0,0)" stroke-width="7.9875195007800315" />
<path d="M-377.9533990328858,-119.6892920821147 L-373.23791988970027,-111.52184262408606" fill-opacity="0" stroke="rgb(0,0,0)" stroke-width="7.9875195007800315" />
<path d="M-273.1594378484398,233.46723923123977 L-262.39987283823837,241.85022672644317" fill-opacity="0" stroke="rgb(0,0,0)" stroke-width="7.9875195007800315" />
<path d="M-354.7228052929678,-219.66397526155842 L-357.63527855145514,-223.69074103549707" fill-opacity="0" stroke="rgb(0,0,0)" stroke-width="7.9875195007800315" />
<path d="M362.77288194593035,-37.59958558311136 L356.252804828001,-40.301161579982434" fill-opacity="0" stroke="rgb(0,0,0)" stroke-width="7.9875195007800315" />
<path d="M-121.10791940371224,257.1383556752016 L-118.16107250871255,280.1082750131748" fill-opacity="0" stroke="rgb(0,0,0)" stroke-width="7.9875195007800315" />
<path d="M-138.83969978860117,331.1647967460618 L-154.82867701855326,310.64810010444273" fill-opacity="0" stroke="rgb(0,0,0)" stroke-width="7.9875195007800315" />
<path d="M104.92140487439289,-354.07556895226645 L111.4283916100831,-371.89202454886527" fill-opacity="0" stroke="rgb(0,0,0)" stroke-width="7.9875195007800315" />
<path d="M223.24569944154524,-307.9938913740426 L235.87222406175195,-310.2691571285834" fill-opacity="0" stroke="rgb(0,0,0)" stroke-width="7.9875195007800315" />
<path d="M-33.88384046522218,-492.6237018009896 L-42.354628475271355,-488.387771479453" fill-opacity="0" stroke="rgb(0,0,0)" stroke-width="7.9875195007800315" />
<path d="M-415.263976130928,-269.7607826934872 L-435.66029647246296,-283.4166084925889" fill-opacity="0" stroke="rgb(0,0,0)" stroke-width="7.9875195007800315" />
<path d="M148.89223362360931,194.4251797031767 L144.5654052165898,208.9988781341018" fill-opacity="0" stroke="rgb(0,0,0)" stroke-width="7.9875195007800315" />
<path d="M-113.51505912143972,-338.33134811367904 L-122.02489570924116,-332.59068215752484" fill-opacity="0" stroke="rgb(0,0,0)" stroke-width="7.9875195007800315" />
<path d="M90.09793574362993,46.97483088058402 L110.18034779370788,60.4149832792869" fill-opacity="0" stroke="rgb(0,0,0)" stroke-width="7.9875195007800315" />
<path d="M-49.75344780281159,443.052313541871 L-29.113111780513535,436.21946117184467" fill-opacity="0" stroke="rgb(0,0,0)" stroke-width="7.9875195007800315" />
<path d="M-188.62402805679824,175.94376892384787 L-201.8615070384103,172.04198757653748" fill-opacity="0" stroke="rgb(0,0,0)" stroke-width="7.9875195007800315" />
<path d="M15.726537449313028,168.80665729582057 L14.708270420622114,157.1661468807223" fill-opacity="0" stroke="rgb(0,0,0)" stroke-width="7.9875195007800315" />
<path d="M-277.41698402440716,173.75638881271087 L-275.66941943615,150.63960372964854" fill-opacity="0" stroke="rgb(0,0,0)" stroke-width="7.9875195007800315" />
<path d="M-281.44600790977404,2.3917872510815243 L-262.65339610503116,-24.43608792518023" fill-opacity="0" stroke="rgb(0,0,0)" stroke-width="7.9875195007800315" />
<path d="M-12.633561261630547,-267.4725989680988 L-24.40331936160726,-267.4725989680988" fill-opacity="0" stroke="rgb(0,0,0)" stroke-width="7.9875195007800315" />
<path d="M-432.5618363462054,47.46332969333321 L-457.6472781704352,75.18696000286332" fill-opacity="0" stroke="rgb(0,0,0)" stroke-width="7.9875195007800315" />
<path d="M-25.352852074011764,83.0030319035987 L-13.967768827467694,81.98300164606941" fill-opacity="0" stroke="rgb(0,0,0)" stroke-width="7.9875195007800315" />
<path d="M124.16023421866308,463.26125328740534 L131.8471914205309,458.8231864776578" fill-opacity="0" stroke="rgb(0,0,0)" stroke-width="7.9875195007800315" />
<path d="M177.62017147140867,26.940467166969285 L199.42820749132562,13.219078402167753" fill-opacity="0" stroke="rgb(0,0,0)" stroke-width="7.9875195007800315" />
<path d="M38.2029344501145,64.4812138461688 L45.650169887078754,29.665997342197187" fill-opacity="0" stroke="rgb(0,0,0)" stroke-width="7.9875195007800315" />
<path d="M-99.56682457875907,-435.212042499319 L-99.55763612618698,-424.9026474067246" fill-opacity="0" stroke="rgb(0,0,0)" stroke-width="7.9875195007800315" />
<path d="M-253.06856798856467,177.6472526228829 L-257.49986671721666,190.21877441947709" fill-opacity="0" stroke="rgb(0,0,0)" stroke-width="7.9875195007800315" />
<path d="M227.79971523958625,-137.72486726090204 L217.44819857170634,-160.879688349711" fill-opacity="0" stroke="rgb(0,0,0)" stroke-width="7.9875195007800315" />
<path d="M87.07029554817728,7.338077629693487 L77.90071042592687,23.219452320614735" fill-opacity="0" stroke="rgb(0,0,0)" stroke-width="7.9875195007800315" />
<path d="M-336.92299203241254,194.5225801460873 L-341.9015129606172,197.39693054415244" fill-opacity="0" stroke="rgb(0,0,0)" stroke-width="7.9875195007800315" />
<path d="M-457.2247631485859,261.7269368167413 L-454.81857417706186,257.3860547148761" fill-opacity="0" stroke="rgb(0,0,0)" stroke-width="7.9875195007800315" />
<path d="M-4.6653026970196115e-15,-229.37751146803112 L-6.8645967767027675e-15,-211.41891245634554" fill-opacity="0" stroke="rgb(0,0,0)" stroke-width="7.9875195007800315" />
<path d="M125.79094153488228,125.05348667274099 L117.09163912232788,134.21716156222703" fill-opacity="0" stroke="rgb(0,0,0)" stroke-width="7.9875195007800315" />
<path d="M4.517582753975947,157.26694594518546 L5.026521309859656,187.52279363404807" fill-opacity="0" stroke="rgb(0,0,0)" stroke-width="7.9875195007800315" />
<path d="M196.91159616136514,376.1296813775388 L176.06541297214056,374.4584898588193" fill-opacity="0" stroke="rgb(0,0,0)" stroke-width="7.9875195007800315" />
<path d="M-111.50177783228577,470.56961648960544 L-123.84821022566234,460.2048784497006" fill-opacity="0" stroke="rgb(0,0,0)" stroke-width="7.9875195007800315" />
<path d="M-375.8444039233822,-317.9513301576185 L-368.6522677577201,-322.10371190891186" fill-opacity="0" stroke="rgb(0,0,0)" stroke-width="7.9875195007800315" />
<path d="M389.95608843680407,213.3889104144285 L370.21710237544966,194.11347791451448" fill-opacity="0" stroke="rgb(0,0,0)" stroke-width="7.9875195007800315" />
<path d="M271.5129216634772,-165.59130048843 L287.09578992225227,-170.85027995505916" fill-opacity="0" stroke="rgb(0,0,0)" stroke-width="7.9875195007800315" />
<path d="M-32.5068017244876,-389.95771934680056 L-32.049158443654974,-399.0815733337362" fill-opacity="0" stroke="rgb(0,0,0)" stroke-width="7.9875195007800315" />
<path d="M-420.09448700771316,-192.67979754074545 L-424.46399843703693,-200.24801334058725" fill-opacity="0" stroke="rgb(0,0,0)" stroke-width="7.9875195007800315" />
<path d="M62.98386303268379,102.44447365190557 L85.0090747524288,99.56390742167704" fill-opacity="0" stroke="rgb(0,0,0)" stroke-width="7.9875195007800315" />
<path d="M143.25144314210826,77.09930302900389 L150.6794126612467,77.88062147054191" fill-opacity="0" stroke="rgb(0,0,0)" stroke-width="7.9875195007800315" />
<path d="M110.51575989906809,-333.51990670760114 L97.36808457546806,-355.8591698819801" fill-opacity="0" stroke="rgb(0,0,0)" stroke-width="7.9875195007800315" />
<path d="M-161.0973055412107,73.27426994796087 L-173.13359031004316,61.69786453031534" fill-opacity="0" stroke="rgb(0,0,0)" stroke-width="7.9875195007800315" />
<path d="M-353.8032209195339,277.9460444218945 L-373.5450942998564,268.77536258036014" fill-opacity="0" stroke="rgb(0,0,0)" stroke-width="7.9875195007800315" />
<path d="M144.80088079782297,188.7643572787877 L176.08384984848328,200.74880778445294" fill-opacity="0" stroke="rgb(0,0,0)" stroke-width="7.9875195007800315" />
<path d="M58.24810311252537,201.77376043430675 L48.68684723611369,209.13568036458716" fill-opacity="0" stroke="rgb(0,0,0)" stroke-width="7.9875195007800315" />
<path d="M19.032166562645074,-6.384107149033895 L0.6913622879356467,-18.23712574961789" fill-opacity="0" stroke="rgb(0,0,0)" stroke-width="7.9875195007800315" />
<path d="M80.98596154910155,277.39870896786454 L107.26255712700919,276.53229642438777" fill-opacity="0" stroke="rgb(0,0,0)" stroke-width="7.9875195007800315" />
<path d="M-40.58016120799999,-360.0187499230535 L-26.368865675512325,-388.63948496045634" fill-opacity="0" stroke="rgb(0,0,0)" stroke-width="7.9875195007800315" />
<path d="M51.22137833896679,140.3261032126713 L60.78662798248739,125.59687622002735" fill-opacity="0" stroke="rgb(0,0,0)" stroke-width="7.9875195007800315" />
<path d="M270.22481035472487,-100.92569640505712 L279.8254556782277,-85.40197761461872" fill-opacity="0" stroke="rgb(0,0,0)" stroke-width="7.9875195007800315" />
<path d="M133.70688662002084,-303.1541236108848 L136.91730034679426,-292.48802820417063" fill-opacity="0" stroke="rgb(0,0,0)" stroke-width="7.9875195007800315" />
<path d="M-218.70387899851033,250.3007862625467 L-222.4153780243921,260.90823686848285" fill-opacity="0" stroke="rgb(0,0,0)" stroke-width="7.9875195007800315" />
<path d="M-99.17333796630078,-235.57588834707255 L-113.51225100940871,-238.93602419598915" fill-opacity="0" stroke="rgb(0,0,0)" stroke-width="7.9875195007800315" />
<path d="M1485.678627145086,-267.4725989680987 L1022.402496099844,-534.9451979361975 L559.1263650546023,-267.4725989680989 L559.126365054602,267.47259896809857 L1022.4024960998439,534.9451979361975 L1485.6786271450858,267.47259896809896 Z" fill="url(#d2)" stroke="rgb(0,0,0)" stroke-width="7.9875195007800315" />
<path d="M1435.601545540217,0.0 L1380.2433697347894,-206.59952472018657 L1229.0020208200308,-357.8408736349454 L1022.402496099844,-413.1990494403732 L815.8029713796575,-357.84087363494547 L664.5616224648986,-206.59952472018657 L609.2034466594708,-5.0602289330788195e-14 L664.5616224648986,206.59952472018648 L815.8029713796573,357.84087363494535 L1022.4024960998439,413.1990494403732 L1229.0020208200308,357.8408736349454 L1380.2433697347892,206.59952472018676 Z" fill-opacity="0" stroke="rgb(0,0,0)" stroke-width="7.9875195007800315" />
<path d="M1435.601545540217,0.0 L1380.2433697347894,-206.59952472018657 L1173.643845014603,-261.9577005256144 L1022.402496099844,-110.71635161085575 L1077.7606719052717,95.88317310933084 L1284.3601966254582,151.24134891475882 L1435.601545540217,1.9895196601282805e-13 L1435.601545540217,0.0 Z" fill-opacity="0" stroke="rgb(0,0,0)" stroke-width="7.9875195007800315" />
<path d="M1380.2433697347894,-206.59952472018657 L1229.0020208200308,-357.8408736349454 L1022.4024960998443,-302.48269782951786 L967.0443202944164,-95.88317310933141 L1118.285669209175,55.35817580542752 L1324.8851939293615,4.263256414560601e-14 L1380.2433697347897,-206.59952472018642 L1380.2433697347894,-206.59952472018657 Z" fill-opacity="0" stroke="rgb(0,0,0)" stroke-width="7.9875195007800315" />
<path d="M1229.0020208200308,-357.8408736349454 L1022.402496099844,-413.1990494403732 L871.1611471850852,-261.9577005256142 L926.5193229905129,-55.358175805427436 L1133.1188477106998,4.050093593832571e-13 L1284.3601966254587,-151.24134891475853 L1229.002020820031,-357.84087363494535 L1229.0020208200308,-357.8408736349454 Z" fill-opacity="0" stroke="rgb(0,0,0)" stroke-width="7.9875195007800315" />
<path d="M1022.402496099844,-413.1990494403732 L815.8029713796575,-357.84087363494547 L760.4447955742297,-151.24134891475896 L911.6861444889885,-1.1368683772161603e-13 L1118.285669209175,-55.35817580542775 L1173.643845014603,-261.9577005256142 L1022.4024960998443,-413.1990494403731 L1022.402496099844,-413.1990494403732 Z" fill-opacity="0" stroke="rgb(0,0,0)" stroke-width="7.9875195007800315" />
<path d="M815.8029713796575,-357.84087363494547 L664.5616224648986,-206.59952472018657 L719.9197982703264,1.1368683772161603e-13 L926.519322990513,55.35817580542794 L1077.760671905272,-95.88317310933087 L1022.4024960998443,-302.4826978295176 L815.8029713796576,-357.8408736349455 L815.8029713796575,-357.84087363494547 Z" fill-opacity="0" stroke="rgb(0,0,0)" stroke-width="7.9875195007800315" />
<path d="M664.5616224648986,-206.59952472018657 L609.2034466594708,-5.684341886080802e-14 L760.4447955742296,151.24134891475876 L967.0443202944161,95.88317310933108 L1022.402496099844,-110.7163516108554 L871.1611471850854,-261.95770052561426 L664.5616224648988,-206.5995247201867 L664.5616224648986,-206.59952472018657 Z" fill-opacity="0" stroke="rgb(0,0,0)" stroke-width="7.9875195007800315" />
<path d="M609.2034466594708,-5.0602289330788195e-14 L664.5616224648986,206.59952472018648 L871.1611471850852,261.95770052561426 L1022.402496099844,110.7163516108555 L967.0443202944164,-95.88317310933104 L760.4447955742298,-151.24134891475887 L609.203446659471,-1.7053025658242404e-13 L609.2034466594708,-5.0602289330788195e-14 Z" fill-opacity="0" stroke="rgb(0,0,0)" stroke-width="7.9875195007800315" />
<path d="M664.5616224648986,206.59952472018648 L815.8029713796573,357.84087363494535 L1022.4024960998438,302.4826978295178 L1077.7606719052717,95.88317310933138 L926.519322990513,-55.35817580542755 L719.9197982703265,-7.105427357601002e-14 L664.5616224648985,206.59952472018637 L664.5616224648986,206.59952472018648 Z" fill-opacity="0" stroke="rgb(0,0,0)" stroke-width="7.9875195007800315" />
<path d="M815.8029713796573,357.84087363494535 L1022.4024960998439,413.1990494403732 L1173.643845014603,261.95770052561437 L1118.2856692091752,55.35817580542766 L911.6861444889886,-2.7711166694643907e-13 L760.4447955742296,151.24134891475848 L815.8029713796573,357.8408736349452 L815.8029713796573,357.84087363494535 Z" fill-opacity="0" stroke="rgb(0,0,0)" stroke-width="7.9875195007800315" />
<path d="M1022.4024960998439,413.1990494403732 L1229.0020208200308,357.8408736349454 L1284.3601966254587,151.2413489147586 L1133.1188477106998,-5.115907697472721e-13 L926.5193229905129,55.358175805427194 L871.1611471850849,261.957700525614 L1022.4024960998438,413.19904944037313 L1022.4024960998439,413.1990494403732 Z" fill-opacity="0" stroke="rgb(0,0,0)" stroke-width="7.9875195007800315" />
<path d="M1229.0020208200308,357.8408736349454 L1380.2433697347892,206.59952472018676 L1324.8851939293613,6.252776074688882e-13 L1118.285669209175,-55.35817580542693 L967.0443202944166,95.88317310933166 L1022.4024960998443,302.48269782951786 L1229.0020208200306,357.8408736349455 L1229.0020208200308,357.8408736349454 Z" fill-opacity="0" stroke="rgb(0,0,0)" stroke-width="7.9875195007800315" />
<path d="M1380.2433697347892,206.59952472018676 L1435.601545540217,0.0 L1284.3601966254582,-151.24134891475904 L1077.7606719052715,-95.88317310933134 L1022.4024960998435,110.71635161085543 L1173.6438450146022,261.95770052561454 L1380.243369734789,206.59952472018693 L1380.2433697347892,206.59952472018676 Z" fill-opacity="0" stroke="rgb(0,0,0)" stroke-width="7.9875195007800315" />
<text x="1730.7437237119125" y="0.0" font-size="204" font-family="Helvetica" fill="rgb(0,0,0)" text-anchor="middle" dominant-baseline="central">d5</text>
</svg>