<?xml version="1.0" encoding="UTF-8"?>
<svg xmlns="http://www.w3.org/2000/svg" xmlns:xlink="http://www.w3.org/1999/xlink"
     width="12.82cm" height="5.562562584220408cm" viewBox="-2048.0 -888.6215423153974 4096 1777.2430846307948">
<defs>
</defs>
<rect x="-2044.804992199688" y="-885.4265345150853" width="4089.609984399376" height="1770.8530690301707" fill="white" stroke="rgb(0,0,255)" stroke-width="2" />
<path d="M-559.126365054602,-267.4725989680987 L-1022.402496099844,-534.9451979361975 L-1485.6786271450858,-267.4725989680989 L-1485.678627145086,267.47259896809857 L-1022.4024960998441,534.9451979361975 L-559.1263650546023,267.47259896809896 Z" fill-opacity="0" stroke="rgb(0,0,0)" stroke-width="7.9875195007800315" />
<path d="M-609.2034466594708,0.0 L-664.5616224648986,-206.59952472018657 L-815.8029713796574,-357.8408736349454 L-1022.402496099844,-413.1990494403732 L-1229.0020208200306,-357.84087363494547 L-1380.2433697347894,-206.59952472018657 L-1435.601545540217,-5.0602289330788195e-14 L-1380.2433697347894,206.59952472018648 L-1229.0020208200308,357.84087363494535 L-1022.4024960998441,413.1990494403732 L-815.8029713796574,357.8408736349454 L-664.5616224648987,206.59952472018676 Z" fill-opacity="0" stroke="rgb(0,0,0)" stroke-width="7.9875195007800315" />
<path d="M-609.2034466594708,0.0 L-664.5616224648986,-206.59952472018657 L-871.1611471850852,-261.95770052561437 L-1022.402496099844,-110.71635161085558 L-967.0443202944164,95.88317310933101 L-760.4447955742298,151.24134891475885 L-609.203446659471,8.526512829121202e-14 L-609.2034466594708,0.0 Z" fill-opacity="0" stroke="rgb(0,0,0)" stroke-width="7.9875195007800315" />
<path d="M-664.5616224648986,-206.59952472018657 L-815.8029713796574,-357.8408736349454 L-1022.402496099844,-302.48269782951775 L-1077.760671905272,-95.88317310933118 L-926.5193229905132,55.35817580542775 L-719.9197982703265,1.2789769243681803e-13 L-664.5616224648985,-206.59952472018642 L-664.5616224648986,-206.59952472018657 Z" fill-opacity="0" stroke="rgb(0,0,0)" stroke-width="7.9875195007800315" />
<path d="M-815.8029713796574,-357.8408736349454 L-1022.402496099844,-413.1990494403732 L-1173.643845014603,-261.9577005256143 L-1118.2856692091752,-55.35817580542766 L-911.6861444889887,1.9895196601282805e-13 L-760.4447955742298,-151.24134891475856 L-815.8029713796575,-357.8408736349452 L-815.8029713796574,-357.8408736349454 Z" fill-opacity="0" stroke="rgb(0,0,0)" stroke-width="7.9875195007800315" />
<path d="M-1022.402496099844,-413.1990494403732 L-1229.0020208200306,-357.84087363494547 L-1284.3601966254585,-151.24134891475896 L-1133.1188477106998,-1.1368683772161603e-13 L-926.5193229905133,-55.35817580542775 L-871.1611471850854,-261.9577005256142 L-1022.402496099844,-413.1990494403731 L-1022.402496099844,-413.1990494403732 Z" fill-opacity="0" stroke="rgb(0,0,0)" stroke-width="7.9875195007800315" />
<path d="M-1229.0020208200306,-357.84087363494547 L-1380.2433697347894,-206.59952472018657 L-1324.8851939293615,1.1368683772161603e-13 L-1118.285669209175,55.35817580542794 L-967.0443202944161,-95.88317310933087 L-1022.4024960998438,-302.4826978295176 L-1229.0020208200303,-357.8408736349455 L-1229.0020208200306,-357.84087363494547 Z" fill-opacity="0" stroke="rgb(0,0,0)" stroke-width="7.9875195007800315" />
<path d="M-1380.2433697347894,-206.59952472018657 L-1435.601545540217,-5.684341886080802e-14 L-1284.3601966254582,151.24134891475865 L-1077.7606719052717,95.88317310933085 L-1022.4024960998439,-110.71635161085563 L-1173.6438450146027,-261.95770052561437 L-1380.2433697347892,-206.59952472018665 L-1380.2433697347894,-206.59952472018657 Z" fill-opacity="0" stroke="rgb(0,0,0)" stroke-width="7.9875195007800315" />
<path d="M-1435.601545540217,-5.0602289330788195e-14 L-1380.2433697347894,206.59952472018648 L-1173.643845014603,261.9577005256143 L-1022.402496099844,110.71635161085567 L-1077.7606719052717,-95.88317310933087 L-1284.3601966254582,-151.24134891475882 L-1435.601545540217,-2.2737367544323206e-13 L-1435.601545540217,-5.0602289330788195e-14 Z" fill-opacity="0" stroke="rgb(0,0,0)" stroke-width="7.9875195007800315" />
<path d="M-1380.2433697347894,206.59952472018648 L-1229.0020208200308,357.84087363494535 L-1022.4024960998443,302.4826978295178 L-967.0443202944163,95.88317310933138 L-1118.2856692091748,-55.35817580542755 L-1324.8851939293613,-7.105427357601002e-14 L-1380.2433697347894,206.59952472018637 L-1380.2433697347894,206.59952472018648 Z" fill-opacity="0" stroke="rgb(0,0,0)" stroke-width="7.9875195007800315" />
<path d="M-1229.0020208200308,357.84087363494535 L-1022.4024960998441,413.1990494403732 L-871.1611471850852,261.95770052561437 L-926.5193229905128,55.35817580542766 L-1133.1188477106994,-2.7711166694643907e-13 L-1284.3601966254585,151.24134891475848 L-1229.0020208200308,357.8408736349452 L-1229.0020208200308,357.84087363494535 Z" fill-opacity="0" stroke="rgb(0,0,0)" stroke-width="7.9875195007800315" />
<path d="M-1022.4024960998441,413.1990494403732 L-815.8029713796574,357.8408736349454 L-760.4447955742295,151.24134891475867 L-911.6861444889884,-3.410605131648481e-13 L-1118.285669209175,55.35817580542735 L-1173.643845014603,261.9577005256141 L-1022.402496099844,413.1990494403732 L-1022.4024960998441,413.1990494403732 Z" fill-opacity="0" stroke="rgb(0,0,0)" stroke-width="7.9875195007800315" />
<path d="M-815.8029713796574,357.8408736349454 L-664.5616224648987,206.59952472018676 L-719.9197982703264,3.979039320256561e-13 L-926.5193229905128,-55.35817580542737 L-1077.7606719052715,95.88317310933124 L-1022.4024960998438,302.48269782951763 L-815.8029713796575,357.84087363494547 L-815.8029713796574,357.8408736349454 Z" fill-opacity="0" stroke="rgb(0,0,0)" stroke-width="7.9875195007800315" />
<path d="M-664.5616224648987,206.59952472018676 L-609.2034466594708,0.0 L-760.4447955742297,-151.24134891475904 L-967.0443202944166,-95.88317310933134 L-1022.4024960998446,110.71635161085543 L-871.1611471850857,261.95770052561454 L-664.5616224648988,206.59952472018693 L-664.5616224648987,206.59952472018676 Z" fill-opacity="0" stroke="rgb(0,0,0)" stroke-width="7.9875195007800315" />
<text x="-1730.7437237119125" y="0.0" font-size="204" font-family="Helvetica" fill="rgb(0,0,0)" text-anchor="middle" dominant-baseline="central">d3</text>
<path d="M463.2761310452419,-267.4725989680987 L3.2755946218590575e-14,-534.9451979361975 L-463.2761310452418,-267.4725989680989 L-463.276131045242,267.47259896809857 L-9.826783865577172e-14,534.9451979361975 L463.27613104524175,267.47259896809896 Z" fill-opacity="0" stroke="rgb(0,0,0)" stroke-width="7.9875195007800315" />
<path d="M153.50776652233833,136.14911456288286 L145.70269463686975,163.66029455377299" fill-opacity="0" stroke="rgb(0,0,0)" stroke-width="7.9875195007800315" />
<path d="M276.46232929282894,-325.612261687648 L255.5765977604596,-336.42061698243697" fill-opacity="0" stroke="rgb(0,0,0)" stroke-width="7.9875195007800315" />
<path d="M140.44102734046257,-255.8474117816267 L153.74288472269455,-255.15712067094418" fill-opacity="0" stroke="rgb(0,0,0)" stroke-width="7.9875195007800315" />
<path d="M-37.84485616791227,103.72203912582688 L-62.1543635930675,91.63881810436294" fill-opacity="0" stroke="rgb(0,0,0)" stroke-width="7.9875195007800315" />
<path d="M232.19890809994013,-213.86434416203684 L229.76182714610485,-226.9862789182072" fill-opacity="0" stroke="rgb(0,0,0)" stroke-width="7.9875195007800315" />
<path d="M-207.14632187321195,-163.9982529318375 L-182.01374640428128,-132.20513265816493" fill-opacity="0" stroke="rgb(0,0,0)" stroke-width="7.9875195007800315" />
<path d="M-317.66186457233016,24.849025037733433 L-297.0052240869836,21.15181922761956" fill-opacity="0" stroke="rgb(0,0,0)" stroke-width="7.9875195007800315" />
<path d="M-463.2761310452419,-12.540969247487794 L-463.2761310452419,-22.667110895018695" fill-opacity="0" stroke="rgb(0,0,0)" stroke-width="7.9875195007800315" />
<path d="M151.11590349187148,121.47511083982391 L136.48881742354524,106.7217995115495" fill-opacity="0" stroke="rgb(0,0,0)" stroke-width="7.9875195007800315" />
<path d="M-320.2579331409317,19.757813790892556 L-323.26117745882874,24.231726653745383" fill-opacity="0" stroke="rgb(0,0,0)" stroke-width="7.9875195007800315" />
<path d="M243.5207930443653,-129.3262980008742 L254.08181380893728,-141.93013846233208" fill-opacity="0" stroke="rgb(0,0,0)" stroke-width="7.9875195007800315" />
<path d="M-194.7201063061829,-34.00941881038722 L-164.67100492685768,-54.73823214039396" fill-opacity="0" stroke="rgb(0,0,0)" stroke-width="7.9875195007800315" />
<path d="M-385.12470516876147,-302.0317951377051 L-393.3086329924177,-296.66644471640814" fill-opacity="0" stroke="rgb(0,0,0)" stroke-width="7.9875195007800315" />
<path d="M358.4337278554333,-252.09860955920084 L366.4761270440531,-247.76959425302195" fill-opacity="0" stroke="rgb(0,0,0)" stroke-width="7.9875195007800315" />
<path d="M121.87163521437319,-101.29831299611755 L138.30459883587523,-87.1881182691456" fill-opacity="0" stroke="rgb(0,0,0)" stroke-width="7.9875195007800315" />
<path d="M-45.320134260862986,-366.0368785718566 L-51.6639801271693,-345.2182134974633" fill-opacity="0" stroke="rgb(0,0,0)" stroke-width="7.9875195007800315" />
<path d="M445.01042955660233,223.71444540127374 L445.70271198612005,219.45199292149405" fill-opacity="0" stroke="rgb(0,0,0)" stroke-width="7.9875195007800315" />
<path d="M-451.6519361151507,57.000953654427526 L-449.073571369713,48.0468444715052" fill-opacity="0" stroke="rgb(0,0,0)" stroke-width="7.9875195007800315" />
<path d="M39.83339945702637,-76.1665310364719 L36.14334889668594,-62.33851798980106" fill-opacity="0" stroke="rgb(0,0,0)" stroke-width="7.9875195007800315" />
<path d="M328.0212733286166,278.5826538332801 L341.26526637908955,289.2162564030212" fill-opacity="0" stroke="rgb(0,0,0)" stroke-width="7.9875195007800315" />
<path d="M331.03319398940005,143.91979115244948 L308.7473858613524,126.64316082312074" fill-opacity="0" stroke="rgb(0,0,0)" stroke-width="7.9875195007800315" />
<path d="M305.0509761915052,288.2840998529451 L332.03864456436753,277.7129669197782" fill-opacity="0" stroke="rgb(0,0,0)" stroke-width="7.9875195007800315" />
<path d="M-13.851953346627255,-444.1958923825652 L5.364485251539961,-431.4565665167161" fill-opacity="0" stroke="rgb(0,0,0)" stroke-width="7.9875195007800315" />
<path d="M-36.43472071089764,46.54071283091929 L-40.89596388436273,6.273471197716162" fill-opacity="0" stroke="rgb(0,0,0)" stroke-width="7.9875195007800315" />
<path d="M-116.42286330916585,123.14005550455828 L-136.65001344836895,126.35462105427754" fill-opacity="0" stroke="rgb(0,0,0)" stroke-width="7.9875195007800315" />
<path d="M345.86060729450156,-286.51295181064864 L336.09281494476704,-295.12745511185153" fill-opacity="0" stroke="rgb(0,0,0)" stroke-width="7.9875195007800315" />
<path d="M-18.260520438316888,-29.48594948770028 L-25.870906597054073,-17.42470224985462" fill-opacity="0" stroke="rgb(0,0,0)" stroke-width="7.9875195007800315" />
<path d="M148.66309691600333,128.97839024787226 L167.11318781089187,113.39590136090723" fill-opacity="0" stroke="rgb(0,0,0)" stroke-width="7.9875195007800315" />
<path d="M-69.73390408529072,-70.76079605611342 L-58.11392480283134,-81.44289182964211" fill-opacity="0" stroke="rgb(0,0,0)" stroke-width="7.9875195007800315" />
<path d="M171.9485722535094,-281.86088334709024 L168.96413417822336,-291.8287091911389" fill-opacity="0" stroke="rgb(0,0,0)" stroke-width="7.9875195007800315" />
<path d="M232.23605637023647,-384.1422995639469 L243.70216753713672,-364.10639109022065" fill-opacity="0" stroke="rgb(0,0,0)" stroke-width="7.9875195007800315" />
<path d="M235.3147078989029,270.01489791290385 L234.45613625050368,276.06769187771204" fill-opacity="0" stroke="rgb(0,0,0)" stroke-width="7.9875195007800315" />
<path d="M-299.4523395379986,16.278531411017212 L-305.18125074878077,6.355766121891577" fill-opacity="0" stroke="rgb(0,0,0)" stroke-width="7.9875195007800315" />
<path d="M-10.46866042884092,-250.8822949716601 L-12.2625826044038,-220.02549248267917" fill-opacity="0" stroke="rgb(0,0,0)" stroke-width="7.9875195007800315" />
<path d="M362.81777394451234,-93.4736204247374 L355.4566028149088,-80.72369802505489" fill-opacity="0" stroke="rgb(0,0,0)" stroke-width="7.9875195007800315" />
<path d="M347.59984119560744,184.38626755583496 L366.02766803234516,194.76850914485829" fill-opacity="0" stroke="rgb(0,0,0)" stroke-width="7.9875195007800315" />
<path d="M20.483250826725598,441.06084816727207 L25.843216951623038,428.7386704685901" fill-opacity="0" stroke="rgb(0,0,0)" stroke-width="7.9875195007800315" />
<path d="M-44.64961346432301,-25.533212041795252 L-64.00868996516215,-11.899016466065575" fill-opacity="0" stroke="rgb(0,0,0)" stroke-width="7.9875195007800315" />
<path d="M214.10752897982536,160.22785190992147 L221.72178130543676,167.45308187638557" fill-opacity="0" stroke="rgb(0,0,0)" stroke-width="7.9875195007800315" />
<path d="M401.45211684199984,303.1667102107239 L381.8291265466949,288.87506742593337" fill-opacity="0" stroke="rgb(0,0,0)" stroke-width="7.9875195007800315" />
<path d="M131.4626979649555,-399.09483089697454 L142.11616399160636,-396.3426811833197" fill-opacity="0" stroke="rgb(0,0,0)" stroke-width="7.9875195007800315" />
<path d="M-410.72321735671625,265.05287341646147 L-413.13820474974716,263.0423882826551" fill-opacity="0" stroke="rgb(0,0,0)" stroke-width="7.9875195007800315" />
<path d="M349.1669378272858,296.32747487464354 L339.1354752109791,295.4471972376277" fill-opacity="0" stroke="rgb(0,0,0)" stroke-width="7.9875195007800315" />
<path d="M58.679783744839256,253.1340694799809 L65.07955095841747,228.4893100623995" fill-opacity="0" stroke="rgb(0,0,0)" stroke-width="7.9875195007800315" />
<path d="M-25.784647180478146,133.16883859843944 L-37.44405649117368,154.41393567162504" fill-opacity="0" stroke="rgb(0,0,0)" stroke-width="7.9875195007800315" />
<path d="M278.59697449921197,255.43603869545007 L263.7627789515089,269.8255627423739" fill-opacity="0" stroke="rgb(0,0,0)" stroke-width="7.9875195007800315" />
<path d="M-232.23554967798083,-378.9916284512802 L-224.59140014360128,-384.7425421423198" fill-opacity="0" stroke="rgb(0,0,0)" stroke-width="7.9875195007800315" />
<path d="M305.85321475720093,-346.0449753869207 L310.3839215085777,-342.8376276367011" fill-opacity="0" stroke="rgb(0,0,0)" stroke-width="7.9875195007800315" />
<path d="M-274.0135518918603,-342.7726508495532 L-248.5109065719451,-345.37325154160976" fill-opacity="0" stroke="rgb(0,0,0)" stroke-width="7.9875195007800315" />
<path d="M-447.37311806271606,146.84664766126158 L-448.6725585531578,139.95874783086919" fill-opacity="0" stroke="rgb(0,0,0)" stroke-width="7.9875195007800315" />
<path d="M-20.737957645419613,-124.46654338488904 L-53.29516865973824,-105.8936964467531" fill-opacity="0" stroke="rgb(0,0,0)" stroke-width="7.9875195007800315" />
<path d="M270.26846620246283,-274.0960744325981 L281.04902844054624,-271.28909328469507" fill-opacity="0" stroke="rgb(0,0,0)" stroke-width="7.9875195007800315" />
<path d="M-330.08607029998586,237.30309706347958 L-338.73032665448375,225.52030262419635" fill-opacity="0" stroke="rgb(0,0,0)" stroke-width="7.9875195007800315" />
<path d="M-104.7661404561116,-60.48675939429427 L-114.08008679009149,-65.86416881743529" fill-opacity="0" stroke="rgb(0,0,0)" stroke-width="7.9875195007800315" />
<path d="M34.93861325535363,-253.6461328988771 L64.91566466551205,-261.36869404143215" fill-opacity="0" stroke="rgb(0,0,0)" stroke-width="7.9875195007800315" />
<path d="M-53.36123426786172,-221.18566636313864 L-41.029686965091926,-212.42726061153581" fill-opacity="0" stroke="rgb(0,0,0)" stroke-width="7.9875195007800315" />
<path d="M-120.73733589672548,-81.59114967697312 L-102.81970616005259,-70.67642936171512" fill-opacity="0" stroke="rgb(0,0,0)" stroke-width="7.9875195007800315" />
<path d="M-356.7100431324667,74.99279114549199 L-338.39116565024693,66.214589266778" fill-opacity="0" stroke="rgb(0,0,0)" stroke-width="7.9875195007800315" />
<path d="M-84.08115481477313,-133.79317637452328 L-64.99263864646468,-153.950039098545" fill-opacity="0" stroke="rgb(0,0,0)" stroke-width="7.9875195007800315" />
<path d="M216.0182951928968,-223.45957446282068 L205.825992265663,-250.80624351258336" fill-opacity="0" stroke="rgb(0,0,0)" stroke-width="7.9875195007800315" />
<path d="M380.8507934413327,279.1597409637871 L366.1399867443107,288.55100895938324" fill-opacity="0" stroke="rgb(0,0,0)" stroke-width="7.9875195007800315" />
<path d="M-132.01314183406873,-41.603857365393765 L-153.8789175019483,-33.80206372675974" fill-opacity="0" stroke="rgb(0,0,0)" stroke-width="7.9875195007800315" />
<path d="M-223.25084437778528,95.8321809253913 L-199.13791460070422,77.47829412744247" fill-opacity="0" stroke="rgb(0,0,0)" stroke-width="7.9875195007800315" />
<path d="M189.60717534881002,371.8538290168879 L194.88426266235533,375.78907874879144" fill-opacity="0" stroke="rgb(0,0,0)" stroke-width="7.9875195007800315" />
<path d="M-106.05233097215887,124.34045550084858 L-115.98114771431852,118.86632259345294" fill-opacity="0" stroke="rgb(0,0,0)" stroke-width="7.9875195007800315" />
<path d="M-37.20840682396076,153.77540033973924 L-16.639256130287407,140.44609035675205" fill-opacity="0" stroke="rgb(0,0,0)" stroke-width="7.9875195007800315" />
<path d="M120.33734349059606,72.45180528373425 L118.99011830866142,61.277313688691095" fill-opacity="0" stroke="rgb(0,0,0)" stroke-width="7.9875195007800315" />
<path d="M232.973587083568,156.60467418545167 L250.91317178034524,171.9366200568925" fill-opacity="0" stroke="rgb(0,0,0)" stroke-width="7.9875195007800315" />
<path d="M214.34042145025307,94.20588771964009 L216.07247477546127,103.59008294265237" fill-opacity="0" stroke="rgb(0,0,0)" stroke-width="7.9875195007800315" />
<path d="M263.9764311298908,212.27007531242805 L271.0456595729274,227.26483798818083" fill-opacity="0" stroke="rgb(0,0,0)" stroke-width="7.9875195007800315" />
<path d="M53.45624112861259,-93.7021115223267 L88.1933610496643,-79.82535975298273" fill-opacity="0" stroke="rgb(0,0,0)" stroke-width="7.9875195007800315" />
<path d="M-164.82042451757923,-146.65312180005924 L-166.67923931386588,-129.8876366813397" fill-opacity="0" stroke="rgb(0,0,0)" stroke-width="7.9875195007800315" />
<path d="M-209.53845713895262,-188.26907773897938 L-216.20469771280028,-192.2538333466284" fill-opacity="0" stroke="rgb(0,0,0)" stroke-width="7.9875195007800315" />
<path d="M314.832077926437,-10.35995688487553 L312.47495256822634,-6.277296004645613" fill-opacity="0" stroke="rgb(0,0,0)" stroke-width="7.9875195007800315" />
<path d="M170.02071631495892,-307.5527951007664 L152.11858483050435,-326.37818251331026" fill-opacity="0" stroke="rgb(0,0,0)" stroke-width="7.9875195007800315" />
<path d="M-356.923672461017,186.2022624286091 L-371.29858095226825,190.45707685236871" fill-opacity="0" stroke="rgb(0,0,0)" stroke-width="7.9875195007800315" />
<path d="M152.95968412589588,-92.91507048254098 L168.8942433094761,-80.23769063186731" fill-opacity="0" stroke="rgb(0,0,0)" stroke-width="7.9875195007800315" />
<path d="M241.86339801113303,-201.438088777515 L232.38108656228133,-224.80406361394736" fill-opacity="0" stroke="rgb(0,0,0)" stroke-width="7.9875195007800315" />
<path d="M321.6443813970294,83.25951983652305 L330.6032981078069,74.86651868836447" fill-opacity="0" stroke="rgb(0,0,0)" stroke-width="7.9875195007800315" />
<path d="M208.8049756426329,14.896315356498917 L217.9534214284644,38.4552199023816" fill-opacity="0" stroke="rgb(0,0,0)" stroke-width="7.9875195007800315" />
<path d="M-88.72632184059393,-81.36622399070204 L-71.57245707084311,-86.81697567888334" fill-opacity="0" stroke="rgb(0,0,0)" stroke-width="7.9875195007800315" />
<path d="M-326.81074450549016,-132.98056696388278 L-346.70919816943916,-142.50805043047563" fill-opacity="0" stroke="rgb(0,0,0)" stroke-width="7.9875195007800315" />
<path d="M222.32833617447577,-129.49098600693256 L216.5111730532699,-125.00278404486704" fill-opacity="0" stroke="rgb(0,0,0)" stroke-width="7.9875195007800315" />
<path d="M-101.70352132805759,-468.82115566066363 L-103.68463560577904,-460.1705847384481" fill-opacity="0" stroke="rgb(0,0,0)" stroke-width="7.9875195007800315" />
<path d="M-50.06739381352514,-9.693139778208604 L-6.807405857800575,-36.482650694147424" fill-opacity="0" stroke="rgb(0,0,0)" stroke-width="7.9875195007800315" />
<path d="M72.52532261827055,262.17071790350775 L86.05072673163528,258.9213807791878" fill-opacity="0" stroke="rgb(0,0,0)" stroke-width="7.9875195007800315" />
<path d="M-126.57229277783576,34.61423263221843 L-130.70307967558347,21.004706238776294" fill-opacity="0" stroke="rgb(0,0,0)" stroke-width="7.9875195007800315" />
<path d="M59.51530445345853,-490.4978808443447 L70.81756900589278,-482.78437274015306" fill-opacity="0" stroke="rgb(0,0,0)" stroke-width="7.9875195007800315" />
<path d="M-334.48145425013143,170.9723351265181 L-351.9614729064413,184.39690778723462" fill-opacity="0" stroke="rgb(0,0,0)" stroke-width="7.9875195007800315" />
<path d="M296.58491055772845,101.12468241657564 L302.4142701483585,97.52447271173962" fill-opacity="0" stroke="rgb(0,0,0)" stroke-width="7.9875195007800315" />
<path d="M176.06548170427425,357.2177540635862 L198.19264234315057,361.33492614220154" fill-opacity="0" stroke="rgb(0,0,0)" stroke-width="7.9875195007800315" />
<path d="M-389.00232019964403,176.4701471338876 L-375.1252147183798,180.64135648147766" fill-opacity="0" stroke="rgb(0,0,0)" stroke-width="7.9875195007800315" />
<path d="M-238.66442565344522,-201.24100762381144 L-272.36303722744475,-209.41378132793437" fill-opacity="0" stroke="rgb(0,0,0)" stroke-width="7.9875195007800315" />
<path d="M-54.25454179287695,247.8683922422513 L-72.13013181477478,236.93890323762162" fill-opacity="0" stroke="rgb(0,0,0)" stroke-width="7.9875195007800315" />
<path d="M-70.5213344656999,-235.9837206359647 L-75.25207186505807,-221.46446598326662" fill-opacity="0" stroke="rgb(0,0,0)" stroke-width="7.9875195007800315" />
<path d="M447.3884635233527,220.17644243147765 L448.154001131679,216.97253004067082" fill-opacity="0" stroke="rgb(0,0,0)" stroke-width="7.9875195007800315" />
<path d="M-293.7244765072044,53.63232280405606 L-284.98149834235545,71.44171091984552" fill-opacity="0" stroke="rgb(0,0,0)" stroke-width="7.9875195007800315" />
<path d="M-336.423882593484,-0.5431845153983943 L-328.8955835703208,-4.9467503406031454" fill-opacity="0" stroke="rgb(0,0,0)" stroke-width="7.9875195007800315" />
<path d="M-430.6759937029037,278.8608143557598 L-440.3319767202051,276.11768776068664" fill-opacity="0" stroke="rgb(0,0,0)" stroke-width="7.9875195007800315" />
<path d="M-219.49623152281742,29.639130219426193 L-230.19729348383257,29.759591492063656" fill-opacity="0" stroke="rgb(0,0,0)" stroke-width="7.9875195007800315" />
<path d="M-434.2794689121215,34.62127191337078 L-442.3679937079993,22.68048033738404" fill-opacity="0" stroke="rgb(0,0,0)" stroke-width="7.9875195007800315" />
<path d="M157.31107048822466,-217.9666443183472 L137.03197013072727,-226.55207646003885" fill-opacity="0" stroke="rgb(0,0,0)" stroke-width="7.9875195007800315" />
<path d="M25.949029947052832,278.07887266723964 L26.29487954657334,298.91367397534" fill-opacity="0" stroke="rgb(0,0,0)" stroke-width="7.9875195007800315" />
<path d="M163.16467265474608,50.89595670219859 L154.98634693777075,47.46336387722664" fill-opacity="0" stroke="rgb(0,0,0)" stroke-width="7.9875195007800315" />
<path d="M127.87850471509611,274.19506514096474 L113.29825787443592,275.1983153507403" fill-opacity="0" stroke="rgb(0,0,0)" stroke-width="7.9875195007800315" />
<path d="M463.27613104524187,-60.1669955733308 L463.27613104524187,-57.43047878676134" fill-opacity="0" stroke="rgb(0,0,0)" stroke-width="7.9875195007800315" />
<path d="M-348.398213984533,-161.15415641347843 L-360.02719263267437,-157.23879224133134" fill-opacity="0" stroke="rgb(0,0,0)" stroke-width="7.9875195007800315" />
<path d="M-413.25603311467125,122.13188434608989 L-452.87616196801275,129.3957072227888" fill-opacity="0" stroke="rgb(0,0,0)" stroke-width="7.9875195007800315" />
<path d="M45.43857471179369,176.92005982744124 L66.8684244157696,154.61597124024672" fill-opacity="0" stroke="rgb(0,0,0)" stroke-width="7.9875195007800315" />
<path d="M73.23438586213095,-123.93363281750527 L89.29539567647586,-97.38760420338923" fill-opacity="0" stroke="rgb(0,0,0)" stroke-width="7.9875195007800315" />
<path d="M393.4838008174514,-24.171439712679813 L386.7989371540757,-43.09781032166305" fill-opacity="0" stroke="rgb(0,0,0)" stroke-width="7.9875195007800315" />
<path d="M274.1669034186334,228.84989044499878 L269.8555691753718,226.12765041681428" fill-opacity="0" stroke="rgb(0,0,0)" stroke-width="7.9875195007800315" />
<path d="M-264.15528964071734,-63.058529815886516 L-278.1994070852123,-37.7900835211621" fill-opacity="0" stroke="rgb(0,0,0)" stroke-width="7.9875195007800315" />
<path d="M-421.01850687499075,106.81513750099484 L-423.06100826392554,97.4910621641367" fill-opacity="0" stroke="rgb(0,0,0)" stroke-width="7.9875195007800315" />
<path d="M204.1494651887657,-417.07944925454547 L200.22601745169482,-397.7442252273601" fill-opacity="0" stroke="rgb(0,0,0)" stroke-width="7.9875195007800315" />
<path d="M-432.2705782026933,36.2342233363355 L-440.3429690600756,22.91043737683202" fill-opacity="0" stroke="rgb(0,0,0)" stroke-width="7.9875195007800315" />
<path d="M56.426918472925706,-57.53731824253903 L43.98144949947272,-51.722471491002565" fill-opacity="0" stroke="rgb(0,0,0)" stroke-width="7.9875195007800315" />
<path d="M-46.44658465268811,227.6161120670903 L-49.73625273695887,237.6062006098041" fill-opacity="0" stroke="rgb(0,0,0)" stroke-width="7.9875195007800315" />
<path d="M117.57652300714574,228.04128779728364 L132.00041515322175,233.40122027114447" fill-opacity="0" stroke="rgb(0,0,0)" stroke-width="7.9875195007800315" />
<path d="M85.31385350258661,361.8496059060392 L87.14885654208999,365.3170691557124" fill-opacity="0" stroke="rgb(0,0,0)" stroke-width="7.9875195007800315" />
<path d="M317.2307562172567,-123.49520849514488 L309.2339702280222,-131.3060022132495" fill-opacity="0" stroke="rgb(0,0,0)" stroke-width="7.9875195007800315" />
<path d="M367.5003249191884,-167.81552673808048 L371.3896363033172,-178.50399114277164" fill-opacity="0" stroke="rgb(0,0,0)" stroke-width="7.9875195007800315" />
<path d="M-344.02411963501606,-256.1311729022158 L-330.91647073709663,-245.6162760378728" fill-opacity="0" stroke="rgb(0,0,0)" stroke-width="7.9875195007800315" />
<path d="M-0.4029310246043849,294.70091668811466 L7.096453965121555,292.3545094316008" fill-opacity="0" stroke="rgb(0,0,0)" stroke-width="7.9875195007800315" />
<path d="M-287.109116831279,274.6920781900053 L-302.5942009189869,266.6379713255575" fill-opacity="0" stroke="rgb(0,0,0)" stroke-width="7.9875195007800315" />
<path d="M-184.40982485139486,-150.34766041968004 L-175.29433759785468,-144.88774975777136" fill-opacity="0" stroke="rgb(0,0,0)" stroke-width="7.9875195007800315" />
<path d="M323.8614725381917,69.67172808832234 L306.91521711528094,70.86541039272737" fill-opacity="0" stroke="rgb(0,0,0)" stroke-width="7.9875195007800315" />
<path d="M-275.56145541093133,335.9637424013569 L-275.3298932632814,348.88334810240667" fill-opacity="0" stroke="rgb(0,0,0)" stroke-width="7.9875195007800315" />
<path d="M-60.367327263668244,-198.90760163019075 L-62.653094173877236,-185.4563076171214" fill-opacity="0" stroke="rgb(0,0,0)" stroke-width="7.9875195007800315" />
<path d="M220.70245715183697,129.99279005030584 L196.49917605818266,100.99384900398954" fill-opacity="0" stroke="rgb(0,0,0)" stroke-width="7.9875195007800315" />
<path d="M463.2761310452418,-28.89260360400032 L463.2761310452418,-33.22469889561145" fill-opacity="0" stroke="rgb(0,0,0)" stroke-width="7.9875195007800315" />
<path d="M160.7284540117838,436.01953432410977 L167.65479017320837,420.0705041134993" fill-opacity="0" stroke="rgb(0,0,0)" stroke-width="7.9875195007800315" />
<path d="M139.2759734727338,-218.88364884882122 L142.1496050905314,-229.64705919891895" fill-opacity="0" stroke="rgb(0,0,0)" stroke-width="7.9875195007800315" />
<path d="M-385.45393598713366,85.49972737964806 L-387.67167410179525,80.76999539353054" fill-opacity="0" stroke="rgb(0,0,0)" stroke-width="7.9875195007800315" />
<path d="M-92.03423236140077,-407.0006244519456 L-84.87541721757106,-413.39014927572737" fill-opacity="0" stroke="rgb(0,0,0)" stroke-width="7.9875195007800315" />
<path d="M207.06722396139185,-378.52895008932444 L240.90651167689157,-385.4949557418487" fill-opacity="0" stroke="rgb(0,0,0)" stroke-width="7.9875195007800315" />
<path d="M-144.6640095954996,223.9261723357391 L-130.39558900379043,229.59617757557174" fill-opacity="0" stroke="rgb(0,0,0)" stroke-width="7.9875195007800315" />
<path d="M-85.10068675329086,250.797306619544 L-95.14314563594098,252.32818867874812" fill-opacity="0" stroke="rgb(0,0,0)" stroke-width="7.9875195007800315" />
<path d="M-173.06024918314398,-155.72489563121337 L-202.0378150867217,-154.18334083648134" fill-opacity="0" stroke="rgb(0,0,0)" stroke-width="7.9875195007800315" />
<path d="M463.2761310452418,8.57295451483455 L463.2761310452418,15.605988370801128" fill-opacity="0" stroke="rgb(0,0,0)" stroke-width="7.9875195007800315" />
<path d="M-79.29936062778853,-292.25357740753225 L-91.75432050336701,-306.6357614660617" fill-opacity="0" stroke="rgb(0,0,0)" stroke-width="7.9875195007800315" />
<path d="M-2.1233476910350635e-14,-94.08810210635696 L-2.3574911331008866e-14,-74.96883912956699" fill-opacity="0" stroke="rgb(0,0,0)" stroke-width="7.9875195007800315" />
<path d="M432.3535778360951,172.50911181560596 L430.9317187683133,181.7667316162102" fill-opacity="0" stroke="rgb(0,0,0)" stroke-width="7.9875195007800315" />
<path d="M52.304183075013356,-272.6014601871728 L63.35754551947798,-271.41998396743566" fill-opacity="0" stroke="rgb(0,0,0)" stroke-width="7.9875195007800315" />
<path d="M277.2559785975607,313.9699992717387 L282.45415967963044,306.54437933300426" fill-opacity="0" stroke="rgb(0,0,0)" stroke-width="7.9875195007800315" />
<path d="M161.44876567166338,101.96695125864547 L134.0113715568852,102.52029994149011" fill-opacity="0" stroke="rgb(0,0,0)" stroke-width="7.9875195007800315" />
<path d="M110.69360304000439,-233.5549186100518 L117.65765689899735,-282.4333029403068" fill-opacity="0" stroke="rgb(0,0,0)" stroke-width="7.9875195007800315" />
<path d="M-146.6003008109066,371.6403033193203 L-148.50686298031124,376.6412364623325" fill-opacity="0" stroke="rgb(0,0,0)" stroke-width="7.9875195007800315" />
<path d="M-458.48544819626005,244.5291738763662 L-458.77714146471016,242.0191451178148" fill-opacity="0" stroke="rgb(0,0,0)" stroke-width="7.9875195007800315" />
<path d="M423.90430392377675,266.0203271755295 L429.2579661372761,262.26812106014285" fill-opacity="0" stroke="rgb(0,0,0)" stroke-width="7.9875195007800315" />
<path d="M-99.22519735926923,298.33166976346587 L-89.78057946535304,265.741125949503" fill-opacity="0" stroke="rgb(0,0,0)" stroke-width="7.9875195007800315" />
<path d="M-139.5372180216385,175.11601702936952 L-146.61274040093554,156.40715799721886" fill-opacity="0" stroke="rgb(0,0,0)" stroke-width="7.9875195007800315" />
<path d="M-155.3936686534851,-249.52974776533608 L-131.63624792645908,-219.3360394472976" fill-opacity="0" stroke="rgb(0,0,0)" stroke-width="7.9875195007800315" />
<path d="M-50.39338593404587,18.634940586001775 L-62.53330359547521,9.943443341636602" fill-opacity="0" stroke="rgb(0,0,0)" stroke-width="7.9875195007800315" />
<path d="M-23.205801373967176,288.86628395387646 L0.5505190340049353,306.10835789233676" fill-opacity="0" stroke="rgb(0,0,0)" stroke-width="7.9875195007800315" />
<path d="M-1.1149896357027842,-280.20425409523045 L3.880525668747012,-264.9212727070442" fill-opacity="0" stroke="rgb(0,0,0)" stroke-width="7.9875195007800315" />
<path d="M-51.490132071676186,-28.25903546348428 L-46.10227541498246,-43.62176783006049" fill-opacity="0" stroke="rgb(0,0,0)" stroke-width="7.9875195007800315" />
<path d="M67.01384517462301,166.93715380999242 L59.57156226094639,204.13876473524164" fill-opacity="0" stroke="rgb(0,0,0)" stroke-width="7.9875195007800315" />
<path d="M-421.0139104193231,-110.25864791991893 L-428.12100491885576,-120.38287341099328" fill-opacity="0" stroke="rgb(0,0,0)" stroke-width="7.9875195007800315" />
<path d="M172.55942774206503,-296.2156195984153 L169.86315361473083,-306.3082067929099" fill-opacity="0" stroke="rgb(0,0,0)" stroke-width="7.9875195007800315" />
<path d="M-434.0110554610797,232.7754106039809 L-452.93555854651737,238.99787615742358" fill-opacity="0" stroke="rgb(0,0,0)" stroke-width="7.9875195007800315" />
<path d="M145.2353571005098,-357.0283659973499 L135.04171024148945,-374.7939991993597" fill-opacity="0" stroke="rgb(0,0,0)" stroke-width="7.9875195007800315" />
<path d="M-257.7643239723612,223.0892467974418 L-259.8350380479148,225.2528387468456" fill-opacity="0" stroke="rgb(0,0,0)" stroke-width="7.9875195007800315" />
<path d="M-174.98515964980487,95.34422949680435 L-185.53674069376478,96.98080377660757" fill-opacity="0" stroke="rgb(0,0,0)" stroke-width="7.9875195007800315" />
<path d="M-396.1141138258413,-130.05944157560367 L-395.3566331309632,-141.40019240786324" fill-opacity="0" stroke="rgb(0,0,0)" stroke-width="7.9875195007800315" />
<path d="M235.1982900382138,-170.5512100959105 L214.33508564446151,-159.47835532012664" fill-opacity="0" stroke="rgb(0,0,0)" stroke-width="7.9875195007800315" />
<path d="M-150.87591398399417,-253.37385319654157 L-142.89558137775057,-265.25279717290664" fill-opacity="0" stroke="rgb(0,0,0)" stroke-width="7.9875195007800315" />
<path d="M231.94457949590733,229.92632118475944 L239.74976620804287,219.02781046788277" fill-opacity="0" stroke="rgb(0,0,0)" stroke-width="7.9875195007800315" />
<path d="M180.51260983298465,-104.21900387919561 L187.51376605344382,-108.2611233077163" fill-opacity="0" stroke="rgb(0,0,0)" stroke-width="7.9875195007800315" />
<path d="M-240.41810197506658,-203.27855378378985 L-238.63550976429534,-210.11789964252202" fill-opacity="0" stroke="rgb(0,0,0)" stroke-width="7.9875195007800315" />
<path d="M-13.764904295964476,-20.51125288965504 L-9.537955875110697,-31.489876488098993" fill-opacity="0" stroke="rgb(0,0,0)" stroke-width="7.9875195007800315" />
<path d="M29.78480101054491,-427.76720850685496 L45.5222553010674,-408.58196553535976" fill-opacity="0" stroke="rgb(0,0,0)" stroke-width="7.9875195007800315" />
<path d="M318.1693814387704,52.542922605843515 L329.8720910951601,52.14936123510106" fill-opacity="0" stroke="rgb(0,0,0)" stroke-width="7.9875195007800315" />
<path d="M-452.6752463616835,-35.49071806301492 L-438.4944908123413,-17.660981125367282" fill-opacity="0" stroke="rgb(0,0,0)" stroke-width="7.9875195007800315" />
<path d="M-92.62383199705617,-430.80347704992596 L-89.81270000562401,-429.2087145268312" fill-opacity="0" stroke="rgb(0,0,0)" stroke-width="7.9875195007800315" />
<path d="M-181.02771076529797,41.41305822031899 L-214.1920144378965,61.16637846122029" fill-opacity="0" stroke="rgb(0,0,0)" stroke-width="7.9875195007800315" />
<path d="M357.0345198704525,129.5697760808713 L366.0620188730738,148.3718368202213" fill-opacity="0" stroke="rgb(0,0,0)" stroke-width="7.9875195007800315" />
<path d="M64.10415942263879,-13.029518578085515 L89.23791115761199,20.04652329140083" fill-opacity="0" stroke="rgb(0,0,0)" stroke-width="7.9875195007800315" />
<path d="M-300.13954140759483,102.38305123276324 L-321.0740145274821,93.85519920507414" fill-opacity="0" stroke="rgb(0,0,0)" stroke-width="7.9875195007800315" />
<path d="M188.1388010822527,178.20064137287835 L198.41233810568804,165.8217560133081" fill-opacity="0" stroke="rgb(0,0,0)" stroke-width="7.9875195007800315" />
<path d="M427.7647609343884,72.78356637568119 L420.6353518852739,58.36285520126492" fill-opacity="0" stroke="rgb(0,0,0)" stroke-width="7.9875195007800315" />
<path d="M191.13534005134392,217.84131452149512 L196.10113351903348,207.71983075752496" fill-opacity="0" stroke="rgb(0,0,0)" stroke-width="7.9875195007800315" />
<path d="M-2.8106549906867158,333.1855256197572 L-2.9227329181800576,345.8168603909983" fill-opacity="0" stroke="rgb(0,0,0)" stroke-width="7.9875195007800315" />
<path d="M-87.5166989926679,-62.07268457948902 L-124.17030016309025,-87.84241613875395" fill-opacity="0" stroke="rgb(0,0,0)" stroke-width="7.9875195007800315" />
<path d="M-279.1261298408033,189.00330996937697 L-256.7572078400873,181.24823162018328" fill-opacity="0" stroke="rgb(0,0,0)" stroke-width="7.9875195007800315" />
<path d="M100.0835845754159,-269.9107228323457 L92.54284013865737,-267.4725989680988" fill-opacity="0" stroke="rgb(0,0,0)" stroke-width="7.9875195007800315" />
<path d="M38.17660926815461,-113.00204965924007 L52.99900584347736,-93.30151270631552" fill-opacity="0" stroke="rgb(0,0,0)" stroke-width="7.9875195007800315" />
<path d="M-440.46890196050913,-75.82044687991456 L-442.3955123326043,-53.331917403368266" fill-opacity="0" stroke="rgb(0,0,0)" stroke-width="7.9875195007800315" />
<path d="M-218.66143095759327,-294.5546035329736 L-223.75190633074791,-288.3249880724667" fill-opacity="0" stroke="rgb(0,0,0)" stroke-width="7.9875195007800315" />
<path d="M-1.0309700492122002e-14,-183.28750576979849 L-8.569316209872523e-15,-197.4988219097761" fill-opacity="0" stroke="rgb(0,0,0)" stroke-width="7.9875195007800315" />
<path d="M-34.5320589779322,72.1559211832097 L-38.28616294917319,47.19951430317988" fill-opacity="0" stroke="rgb(0,0,0)" stroke-width="7.9875195007800315" />
<path d="M-81.9545934934718,-289.8161498660609 L-83.91835842058144,-292.02351331270324" fill-opacity="0" stroke="rgb(0,0,0)" stroke-width="7.9875195007800315" />
<path d="M259.22367631841337,259.5110998770069 L241.3800983546762,275.2569565085648" fill-opacity="0" stroke="rgb(0,0,0)" stroke-width="7.9875195007800315" />
<path d="M-326.49221866714066,-90.28504099789893 L-343.40859386896705,-122.69230058904668" fill-opacity="0" stroke="rgb(0,0,0)" stroke-width="7.9875195007800315" />
<path d="M-334.26009872469024,-265.92540446019893 L-331.4193363179038,-281.242862614111" fill-opacity="0" stroke="rgb(0,0,0)" stroke-width="7.9875195007800315" />
<path d="M-194.21925564854672,282.01056343759456 L-207.65708247700775,276.87615249398823" fill-opacity="0" stroke="rgb(0,0,0)" stroke-width="7.9875195007800315" />
<path d="M-258.056509223372,-2.83276818319815 L-222.9396473766061,-4.584861173524467" fill-opacity="0" stroke="rgb(0,0,0)" stroke-width="7.9875195007800315" />
<path d="M-261.51543905845784,142.9043004794175 L-289.6192679139663,139.43853581625234" fill-opacity="0" stroke="rgb(0,0,0)" stroke-width="7.9875195007800315" />
<path d="M-382.39899455106035,4.741847036471597 L-382.55710122325144,-8.198024089163255" fill-opacity="0" stroke="rgb(0,0,0)" stroke-width="7.9875195007800315" />
<path d="M199.39132163184686,282.72808195339735 L214.0374289662422,281.4172541657471" fill-opacity="0" stroke="rgb(0,0,0)" stroke-width="7.9875195007800315" />
<path d="M-274.231967980593,30.83173108821225 L-269.015509724074,37.867449935870184" fill-opacity="0" stroke="rgb(0,0,0)" stroke-width="7.9875195007800315" />
<path d="M-185.71330105685877,-137.16651807372557 L-211.9909256781333,-162.82468630960125" fill-opacity="0" stroke="rgb(0,0,0)" stroke-width="7.9875195007800315" />
<path d="M-329.31761661338317,-289.8177431572421 L-340.0247907286209,-300.9494662029053" fill-opacity="0" stroke="rgb(0,0,0)" stroke-width="7.9875195007800315" />
<path d="M55.607331142621206,440.28478130502657 L60.14389670619466,433.08503097572213" fill-opacity="0" stroke="rgb(0,0,0)" stroke-width="7.9875195007800315" />
<path d="M-167.68240570510935,-399.2705178599677 L-167.0639054030304,-418.85953264417236" fill-opacity="0" stroke="rgb(0,0,0)" stroke-width="7.9875195007800315" />
<path d="M48.53075959924917,-383.39388923721833 L59.283428110636656,-378.2312123262817" fill-opacity="0" stroke="rgb(0,0,0)" stroke-width="7.9875195007800315" />
<path d="M-273.96418815790594,-171.0174829143344 L-281.6523561455812,-181.36553775053062" fill-opacity="0" stroke="rgb(0,0,0)" stroke-width="7.9875195007800315" />
<path d="M-174.4218016254809,197.28203670566455 L-158.30022611075094,205.81194786740522" fill-opacity="0" stroke="rgb(0,0,0)" stroke-width="7.9875195007800315" />
<path d="M280.81786398894616,83.21985710992668 L302.25160505970996,90.62826971917706" fill-opacity="0" stroke="rgb(0,0,0)" stroke-width="7.9875195007800315" />
<path d="M44.92379491466252,9.484806129248598 L49.85749884468754,4.740050237118737" fill-opacity="0" stroke="rgb(0,0,0)" stroke-width="7.9875195007800315" />
<path d="M59.23390825661933,449.88266312400043 L61.708636049621646,419.8160977105668" fill-opacity="0" stroke="rgb(0,0,0)" stroke-width="7.9875195007800315" />
<path d="M6.559438726012933,511.05663452013954 L11.519307128242323,502.7657491615836" fill-opacity="0" stroke="rgb(0,0,0)" stroke-width="7.9875195007800315" />
<path d="M-380.5394874364816,165.22852573005974 L-357.01721284164273,142.2209082117333" fill-opacity="0" stroke="rgb(0,0,0)" stroke-width="7.9875195007800315" />
<path d="M104.72082991956108,-67.39565517541509 L98.03717151494985,-88.68733523600872" fill-opacity="0" stroke="rgb(0,0,0)" stroke-width="7.9875195007800315" />
<path d="M-88.81924340027624,-417.0602608819464 L-80.24631511840083,-409.18202360701906" fill-opacity="0" stroke="rgb(0,0,0)" stroke-width="7.9875195007800315" />
<path d="M316.4638704092733,-347.2305467691702 L304.3732363902755,-349.2281787438122" fill-opacity="0" stroke="rgb(0,0,0)" stroke-width="7.9875195007800315" />
<path d="M278.5101027472279,-294.88627076536363 L279.5711102017321,-303.28358309557194" fill-opacity="0" stroke="rgb(0,0,0)" stroke-width="7.9875195007800315" />
<path d="M-157.91882083589942,122.75621389360755 L-141.72609605141324,124.0203732021955" fill-opacity="0" stroke="rgb(0,0,0)" stroke-width="7.9875195007800315" />
<path d="M-371.8199512939719,-274.15302795010973 L-384.3414560900891,-287.73091342766486" fill-opacity="0" stroke="rgb(0,0,0)" stroke-width="7.9875195007800315" />
<path d="M111.29096462679786,159.8258163447846 L119.8529900226032,175.1514929121179" fill-opacity="0" stroke="rgb(0,0,0)" stroke-width="7.9875195007800315" />
<path d="M-97.63215595415443,-90.9778349056002 L-127.29593692296021,-86.61133094929035" fill-opacity="0" stroke="rgb(0,0,0)" stroke-width="7.9875195007800315" />
<path d="M-241.53458836491376,104.56779417394026 L-251.66792210546953,85.3413195811143" fill-opacity="0" stroke="rgb(0,0,0)" stroke-width="7.9875195007800315" />
<path d="M76.76506678055341,-48.3044899965748 L81.28383866414495,-38.17957749971694" fill-opacity="0" stroke="rgb(0,0,0)" stroke-width="7.9875195007800315" />
<path d="M145.7235470386018,267.47259896809885 L164.25331174420762,267.47259896809885" fill-opacity="0" stroke="rgb(0,0,0)" stroke-width="7.9875195007800315" />
<path d="M-12.021378859395554,42.76849590829681 L-28.350920727371204,60.36400356407478" fill-opacity="0" stroke="rgb(0,0,0)" stroke-width="7.9875195007800315" />
<path d="M66.25244678973121,-167.95532858904187 L99.764283421691,-161.39740565633895" fill-opacity="0" stroke="rgb(0,0,0)" stroke-width="7.9875195007800315" />
<path d="M-28.033640507870224,23.0820347355522 L-32.785093137590444,44.70126634979661" fill-opacity="0" stroke="rgb(0,0,0)" stroke-width="7.9875195007800315" />
<path d="M-204.2608841868739,95.82606006705224 L-196.7223140740939,89.42825435113075" fill-opacity="0" stroke="rgb(0,0,0)" stroke-width="7.9875195007800315" />
<path d="M196.18129529344463,-182.65459720540358 L213.38312069081582,-179.88317050263186" fill-opacity="0" stroke="rgb(0,0,0)" stroke-width="7.9875195007800315" />
<path d="M441.92550525655173,279.7993885145661 L457.6600171232864,270.7150638527395" fill-opacity="0" stroke="rgb(0,0,0)" stroke-width="7.9875195007800315" />
<path d="M-265.4536681185287,34.551104652762525 L-256.73837866913544,15.497650320075863" fill-opacity="0" stroke="rgb(0,0,0)" stroke-width="7.9875195007800315" />
<path d="M82.55163376154582,89.10060225313023 L90.6392186278868,89.77939393351625" fill-opacity="0" stroke="rgb(0,0,0)" stroke-width="7.9875195007800315" />
<path d="M-161.50430361361092,-417.81479457833643 L-177.25966519773158,-405.6318121280935" fill-opacity="0" stroke="rgb(0,0,0)" stroke-width="7.9875195007800315" />
<path d="M-265.278713687458,-341.90802610087735 L-282.5329015552871,-367.0122937294193" fill-opacity="0" stroke="rgb(0,0,0)" stroke-width="7.9875195007800315" />
<path d="M-312.2353939301823,13.52925203316613 L-299.8154619069194,-6.846134087055219" fill-opacity="0" stroke="rgb(0,0,0)" stroke-width="7.9875195007800315" />
<path d="M6.545206550386476,-3.7788767637674017 L21.70990547417066,-12.534219769593825" fill-opacity="0" stroke="rgb(0,0,0)" stroke-width="7.9875195007800315" />
<path d="M-260.60470373484037,313.7130775862689 L-246.33734648746346,318.21015688063113" fill-opacity="0" stroke="rgb(0,0,0)" stroke-width="7.9875195007800315" />
<path d="M163.65608851875675,6.905088310847262 L149.04922487918066,10.408728436622738" fill-opacity="0" stroke="rgb(0,0,0)" stroke-width="7.9875195007800315" />
<path d="M-197.00286601813553,193.7262247561025 L-200.64464527020948,195.58207585052907" fill-opacity="0" stroke="rgb(0,0,0)" stroke-width="7.9875195007800315" />
<path d="M-157.65384173554756,-168.20753867072216 L-168.97967389931716,-153.28122513950282" fill-opacity="0" stroke="rgb(0,0,0)" stroke-width="7.9875195007800315" />
<path d="M-228.93591140530208,-138.41656770512725 L-219.05243153101108,-155.5352570029837" fill-opacity="0" stroke="rgb(0,0,0)" stroke-width="7.9875195007800315" />
<path d="M119.04637266679629,-29.52248101268799 L141.34180824756476,-6.513820326914754" fill-opacity="0" stroke="rgb(0,0,0)" stroke-width="7.9875195007800315" />
<path d="M221.55758900215662,155.1077436632835 L232.0912061805312,135.4947821543172" fill-opacity="0" stroke="rgb(0,0,0)" stroke-width="7.9875195007800315" />
<path d="M-272.69410794898283,98.91984974163803 L-243.21610973184173,84.720101716163" fill-opacity="0" stroke="rgb(0,0,0)" stroke-width="7.9875195007800315" />
<path d="M210.18542546235997,243.3383901174319 L221.21174640137622,254.82106434679687" fill-opacity="0" stroke="rgb(0,0,0)" stroke-width="7.9875195007800315" />
<path d="M19.316604455222794,-293.39542745618803 L20.87694965494452,-277.8227088809447" fill-opacity="0" stroke="rgb(0,0,0)" stroke-width="7.9875195007800315" />
<path d="M-413.152995558929,-180.9757788729418 L-398.2005209091917,-167.43939600927285" fill-opacity="0" stroke="rgb(0,0,0)" stroke-width="7.9875195007800315" />
<path d="M215.1718307663064,-292.4997704757103 L211.2844939920107,-307.13942695690946" fill-opacity="0" stroke="rgb(0,0,0)" stroke-width="7.9875195007800315" />
<path d="M118.31140826891507,310.32024388179485 L111.93346060222699,302.89379860640156" fill-opacity="0" stroke="rgb(0,0,0)" stroke-width="7.9875195007800315" />
<path d="M20.13223287124009,-389.77855635209045 L33.95748882939969,-388.24034196936014" fill-opacity="0" stroke="rgb(0,0,0)" stroke-width="7.9875195007800315" />
<path d="M-360.4006459293265,-60.35794745594623 L-357.91128641449245,-73.24859485846085" fill-opacity="0" stroke="rgb(0,0,0)" stroke-width="7.9875195007800315" />
<path d="M330.7625768925957,224.52562190345367 L326.47021434738656,237.67670898370136" fill-opacity="0" stroke="rgb(0,0,0)" stroke-width="7.9875195007800315" />
<path d="M299.8890894720338,52.246567321799375 L288.9954217771941,78.07220533559212" fill-opacity="0" stroke="rgb(0,0,0)" stroke-width="7.9875195007800315" />
<path d="M-155.26794206700242,150.84870138162924 L-146.70506728000393,159.93022366824093" fill-opacity="0" stroke="rgb(0,0,0)" stroke-width="7.9875195007800315" />
<path d="M177.17588418126178,-269.2928218506203 L168.52680667630298,-275.62473032391654" fill-opacity="0" stroke="rgb(0,0,0)" stroke-width="7.9875195007800315" />
<path d="M263.4337981122051,66.0899667555858 L264.7566980254757,52.44021300945384" fill-opacity="0" stroke="rgb(0,0,0)" stroke-width="7.9875195007800315" />
<path d="M422.59690966363183,39.76401380078306 L462.7433728081017,50.59062203483015" fill-opacity="0" stroke="rgb(0,0,0)" stroke-width="7.9875195007800315" />
<path d="M243.81360158562615,372.2095298891943 L261.06757926235883,372.38870660060826" fill-opacity="0" stroke="rgb(0,0,0)" stroke-width="7.9875195007800315" />
<path d="M197.0562899438829,-406.7845636622603 L191.87171827082548,-411.4126545651343" fill-opacity="0" stroke="rgb(0,0,0)" stroke-width="7.9875195007800315" />
<path d="M-8.509700013530903,32.78443242555888 L-19.45215922690369,30.671250913611516" fill-opacity="0" stroke="rgb(0,0,0)" stroke-width="7.9875195007800315" />
<path d="M-356.0373840384181,154.49723796455024 L-351.2337482512784,143.02943687640436" fill-opacity="0" stroke="rgb(0,0,0)" stroke-width="7.9875195007800315" />
<path d="M-216.7344767341724,339.8551877027894 L-211.8093153310366,361.3655562557495" fill-opacity="0" stroke="rgb(0,0,0)" stroke-width="7.9875195007800315" />
<path d="M-275.027201070092,222.62956825538055 L-244.92092738478053,202.33565591186473" fill-opacity="0" stroke="rgb(0,0,0)" stroke-width="7.9875195007800315" />
<path d="M315.166287600217,-214.7452822156665 L346.2160365567585,-223.8931083114307" fill-opacity="0" stroke="rgb(0,0,0)" stroke-width="7.9875195007800315" />
<path d="M-25.024885285898335,203.77668106754555 L-56.151911594451065,208.30228835667685" fill-opacity="0" stroke="rgb(0,0,0)" stroke-width="7.9875195007800315" />
<path d="M183.1026187833932,-298.7656734243642 L181.5884166614384,-287.0311355623203" fill-opacity="0" stroke="rgb(0,0,0)" stroke-width="7.9875195007800315" />
<path d="M-21.62714251215843,-51.008864135362614 L-1.6430614666186898,-43.38329953460513" fill-opacity="0" stroke="rgb(0,0,0)" stroke-width="7.9875195007800315" />
<path d="M316.6400474462597,331.38012815615764 L287.15036857644964,327.5036638073363" fill-opacity="0" stroke="rgb(0,0,0)" stroke-width="7.9875195007800315" />
<path d="M139.95398618122175,-240.03518225498124 L162.81136601342251,-259.82579454519987" fill-opacity="0" stroke="rgb(0,0,0)" stroke-width="7.9875195007800315" />
<path d="M-63.91074385550627,329.0080102875867 L-38.30607126818887,324.5978309996801" fill-opacity="0" stroke="rgb(0,0,0)" stroke-width="7.9875195007800315" />
<path d="M-133.51811302328696,-457.85847944051187 L-128.92325811570308,-460.51132015829273" fill-opacity="0" stroke="rgb(0,0,0)" stroke-width="7.9875195007800315" />
<path d="M122.74565271487901,106.5923347693811 L131.37404356251298,95.49406401496992" fill-opacity="0" stroke="rgb(0,0,0)" stroke-width="7.9875195007800315" />
<path d="M-303.39561123480894,-46.78861209997342 L-292.4054047331032,-60.40259810233269" fill-opacity="0" stroke="rgb(0,0,0)" stroke-width="7.9875195007800315" />
<path d="M-382.0868321754048,-209.65893443077778 L-380.04702422447224,-219.4202517407154" fill-opacity="0" stroke="rgb(0,0,0)" stroke-width="7.9875195007800315" />
<path d="M463.27613104524175,167.21086240002177 L463.2761310452418,155.98639757943164" fill-opacity="0" stroke="rgb(0,0,0)" stroke-width="7.9875195007800315" />
<path d="M-448.14515649043324,36.392878925065304 L-463.27613104524187,28.74314369623164" fill-opacity="0" stroke="rgb(0,0,0)" stroke-width="7.9875195007800315" />
<path d="M-342.3606832262074,57.60068943769283 L-332.95250890509027,32.63147116262847" fill-opacity="0" stroke="rgb(0,0,0)" stroke-width="7.9875195007800315" />
<path d="M-350.2576818293864,216.33543347891467 L-349.6540985258471,213.89087908340267" fill-opacity="0" stroke="rgb(0,0,0)" stroke-width="7.9875195007800315" />
<path d="M207.76233117649926,262.18257259963747 L218.0225193454389,250.31528919936693" fill-opacity="0" stroke="rgb(0,0,0)" stroke-width="7.9875195007800315" />
<path d="M-169.03022286019794,-126.96119811975902 L-162.75438338700278,-114.4221175181464" fill-opacity="0" stroke="rgb(0,0,0)" stroke-width="7.9875195007800315" />
<path d="M4.9616866939597246e-15,-307.9878454654091 L-9.4234112285882,-308.5298316273918" fill-opacity="0" stroke="rgb(0,0,0)" stroke-width="7.9875195007800315" />
<path d="M-231.35536995293648,346.1063103215445 L-226.4803065555977,362.86591872336413" fill-opacity="0" stroke="rgb(0,0,0)" stroke-width="7.9875195007800315" />
<path d="M374.370360234375,199.82639268391938 L366.06967487184477,180.3365122599838" fill-opacity="0" stroke="rgb(0,0,0)" stroke-width="7.9875195007800315" />
<path d="M226.80310849386473,244.9980814929885 L242.4817866766565,267.47259896809885" fill-opacity="0" stroke="rgb(0,0,0)" stroke-width="7.9875195007800315" />
<path d="M62.43291518890288,-312.344413293809 L63.172228683425885,-333.57753476065477" fill-opacity="0" stroke="rgb(0,0,0)" stroke-width="7.9875195007800315" />
<path d="M123.82114892268206,-105.32054828698588 L141.59253925781798,-118.00076763424457" fill-opacity="0" stroke="rgb(0,0,0)" stroke-width="7.9875195007800315" />
<path d="M-309.96265758882043,1.9258734567140436 L-318.18427543064934,16.166133279176563" fill-opacity="0" stroke="rgb(0,0,0)" stroke-width="7.9875195007800315" />
<path d="M258.93174439353476,40.58472274553196 L265.12287412709804,60.14476985837632" fill-opacity="0" stroke="rgb(0,0,0)" stroke-width="7.9875195007800315" />
<path d="M-222.1679890823029,-150.1389530302414 L-232.58704616773397,-132.0926167913143" fill-opacity="0" stroke="rgb(0,0,0)" stroke-width="7.9875195007800315" />
<path d="M-276.8208432417756,-375.12260957325924 L-263.0526567856828,-383.07167572993734" fill-opacity="0" stroke="rgb(0,0,0)" stroke-width="7.9875195007800315" />
<path d="M44.09723915883637,-421.39381108077396 L62.331766948259485,-431.5797584335362" fill-opacity="0" stroke="rgb(0,0,0)" stroke-width="7.9875195007800315" />
<path d="M242.2825819832817,237.1751586490728 L219.49403308224385,238.91413289764412" fill-opacity="0" stroke="rgb(0,0,0)" stroke-width="7.9875195007800315" />
<path d="M-91.3073768549616,9.407429480378342 L-109.9469384654941,8.992147444859304" fill-opacity="0" stroke="rgb(0,0,0)" stroke-width="7.9875195007800315" />
<path d="M127.08445057874957,-119.78532454855105 L119.47437771989377,-118.10685482227112" fill-opacity="0" stroke="rgb(0,0,0)" stroke-width="7.9875195007800315" />
<path d="M93.62471374520726,-135.13981490763086 L82.64967682865222,-155.71012297844646" fill-opacity="0" stroke="rgb(0,0,0)" stroke-width="7.9875195007800315" />
<path d="M65.5569382344375,-15.364127713268388 L50.110307757624014,-16.692037758158953" fill-opacity="0" stroke="rgb(0,0,0)" stroke-width="7.9875195007800315" />
<path d="M-288.3810842952731,265.58256107056997 L-281.8428144266659,289.6601003296775" fill-opacity="0" stroke="rgb(0,0,0)" stroke-width="7.9875195007800315" />
<path d="M123.98995734751645,-128.41699151254704 L110.55552589608972,-118.28930680030066" fill-opacity="0" stroke="rgb(0,0,0)" stroke-width="7.9875195007800315" />
<path d="M291.3062728878921,-365.61542749797144 L288.10128045883823,-353.8139221318723" fill-opacity="0" stroke="rgb(0,0,0)" stroke-width="7.9875195007800315" />
<path d="M148.38858086388262,317.0401213561223 L164.5649746971151,303.00577837915796" fill-opacity="0" stroke="rgb(0,0,0)" stroke-width="7.9875195007800315" />
<path d="M88.99097552517267,-348.0781708246182 L105.59345556710716,-345.42996573450637" fill-opacity="0" stroke="rgb(0,0,0)" stroke-width="7.9875195007800315" />
<path d="M169.50102388426325,-240.72989326848347 L151.5011158775186,-243.73618026597313" fill-opacity="0" stroke="rgb(0,0,0)" stroke-width="7.9875195007800315" />
<path d="M-273.79010254318507,-349.0645794359258 L-263.2584174626194,-359.0732979128966" fill-opacity="0" stroke="rgb(0,0,0)" stroke-width="7.9875195007800315" />
<path d="M-14.359994686250587,-436.84391683989276 L-6.44704181777081,-431.4447211545396" fill-opacity="0" stroke="rgb(0,0,0)" stroke-width="7.9875195007800315" />
<path d="M-15.264599075185288,47.373576002024436 L-1.0187341813284831,15.79900514049018" fill-opacity="0" stroke="rgb(0,0,0)" stroke-width="7.9875195007800315" />
<path d="M52.08644235910134,137.83562023939558 L40.817553625111714,128.31049030762554" fill-opacity="0" stroke="rgb(0,0,0)" stroke-width="7.9875195007800315" />
<path d="M149.5039215789106,236.64126468566403 L157.2228816335766,240.71779007219033" fill-opacity="0" stroke="rgb(0,0,0)" stroke-width="7.9875195007800315" />
<path d="M125.63817286092677,-192.99438627534326 L87.45634458187783,-204.88172491740045" fill-opacity="0" stroke="rgb(0,0,0)" stroke-width="7.9875195007800315" />
<path d="M72.3931739517435,333.7669656568804 L57.99054699782653,351.920148586799" fill-opacity="0" stroke="rgb(0,0,0)" stroke-width="7.9875195007800315" />
<path d="M-32.637945980589336,-307.8950407537114 L-20.65593775713546,-326.9596366800458" fill-opacity="0" stroke="rgb(0,0,0)" stroke-width="7.9875195007800315" />
<path d="M-225.21650621886573,-189.9587146013433 L-244.4752479596806,-178.81284823730024" fill-opacity="0" stroke="rgb(0,0,0)" stroke-width="7.9875195007800315" />
<path d="M89.00692518664948,100.01638353705329 L104.57032451007245,112.72558239998511" fill-opacity="0" stroke="rgb(0,0,0)" stroke-width="7.9875195007800315" />
<path d="M397.31918407820297,157.92746856217155 L392.7832173681379,149.55284334099414" fill-opacity="0" stroke="rgb(0,0,0)" stroke-width="7.9875195007800315" />
<path d="M374.5982503947758,-216.2744007033865 L391.3282715269809,-225.93348290761327" fill-opacity="0" stroke="rgb(0,0,0)" stroke-width="7.9875195007800315" />
<path d="M167.13741902098724,212.99618979211627 L204.9275813559122,220.8697652006486" fill-opacity="0" stroke="rgb(0,0,0)" stroke-width="7.9875195007800315" />
<path d="M-405.11937019922044,161.53162106495031 L-380.20352043156026,163.94804998713366" fill-opacity="0" stroke="rgb(0,0,0)" stroke-width="7.9875195007800315" />
<path d="M-365.38321696996763,261.2479497356666 L-360.9419476408448,261.59072467687326" fill-opacity="0" stroke="rgb(0,0,0)" stroke-width="7.9875195007800315" />
<path d="M25.89860571847126,-134.58155585865808 L15.2802072691712,-124.74808234262878" fill-opacity="0" stroke="rgb(0,0,0)" stroke-width="7.9875195007800315" />
<path d="M-135.30076254275934,-133.92464384369038 L-176.51150968626996,-155.52314149886843" fill-opacity="0" stroke="rgb(0,0,0)" stroke-width="7.9875195007800315" />
<path d="M374.3286157441872,86.66401728906456 L357.13569580046186,83.24482595476772" fill-opacity="0" stroke="rgb(0,0,0)" stroke-width="7.9875195007800315" />
<path d="M-255.03397266250627,4.653298612660791 L-258.5099689506079,16.748805093164776" fill-opacity="0" stroke="rgb(0,0,0)" stroke-width="7.9875195007800315" />
<path d="M33.40386627386579,162.62647479080144 L52.894924048319865,150.6436695184635" fill-opacity="0" stroke="rgb(0,0,0)" stroke-width="7.9875195007800315" />
<path d="M54.301646335249416,96.55813799789775 L39.58008257457266,108.29241482810704" fill-opacity="0" stroke="rgb(0,0,0)" stroke-width="7.9875195007800315" />
<path d="M-175.86920594736395,225.87025552034117 L-185.8552036561898,209.10965921102246" fill-opacity="0" stroke="rgb(0,0,0)" stroke-width="7.9875195007800315" />
<path d="M-61.0214018095417,-59.11534692936374 L-56.34802446825487,-66.36364984688434" fill-opacity="0" stroke="rgb(0,0,0)" stroke-width="7.9875195007800315" />
<path d="M-53.34362731641259,273.92930537641894 L-48.96345977877007,261.9210230177101" fill-opacity="0" stroke="rgb(0,0,0)" stroke-width="7.9875195007800315" />
<path d="M92.6234435647291,-216.70549718976648 L79.82594428830303,-216.21348418273547" fill-opacity="0" stroke="rgb(0,0,0)" stroke-width="7.9875195007800315" />
<path d="M-186.98711868690935,-211.07400800955878 L-197.5660446813148,-192.75077069773747" fill-opacity="0" stroke="rgb(0,0,0)" stroke-width="7.9875195007800315" />
<path d="M249.8028876364994,285.33193143171883 L239.3379434404784,299.3179178853518" fill-opacity="0" stroke="rgb(0,0,0)" stroke-width="7.9875195007800315" />
<path d="M-332.3517240848835,-142.7166558266344 L-333.1443694337039,-136.78294690047446" fill-opacity="0" stroke="rgb(0,0,0)" stroke-width="7.9875195007800315" />
<path d="M-140.542339092803,-233.88786606479 L-145.27501815907647,-210.07039272462393" fill-opacity="0" stroke="rgb(0,0,0)" stroke-width="7.9875195007800315" />
<path d="M106.27557487204547,461.4545989034325 L100.34283465462914,467.3492767396108" fill-opacity="0" stroke="rgb(0,0,0)" stroke-width="7.9875195007800315" />
<path d="M-370.14561881710426,-172.51725840606466 L-379.8064073913718,-188.2123399550422" fill-opacity="0" stroke="rgb(0,0,0)" stroke-width="7.9875195007800315" />
<path d="M-463.27613104524187,-54.24599031674579 L-463.27613104524187,-45.69895920441206" fill-opacity="0" stroke="rgb(0,0,0)" stroke-width="7.9875195007800315" />
<path d="M280.81681026175653,55.72081430010877 L282.18967580403154,55.71984768321558" fill-opacity="0" stroke="rgb(0,0,0)" stroke-width="7.9875195007800315" />
<path d="M-189.81518199326476,-218.257189835777 L-189.27084097855226,-224.06942767303298" fill-opacity="0" stroke="rgb(0,0,0)" stroke-width="7.9875195007800315" />
<path d="M-221.48770113539564,-41.525792056768466 L-211.26185281551483,-16.513375865356295" fill-opacity="0" stroke="rgb(0,0,0)" stroke-width="7.9875195007800315" />
<path d="M429.176329938733,139.35609342396435 L418.85306954880286,123.82307976882096" fill-opacity="0" stroke="rgb(0,0,0)" stroke-width="7.9875195007800315" />
<path d="M330.7567158322948,118.21256078131854 L290.37492595904223,124.76956843014453" fill-opacity="0" stroke="rgb(0,0,0)" stroke-width="7.9875195007800315" />
<path d="M-33.61332798131488,460.69462853009844 L-53.4112502022366,440.88048993361974" fill-opacity="0" stroke="rgb(0,0,0)" stroke-width="7.9875195007800315" />
<path d="M253.35275638437935,229.74064073290725 L241.51306800540496,232.28121001284882" fill-opacity="0" stroke="rgb(0,0,0)" stroke-width="7.9875195007800315" />
<path d="M-42.79809525015813,-329.3880591947834 L-40.32042537317893,-298.5708587960959" fill-opacity="0" stroke="rgb(0,0,0)" stroke-width="7.9875195007800315" />
<path d="M203.4317460142514,1.8155757735980274 L177.33061157110745,32.209195410201005" fill-opacity="0" stroke="rgb(0,0,0)" stroke-width="7.9875195007800315" />
<path d="M-360.8288600394424,50.26349652181139 L-346.74419081883144,28.130035197125665" fill-opacity="0" stroke="rgb(0,0,0)" stroke-width="7.9875195007800315" />
<path d="M60.732769761936254,26.26683775649292 L53.6068720193432,7.11005071823007" fill-opacity="0" stroke="rgb(0,0,0)" stroke-width="7.9875195007800315" />
<path d="M162.77370123286843,-133.83312922950125 L151.10318271449435,-124.13994103466615" fill-opacity="0" stroke="rgb(0,0,0)" stroke-width="7.9875195007800315" />
<path d="M-30.535935634704195,-4.535049684526532 L-29.335360328148298,6.852606736164155" fill-opacity="0" stroke="rgb(0,0,0)" stroke-width="7.9875195007800315" />
<path d="M303.87976742792125,8.610001358823865 L312.45679585548277,-6.245847655675277" fill-opacity="0" stroke="rgb(0,0,0)" stroke-width="7.9875195007800315" />
<path d="M-287.6118014533835,84.3336515489201 L-314.21615896189746,117.62074229732775" fill-opacity="0" stroke="rgb(0,0,0)" stroke-width="7.9875195007800315" />
<path d="M252.92404643760074,-96.86789905036272 L245.19559565580042,-110.25396846823628" fill-opacity="0" stroke="rgb(0,0,0)" stroke-width="7.9875195007800315" />
<path d="M310.7643390348003,60.5943833510837 L278.50620898900627,47.296791865654384" fill-opacity="0" stroke="rgb(0,0,0)" stroke-width="7.9875195007800315" />
<path d="M-49.73607947460698,310.04784057114955 L-39.66674642137022,312.97378039722224" fill-opacity="0" stroke="rgb(0,0,0)" stroke-width="7.9875195007800315" />
<path d="M-357.15840263939987,84.00633928686085 L-345.3771677843735,90.89380660036328" fill-opacity="0" stroke="rgb(0,0,0)" stroke-width="7.9875195007800315" />
<path d="M-233.36851498732807,105.61478464134208 L-241.2180057399259,85.36242800393828" fill-opacity="0" stroke="rgb(0,0,0)" stroke-width="7.9875195007800315" />
<path d="M-73.8541711653076,266.0387905593436 L-48.46754320870295,253.98501815836238" fill-opacity="0" stroke="rgb(0,0,0)" stroke-width="7.9875195007800315" />
<path d="M-158.91052365608107,334.70518146660555 L-175.9446011383447,330.38959154582636" fill-opacity="0" stroke="rgb(0,0,0)" stroke-width="7.9875195007800315" />
<path d="M12.135578346994738,446.58644333079803 L10.840681431324455,440.6020299627844" fill-opacity="0" stroke="rgb(0,0,0)" stroke-width="7.9875195007800315" />
<path d="M154.66940212175814,24.8913358892864 L161.42739906744308,24.50914719639339" fill-opacity="0" stroke="rgb(0,0,0)" stroke-width="7.9875195007800315" />
<path d="M54.87881054992414,-24.286986466123096 L51.274577425403535,-40.233356000946856" fill-opacity="0" stroke="rgb(0,0,0)" stroke-width="7.9875195007800315" />
<path d="M-266.4651605134854,194.81889458266397 L-266.1340564972331,190.8481025022113" fill-opacity="0" stroke="rgb(0,0,0)" stroke-width="7.9875195007800315" />
<path d="M-280.95660636968864,-5.48133533153532 L-289.1244681373407,-21.7517294197591" fill-opacity="0" stroke="rgb(0,0,0)" stroke-width="7.9875195007800315" />
<path d="M-387.1485709998789,-158.77451157200204 L-404.3559950570095,-165.41992984761305" fill-opacity="0" stroke="rgb(0,0,0)" stroke-width="7.9875195007800315" />
<path d="M-128.66351302563322,281.7255621338124 L-102.64620981420687,282.47784701870256" fill-opacity="0" stroke="rgb(0,0,0)" stroke-width="7.9875195007800315" />
<path d="M-459.8562268839551,-179.5193571939348 L-460.3517756333429,-177.05278916991645" fill-opacity="0" stroke="rgb(0,0,0)" stroke-width="7.9875195007800315" />
<path d="M-3.2003885029683374,-198.25426331063153 L-4.856038508879507,-162.19667084633323" fill-opacity="0" stroke="rgb(0,0,0)" stroke-width="7.9875195007800315" />
<path d="M3.737959661858818e-16,-270.524874664619 L8.253091890743852,-258.424791369299" fill-opacity="0" stroke="rgb(0,0,0)" stroke-width="7.9875195007800315" />
<path d="M312.579932418735,-89.04333994964139 L321.43471936715923,-61.22220925084042" fill-opacity="0" stroke="rgb(0,0,0)" stroke-width="7.9875195007800315" />
<path d="M140.18543810758086,267.47259896809885 L154.19450599418718,267.47259896809885" fill-opacity="0" stroke="rgb(0,0,0)" stroke-width="7.9875195007800315" />
<path d="M-270.4352087860565,-38.04179118796837 L-264.5759781268279,-27.901767305289873" fill-opacity="0" stroke="rgb(0,0,0)" stroke-width="7.9875195007800315" />
<path d="M-153.11009064003173,120.6719467238631 L-164.82171522539977,110.27586482298156" fill-opacity="0" stroke="rgb(0,0,0)" stroke-width="7.9875195007800315" />
<path d="M67.90309562005885,24.45919191495463 L43.38533879194705,49.04407666788475" fill-opacity="0" stroke="rgb(0,0,0)" stroke-width="7.9875195007800315" />
<path d="M263.67483831045064,104.74512464072949 L258.3291664266841,117.1120747602914" fill-opacity="0" stroke="rgb(0,0,0)" stroke-width="7.9875195007800315" />
<path d="M-15.667756277336082,194.20695718628875 L-29.81898625485212,199.711488791688" fill-opacity="0" stroke="rgb(0,0,0)" stroke-width="7.9875195007800315" />
<path d="M252.83018975334966,267.4725989680989 L256.0705346837567,267.4725989680989" fill-opacity="0" stroke="rgb(0,0,0)" stroke-width="7.9875195007800315" />
<path d="M140.54360709046733,252.31961414855465 L163.6999282253053,272.84792028302553" fill-opacity="0" stroke="rgb(0,0,0)" stroke-width="7.9875195007800315" />
<path d="M6.029091239021352e-15,-316.70386502145425 L8.305995162643807e-15,-335.2961965019083" fill-opacity="0" stroke="rgb(0,0,0)" stroke-width="7.9875195007800315" />
<path d="M-12.395637815531643,-403.5149592239851 L12.913993005263535,-413.4262579036788" fill-opacity="0" stroke="rgb(0,0,0)" stroke-width="7.9875195007800315" />
<path d="M-192.6912065992724,358.8037767054583 L-179.99946208835124,364.4084070686484" fill-opacity="0" stroke="rgb(0,0,0)" stroke-width="7.9875195007800315" />
<path d="M-461.42695334232366,15.904556586240291 L-457.85594090908717,10.134486977108592" fill-opacity="0" stroke="rgb(0,0,0)" stroke-width="7.9875195007800315" />
<path d="M-67.75549452888515,-261.4094375703007 L-65.19049662291637,-249.31175460134003" fill-opacity="0" stroke="rgb(0,0,0)" stroke-width="7.9875195007800315" />
<path d="M401.5600709200366,73.22552940950757 L392.3479083415673,76.44529041785404" fill-opacity="0" stroke="rgb(0,0,0)" stroke-width="7.9875195007800315" />
<path d="M-202.8023936752032,-224.99532724995964 L-222.24321371947897,-198.8476948033794" fill-opacity="0" stroke="rgb(0,0,0)" stroke-width="7.9875195007800315" />
<path d="M-230.427088692861,-31.71367903580267 L-234.21503065652615,-46.5010750520579" fill-opacity="0" stroke="rgb(0,0,0)" stroke-width="7.9875195007800315" />
<path d="M-33.35701078306562,13.311707313652903 L-40.225003184266996,3.8664162971623455" fill-opacity="0" stroke="rgb(0,0,0)" stroke-width="7.9875195007800315" />
<path d="M216.9966967059615,-70.92803346680742 L201.86215734299353,-56.180541350488056" fill-opacity="0" stroke="rgb(0,0,0)" stroke-width="7.9875195007800315" />
<path d="M66.60204051083014,237.38096891240718 L84.88717290074493,225.45621924007676" fill-opacity="0" stroke="rgb(0,0,0)" stroke-width="7.9875195007800315" />
<path d="M270.54869801284167,8.4674136586479 L262.2167656270755,-14.913308903517532" fill-opacity="0" stroke="rgb(0,0,0)" stroke-width="7.9875195007800315" />
<path d="M-109.13578175367974,-232.20250998208456 L-91.25044046747439,-251.02404557791994" fill-opacity="0" stroke="rgb(0,0,0)" stroke-width="7.9875195007800315" />
<path d="M253.08850939777108,328.28990124856455 L241.60992419483873,330.3556196594461" fill-opacity="0" stroke="rgb(0,0,0)" stroke-width="7.9875195007800315" />
<path d="M-269.43023715094705,-234.5752115536156 L-260.35197642843343,-248.47246678164453" fill-opacity="0" stroke="rgb(0,0,0)" stroke-width="7.9875195007800315" />
<path d="M-124.19075735013115,-399.1719143851949 L-137.09431051643736,-386.7186226423386" fill-opacity="0" stroke="rgb(0,0,0)" stroke-width="7.9875195007800315" />
<path d="M-7.808459261982486,341.5754897322235 L-7.262612477352461,314.1872245358661" fill-opacity="0" stroke="rgb(0,0,0)" stroke-width="7.9875195007800315" />
<path d="M-62.35553422625691,-473.6411876409115 L-64.67319174158565,-464.98971540376266" fill-opacity="0" stroke="rgb(0,0,0)" stroke-width="7.9875195007800315" />
<path d="M-8.88937341226603e-15,-194.8853565202749 L-2.8348476337008415,-183.13940792866444" fill-opacity="0" stroke="rgb(0,0,0)" stroke-width="7.9875195007800315" />
<path d="M44.7252823489887,306.3126664456991 L42.84579488901694,334.94744137394883" fill-opacity="0" stroke="rgb(0,0,0)" stroke-width="7.9875195007800315" />
<path d="M300.70638674302097,-133.84071202484574 L297.43303815354204,-107.09610758724116" fill-opacity="0" stroke="rgb(0,0,0)" stroke-width="7.9875195007800315" />
<path d="M340.4232290867261,210.6304361473568 L340.71076098224387,214.09717931682323" fill-opacity="0" stroke="rgb(0,0,0)" stroke-width="7.9875195007800315" />
<path d="M-12.208219332661605,-481.31586477177615 L-11.678730440175721,-455.86069556375935" fill-opacity="0" stroke="rgb(0,0,0)" stroke-width="7.9875195007800315" />
<path d="M-348.2856668740098,-123.32303219417705 L-344.4666623560516,-113.09713916042696" fill-opacity="0" stroke="rgb(0,0,0)" stroke-width="7.9875195007800315" />
<path d="M41.714673107454885,-463.84110543363727 L44.68310322629884,-466.08553014011153" fill-opacity="0" stroke="rgb(0,0,0)" stroke-width="7.9875195007800315" />
<path d="M-173.9401410363299,98.57501433248763 L-185.76410297412235,79.8174796658659" fill-opacity="0" stroke="rgb(0,0,0)" stroke-width="7.9875195007800315" />
<path d="M-112.30597922027539,-227.78551383020695 L-132.03807803562432,-232.8504944120794" fill-opacity="0" stroke="rgb(0,0,0)" stroke-width="7.9875195007800315" />
<path d="M-5.448461216280926,-482.0417494617504 L-16.589399526678882,-479.1083287529913" fill-opacity="0" stroke="rgb(0,0,0)" stroke-width="7.9875195007800315" />
<path d="M-88.96453267234719,32.17057438880374 L-77.76079930130388,46.469617822380656" fill-opacity="0" stroke="rgb(0,0,0)" stroke-width="7.9875195007800315" />
<path d="M124.42559930778518,207.14771486442555 L113.89630981257982,215.33521808928907" fill-opacity="0" stroke="rgb(0,0,0)" stroke-width="7.9875195007800315" />
<path d="M336.2756423903443,75.98239491457043 L325.1785386363209,85.19227991425103" fill-opacity="0" stroke="rgb(0,0,0)" stroke-width="7.9875195007800315" />
<path d="M-45.12534743949283,-276.31303763621685 L-32.13178493014095,-279.3050780710083" fill-opacity="0" stroke="rgb(0,0,0)" stroke-width="7.9875195007800315" />
<path d="M-29.82892969306812,430.7123419805091 L-18.70733704052941,438.48052992242333" fill-opacity="0" stroke="rgb(0,0,0)" stroke-width="7.9875195007800315" />
<path d="M393.9224517990211,-133.04629715189682 L367.96353497883126,-119.63053085114532" fill-opacity="0" stroke="rgb(0,0,0)" stroke-width="7.9875195007800315" />
<path d="M9.380093274398334,110.71608669766395 L5.22544579429001,113.49032149217149" fill-opacity="0" stroke="rgb(0,0,0)" stroke-width="7.9875195007800315" />
<path d="M23.555875189070253,455.11823153344926 L25.130840619048143,478.0108945584083" fill-opacity="0" stroke="rgb(0,0,0)" stroke-width="7.9875195007800315" />
<path d="M-351.20993507284675,76.94069941255924 L-359.2435552717692,90.20718689668979" fill-opacity="0" stroke="rgb(0,0,0)" stroke-width="7.9875195007800315" />
<path d="M79.89077533753333,-82.84171376026812 L91.94593170556132,-101.46962389039203" fill-opacity="0" stroke="rgb(0,0,0)" stroke-width="7.9875195007800315" />
<path d="M463.2761310452418,77.7043340500635 L443.26778524472263,91.12865378531211" fill-opacity="0" stroke="rgb(0,0,0)" stroke-width="7.9875195007800315" />
<path d="M443.27371126083,-229.48685772888615 L442.3833965741255,-235.08369579065382" fill-opacity="0" stroke="rgb(0,0,0)" stroke-width="7.9875195007800315" />
<path d="M144.85669076603665,-11.9304684408026 L176.6953044843615,-26.144027730063783" fill-opacity="0" stroke="rgb(0,0,0)" stroke-width="7.9875195007800315" />
<path d="M244.40116775451463,-267.47259896809874 L246.00954089349852,-267.47259896809874" fill-opacity="0" stroke="rgb(0,0,0)" stroke-width="7.9875195007800315" />
<path d="M319.84423987340824,-20.373884543075853 L311.81350358547303,-22.126059989260455" fill-opacity="0" stroke="rgb(0,0,0)" stroke-width="7.9875195007800315" />
<path d="M-188.99761318064955,-98.90254483123158 L-190.2373005781955,-108.9742719927956" fill-opacity="0" stroke="rgb(0,0,0)" stroke-width="7.9875195007800315" />
<path d="M216.35860936202207,133.49097953780975 L216.24921934646116,132.03021253486605" fill-opacity="0" stroke="rgb(0,0,0)" stroke-width="7.9875195007800315" />
<path d="M-189.96479269296645,-202.37211951242585 L-170.72503020996078,-193.44771846933085" fill-opacity="0" stroke="rgb(0,0,0)" stroke-width="7.9875195007800315" />
<path d="M-4.26010785760927,-0.26122446029984303 L-12.451319603479902,-33.461675639664804" fill-opacity="0" stroke="rgb(0,0,0)" stroke-width="7.9875195007800315" />
<path d="M90.4687634283292,-421.8763361304781 L104.64890693282793,-416.0945053696639" fill-opacity="0" stroke="rgb(0,0,0)" stroke-width="7.9875195007800315" />
<path d="M-118.62789748461398,-124.49114624230566 L-103.26279688212514,-145.3732438583068" fill-opacity="0" stroke="rgb(0,0,0)" stroke-width="7.9875195007800315" />
<path d="M-454.0444740874562,72.77980468685082 L-444.07442867016505,63.58693539556026" fill-opacity="0" stroke="rgb(0,0,0)" stroke-width="7.9875195007800315" />
<path d="M114.75048007488073,370.66644261555336 L102.6193021996333,375.73235913773465" fill-opacity="0" stroke="rgb(0,0,0)" stroke-width="7.9875195007800315" />
<path d="M-147.48665814706774,-170.28941841280255 L-148.8340642460946,-187.21728972395692" fill-opacity="0" stroke="rgb(0,0,0)" stroke-width="7.9875195007800315" />
<path d="M272.88108407642807,206.19457825054744 L257.3890271621945,204.6329340575302" fill-opacity="0" stroke="rgb(0,0,0)" stroke-width="7.9875195007800315" />
<path d="M-253.8332862064341,125.72453189586929 L-254.6419466924803,137.85779882959127" fill-opacity="0" stroke="rgb(0,0,0)" stroke-width="7.9875195007800315" />
<path d="M-236.30650915471557,-194.7048683176859 L-226.4022194569822,-202.20133262888572" fill-opacity="0" stroke="rgb(0,0,0)" stroke-width="7.9875195007800315" />
<path d="M177.0893014517045,-54.76490028649067 L197.30107409486232,-67.30925358127683" fill-opacity="0" stroke="rgb(0,0,0)" stroke-width="7.9875195007800315" />
<path d="M-128.3444078524265,136.41076591338998 L-118.94564060510217,117.79937871200741" fill-opacity="0" stroke="rgb(0,0,0)" stroke-width="7.9875195007800315" />
<path d="M411.8128175523688,-159.88636020958796 L407.05204435205815,-151.38416882873307" fill-opacity="0" stroke="rgb(0,0,0)" stroke-width="7.9875195007800315" />
<path d="M-116.52525420001493,-131.37075698554563 L-102.41097683612605,-118.190715766296" fill-opacity="0" stroke="rgb(0,0,0)" stroke-width="7.9875195007800315" />
<path d="M10.962337850404765,-214.9372480228553 L12.344380932281592,-201.27801858271692" fill-opacity="0" stroke="rgb(0,0,0)" stroke-width="7.9875195007800315" />
<path d="M-133.18748191122813,47.24399400467695 L-153.31738756424977,53.85520340636438" fill-opacity="0" stroke="rgb(0,0,0)" stroke-width="7.9875195007800315" />
<path d="M360.7836706479993,-149.23305830296317 L349.18560030359566,-152.6420325014222" fill-opacity="0" stroke="rgb(0,0,0)" stroke-width="7.9875195007800315" />
<path d="M-323.7110634153587,305.1875573839883 L-338.6877774912611,294.5251225639153" fill-opacity="0" stroke="rgb(0,0,0)" stroke-width="7.9875195007800315" />
<path d="M-424.3607075648491,-108.37275586868225 L-446.535561208407,-103.98838257344923" fill-opacity="0" stroke="rgb(0,0,0)" stroke-width="7.9875195007800315" />
<path d="M-397.5754033225615,-273.0732334689181 L-390.5258618338507,-255.64448153401275" fill-opacity="0" stroke="rgb(0,0,0)" stroke-width="7.9875195007800315" />
<path d="M274.065845572175,255.42993612645654 L249.2520312162235,246.7419642930525" fill-opacity="0" stroke="rgb(0,0,0)" stroke-width="7.9875195007800315" />
<path d="M-235.78460444848463,-192.82194249065887 L-250.972290145064,-204.12029561711023" fill-opacity="0" stroke="rgb(0,0,0)" stroke-width="7.9875195007800315" />
<path d="M-114.11146734983615,166.35755511935514 L-97.61441689780892,153.1769881895682" fill-opacity="0" stroke="rgb(0,0,0)" stroke-width="7.9875195007800315" />
<path d="M463.2761310452418,53.31413530273934 L463.2761310452418,53.3807948549797" fill-opacity="0" stroke="rgb(0,0,0)" stroke-width="7.9875195007800315" />
<path d="M226.63589509245912,-145.1671668619337 L233.57535852692877,-137.4681440386959" fill-opacity="0" stroke="rgb(0,0,0)" stroke-width="7.9875195007800315" />
<path d="M265.8753039819586,5.9506516186926035 L268.7135969420788,14.15844275660794" fill-opacity="0" stroke="rgb(0,0,0)" stroke-width="7.9875195007800315" />
<path d="M-417.58748079849715,-85.72702034882562 L-377.6158337948751,-84.35101862609002" fill-opacity="0" stroke="rgb(0,0,0)" stroke-width="7.9875195007800315" />
<path d="M403.7074617289863,-38.55858515466235 L405.35539950343025,-20.522757150979203" fill-opacity="0" stroke="rgb(0,0,0)" stroke-width="7.9875195007800315" />
<path d="M103.74774632852733,-56.113359389722575 L98.2536858498189,-34.40613541934229" fill-opacity="0" stroke="rgb(0,0,0)" stroke-width="7.9875195007800315" />
<path d="M-224.80173747020956,165.7811572495234 L-250.6440219552262,182.54513786877436" fill-opacity="0" stroke="rgb(0,0,0)" stroke-width="7.9875195007800315" />
<path d="M-199.807375236242,-210.3541362242613 L-212.41473184429378,-185.77798909532555" fill-opacity="0" stroke="rgb(0,0,0)" stroke-width="7.9875195007800315" />
<path d="M-380.3632403814585,-276.1537418799405 L-398.0498274561611,-271.4121677031384" fill-opacity="0" stroke="rgb(0,0,0)" stroke-width="7.9875195007800315" />
<path d="M-22.388926049053367,-183.2263876856258 L-8.490415837605326,-174.70663147218914" fill-opacity="0" stroke="rgb(0,0,0)" stroke-width="7.9875195007800315" />
<path d="M-222.82986873619913,-104.55170898623493 L-214.63124011606578,-126.52809246416882" fill-opacity="0" stroke="rgb(0,0,0)" stroke-width="7.9875195007800315" />
<path d="M-229.25663803896714,-301.92586263124707 L-245.2263036318542,-316.7753776180287" fill-opacity="0" stroke="rgb(0,0,0)" stroke-width="7.9875195007800315" />
<path d="M452.2319586525902,172.219767209315 L451.49139259133335,174.95309348947612" fill-opacity="0" stroke="rgb(0,0,0)" stroke-width="7.9875195007800315" />
<path d="M133.61793936035707,174.032962812753 L138.71084577850016,184.1616151957611" fill-opacity="0" stroke="rgb(0,0,0)" stroke-width="7.9875195007800315" />
<path d="M-16.61131734469783,461.40054139712765 L-25.30973067293116,454.9238885253881" fill-opacity="0" stroke="rgb(0,0,0)" stroke-width="7.9875195007800315" />
<path d="M-110.60467491984747,50.57210759878842 L-102.58216439782854,41.16481751738871" fill-opacity="0" stroke="rgb(0,0,0)" stroke-width="7.9875195007800315" />
<path d="M342.18066875435676,-268.3498113611404 L316.82990835011145,-242.7931006816578" fill-opacity="0" stroke="rgb(0,0,0)" stroke-width="7.9875195007800315" />
<path d="M-364.50939184786375,-57.62695111289966 L-372.27026369843645,-66.71284730744674" fill-opacity="0" stroke="rgb(0,0,0)" stroke-width="7.9875195007800315" />
<path d="M370.9949318055262,107.63687330152504 L355.72519136553524,81.1889070410715" fill-opacity="0" stroke="rgb(0,0,0)" stroke-width="7.9875195007800315" />
<path d="M-420.35773499342946,-194.63745051596976 L-423.49334413555823,-200.15273770473794" fill-opacity="0" stroke="rgb(0,0,0)" stroke-width="7.9875195007800315" />
<path d="M269.83487089259154,-280.0382037551201 L289.4515703242969,-277.9872096767074" fill-opacity="0" stroke="rgb(0,0,0)" stroke-width="7.9875195007800315" />
<path d="M-235.55356148941956,215.17470777223792 L-241.4130445892598,206.40235812316263" fill-opacity="0" stroke="rgb(0,0,0)" stroke-width="7.9875195007800315" />
<path d="M-320.8093362912798,112.05867229162422 L-295.25530949797906,112.60880044272058" fill-opacity="0" stroke="rgb(0,0,0)" stroke-width="7.9875195007800315" />
<path d="M-97.91576072420682,-216.0656684097128 L-118.83985666071928,-203.44213123602148" fill-opacity="0" stroke="rgb(0,0,0)" stroke-width="7.9875195007800315" />
<path d="M344.3102436830304,170.4060490258537 L331.4940388397471,163.89274103378727" fill-opacity="0" stroke="rgb(0,0,0)" stroke-width="7.9875195007800315" />
<path d="M209.0321001820719,-123.96230592229585 L200.62872957473556,-105.24954236792448" fill-opacity="0" stroke="rgb(0,0,0)" stroke-width="7.9875195007800315" />
<path d="M117.378956684663,341.5397793039568 L122.9243948387353,338.97914826030404" fill-opacity="0" stroke="rgb(0,0,0)" stroke-width="7.9875195007800315" />
<path d="M-151.48555442541297,215.39317800787012 L-143.47284584251952,193.40316842861154" fill-opacity="0" stroke="rgb(0,0,0)" stroke-width="7.9875195007800315" />
<path d="M-53.278095904712075,-251.49747442604223 L-75.30860822381845,-250.4189903352213" fill-opacity="0" stroke="rgb(0,0,0)" stroke-width="7.9875195007800315" />
<path d="M-7.927385952859424,117.9751766268671 L-36.29562067624107,127.38527137288867" fill-opacity="0" stroke="rgb(0,0,0)" stroke-width="7.9875195007800315" />
<path d="M412.4743633783124,242.24221959701745 L409.8694459106839,234.82177336532916" fill-opacity="0" stroke="rgb(0,0,0)" stroke-width="7.9875195007800315" />
<path d="M-221.00890638313106,47.39434128236541 L-214.89016639346818,43.77983524671743" fill-opacity="0" stroke="rgb(0,0,0)" stroke-width="7.9875195007800315" />
<path d="M-151.46666780069256,-372.53389636157664 L-160.13196619250226,-366.055953016353" fill-opacity="0" stroke="rgb(0,0,0)" stroke-width="7.9875195007800315" />
<path d="M-37.24982971260495,173.12893460689406 L-43.927911634878186,155.49878623289197" fill-opacity="0" stroke="rgb(0,0,0)" stroke-width="7.9875195007800315" />
<path d="M12.684046903433524,-512.975784253864 L14.420605909885706,-509.9679758243475" fill-opacity="0" stroke="rgb(0,0,0)" stroke-width="7.9875195007800315" />
<path d="M-4.784246534672796,-145.95597735570652 L-2.891501918826428,-136.69467749417777" fill-opacity="0" stroke="rgb(0,0,0)" stroke-width="7.9875195007800315" />
<path d="M416.19337613446675,-161.71770221421997 L453.41833988951663,-157.12119538593637" fill-opacity="0" stroke="rgb(0,0,0)" stroke-width="7.9875195007800315" />
<path d="M36.368134839467245,12.57810507047644 L13.694919822675558,22.42352639562236" fill-opacity="0" stroke="rgb(0,0,0)" stroke-width="7.9875195007800315" />
<path d="M-249.36122029480208,-88.66451612572861 L-266.6277510826276,-95.57203849387653" fill-opacity="0" stroke="rgb(0,0,0)" stroke-width="7.9875195007800315" />
<path d="M42.90587547533422,-39.06485159618802 L48.992598401350484,-51.674007662677965" fill-opacity="0" stroke="rgb(0,0,0)" stroke-width="7.9875195007800315" />
<path d="M319.2670723421627,157.052815694576 L300.69473534899726,134.92055549469904" fill-opacity="0" stroke="rgb(0,0,0)" stroke-width="7.9875195007800315" />
<path d="M39.949118159657196,-499.8297080007147 L37.5477833382637,-499.66373400575145" fill-opacity="0" stroke="rgb(0,0,0)" stroke-width="7.9875195007800315" />
<path d="M196.20781079562352,-324.8201895717891 L196.8995715271028,-320.6488883035522" fill-opacity="0" stroke="rgb(0,0,0)" stroke-width="7.9875195007800315" />
<path d="M315.19280036064947,-147.03750716609395 L278.62846191367794,-140.3723243431285" fill-opacity="0" stroke="rgb(0,0,0)" stroke-width="7.9875195007800315" />
<path d="M-169.92802502358697,315.32590983440116 L-166.7910010983366,293.3429280547074" fill-opacity="0" stroke="rgb(0,0,0)" stroke-width="7.9875195007800315" />
<path d="M280.6342086560372,-372.92096202481684 L282.23659057185995,-371.995826394372" fill-opacity="0" stroke="rgb(0,0,0)" stroke-width="7.9875195007800315" />
<path d="M-439.87984531323275,-240.70692802193602 L-445.7919856951173,-253.9076299387887" fill-opacity="0" stroke="rgb(0,0,0)" stroke-width="7.9875195007800315" />
<path d="M396.0941727701553,226.20796561885237 L400.1422040076134,221.12630899484054" fill-opacity="0" stroke="rgb(0,0,0)" stroke-width="7.9875195007800315" />
<path d="M132.87979637907904,-76.71818620932396 L125.88790602486931,-80.27528574563269" fill-opacity="0" stroke="rgb(0,0,0)" stroke-width="7.9875195007800315" />
<path d="M-422.2834029635952,-188.56668796139462 L-423.38130399038454,-197.9422548164933" fill-opacity="0" stroke="rgb(0,0,0)" stroke-width="7.9875195007800315" />
<path d="M226.39843272350396,-272.91135900441776 L230.64615267182222,-256.07627057095516" fill-opacity="0" stroke="rgb(0,0,0)" stroke-width="7.9875195007800315" />
<path d="M166.47802819120488,331.8585739852557 L173.93473422838397,312.6201383845364" fill-opacity="0" stroke="rgb(0,0,0)" stroke-width="7.9875195007800315" />
<path d="M207.80755866904852,185.36097243877157 L189.29331005992702,180.33448553442184" fill-opacity="0" stroke="rgb(0,0,0)" stroke-width="7.9875195007800315" />
<path d="M-37.67376815407354,277.2455153752734 L-15.415522130275974,265.3400785191786" fill-opacity="0" stroke="rgb(0,0,0)" stroke-width="7.9875195007800315" />
<path d="M255.87288232136996,-152.7135127100879 L253.44245411615202,-131.9339063676431" fill-opacity="0" stroke="rgb(0,0,0)" stroke-width="7.9875195007800315" />
<path d="M-155.58382757362813,-198.50709918865644 L-142.32716299569182,-202.28517964062976" fill-opacity="0" stroke="rgb(0,0,0)" stroke-width="7.9875195007800315" />
<path d="M-89.18978922628807,226.38923290039145 L-83.89714910291735,252.10693223760416" fill-opacity="0" stroke="rgb(0,0,0)" stroke-width="7.9875195007800315" />
<path d="M1485.678627145086,-267.4725989680987 L1022.402496099844,-534.9451979361975 L559.1263650546023,-267.4725989680989 L559.126365054602,267.47259896809857 L1022.4024960998439,534.9451979361975 L1485.6786271450858,267.47259896809896 Z" fill-opacity="0" stroke="rgb(0,0,0)" stroke-width="7.9875195007800315" />
<path d="M1435.601545540217,0.0 L1380.2433697347894,-206.59952472018657 L1229.0020208200308,-357.8408736349454 L1022.402496099844,-413.1990494403732 L815.8029713796575,-357.84087363494547 L664.5616224648986,-206.59952472018657 L609.2034466594708,-5.0602289330788195e-14 L664.5616224648986,206.59952472018648 L815.8029713796573,357.84087363494535 L1022.4024960998439,413.1990494403732 L1229.0020208200308,357.8408736349454 L1380.2433697347892,206.59952472018676 Z" fill-opacity="0" stroke="rgb(0,0,0)" stroke-width="7.9875195007800315" />
<path d="M1435.601545540217,0.0 L1380.2433697347894,-206.59952472018657 L1173.643845014603,-261.9577005256144 L1022.402496099844,-110.71635161085575 L1077.7606719052717,95.88317310933084 L1284.3601966254582,151.24134891475882 L1435.601545540217,1.9895196601282805e-13 L1435.601545540217,0.0 Z" fill-opacity="0" stroke="rgb(0,0,0)" stroke-width="7.9875195007800315" />
<path d="M1380.2433697347894,-206.59952472018657 L1229.0020208200308,-357.8408736349454 L1022.4024960998443,-302.48269782951786 L967.0443202944164,-95.88317310933141 L1118.285669209175,55.35817580542752 L1324.8851939293615,4.263256414560601e-14 L1380.2433697347897,-206.59952472018642 L1380.2433697347894,-206.59952472018657 Z" fill-opacity="0" stroke="rgb(0,0,0)" stroke-width="7.9875195007800315" />
<path d="M1229.0020208200308,-357.8408736349454 L1022.402496099844,-413.1990494403732 L871.1611471850852,-261.9577005256142 L926.5193229905129,-55.358175805427436 L1133.1188477106998,4.050093593832571e-13 L1284.3601966254587,-151.24134891475853 L1229.002020820031,-357.84087363494535 L1229.0020208200308,-357.8408736349454 Z" fill-opacity="0" stroke="rgb(0,0,0)" stroke-width="7.9875195007800315" />
<path d="M1022.402496099844,-413.1990494403732 L815.8029713796575,-357.84087363494547 L760.4447955742297,-151.24134891475896 L911.6861444889885,-1.1368683772161603e-13 L1118.285669209175,-55.35817580542775 L1173.643845014603,-261.9577005256142 L1022.4024960998443,-413.1990494403731 L1022.402496099844,-413.1990494403732 Z" fill-opacity="0" stroke="rgb(0,0,0)" stroke-width="7.9875195007800315" />
<path d="M815.8029713796575,-357.84087363494547 L664.5616224648986,-206.59952472018657 L719.9197982703264,1.1368683772161603e-13 L926.519322990513,55.35817580542794 L1077.760671905272,-95.88317310933087 L1022.4024960998443,-302.4826978295176 L815.8029713796576,-357.8408736349455 L815.8029713796575,-357.84087363494547 Z" fill-opacity="0" stroke="rgb(0,0,0)" stroke-width="7.9875195007800315" />
<path d="M664.5616224648986,-206.59952472018657 L609.2034466594708,-5.684341886080802e-14 L760.4447955742296,151.24134891475876 L967.0443202944161,95.88317310933108 L1022.402496099844,-110.7163516108554 L871.1611471850854,-261.95770052561426 L664.5616224648988,-206.5995247201867 L664.5616224648986,-206.59952472018657 Z" fill-opacity="0" stroke="rgb(0,0,0)" stroke-width="7.9875195007800315" />
<path d="M609.2034466594708,-5.0602289330788195e-14 L664.5616224648986,206.59952472018648 L871.1611471850852,261.95770052561426 L1022.402496099844,110.7163516108555 L967.0443202944164,-95.88317310933104 L760.4447955742298,-151.24134891475887 L609.203446659471,-1.7053025658242404e-13 L609.2034466594708,-5.0602289330788195e-14 Z" fill-opacity="0" stroke="rgb(0,0,0)" stroke-width="7.9875195007800315" />
<path d="M664.5616224648986,206.59952472018648 L815.8029713796573,357.84087363494535 L1022.4024960998438,302.4826978295178 L1077.7606719052717,95.88317310933138 L926.519322990513,-55.35817580542755 L719.9197982703265,-7.105427357601002e-14 L664.5616224648985,206.59952472018637 L664.5616224648986,206.59952472018648 Z" fill-opacity="0" stroke="rgb(0,0,0)" stroke-width="7.9875195007800315" />
<path d="M815.8029713796573,357.84087363494535 L1022.4024960998439,413.1990494403732 L1173.643845014603,261.95770052561437 L1118.2856692091752,55.35817580542766 L911.6861444889886,-2.7711166694643907e-13 L760.4447955742296,151.24134891475848 L815.8029713796573,357.8408736349452 L815.8029713796573,357.84087363494535 Z" fill-opacity="0" stroke="rgb(0,0,0)" stroke-width="7.9875195007800315" />
<path d="M1022.4024960998439,413.1990494403732 L1229.0020208200308,357.8408736349454 L1284.3601966254587,151.2413489147586 L1133.1188477106998,-5.115907697472721e-13 L926.5193229905129,55.358175805427194 L871.1611471850849,261.957700525614 L1022.4024960998438,413.19904944037313 L1022.4024960998439,413.1990494403732 Z" fill-opacity="0" stroke="rgb(0,0,0)" stroke-width="7.9875195007800315" />
<path d="M1229.0020208200308,357.8408736349454 L1380.2433697347892,206.59952472018676 L1324.8851939293613,6.252776074688882e-13 L1118.285669209175,-55.35817580542693 L967.0443202944166,95.88317310933166 L1022.4024960998443,302.48269782951786 L1229.0020208200306,357.8408736349455 L1229.0020208200308,357.8408736349454 Z" fill-opacity="0" stroke="rgb(0,0,0)" stroke-width="7.9875195007800315" />
<path d="M1380.2433697347892,206.59952472018676 L1435.601545540217,0.0 L1284.3601966254582,-151.24134891475904 L1077.7606719052715,-95.88317310933134 L1022.4024960998435,110.71635161085543 L1173.6438450146022,261.95770052561454 L1380.243369734789,206.59952472018693 L1380.2433697347892,206.59952472018676 Z" fill-opacity="0" stroke="rgb(0,0,0)" stroke-width="7.9875195007800315" />
<text x="1730.7437237119125" y="0.0" font-size="204" font-family="Helvetica" fill="rgb(0,0,0)" text-anchor="middle" dominant-baseline="central">d5</text>
</svg>