<?xml version="1.0" encoding="UTF-8"?>
<svg xmlns="http://www.w3.org/2000/svg" xmlns:xlink="http://www.w3.org/1999/xlink"
     width="12.82cm" height="5.562562584220408cm" viewBox="-2048.0 -888.6215423153974 4096 1777.2430846307948">
<defs>
</defs>
<rect x="-2044.804992199688" y="-885.4265345150853" width="4089.609984399376" height="1770.8530690301707" fill="white" stroke="rgb(0,0,255)" stroke-width="2" />
<path d="M-559.126365054602,-267.4725989680987 L-1022.402496099844,-534.9451979361975 L-1485.6786271450858,-267.4725989680989 L-1485.678627145086,267.47259896809857 L-1022.4024960998441,534.9451979361975 L-559.1263650546023,267.47259896809896 Z" fill-opacity="0.225" stroke="rgb(0,0,0)" stroke-width="7.9875195007800315" />
<path d="M-609.2034466594708,0.0 L-664.5616224648986,-206.59952472018657 L-815.8029713796574,-357.8408736349454 L-1022.402496099844,-413.1990494403732 L-1229.0020208200306,-357.84087363494547 L-1380.2433697347894,-206.59952472018657 L-1435.601545540217,-5.0602289330788195e-14 L-1380.2433697347894,206.59952472018648 L-1229.0020208200308,357.84087363494535 L-1022.4024960998441,413.1990494403732 L-815.8029713796574,357.8408736349454 L-664.5616224648987,206.59952472018676 Z" fill-opacity="0" stroke="rgb(0,0,0)" stroke-width="7.9875195007800315" />
<path d="M-609.2034466594708,0.0 L-664.5616224648986,-206.59952472018657 L-871.1611471850852,-261.95770052561437 L-1022.402496099844,-110.71635161085558 L-967.0443202944164,95.88317310933101 L-760.4447955742298,151.24134891475885 L-609.203446659471,8.526512829121202e-14 L-609.2034466594708,0.0 Z" fill-opacity="0" stroke="rgb(0,0,0)" stroke-width="7.9875195007800315" />
<path d="M-664.5616224648986,-206.59952472018657 L-815.8029713796574,-357.8408736349454 L-1022.402496099844,-302.48269782951775 L-1077.760671905272,-95.88317310933118 L-926.5193229905132,55.35817580542775 L-719.9197982703265,1.2789769243681803e-13 L-664.5616224648985,-206.59952472018642 L-664.5616224648986,-206.59952472018657 Z" fill-opacity="0" stroke="rgb(0,0,0)" stroke-width="7.9875195007800315" />
<path d="M-815.8029713796574,-357.8408736349454 L-1022.402496099844,-413.1990494403732 L-1173.643845014603,-261.9577005256143 L-1118.2856692091752,-55.35817580542766 L-911.6861444889887,1.9895196601282805e-13 L-760.4447955742298,-151.24134891475856 L-815.8029713796575,-357.8408736349452 L-815.8029713796574,-357.8408736349454 Z" fill-opacity="0" stroke="rgb(0,0,0)" stroke-width="7.9875195007800315" />
<path d="M-1022.402496099844,-413.1990494403732 L-1229.0020208200306,-357.84087363494547 L-1284.3601966254585,-151.24134891475896 L-1133.1188477106998,-1.1368683772161603e-13 L-926.5193229905133,-55.35817580542775 L-871.1611471850854,-261.9577005256142 L-1022.402496099844,-413.1990494403731 L-1022.402496099844,-413.1990494403732 Z" fill-opacity="0" stroke="rgb(0,0,0)" stroke-width="7.9875195007800315" />
<path d="M-1229.0020208200306,-357.84087363494547 L-1380.2433697347894,-206.59952472018657 L-1324.8851939293615,1.1368683772161603e-13 L-1118.285669209175,55.35817580542794 L-967.0443202944161,-95.88317310933087 L-1022.4024960998438,-302.4826978295176 L-1229.0020208200303,-357.8408736349455 L-1229.0020208200306,-357.84087363494547 Z" fill-opacity="0" stroke="rgb(0,0,0)" stroke-width="7.9875195007800315" />
<path d="M-1380.2433697347894,-206.59952472018657 L-1435.601545540217,-5.684341886080802e-14 L-1284.3601966254582,151.24134891475865 L-1077.7606719052717,95.88317310933085 L-1022.4024960998439,-110.71635161085563 L-1173.6438450146027,-261.95770052561437 L-1380.2433697347892,-206.59952472018665 L-1380.2433697347894,-206.59952472018657 Z" fill-opacity="0" stroke="rgb(0,0,0)" stroke-width="7.9875195007800315" />
<path d="M-1435.601545540217,-5.0602289330788195e-14 L-1380.2433697347894,206.59952472018648 L-1173.643845014603,261.9577005256143 L-1022.402496099844,110.71635161085567 L-1077.7606719052717,-95.88317310933087 L-1284.3601966254582,-151.24134891475882 L-1435.601545540217,-2.2737367544323206e-13 L-1435.601545540217,-5.0602289330788195e-14 Z" fill-opacity="0" stroke="rgb(0,0,0)" stroke-width="7.9875195007800315" />
<path d="M-1380.2433697347894,206.59952472018648 L-1229.0020208200308,357.84087363494535 L-1022.4024960998443,302.4826978295178 L-967.0443202944163,95.88317310933138 L-1118.2856692091748,-55.35817580542755 L-1324.8851939293613,-7.105427357601002e-14 L-1380.2433697347894,206.59952472018637 L-1380.2433697347894,206.59952472018648 Z" fill-opacity="0" stroke="rgb(0,0,0)" stroke-width="7.9875195007800315" />
<path d="M-1229.0020208200308,357.84087363494535 L-1022.4024960998441,413.1990494403732 L-871.1611471850852,261.95770052561437 L-926.5193229905128,55.35817580542766 L-1133.1188477106994,-2.7711166694643907e-13 L-1284.3601966254585,151.24134891475848 L-1229.0020208200308,357.8408736349452 L-1229.0020208200308,357.84087363494535 Z" fill-opacity="0" stroke="rgb(0,0,0)" stroke-width="7.9875195007800315" />
<path d="M-1022.4024960998441,413.1990494403732 L-815.8029713796574,357.8408736349454 L-760.4447955742295,151.24134891475867 L-911.6861444889884,-3.410605131648481e-13 L-1118.285669209175,55.35817580542735 L-1173.643845014603,261.9577005256141 L-1022.402496099844,413.1990494403732 L-1022.4024960998441,413.1990494403732 Z" fill-opacity="0" stroke="rgb(0,0,0)" stroke-width="7.9875195007800315" />
<path d="M-815.8029713796574,357.8408736349454 L-664.5616224648987,206.59952472018676 L-719.9197982703264,3.979039320256561e-13 L-926.5193229905128,-55.35817580542737 L-1077.7606719052715,95.88317310933124 L-1022.4024960998438,302.48269782951763 L-815.8029713796575,357.84087363494547 L-815.8029713796574,357.8408736349454 Z" fill-opacity="0" stroke="rgb(0,0,0)" stroke-width="7.9875195007800315" />
<path d="M-664.5616224648987,206.59952472018676 L-609.2034466594708,0.0 L-760.4447955742297,-151.24134891475904 L-967.0443202944166,-95.88317310933134 L-1022.4024960998446,110.71635161085543 L-871.1611471850857,261.95770052561454 L-664.5616224648988,206.59952472018693 L-664.5616224648987,206.59952472018676 Z" fill-opacity="0" stroke="rgb(0,0,0)" stroke-width="7.9875195007800315" />
<text x="-1730.7437237119125" y="0.0" font-size="204" font-family="Helvetica" fill="rgb(0,0,0)" text-anchor="middle" dominant-baseline="central">d3</text>
<path d="M463.2761310452419,-267.4725989680987 L3.2755946218590575e-14,-534.9451979361975 L-463.2761310452418,-267.4725989680989 L-463.276131045242,267.47259896809857 L-9.826783865577172e-14,534.9451979361975 L463.27613104524175,267.47259896809896 Z" fill-opacity="0.1125" stroke="rgb(0,0,0)" stroke-width="7.9875195007800315" />
<path d="M364.06370746788946,-247.03463400202733 L401.08626291667247,-255.46310379613635" fill-opacity="0" stroke="rgb(0,0,0)" stroke-width="7.9875195007800315" />
<path d="M28.477961788092784,243.15710613470378 L7.687372965294514,246.78714699210462" fill-opacity="0" stroke="rgb(0,0,0)" stroke-width="7.9875195007800315" />
<path d="M-135.9244552527643,276.5926000618041 L-146.24760209944543,278.2897736147054" fill-opacity="0" stroke="rgb(0,0,0)" stroke-width="7.9875195007800315" />
<path d="M430.51583292424175,-286.3867659069905 L433.5656999180723,-284.62592437710987" fill-opacity="0" stroke="rgb(0,0,0)" stroke-width="7.9875195007800315" />
<path d="M-334.9739447366892,5.719310322329477 L-334.60406821757545,-13.717575390493067" fill-opacity="0" stroke="rgb(0,0,0)" stroke-width="7.9875195007800315" />
<path d="M-118.0288770691813,466.8011939881564 L-118.3797875668815,466.59859571784773" fill-opacity="0" stroke="rgb(0,0,0)" stroke-width="7.9875195007800315" />
<path d="M62.65787477089441,239.20898998979573 L75.84441099070213,226.22364942601558" fill-opacity="0" stroke="rgb(0,0,0)" stroke-width="7.9875195007800315" />
<path d="M161.0449584828703,92.97935013171747 L159.6681004740804,92.18442078970672" fill-opacity="0" stroke="rgb(0,0,0)" stroke-width="7.9875195007800315" />
<path d="M129.53729613762215,-407.3267167335861 L134.42171042830748,-401.6242548538836" fill-opacity="0" stroke="rgb(0,0,0)" stroke-width="7.9875195007800315" />
<path d="M92.65759390024685,362.3567128677159 L97.80958113014617,384.38938064568583" fill-opacity="0" stroke="rgb(0,0,0)" stroke-width="7.9875195007800315" />
<path d="M-84.41531422184039,-175.3406670970943 L-74.24345064211929,-169.43099584425218" fill-opacity="0" stroke="rgb(0,0,0)" stroke-width="7.9875195007800315" />
<path d="M107.07855686257227,473.1233643071547 L99.39458920719608,477.55970510143055" fill-opacity="0" stroke="rgb(0,0,0)" stroke-width="7.9875195007800315" />
<path d="M352.8855653007022,156.66146893170082 L342.1623245448854,151.8348211368555" fill-opacity="0" stroke="rgb(0,0,0)" stroke-width="7.9875195007800315" />
<path d="M112.28692380722978,9.868365695404421 L118.30578224421977,15.184089433134318" fill-opacity="0" stroke="rgb(0,0,0)" stroke-width="7.9875195007800315" />
<path d="M228.5082331927233,-137.00274617052912 L242.5453962123711,-140.2853924717791" fill-opacity="0" stroke="rgb(0,0,0)" stroke-width="7.9875195007800315" />
<path d="M186.02795961004875,126.10888600832749 L188.89714914952125,129.6595633784875" fill-opacity="0" stroke="rgb(0,0,0)" stroke-width="7.9875195007800315" />
<path d="M-205.8498085432716,-0.9015429095194349 L-186.274459710036,-18.070687287425642" fill-opacity="0" stroke="rgb(0,0,0)" stroke-width="7.9875195007800315" />
<path d="M-16.161833078561937,264.38785214947376 L-16.246197004117384,276.68768334335016" fill-opacity="0" stroke="rgb(0,0,0)" stroke-width="7.9875195007800315" />
<path d="M433.06918643642894,-132.2723536298503 L416.1374014474226,-129.88615319105097" fill-opacity="0" stroke="rgb(0,0,0)" stroke-width="7.9875195007800315" />
<path d="M-218.48441404260154,121.31581503560857 L-217.7655407358716,121.26433766800646" fill-opacity="0" stroke="rgb(0,0,0)" stroke-width="7.9875195007800315" />
<path d="M416.812855798537,227.48537839222908 L412.5952893880391,225.69073853019168" fill-opacity="0" stroke="rgb(0,0,0)" stroke-width="7.9875195007800315" />
<path d="M-134.4914330130201,-223.67565310088054 L-143.73771206224302,-194.81218563527028" fill-opacity="0" stroke="rgb(0,0,0)" stroke-width="7.9875195007800315" />
<path d="M15.909674101329422,228.31350790847972 L12.435429137595989,255.50067386482675" fill-opacity="0" stroke="rgb(0,0,0)" stroke-width="7.9875195007800315" />
<path d="M120.44475717263819,125.51016153091666 L118.94288179456267,103.73328484782314" fill-opacity="0" stroke="rgb(0,0,0)" stroke-width="7.9875195007800315" />
<path d="M118.84671711490957,-397.7302054771076 L129.75462238016115,-385.29264033379434" fill-opacity="0" stroke="rgb(0,0,0)" stroke-width="7.9875195007800315" />
<path d="M-110.1998729034603,470.1261799901417 L-114.60458505959711,467.7483416865442" fill-opacity="0" stroke="rgb(0,0,0)" stroke-width="7.9875195007800315" />
<path d="M247.35751148677295,-214.1268718553365 L252.14725366735559,-216.37842496252964" fill-opacity="0" stroke="rgb(0,0,0)" stroke-width="7.9875195007800315" />
<path d="M49.41348945651134,12.943667614048593 L86.02692411045655,-5.078755716357165" fill-opacity="0" stroke="rgb(0,0,0)" stroke-width="7.9875195007800315" />
<path d="M-300.03866774642034,-78.11409995477521 L-307.5097564102345,-53.039704524123465" fill-opacity="0" stroke="rgb(0,0,0)" stroke-width="7.9875195007800315" />
<path d="M145.92690039916636,-347.8543910062634 L134.32698744665623,-350.15447448921975" fill-opacity="0" stroke="rgb(0,0,0)" stroke-width="7.9875195007800315" />
<path d="M-400.06944875141994,157.9954138573347 L-381.9897451289784,149.3944086878164" fill-opacity="0" stroke="rgb(0,0,0)" stroke-width="7.9875195007800315" />
<path d="M-245.64290426776262,-381.8657394923264 L-260.51650679363394,-383.74733423712775" fill-opacity="0" stroke="rgb(0,0,0)" stroke-width="7.9875195007800315" />
<path d="M-131.76214238795575,-227.68768853556494 L-149.510448636606,-224.56231821634856" fill-opacity="0" stroke="rgb(0,0,0)" stroke-width="7.9875195007800315" />
<path d="M106.50327508529996,-345.06609464826187 L103.70842851719763,-350.06526432235864" fill-opacity="0" stroke="rgb(0,0,0)" stroke-width="7.9875195007800315" />
<path d="M425.69060153634814,163.21887348653507 L426.9292919316159,140.8393608215167" fill-opacity="0" stroke="rgb(0,0,0)" stroke-width="7.9875195007800315" />
<path d="M-89.02518068981948,217.90530896255092 L-94.96118615883267,210.3011122341349" fill-opacity="0" stroke="rgb(0,0,0)" stroke-width="7.9875195007800315" />
<path d="M64.39393493203013,-123.85096206485127 L52.28070377938403,-107.04475349818784" fill-opacity="0" stroke="rgb(0,0,0)" stroke-width="7.9875195007800315" />
<path d="M-171.5736871709858,21.29747254774287 L-149.32004324552042,0.8438179513386785" fill-opacity="0" stroke="rgb(0,0,0)" stroke-width="7.9875195007800315" />
<path d="M54.33480403064573,-277.20175101487877 L43.537546757625876,-278.5136066961217" fill-opacity="0" stroke="rgb(0,0,0)" stroke-width="7.9875195007800315" />
<path d="M-248.97598250202014,-22.624246522930207 L-251.76922528974796,-40.42460181450812" fill-opacity="0" stroke="rgb(0,0,0)" stroke-width="7.9875195007800315" />
<path d="M145.03053206869183,-285.94595170759646 L153.53273220996306,-272.9459223149952" fill-opacity="0" stroke="rgb(0,0,0)" stroke-width="7.9875195007800315" />
<path d="M-292.520127052235,-28.285475645223464 L-292.450504661836,-28.406065162738884" fill-opacity="0" stroke="rgb(0,0,0)" stroke-width="7.9875195007800315" />
<path d="M293.6480304905174,102.95301151183537 L300.77273668213377,121.23060078416307" fill-opacity="0" stroke="rgb(0,0,0)" stroke-width="7.9875195007800315" />
<path d="M-174.0374027830767,88.66603544144931 L-181.5315803184312,70.385650968112" fill-opacity="0" stroke="rgb(0,0,0)" stroke-width="7.9875195007800315" />
<path d="M455.391320726965,74.8168446317568 L460.50533999651265,93.54623182467822" fill-opacity="0" stroke="rgb(0,0,0)" stroke-width="7.9875195007800315" />
<path d="M81.84052068047824,-305.4468301111916 L85.10916834092058,-290.44434731162266" fill-opacity="0" stroke="rgb(0,0,0)" stroke-width="7.9875195007800315" />
<path d="M-27.865256901043146,41.3793876629768 L-25.686990750912464,62.342353668647206" fill-opacity="0" stroke="rgb(0,0,0)" stroke-width="7.9875195007800315" />
<path d="M137.1003132862242,-372.3276745663602 L153.1595817730913,-383.18558438599615" fill-opacity="0" stroke="rgb(0,0,0)" stroke-width="7.9875195007800315" />
<path d="M404.76651024996437,267.47259896809896 L383.6500672042837,264.3796930661285" fill-opacity="0" stroke="rgb(0,0,0)" stroke-width="7.9875195007800315" />
<path d="M-286.79555011853336,-134.09748700267494 L-289.72516916290647,-147.9563858243559" fill-opacity="0" stroke="rgb(0,0,0)" stroke-width="7.9875195007800315" />
<path d="M-17.15547620919037,343.3114625761573 L-9.844629018800447,339.7459937043173" fill-opacity="0" stroke="rgb(0,0,0)" stroke-width="7.9875195007800315" />
<path d="M-58.71312052288414,-150.42431244918387 L-27.686334426000826,-144.24168944106628" fill-opacity="0" stroke="rgb(0,0,0)" stroke-width="7.9875195007800315" />
<path d="M213.5621624470844,240.8682904868288 L239.23341263604192,243.84757292180848" fill-opacity="0" stroke="rgb(0,0,0)" stroke-width="7.9875195007800315" />
<path d="M29.924274248906187,183.84184928925774 L36.74214557596311,168.5703904433198" fill-opacity="0" stroke="rgb(0,0,0)" stroke-width="7.9875195007800315" />
<path d="M-9.906583848486662,182.13402113497875 L-6.868423368440091,192.83026166778632" fill-opacity="0" stroke="rgb(0,0,0)" stroke-width="7.9875195007800315" />
<path d="M307.84081485071493,-91.43942653719733 L324.0656760434358,-76.47371921126364" fill-opacity="0" stroke="rgb(0,0,0)" stroke-width="7.9875195007800315" />
<path d="M185.79178966639918,229.90994700409323 L191.68829431437098,232.09484363214108" fill-opacity="0" stroke="rgb(0,0,0)" stroke-width="7.9875195007800315" />
<path d="M-76.4550220598756,-109.74540005120409 L-60.102867478601695,-108.12405891753357" fill-opacity="0" stroke="rgb(0,0,0)" stroke-width="7.9875195007800315" />
<path d="M-198.2848951327174,208.19286364190106 L-173.58974069681824,208.22544362559006" fill-opacity="0" stroke="rgb(0,0,0)" stroke-width="7.9875195007800315" />
<path d="M-352.8949325704156,-52.92146624415116 L-345.48228096720163,-43.77633961685714" fill-opacity="0" stroke="rgb(0,0,0)" stroke-width="7.9875195007800315" />
<path d="M198.8120695665049,146.19884099316914 L196.0192388559367,136.92996294677218" fill-opacity="0" stroke="rgb(0,0,0)" stroke-width="7.9875195007800315" />
<path d="M-132.0948548003437,-316.97869481275717 L-127.8885497171558,-326.2105262217886" fill-opacity="0" stroke="rgb(0,0,0)" stroke-width="7.9875195007800315" />
<path d="M88.830481143804,481.87635781622157 L83.5047069071469,484.24453934974684" fill-opacity="0" stroke="rgb(0,0,0)" stroke-width="7.9875195007800315" />
<path d="M-354.3203479684853,45.99940950212459 L-350.04101594429085,34.206382047636225" fill-opacity="0" stroke="rgb(0,0,0)" stroke-width="7.9875195007800315" />
<path d="M175.20129102560145,267.47259896809885 L173.82138481821255,273.35149348363785" fill-opacity="0" stroke="rgb(0,0,0)" stroke-width="7.9875195007800315" />
<path d="M256.07828546125165,-126.92225759277619 L267.45094191686803,-142.26158170073222" fill-opacity="0" stroke="rgb(0,0,0)" stroke-width="7.9875195007800315" />
<path d="M332.032745705808,-246.09279470388321 L340.4188106135234,-236.4721292454575" fill-opacity="0" stroke="rgb(0,0,0)" stroke-width="7.9875195007800315" />
<path d="M135.72885873034386,-125.4637286401869 L121.30393623832168,-141.77004345149834" fill-opacity="0" stroke="rgb(0,0,0)" stroke-width="7.9875195007800315" />
<path d="M-440.6432171638071,-111.58422910343984 L-444.2217801004252,-110.98931568925485" fill-opacity="0" stroke="rgb(0,0,0)" stroke-width="7.9875195007800315" />
<path d="M136.66360240205182,444.85117042556715 L138.60287927441613,449.037828817373" fill-opacity="0" stroke="rgb(0,0,0)" stroke-width="7.9875195007800315" />
<path d="M-76.63484746707746,-36.456382521975854 L-57.536356016708766,-2.1566217793345004" fill-opacity="0" stroke="rgb(0,0,0)" stroke-width="7.9875195007800315" />
<path d="M-23.278269687511568,-253.1880665157019 L-14.591260952564681,-267.66922859209535" fill-opacity="0" stroke="rgb(0,0,0)" stroke-width="7.9875195007800315" />
<path d="M69.02989899166863,99.35872582435587 L88.2940436687013,87.44271671464958" fill-opacity="0" stroke="rgb(0,0,0)" stroke-width="7.9875195007800315" />
<path d="M-1.91363347329927e-14,-111.2125675344138 L-1.877887582552389e-14,-114.13144102281623" fill-opacity="0" stroke="rgb(0,0,0)" stroke-width="7.9875195007800315" />
<path d="M277.36357396320665,-114.81785340820554 L249.15509236471365,-91.19688626221622" fill-opacity="0" stroke="rgb(0,0,0)" stroke-width="7.9875195007800315" />
<path d="M-99.01349165171496,-239.7254644507618 L-109.61287337847779,-236.14429763825657" fill-opacity="0" stroke="rgb(0,0,0)" stroke-width="7.9875195007800315" />
<path d="M371.61709072594454,31.92823460767329 L386.259320588988,40.249246285948004" fill-opacity="0" stroke="rgb(0,0,0)" stroke-width="7.9875195007800315" />
<path d="M-311.6600745444229,113.18799088599563 L-309.3433215957639,109.46902525147041" fill-opacity="0" stroke="rgb(0,0,0)" stroke-width="7.9875195007800315" />
<path d="M186.99669137633708,-290.8954735942692 L183.50654775199962,-293.2745629644568" fill-opacity="0" stroke="rgb(0,0,0)" stroke-width="7.9875195007800315" />
<path d="M306.0294319660901,80.77406410629234 L317.18778734131115,66.89608383727253" fill-opacity="0" stroke="rgb(0,0,0)" stroke-width="7.9875195007800315" />
<path d="M-188.424785203807,233.87626592100645 L-193.16929220476902,226.92387850228099" fill-opacity="0" stroke="rgb(0,0,0)" stroke-width="7.9875195007800315" />
<path d="M198.76516081518315,-327.1977505707336 L222.53157032940902,-339.97237271682815" fill-opacity="0" stroke="rgb(0,0,0)" stroke-width="7.9875195007800315" />
<path d="M-138.1567056339506,-183.61833458478807 L-116.08106958206781,-186.8922524196453" fill-opacity="0" stroke="rgb(0,0,0)" stroke-width="7.9875195007800315" />
<path d="M-90.26658457372412,289.74808624291865 L-66.16986467658057,299.2480287024879" fill-opacity="0" stroke="rgb(0,0,0)" stroke-width="7.9875195007800315" />
<path d="M-54.06012735494309,-383.12634569548965 L-69.55900366756552,-393.59863415853397" fill-opacity="0" stroke="rgb(0,0,0)" stroke-width="7.9875195007800315" />
<path d="M282.169441328326,-47.3171027277914 L282.9886140581535,-46.47310556516586" fill-opacity="0" stroke="rgb(0,0,0)" stroke-width="7.9875195007800315" />
<path d="M-390.5406972900531,277.84827635118023 L-410.7520399034774,266.07188798476284" fill-opacity="0" stroke="rgb(0,0,0)" stroke-width="7.9875195007800315" />
<path d="M5.558317616474195,-232.8598890946447 L7.2690506250272335,-239.77134040607768" fill-opacity="0" stroke="rgb(0,0,0)" stroke-width="7.9875195007800315" />
<path d="M463.27613104524187,-153.95501429645617 L463.2761310452419,-175.12440820909922" fill-opacity="0" stroke="rgb(0,0,0)" stroke-width="7.9875195007800315" />
<path d="M279.37152632431446,39.5979310783746 L285.46114352299696,26.787616742964758" fill-opacity="0" stroke="rgb(0,0,0)" stroke-width="7.9875195007800315" />
<path d="M-75.74420412857711,-70.64561068505532 L-48.064220061771266,-94.97601611417133" fill-opacity="0" stroke="rgb(0,0,0)" stroke-width="7.9875195007800315" />
<path d="M-235.71513025812797,99.40842263849328 L-243.1121272545209,113.8626415952167" fill-opacity="0" stroke="rgb(0,0,0)" stroke-width="7.9875195007800315" />
<path d="M114.69547519639912,406.1291670445367 L128.78864584496284,405.0350311892432" fill-opacity="0" stroke="rgb(0,0,0)" stroke-width="7.9875195007800315" />
<path d="M-4.560225697777358e-14,104.89808790687329 L-4.721856678536833e-14,118.09625907524679" fill-opacity="0" stroke="rgb(0,0,0)" stroke-width="7.9875195007800315" />
<path d="M-175.4156975727842,-250.62304324595644 L-192.92985774353764,-249.323578168934" fill-opacity="0" stroke="rgb(0,0,0)" stroke-width="7.9875195007800315" />
<path d="M185.02822171593158,-195.80241079856796 L173.75186251745777,-161.31399941919773" fill-opacity="0" stroke="rgb(0,0,0)" stroke-width="7.9875195007800315" />
<path d="M140.30796758277603,161.42582133521228 L119.99952687447202,158.73712898142162" fill-opacity="0" stroke="rgb(0,0,0)" stroke-width="7.9875195007800315" />
<path d="M30.242122945979414,-100.55023032810934 L33.6107290086636,-87.52436981613965" fill-opacity="0" stroke="rgb(0,0,0)" stroke-width="7.9875195007800315" />
<path d="M-168.16964379083032,-426.67786145856996 L-180.64948570443318,-429.23233080537307" fill-opacity="0" stroke="rgb(0,0,0)" stroke-width="7.9875195007800315" />
<path d="M15.937400340883215,-372.82995944859533 L-16.782543494803036,-365.80025275715553" fill-opacity="0" stroke="rgb(0,0,0)" stroke-width="7.9875195007800315" />
<path d="M-107.64107691187203,-399.6770586529127 L-115.09050597390583,-386.16854445654536" fill-opacity="0" stroke="rgb(0,0,0)" stroke-width="7.9875195007800315" />
<path d="M17.251848333532834,-285.0146777324736 L7.042301307498974,-265.7276608271942" fill-opacity="0" stroke="rgb(0,0,0)" stroke-width="7.9875195007800315" />
<path d="M24.498484999832954,-419.3127522417612 L34.81530660898932,-421.34347522829455" fill-opacity="0" stroke="rgb(0,0,0)" stroke-width="7.9875195007800315" />
<path d="M141.24698489992386,11.794167020380826 L133.23146282404497,24.748926451472954" fill-opacity="0" stroke="rgb(0,0,0)" stroke-width="7.9875195007800315" />
<path d="M125.54156697204067,19.83579291764346 L134.631862675792,1.7068794900559396" fill-opacity="0" stroke="rgb(0,0,0)" stroke-width="7.9875195007800315" />
<path d="M325.93936370357636,-90.21651521926651 L325.56785072016345,-104.7518934928994" fill-opacity="0" stroke="rgb(0,0,0)" stroke-width="7.9875195007800315" />
<path d="M324.7786996437642,165.9847130861321 L315.8868248726829,150.2233720384038" fill-opacity="0" stroke="rgb(0,0,0)" stroke-width="7.9875195007800315" />
<path d="M-432.42072753560046,68.38229538948767 L-434.0967895524618,62.6619927095621" fill-opacity="0" stroke="rgb(0,0,0)" stroke-width="7.9875195007800315" />
<path d="M-68.73931285360591,331.09428257638336 L-56.29404428705004,321.823261654099" fill-opacity="0" stroke="rgb(0,0,0)" stroke-width="7.9875195007800315" />
<path d="M-316.0193897129285,-180.87619548768848 L-315.95813187450983,-170.4626021174613" fill-opacity="0" stroke="rgb(0,0,0)" stroke-width="7.9875195007800315" />
<path d="M-36.52427332678639,-57.21490021964733 L-39.16821801324673,-53.006348849173825" fill-opacity="0" stroke="rgb(0,0,0)" stroke-width="7.9875195007800315" />
<path d="M323.23879893480756,24.920824796430225 L307.3560435185417,-2.588914548732106" fill-opacity="0" stroke="rgb(0,0,0)" stroke-width="7.9875195007800315" />
<path d="M-127.5211329701566,458.4590374516765 L-104.12408566767212,451.0675572833482" fill-opacity="0" stroke="rgb(0,0,0)" stroke-width="7.9875195007800315" />
<path d="M331.7415691285614,-343.41411369843365 L324.9809597999068,-347.3173533142183" fill-opacity="0" stroke="rgb(0,0,0)" stroke-width="7.9875195007800315" />
<path d="M-435.33089121973103,24.37673671305285 L-433.53271604805224,36.439426610078016" fill-opacity="0" stroke="rgb(0,0,0)" stroke-width="7.9875195007800315" />
<path d="M155.39749721244,-379.03304584120133 L146.90195973497197,-381.79853551862357" fill-opacity="0" stroke="rgb(0,0,0)" stroke-width="7.9875195007800315" />
<path d="M142.7875961793861,52.63581793068613 L146.77567797075667,60.540159786547406" fill-opacity="0" stroke="rgb(0,0,0)" stroke-width="7.9875195007800315" />
<path d="M128.2788340264616,96.26755494586268 L155.99649287754556,77.396765957441" fill-opacity="0" stroke="rgb(0,0,0)" stroke-width="7.9875195007800315" />
<path d="M-47.369340420347775,-243.13633663699954 L-57.90518210668885,-215.13206868673086" fill-opacity="0" stroke="rgb(0,0,0)" stroke-width="7.9875195007800315" />
<path d="M-28.50600428023418,256.59279743996586 L-17.083755741367924,299.3415256908349" fill-opacity="0" stroke="rgb(0,0,0)" stroke-width="7.9875195007800315" />
<path d="M-94.17943801566614,-49.48587254524196 L-100.13896522855867,-41.91738622763538" fill-opacity="0" stroke="rgb(0,0,0)" stroke-width="7.9875195007800315" />
<path d="M254.92039762467766,-387.7668377456634 L260.5157799648342,-384.5363422453552" fill-opacity="0" stroke="rgb(0,0,0)" stroke-width="7.9875195007800315" />
<path d="M150.95301630123714,-199.25329546261833 L124.90287147523767,-185.37280977309052" fill-opacity="0" stroke="rgb(0,0,0)" stroke-width="7.9875195007800315" />
<path d="M-58.94604117277538,-34.03251273876461 L-48.6525532068859,-28.089564690758138" fill-opacity="0" stroke="rgb(0,0,0)" stroke-width="7.9875195007800315" />
<path d="M-152.1945049354823,102.34629194983796 L-136.8777417533094,118.84088826887677" fill-opacity="0" stroke="rgb(0,0,0)" stroke-width="7.9875195007800315" />
<path d="M59.92829398220126,-358.9734149251096 L63.261726521670504,-380.4028285674392" fill-opacity="0" stroke="rgb(0,0,0)" stroke-width="7.9875195007800315" />
<path d="M-361.00551845243785,286.6939052773453 L-346.7840573124212,289.10852155690594" fill-opacity="0" stroke="rgb(0,0,0)" stroke-width="7.9875195007800315" />
<path d="M93.47019139615307,-100.92623864978367 L103.36663170476146,-109.64578945464106" fill-opacity="0" stroke="rgb(0,0,0)" stroke-width="7.9875195007800315" />
<path d="M-4.560565981806446,-33.200748927737834 L-4.365020932830189,-35.78371711609446" fill-opacity="0" stroke="rgb(0,0,0)" stroke-width="7.9875195007800315" />
<path d="M-13.737043316285224,-64.05013153330412 L-30.60519625428236,-57.82116267517594" fill-opacity="0" stroke="rgb(0,0,0)" stroke-width="7.9875195007800315" />
<path d="M106.35168540352424,-124.66171629763801 L113.4542858138779,-104.25131691834304" fill-opacity="0" stroke="rgb(0,0,0)" stroke-width="7.9875195007800315" />
<path d="M298.7679249183173,-16.623028124230927 L311.16893839204056,4.769237449559682" fill-opacity="0" stroke="rgb(0,0,0)" stroke-width="7.9875195007800315" />
<path d="M-202.76340165043774,-161.12494955448608 L-216.84068485348473,-148.84759965429143" fill-opacity="0" stroke="rgb(0,0,0)" stroke-width="7.9875195007800315" />
<path d="M-248.18139614948234,58.07704207015558 L-236.26344045968233,61.75592335176303" fill-opacity="0" stroke="rgb(0,0,0)" stroke-width="7.9875195007800315" />
<path d="M338.1527141719856,-122.23595242688316 L333.999601611831,-139.79024381906083" fill-opacity="0" stroke="rgb(0,0,0)" stroke-width="7.9875195007800315" />
<path d="M463.2761310452418,61.39392057664955 L463.2761310452418,69.70464958286826" fill-opacity="0" stroke="rgb(0,0,0)" stroke-width="7.9875195007800315" />
<path d="M456.47949219321714,-212.66888477647274 L436.45782795878387,-201.73005758778342" fill-opacity="0" stroke="rgb(0,0,0)" stroke-width="7.9875195007800315" />
<path d="M-352.96193876317477,106.37050041575867 L-352.10437006957335,94.55423266424211" fill-opacity="0" stroke="rgb(0,0,0)" stroke-width="7.9875195007800315" />
<path d="M140.87926435940886,-257.23400446735087 L122.96068669470748,-258.62592707889985" fill-opacity="0" stroke="rgb(0,0,0)" stroke-width="7.9875195007800315" />
<path d="M-261.26818082721724,-298.41657444563566 L-285.2485117095669,-293.7613887548957" fill-opacity="0" stroke="rgb(0,0,0)" stroke-width="7.9875195007800315" />
<path d="M-79.23687697321088,-231.26123138507933 L-58.98287573371027,-228.67293906554258" fill-opacity="0" stroke="rgb(0,0,0)" stroke-width="7.9875195007800315" />
<path d="M-32.53011901028193,418.89841255472237 L-31.52142670244431,411.71115744166826" fill-opacity="0" stroke="rgb(0,0,0)" stroke-width="7.9875195007800315" />
<path d="M-121.30500321527768,-358.4483018070778 L-111.08090871189864,-370.4062398897301" fill-opacity="0" stroke="rgb(0,0,0)" stroke-width="7.9875195007800315" />
<path d="M37.24016424357107,358.3783124826574 L31.642535989621194,349.94169701020496" fill-opacity="0" stroke="rgb(0,0,0)" stroke-width="7.9875195007800315" />
<path d="M-161.4464235485449,-54.87065982984947 L-160.19307804470742,-40.47748539152735" fill-opacity="0" stroke="rgb(0,0,0)" stroke-width="7.9875195007800315" />
<path d="M185.26001118702487,394.1416234682615 L180.26015587540982,418.39132807720455" fill-opacity="0" stroke="rgb(0,0,0)" stroke-width="7.9875195007800315" />
<path d="M88.26492859550746,67.70529528455964 L68.1525849966751,57.097322256847065" fill-opacity="0" stroke="rgb(0,0,0)" stroke-width="7.9875195007800315" />
<path d="M-1.6634971310953286,-105.88062775667379 L-1.8913178161206532,-58.06013613588982" fill-opacity="0" stroke="rgb(0,0,0)" stroke-width="7.9875195007800315" />
<path d="M-180.86380991559517,295.4629496996324 L-170.35224666840205,290.6394970534716" fill-opacity="0" stroke="rgb(0,0,0)" stroke-width="7.9875195007800315" />
<path d="M-241.2376201274999,31.305827021408703 L-257.28374725077595,26.143307898622936" fill-opacity="0" stroke="rgb(0,0,0)" stroke-width="7.9875195007800315" />
<path d="M299.2083961550064,91.29048389083152 L321.463098107931,77.97528185517885" fill-opacity="0" stroke="rgb(0,0,0)" stroke-width="7.9875195007800315" />
<path d="M22.69874370627602,165.90692344982585 L27.542446396063923,149.09727890430298" fill-opacity="0" stroke="rgb(0,0,0)" stroke-width="7.9875195007800315" />
<path d="M361.5024959613472,-71.18836582963371 L367.4615711883938,-87.58548771218909" fill-opacity="0" stroke="rgb(0,0,0)" stroke-width="7.9875195007800315" />
<path d="M103.60315901410229,457.8509942186686 L117.13965187292015,451.11160866463456" fill-opacity="0" stroke="rgb(0,0,0)" stroke-width="7.9875195007800315" />
<path d="M2.7659041752229103e-15,-290.05792052488255 L4.161371258779412e-15,-301.45277400041596" fill-opacity="0" stroke="rgb(0,0,0)" stroke-width="7.9875195007800315" />
<path d="M93.66663040132991,-121.05182860251352 L105.11930244783002,-135.32587597335575" fill-opacity="0" stroke="rgb(0,0,0)" stroke-width="7.9875195007800315" />
<path d="M-449.7829244586078,171.54242928976123 L-450.95968566392384,165.95837601397534" fill-opacity="0" stroke="rgb(0,0,0)" stroke-width="7.9875195007800315" />
<path d="M-85.14602890878903,163.22846702363296 L-78.94412596221377,185.3397634703702" fill-opacity="0" stroke="rgb(0,0,0)" stroke-width="7.9875195007800315" />
<path d="M-340.11441517944166,-67.61506272986776 L-353.14105839073136,-78.67427799526024" fill-opacity="0" stroke="rgb(0,0,0)" stroke-width="7.9875195007800315" />
<path d="M-229.69466872445742,-69.32402527923121 L-217.87212537717738,-82.43558935638995" fill-opacity="0" stroke="rgb(0,0,0)" stroke-width="7.9875195007800315" />
<path d="M93.72389850600203,267.4725989680988 L81.4003183560281,267.4725989680988" fill-opacity="0" stroke="rgb(0,0,0)" stroke-width="7.9875195007800315" />
<path d="M328.1170540902828,-33.37021057799775 L327.4063611599609,-32.13925431410023" fill-opacity="0" stroke="rgb(0,0,0)" stroke-width="7.9875195007800315" />
<path d="M-463.27613104524187,-156.83272291457263 L-463.27613104524187,-151.1662916942032" fill-opacity="0" stroke="rgb(0,0,0)" stroke-width="7.9875195007800315" />
<path d="M236.4423035708948,-136.63112930725626 L255.74700215757565,-141.72853483631792" fill-opacity="0" stroke="rgb(0,0,0)" stroke-width="7.9875195007800315" />
<path d="M-266.2372916601303,-272.3861468916667 L-277.94670288823545,-267.47259896809885" fill-opacity="0" stroke="rgb(0,0,0)" stroke-width="7.9875195007800315" />
<path d="M-66.87344877548531,291.82597812583396 L-52.02723875801803,324.4140533989759" fill-opacity="0" stroke="rgb(0,0,0)" stroke-width="7.9875195007800315" />
<path d="M338.55460452637345,-284.51414782627694 L350.7952126213879,-274.8667166992566" fill-opacity="0" stroke="rgb(0,0,0)" stroke-width="7.9875195007800315" />
<path d="M267.66044726268643,-329.8212919148759 L269.4651820608615,-349.60382813088415" fill-opacity="0" stroke="rgb(0,0,0)" stroke-width="7.9875195007800315" />
<path d="M8.02737112315156,-3.4580636270442255 L6.243351050619744,-22.158223694493017" fill-opacity="0" stroke="rgb(0,0,0)" stroke-width="7.9875195007800315" />
<path d="M313.41857875159565,46.250457398730134 L301.8357826938011,66.31715996315393" fill-opacity="0" stroke="rgb(0,0,0)" stroke-width="7.9875195007800315" />
<path d="M424.9624293070562,-22.51553720649619 L427.86827124569095,-29.71528036573298" fill-opacity="0" stroke="rgb(0,0,0)" stroke-width="7.9875195007800315" />
<path d="M-112.53393584778439,460.709444380581 L-106.11471669849348,473.14187342045" fill-opacity="0" stroke="rgb(0,0,0)" stroke-width="7.9875195007800315" />
<path d="M-45.08805166300999,457.8653218192892 L-36.91348254399196,471.7841534119155" fill-opacity="0" stroke="rgb(0,0,0)" stroke-width="7.9875195007800315" />
<path d="M-134.84134896639327,-21.741282305345578 L-122.08801833656449,2.1057148736746854" fill-opacity="0" stroke="rgb(0,0,0)" stroke-width="7.9875195007800315" />
<path d="M-154.30374837193563,-117.35379543059258 L-144.32710158122185,-91.61746551588669" fill-opacity="0" stroke="rgb(0,0,0)" stroke-width="7.9875195007800315" />
<path d="M-197.4355494946526,-34.678072057102575 L-175.74000010077043,-34.18639826465159" fill-opacity="0" stroke="rgb(0,0,0)" stroke-width="7.9875195007800315" />
<path d="M-179.63503073818399,-426.9160506524042 L-190.4287641864106,-420.9863901348015" fill-opacity="0" stroke="rgb(0,0,0)" stroke-width="7.9875195007800315" />
<path d="M-248.52214859735574,37.54242602424972 L-236.6342022214211,56.26316941181864" fill-opacity="0" stroke="rgb(0,0,0)" stroke-width="7.9875195007800315" />
<path d="M-155.9744828307181,76.47569707616151 L-181.5051880975892,93.721062103387" fill-opacity="0" stroke="rgb(0,0,0)" stroke-width="7.9875195007800315" />
<path d="M393.7984201982194,264.48678299554615 L389.25612317631214,274.1392730086861" fill-opacity="0" stroke="rgb(0,0,0)" stroke-width="7.9875195007800315" />
<path d="M423.2057661132619,201.29774640300954 L463.27613104524175,211.53262219882157" fill-opacity="0" stroke="rgb(0,0,0)" stroke-width="7.9875195007800315" />
<path d="M393.54926865084974,-290.48409554859353 L399.69736600478507,-293.43622320539293" fill-opacity="0" stroke="rgb(0,0,0)" stroke-width="7.9875195007800315" />
<path d="M-311.9361004843641,205.57570203058685 L-322.7039210965908,216.26628144488637" fill-opacity="0" stroke="rgb(0,0,0)" stroke-width="7.9875195007800315" />
<path d="M-56.44178496377296,56.87583132367658 L-40.12980576482457,33.92075965324733" fill-opacity="0" stroke="rgb(0,0,0)" stroke-width="7.9875195007800315" />
<path d="M114.96414854544129,-421.9737277164812 L119.69916952539432,-421.450456468434" fill-opacity="0" stroke="rgb(0,0,0)" stroke-width="7.9875195007800315" />
<path d="M-258.0105083271368,-24.894815012046877 L-242.96853623407685,-3.4626057657860088" fill-opacity="0" stroke="rgb(0,0,0)" stroke-width="7.9875195007800315" />
<path d="M-36.447698985437896,404.20847086114594 L-32.66443244760201,390.25454923607725" fill-opacity="0" stroke="rgb(0,0,0)" stroke-width="7.9875195007800315" />
<path d="M37.06392156660428,-327.5900851813326 L49.56495843924924,-319.345825427979" fill-opacity="0" stroke="rgb(0,0,0)" stroke-width="7.9875195007800315" />
<path d="M111.83711853188454,-192.9483603558209 L114.70198412807436,-218.55803748035498" fill-opacity="0" stroke="rgb(0,0,0)" stroke-width="7.9875195007800315" />
<path d="M386.62349715948363,-141.31828539174325 L384.1007741712168,-137.4798852828142" fill-opacity="0" stroke="rgb(0,0,0)" stroke-width="7.9875195007800315" />
<path d="M-375.2358408793743,305.6522124950909 L-379.7379740472994,282.9533211295504" fill-opacity="0" stroke="rgb(0,0,0)" stroke-width="7.9875195007800315" />
<path d="M107.07367309943245,472.3081927143984 L101.36627257054411,475.5699279199115" fill-opacity="0" stroke="rgb(0,0,0)" stroke-width="7.9875195007800315" />
<path d="M-79.65689359080653,-97.72142637635852 L-103.24712922925755,-100.87322829962443" fill-opacity="0" stroke="rgb(0,0,0)" stroke-width="7.9875195007800315" />
<path d="M-14.33749215067013,-399.5175270771051 L-26.377688372555383,-397.9446616218523" fill-opacity="0" stroke="rgb(0,0,0)" stroke-width="7.9875195007800315" />
<path d="M-165.99503983072745,-199.46992366836696 L-163.46759612077062,-232.1964320455329" fill-opacity="0" stroke="rgb(0,0,0)" stroke-width="7.9875195007800315" />
<path d="M-226.9916928463181,352.2123248038352 L-219.7525081470991,383.1655980110483" fill-opacity="0" stroke="rgb(0,0,0)" stroke-width="7.9875195007800315" />
<path d="M189.3984299193481,267.47259896809885 L179.8781647780718,267.47259896809885" fill-opacity="0" stroke="rgb(0,0,0)" stroke-width="7.9875195007800315" />
<path d="M58.75061682171736,-33.91968443707512 L70.67438119967409,-40.8038730104421" fill-opacity="0" stroke="rgb(0,0,0)" stroke-width="7.9875195007800315" />
<path d="M-230.56245524885813,-206.0840505286061 L-225.8405590354473,-219.61024968013035" fill-opacity="0" stroke="rgb(0,0,0)" stroke-width="7.9875195007800315" />
<path d="M355.17947332947114,80.30000677292506 L344.3881584848592,73.88128651719794" fill-opacity="0" stroke="rgb(0,0,0)" stroke-width="7.9875195007800315" />
<path d="M297.49717241729434,19.664980201365267 L311.8821489801117,-5.25053007112183" fill-opacity="0" stroke="rgb(0,0,0)" stroke-width="7.9875195007800315" />
<path d="M-424.04242770569766,-239.00323903936618 L-424.2427402400527,-240.43866134805143" fill-opacity="0" stroke="rgb(0,0,0)" stroke-width="7.9875195007800315" />
<path d="M-51.84558099743462,-66.03614583390191 L-54.251986124047946,-79.37782910582891" fill-opacity="0" stroke="rgb(0,0,0)" stroke-width="7.9875195007800315" />
<path d="M449.57372222959435,-267.41989121771485 L449.15398693288404,-268.1051099492939" fill-opacity="0" stroke="rgb(0,0,0)" stroke-width="7.9875195007800315" />
<path d="M-70.94038971112724,-419.7374734592486 L-57.483614176652,-438.54940095916277" fill-opacity="0" stroke="rgb(0,0,0)" stroke-width="7.9875195007800315" />
<path d="M-27.177656227311303,-447.251310509802 L-26.278211897033742,-455.7079715389312" fill-opacity="0" stroke="rgb(0,0,0)" stroke-width="7.9875195007800315" />
<path d="M25.40196248331973,237.5704358871242 L22.395824328531717,218.47451089834843" fill-opacity="0" stroke="rgb(0,0,0)" stroke-width="7.9875195007800315" />
<path d="M-157.1851170031307,-206.93852013788353 L-172.7744046132266,-171.58235763474863" fill-opacity="0" stroke="rgb(0,0,0)" stroke-width="7.9875195007800315" />
<path d="M-38.547877911773156,-222.19383126127852 L-50.31563573973612,-196.1987391790545" fill-opacity="0" stroke="rgb(0,0,0)" stroke-width="7.9875195007800315" />
<path d="M-247.92553690651923,-309.2223246352192 L-245.30388703599405,-329.17464707225037" fill-opacity="0" stroke="rgb(0,0,0)" stroke-width="7.9875195007800315" />
<path d="M-33.06806898377249,-371.5075171761783 L-12.813825052764514,-400.2442698954184" fill-opacity="0" stroke="rgb(0,0,0)" stroke-width="7.9875195007800315" />
<path d="M116.8028045275459,266.67909528152427 L124.30474839029786,264.4494724924946" fill-opacity="0" stroke="rgb(0,0,0)" stroke-width="7.9875195007800315" />
<path d="M130.38082613765428,59.458010712565574 L114.01160962863455,62.28048141395998" fill-opacity="0" stroke="rgb(0,0,0)" stroke-width="7.9875195007800315" />
<path d="M209.0028383073583,-186.6502532844214 L215.16363860156684,-197.39666338791992" fill-opacity="0" stroke="rgb(0,0,0)" stroke-width="7.9875195007800315" />
<path d="M324.2624306517698,118.9773393577849 L330.9112107723288,113.31216551744274" fill-opacity="0" stroke="rgb(0,0,0)" stroke-width="7.9875195007800315" />
<path d="M-112.94406658758189,149.51152124952378 L-134.09065622248906,166.83505843899147" fill-opacity="0" stroke="rgb(0,0,0)" stroke-width="7.9875195007800315" />
<path d="M-391.60831767054196,308.8500303122135 L-378.65554880590787,305.0099010227157" fill-opacity="0" stroke="rgb(0,0,0)" stroke-width="7.9875195007800315" />
<path d="M-76.85807971621902,189.52594098404057 L-75.52138810485158,154.26300803418047" fill-opacity="0" stroke="rgb(0,0,0)" stroke-width="7.9875195007800315" />
<path d="M-357.02629724956074,313.6872977613158 L-346.0579375299627,314.6157579668563" fill-opacity="0" stroke="rgb(0,0,0)" stroke-width="7.9875195007800315" />
<path d="M31.125237412256674,-177.21310123493728 L31.88169819886029,-198.99941900488065" fill-opacity="0" stroke="rgb(0,0,0)" stroke-width="7.9875195007800315" />
<path d="M-226.6630443939718,-391.9911647060075 L-232.69042528702428,-391.0879349980032" fill-opacity="0" stroke="rgb(0,0,0)" stroke-width="7.9875195007800315" />
<path d="M-363.1768792337701,245.90797594478556 L-363.95837992202195,241.4397326684511" fill-opacity="0" stroke="rgb(0,0,0)" stroke-width="7.9875195007800315" />
<path d="M-50.185218768834034,-353.07817860785264 L-64.37558570033411,-366.8261166737085" fill-opacity="0" stroke="rgb(0,0,0)" stroke-width="7.9875195007800315" />
<path d="M-139.18832132660063,52.644142360305466 L-129.29341681318496,26.969212618743597" fill-opacity="0" stroke="rgb(0,0,0)" stroke-width="7.9875195007800315" />
<path d="M124.91032036446974,96.53097568373556 L125.3682814199788,73.61455687504588" fill-opacity="0" stroke="rgb(0,0,0)" stroke-width="7.9875195007800315" />
<path d="M317.30840575599416,-272.71629022048097 L279.44598161474516,-275.4081167503044" fill-opacity="0" stroke="rgb(0,0,0)" stroke-width="7.9875195007800315" />
<path d="M59.08775399070129,-343.8846495262359 L50.9843064460448,-363.25889689589314" fill-opacity="0" stroke="rgb(0,0,0)" stroke-width="7.9875195007800315" />
<path d="M173.5834460158958,360.161212225824 L201.42606072457028,358.97251941040366" fill-opacity="0" stroke="rgb(0,0,0)" stroke-width="7.9875195007800315" />
<path d="M155.1097853054968,166.61996611737135 L138.38007989540927,160.78775065758268" fill-opacity="0" stroke="rgb(0,0,0)" stroke-width="7.9875195007800315" />
<path d="M22.646685915953412,-57.42861117323324 L3.962257139548285,-58.14004391339773" fill-opacity="0" stroke="rgb(0,0,0)" stroke-width="7.9875195007800315" />
<path d="M418.86803933911796,-216.77837638844247 L424.5095886691802,-228.20668294710444" fill-opacity="0" stroke="rgb(0,0,0)" stroke-width="7.9875195007800315" />
<path d="M409.7522931628431,-84.18821292147439 L412.199088084956,-84.66689882587391" fill-opacity="0" stroke="rgb(0,0,0)" stroke-width="7.9875195007800315" />
<path d="M-463.276131045242,127.1967540511577 L-463.276131045242,119.43225490897846" fill-opacity="0" stroke="rgb(0,0,0)" stroke-width="7.9875195007800315" />
<path d="M257.2082133078495,-81.60406631241412 L244.60067462747932,-63.81610943854855" fill-opacity="0" stroke="rgb(0,0,0)" stroke-width="7.9875195007800315" />
<path d="M-179.14642333682843,388.7091457689019 L-186.05346284216517,367.7839950777782" fill-opacity="0" stroke="rgb(0,0,0)" stroke-width="7.9875195007800315" />
<path d="M463.2761310452419,-173.06892327996502 L463.27613104524187,-166.39838905121624" fill-opacity="0" stroke="rgb(0,0,0)" stroke-width="7.9875195007800315" />
<path d="M-23.45236858149036,487.20267428372256 L-30.01123831121873,467.5596921777762" fill-opacity="0" stroke="rgb(0,0,0)" stroke-width="7.9875195007800315" />
<path d="M-6.092653223561001,-208.6851857183001 L-6.732794382722314,-234.3788293144396" fill-opacity="0" stroke="rgb(0,0,0)" stroke-width="7.9875195007800315" />
<path d="M-74.65146198676001,-361.93191871223235 L-62.029603962059696,-370.71675519025666" fill-opacity="0" stroke="rgb(0,0,0)" stroke-width="7.9875195007800315" />
<path d="M-442.8402455010425,-59.20083172123665 L-438.70338032687755,-56.788688604507115" fill-opacity="0" stroke="rgb(0,0,0)" stroke-width="7.9875195007800315" />
<path d="M-367.6449104174965,320.6663178141727 L-355.74890026200524,319.10427502097133" fill-opacity="0" stroke="rgb(0,0,0)" stroke-width="7.9875195007800315" />
<path d="M303.25058896012223,-83.99216434562788 L313.56236002921526,-107.86609459431281" fill-opacity="0" stroke="rgb(0,0,0)" stroke-width="7.9875195007800315" />
<path d="M160.4302741965608,-432.364400417266 L173.4130256492395,-429.44859413294273" fill-opacity="0" stroke="rgb(0,0,0)" stroke-width="7.9875195007800315" />
<path d="M276.72050528009237,-54.47404890580165 L280.50096319165254,-47.8345607891971" fill-opacity="0" stroke="rgb(0,0,0)" stroke-width="7.9875195007800315" />
<path d="M28.438267333012448,257.4238659575174 L-3.2229919210951152,256.64378922583234" fill-opacity="0" stroke="rgb(0,0,0)" stroke-width="7.9875195007800315" />
<path d="M276.0523495790685,244.37176927276022 L278.81710127689405,253.8849057891081" fill-opacity="0" stroke="rgb(0,0,0)" stroke-width="7.9875195007800315" />
<path d="M275.8110883769672,200.88931170330997 L267.4592609586043,193.88742397665118" fill-opacity="0" stroke="rgb(0,0,0)" stroke-width="7.9875195007800315" />
<path d="M-301.5598717471005,-4.043388521045287 L-263.7296616347519,-20.434481473271063" fill-opacity="0" stroke="rgb(0,0,0)" stroke-width="7.9875195007800315" />
<path d="M-36.7267130629084,-115.7165816871595 L-38.72680596232155,-107.2981920686556" fill-opacity="0" stroke="rgb(0,0,0)" stroke-width="7.9875195007800315" />
<path d="M118.3472077286617,96.09675621596017 L132.64027146758784,95.16472070096117" fill-opacity="0" stroke="rgb(0,0,0)" stroke-width="7.9875195007800315" />
<path d="M19.38583622290757,-517.2799517244928 L20.94188672702942,-514.1646696003738" fill-opacity="0" stroke="rgb(0,0,0)" stroke-width="7.9875195007800315" />
<path d="M84.16873110272034,196.75946488362547 L90.41269323956433,177.61723204935055" fill-opacity="0" stroke="rgb(0,0,0)" stroke-width="7.9875195007800315" />
<path d="M163.57642995481643,438.58571744321443 L160.98246609672972,433.0525938113349" fill-opacity="0" stroke="rgb(0,0,0)" stroke-width="7.9875195007800315" />
<path d="M-320.99602175090956,-146.63542263074515 L-326.8156938977304,-133.391068784094" fill-opacity="0" stroke="rgb(0,0,0)" stroke-width="7.9875195007800315" />
<path d="M-256.035215850515,267.4725989680986 L-251.37702028437485,267.4725989680986" fill-opacity="0" stroke="rgb(0,0,0)" stroke-width="7.9875195007800315" />
<path d="M279.196285490862,267.4725989680989 L276.5021390552398,251.26163282359227" fill-opacity="0" stroke="rgb(0,0,0)" stroke-width="7.9875195007800315" />
<path d="M-218.6354177395871,-43.03167867463624 L-208.72703778699767,-44.229681534373206" fill-opacity="0" stroke="rgb(0,0,0)" stroke-width="7.9875195007800315" />
<path d="M-463.27613104524187,-68.7593491504337 L-463.27613104524187,-63.23083282957012" fill-opacity="0" stroke="rgb(0,0,0)" stroke-width="7.9875195007800315" />
<path d="M-57.697588339106716,-4.5991518782738865 L-67.22553844373206,-12.743870150881747" fill-opacity="0" stroke="rgb(0,0,0)" stroke-width="7.9875195007800315" />
<path d="M-297.0153753756587,-259.7622335309856 L-276.8543262209375,-270.98028005747847" fill-opacity="0" stroke="rgb(0,0,0)" stroke-width="7.9875195007800315" />
<path d="M22.944579713029242,34.64607451533965 L18.044220320776958,28.57462533652523" fill-opacity="0" stroke="rgb(0,0,0)" stroke-width="7.9875195007800315" />
<path d="M-15.982764724603697,-134.82959283138396 L-27.74392911142266,-149.35449866231482" fill-opacity="0" stroke="rgb(0,0,0)" stroke-width="7.9875195007800315" />
<path d="M-106.85773769154282,-167.2315320263753 L-102.624402991406,-183.8309804521997" fill-opacity="0" stroke="rgb(0,0,0)" stroke-width="7.9875195007800315" />
<path d="M318.3169153925346,-1.464452326103597 L325.9442804760197,3.522018293054259" fill-opacity="0" stroke="rgb(0,0,0)" stroke-width="7.9875195007800315" />
<path d="M379.88766836779286,281.7635215350044 L364.94809249580203,279.26307840398766" fill-opacity="0" stroke="rgb(0,0,0)" stroke-width="7.9875195007800315" />
<path d="M-281.1310105751115,110.74272814080467 L-320.2358297027711,121.56639557454139" fill-opacity="0" stroke="rgb(0,0,0)" stroke-width="7.9875195007800315" />
<path d="M248.45021607289559,241.5729987062306 L216.21843110816397,255.28965362290575" fill-opacity="0" stroke="rgb(0,0,0)" stroke-width="7.9875195007800315" />
<path d="M-383.22880289077955,164.5941965795998 L-377.0527431422638,164.47057115616818" fill-opacity="0" stroke="rgb(0,0,0)" stroke-width="7.9875195007800315" />
<path d="M-364.35993533233204,314.28441899765176 L-363.36223908992895,310.928880517692" fill-opacity="0" stroke="rgb(0,0,0)" stroke-width="7.9875195007800315" />
<path d="M82.49456793536902,-364.3638875664147 L54.3077023489341,-355.50451994542954" fill-opacity="0" stroke="rgb(0,0,0)" stroke-width="7.9875195007800315" />
<path d="M239.14011660113636,-273.0989934848485 L227.80861555557215,-273.5146739587028" fill-opacity="0" stroke="rgb(0,0,0)" stroke-width="7.9875195007800315" />
<path d="M116.03101139213224,333.9735909514211 L116.38513436129358,333.36023197670653" fill-opacity="0" stroke="rgb(0,0,0)" stroke-width="7.9875195007800315" />
<path d="M317.70712680563435,346.72716725119597 L308.18880513955975,345.5654088200631" fill-opacity="0" stroke="rgb(0,0,0)" stroke-width="7.9875195007800315" />
<path d="M75.91775118868199,360.8554701959888 L71.24574727475799,365.79984122188944" fill-opacity="0" stroke="rgb(0,0,0)" stroke-width="7.9875195007800315" />
<path d="M-262.2518938286173,-241.9818778074633 L-285.9082349898175,-238.24073793674432" fill-opacity="0" stroke="rgb(0,0,0)" stroke-width="7.9875195007800315" />
<path d="M-308.10477972613546,-10.69823538263472 L-330.623022280928,-17.361689251380966" fill-opacity="0" stroke="rgb(0,0,0)" stroke-width="7.9875195007800315" />
<path d="M231.11607175598283,-296.6987888362703 L224.52387549725123,-303.19261197893184" fill-opacity="0" stroke="rgb(0,0,0)" stroke-width="7.9875195007800315" />
<path d="M-141.26172843774648,-81.22995918735634 L-147.22278153943387,-76.76812455699523" fill-opacity="0" stroke="rgb(0,0,0)" stroke-width="7.9875195007800315" />
<path d="M298.83053801132996,129.9032336925838 L290.38988555905803,122.49629652953232" fill-opacity="0" stroke="rgb(0,0,0)" stroke-width="7.9875195007800315" />
<path d="M-18.058518655210175,197.64877095420718 L-18.294967266190717,234.47267940336997" fill-opacity="0" stroke="rgb(0,0,0)" stroke-width="7.9875195007800315" />
<path d="M-344.6556747871181,-109.28939931866188 L-353.8667886078401,-92.06344249316152" fill-opacity="0" stroke="rgb(0,0,0)" stroke-width="7.9875195007800315" />
<path d="M-166.65398761850025,-267.14086011285707 L-157.55139066474803,-253.51964141709686" fill-opacity="0" stroke="rgb(0,0,0)" stroke-width="7.9875195007800315" />
<path d="M-380.1948692217246,67.78408019386313 L-392.6400644553738,80.57950335774206" fill-opacity="0" stroke="rgb(0,0,0)" stroke-width="7.9875195007800315" />
<path d="M-150.77023086154236,314.7686629631438 L-150.5403523484196,309.2383462676986" fill-opacity="0" stroke="rgb(0,0,0)" stroke-width="7.9875195007800315" />
<path d="M90.68225118163362,124.17284468922185 L83.00060450708095,92.73806465696742" fill-opacity="0" stroke="rgb(0,0,0)" stroke-width="7.9875195007800315" />
<path d="M320.57907403742854,349.8587832441272 L321.1757989014557,349.514263983249" fill-opacity="0" stroke="rgb(0,0,0)" stroke-width="7.9875195007800315" />
<path d="M-140.06856479300524,236.6113462441811 L-165.51936492867878,252.19302934555208" fill-opacity="0" stroke="rgb(0,0,0)" stroke-width="7.9875195007800315" />
<path d="M-278.5276142982989,-205.44853796376677 L-289.5439608066865,-191.8634362516185" fill-opacity="0" stroke="rgb(0,0,0)" stroke-width="7.9875195007800315" />
<path d="M-95.87138300267526,95.76553419953018 L-113.86533905721308,52.86905859776931" fill-opacity="0" stroke="rgb(0,0,0)" stroke-width="7.9875195007800315" />
<path d="M373.7011841695354,-8.978941218070702 L380.65741711184234,-23.228797853456513" fill-opacity="0" stroke="rgb(0,0,0)" stroke-width="7.9875195007800315" />
<path d="M373.20006174102724,160.7472691782683 L395.3951883161537,145.8943556054993" fill-opacity="0" stroke="rgb(0,0,0)" stroke-width="7.9875195007800315" />
<path d="M-118.39430798165105,329.88024118502045 L-123.85951210480142,320.4142299699891" fill-opacity="0" stroke="rgb(0,0,0)" stroke-width="7.9875195007800315" />
<path d="M-295.9499136957795,-130.43314499436644 L-286.24603680755405,-126.3816518741508" fill-opacity="0" stroke="rgb(0,0,0)" stroke-width="7.9875195007800315" />
<path d="M-301.88752797470875,250.027131208882 L-296.2452429483795,255.26115441121487" fill-opacity="0" stroke="rgb(0,0,0)" stroke-width="7.9875195007800315" />
<path d="M-198.32394654888182,191.4380461559599 L-190.7985732802044,204.47237500322987" fill-opacity="0" stroke="rgb(0,0,0)" stroke-width="7.9875195007800315" />
<path d="M348.71015263160587,-326.47888356532013 L338.489456360228,-332.65555275512503" fill-opacity="0" stroke="rgb(0,0,0)" stroke-width="7.9875195007800315" />
<path d="M387.15281678231395,-181.73434441179265 L411.62622573311046,-178.0123387613654" fill-opacity="0" stroke="rgb(0,0,0)" stroke-width="7.9875195007800315" />
<path d="M26.90976496868109,178.3602029278757 L10.631057555307507,175.76444606726542" fill-opacity="0" stroke="rgb(0,0,0)" stroke-width="7.9875195007800315" />
<path d="M-134.9425736094582,-232.52691574446771 L-153.3274316819392,-227.58564637079363" fill-opacity="0" stroke="rgb(0,0,0)" stroke-width="7.9875195007800315" />
<path d="M460.7590764630686,-182.56094180385864 L462.73387633614146,-180.4473700588107" fill-opacity="0" stroke="rgb(0,0,0)" stroke-width="7.9875195007800315" />
<path d="M-142.12189120873575,95.92428227420714 L-173.7881431375793,81.3085214293074" fill-opacity="0" stroke="rgb(0,0,0)" stroke-width="7.9875195007800315" />
<path d="M-82.10770336430846,73.68313366488388 L-92.66326186255262,68.69139042220908" fill-opacity="0" stroke="rgb(0,0,0)" stroke-width="7.9875195007800315" />
<path d="M105.54466093338485,215.64540373051614 L92.9822045208243,232.5252899866935" fill-opacity="0" stroke="rgb(0,0,0)" stroke-width="7.9875195007800315" />
<path d="M77.39753668312588,349.01576408358727 L80.60119818053877,376.9180541222476" fill-opacity="0" stroke="rgb(0,0,0)" stroke-width="7.9875195007800315" />
<path d="M267.725573656565,-102.64479647277108 L269.17540952953834,-112.52528941126695" fill-opacity="0" stroke="rgb(0,0,0)" stroke-width="7.9875195007800315" />
<path d="M-308.873818953874,-12.649976022986735 L-280.76121938722497,-28.168973019627927" fill-opacity="0" stroke="rgb(0,0,0)" stroke-width="7.9875195007800315" />
<path d="M-1.1755719761705734,337.4740418908744 L12.795653123191556,329.159054448203" fill-opacity="0" stroke="rgb(0,0,0)" stroke-width="7.9875195007800315" />
<path d="M280.40239619085435,-262.76755439098025 L298.28972364860624,-262.44382228205325" fill-opacity="0" stroke="rgb(0,0,0)" stroke-width="7.9875195007800315" />
<path d="M423.8147408511186,-251.36473671488653 L421.7253412933548,-272.6914425166794" fill-opacity="0" stroke="rgb(0,0,0)" stroke-width="7.9875195007800315" />
<path d="M177.72795753001816,-42.37738988998632 L177.8446690823638,-66.83778195763836" fill-opacity="0" stroke="rgb(0,0,0)" stroke-width="7.9875195007800315" />
<path d="M-329.47575673213817,35.72355258606916 L-339.00091699706434,52.22161411515742" fill-opacity="0" stroke="rgb(0,0,0)" stroke-width="7.9875195007800315" />
<path d="M-15.244260845258452,-91.8344765939002 L6.764116432092067,-90.15317643161622" fill-opacity="0" stroke="rgb(0,0,0)" stroke-width="7.9875195007800315" />
<path d="M-15.533296132451518,-503.8811246477262 L-19.566720202339233,-502.9197628473567" fill-opacity="0" stroke="rgb(0,0,0)" stroke-width="7.9875195007800315" />
<path d="M-276.70270353190375,-10.703179474029357 L-248.30677859283952,-6.969458788880521" fill-opacity="0" stroke="rgb(0,0,0)" stroke-width="7.9875195007800315" />
<path d="M93.50838565200236,-465.50129560977575 L97.39072014734516,-464.6288765201631" fill-opacity="0" stroke="rgb(0,0,0)" stroke-width="7.9875195007800315" />
<path d="M-9.65883453279974e-14,521.231094172209 L-9.691559231832875e-14,523.9032686355661" fill-opacity="0" stroke="rgb(0,0,0)" stroke-width="7.9875195007800315" />
<path d="M-32.76478453126134,-39.337273545882525 L-31.659621560837543,-62.41726095915767" fill-opacity="0" stroke="rgb(0,0,0)" stroke-width="7.9875195007800315" />
<path d="M-37.295261908680175,45.674237417494965 L-47.97073719478877,32.81742830234151" fill-opacity="0" stroke="rgb(0,0,0)" stroke-width="7.9875195007800315" />
<path d="M-159.89747886787998,-251.8470090774838 L-167.72718631399658,-237.55582273426356" fill-opacity="0" stroke="rgb(0,0,0)" stroke-width="7.9875195007800315" />
<path d="M219.36984532950373,126.6532392530757 L211.82233795001426,122.29568383581676" fill-opacity="0" stroke="rgb(0,0,0)" stroke-width="7.9875195007800315" />
<path d="M71.53135745009713,99.4250657804111 L64.29087999903035,130.0776965118925" fill-opacity="0" stroke="rgb(0,0,0)" stroke-width="7.9875195007800315" />
<path d="M293.3152266332347,-266.06407819590305 L298.3461550194785,-265.4315276220353" fill-opacity="0" stroke="rgb(0,0,0)" stroke-width="7.9875195007800315" />
<path d="M286.30624660321797,25.51795950901038 L287.05849308880954,35.282327698569986" fill-opacity="0" stroke="rgb(0,0,0)" stroke-width="7.9875195007800315" />
<path d="M-223.46137860020235,7.522758010072664 L-219.5624077936271,-6.228891993287277" fill-opacity="0" stroke="rgb(0,0,0)" stroke-width="7.9875195007800315" />
<path d="M146.38164988419712,328.4066201482 L145.46502969834398,336.4166831772127" fill-opacity="0" stroke="rgb(0,0,0)" stroke-width="7.9875195007800315" />
<path d="M143.2017423286196,-427.74082497502525 L154.35979904923582,-423.85842982086103" fill-opacity="0" stroke="rgb(0,0,0)" stroke-width="7.9875195007800315" />
<path d="M-446.06155257578666,218.32236508790498 L-445.6737841943175,233.7433223227806" fill-opacity="0" stroke="rgb(0,0,0)" stroke-width="7.9875195007800315" />
<path d="M318.00359312418135,-143.82983210050142 L291.03724403468146,-149.2166674013205" fill-opacity="0" stroke="rgb(0,0,0)" stroke-width="7.9875195007800315" />
<path d="M-327.4739079002015,164.35807443478708 L-341.8961693863456,159.79007612315064" fill-opacity="0" stroke="rgb(0,0,0)" stroke-width="7.9875195007800315" />
<path d="M153.57972811938671,151.8557500236608 L167.1818280934789,125.40355111477186" fill-opacity="0" stroke="rgb(0,0,0)" stroke-width="7.9875195007800315" />
<path d="M283.1775137697766,29.471993070324515 L294.03008330038017,51.117532245847315" fill-opacity="0" stroke="rgb(0,0,0)" stroke-width="7.9875195007800315" />
<path d="M-267.4775085473773,-267.9819729086496 L-291.38189328686394,-278.0351644161924" fill-opacity="0" stroke="rgb(0,0,0)" stroke-width="7.9875195007800315" />
<path d="M-298.9010257646682,179.8883250939818 L-298.49398209933736,177.87927300816165" fill-opacity="0" stroke="rgb(0,0,0)" stroke-width="7.9875195007800315" />
<path d="M81.42396845809833,-264.6824317875984 L62.648348919183604,-265.8323168337769" fill-opacity="0" stroke="rgb(0,0,0)" stroke-width="7.9875195007800315" />
<path d="M120.0289499798632,-267.4725989680988 L133.7351075986171,-267.4725989680988" fill-opacity="0" stroke="rgb(0,0,0)" stroke-width="7.9875195007800315" />
<path d="M20.605597974007537,-488.448558312356 L10.886710783544174,-494.54096295524005" fill-opacity="0" stroke="rgb(0,0,0)" stroke-width="7.9875195007800315" />
<path d="M-122.23094546084778,-173.86456191267158 L-130.2093513731089,-169.3177337079576" fill-opacity="0" stroke="rgb(0,0,0)" stroke-width="7.9875195007800315" />
<path d="M-178.8072167984081,-351.27571376634114 L-149.51367060189267,-354.37732699431353" fill-opacity="0" stroke="rgb(0,0,0)" stroke-width="7.9875195007800315" />
<path d="M277.0447411941601,-187.49263393858212 L293.28608140577285,-226.53684109149867" fill-opacity="0" stroke="rgb(0,0,0)" stroke-width="7.9875195007800315" />
<path d="M126.58905868313224,-171.1275038012157 L134.29863866357002,-212.44842710590825" fill-opacity="0" stroke="rgb(0,0,0)" stroke-width="7.9875195007800315" />
<path d="M419.0625364748886,95.33168484718544 L425.3635701839391,98.97126714229509" fill-opacity="0" stroke="rgb(0,0,0)" stroke-width="7.9875195007800315" />
<path d="M190.1817213567992,-80.42721734647483 L177.73720846435992,-71.53784608733307" fill-opacity="0" stroke="rgb(0,0,0)" stroke-width="7.9875195007800315" />
<path d="M86.7334021510527,19.957329405112915 L103.59417813758114,25.233858963745888" fill-opacity="0" stroke="rgb(0,0,0)" stroke-width="7.9875195007800315" />
<path d="M2.4648569967750618,-291.6067833582852 L-3.7599735993546943,-295.3052776713009" fill-opacity="0" stroke="rgb(0,0,0)" stroke-width="7.9875195007800315" />
<path d="M379.1295112929589,-276.1672346603824 L386.59942345387867,-269.9485046993034" fill-opacity="0" stroke="rgb(0,0,0)" stroke-width="7.9875195007800315" />
<path d="M-457.801127892675,-225.08788098877773 L-458.3470829396643,-222.13856540459105" fill-opacity="0" stroke="rgb(0,0,0)" stroke-width="7.9875195007800315" />
<path d="M165.99874553106042,386.62043563786295 L140.36681659241768,364.9865974192227" fill-opacity="0" stroke="rgb(0,0,0)" stroke-width="7.9875195007800315" />
<path d="M14.765097821010414,-170.68510257069997 L41.47426359390906,-142.2304619030101" fill-opacity="0" stroke="rgb(0,0,0)" stroke-width="7.9875195007800315" />
<path d="M-84.64935068505338,435.7739710306868 L-95.68288069153868,450.8059852282309" fill-opacity="0" stroke="rgb(0,0,0)" stroke-width="7.9875195007800315" />
<path d="M-365.1573830473967,-103.38319041120738 L-379.41405583761923,-108.91546497728095" fill-opacity="0" stroke="rgb(0,0,0)" stroke-width="7.9875195007800315" />
<path d="M-206.56898163015677,-295.8135350008962 L-215.9550931728887,-285.7223815276671" fill-opacity="0" stroke="rgb(0,0,0)" stroke-width="7.9875195007800315" />
<path d="M-362.17569355959046,-44.54321430842805 L-387.4444132884615,-18.68274449660902" fill-opacity="0" stroke="rgb(0,0,0)" stroke-width="7.9875195007800315" />
<path d="M230.17996024233383,-123.82519618550054 L226.69474538783817,-138.53974440146249" fill-opacity="0" stroke="rgb(0,0,0)" stroke-width="7.9875195007800315" />
<path d="M-299.09674763133125,-252.6098548303811 L-335.85999539790964,-261.03653210718835" fill-opacity="0" stroke="rgb(0,0,0)" stroke-width="7.9875195007800315" />
<path d="M168.6342385704005,-190.96560958646097 L155.36012526319396,-193.53515226615238" fill-opacity="0" stroke="rgb(0,0,0)" stroke-width="7.9875195007800315" />
<path d="M292.88376113093466,84.09127225507372 L273.43625727005417,82.02183646236227" fill-opacity="0" stroke="rgb(0,0,0)" stroke-width="7.9875195007800315" />
<path d="M-281.49686682927967,98.7454743871753 L-299.6319044245513,103.19645693729402" fill-opacity="0" stroke="rgb(0,0,0)" stroke-width="7.9875195007800315" />
<path d="M-350.6357889855801,251.37020282421355 L-345.2374734793905,256.66912527700566" fill-opacity="0" stroke="rgb(0,0,0)" stroke-width="7.9875195007800315" />
<path d="M295.8588246932033,-22.502681699955495 L301.04541317864494,-13.519246925218797" fill-opacity="0" stroke="rgb(0,0,0)" stroke-width="7.9875195007800315" />
<path d="M-125.42239193575989,-275.670172393979 L-111.5930425705821,-264.3666756189477" fill-opacity="0" stroke="rgb(0,0,0)" stroke-width="7.9875195007800315" />
<path d="M-165.42541131737653,-322.7778083973319 L-169.74940872161835,-328.1430715295741" fill-opacity="0" stroke="rgb(0,0,0)" stroke-width="7.9875195007800315" />
<path d="M-331.2251678784068,-50.2637867035127 L-336.9097426597297,-55.37316728553791" fill-opacity="0" stroke="rgb(0,0,0)" stroke-width="7.9875195007800315" />
<path d="M-62.956722459650386,-394.7139713699376 L-61.91540121745808,-413.72747402161696" fill-opacity="0" stroke="rgb(0,0,0)" stroke-width="7.9875195007800315" />
<path d="M-178.1293102205152,-209.60020862640582 L-173.1005523170951,-187.87818290373832" fill-opacity="0" stroke="rgb(0,0,0)" stroke-width="7.9875195007800315" />
<path d="M29.329949581050954,-195.13429961112527 L39.942523328482935,-191.83300788283972" fill-opacity="0" stroke="rgb(0,0,0)" stroke-width="7.9875195007800315" />
<path d="M119.91229447649759,-71.41189380372768 L107.47428244801428,-43.48221378106152" fill-opacity="0" stroke="rgb(0,0,0)" stroke-width="7.9875195007800315" />
<path d="M-16.681739343139213,-489.59792666735643 L-25.100016989862567,-475.7063074739955" fill-opacity="0" stroke="rgb(0,0,0)" stroke-width="7.9875195007800315" />
<path d="M-336.1237019319891,-47.238131438145004 L-337.29925688362124,-49.27425234146109" fill-opacity="0" stroke="rgb(0,0,0)" stroke-width="7.9875195007800315" />
<path d="M-13.545803596407955,458.5836259961581 L-15.938189628854987,453.68472447030456" fill-opacity="0" stroke="rgb(0,0,0)" stroke-width="7.9875195007800315" />
<path d="M-66.97869403025909,-146.3589375425803 L-68.42413531925571,-171.96867929159134" fill-opacity="0" stroke="rgb(0,0,0)" stroke-width="7.9875195007800315" />
<path d="M328.83095315266627,125.1544797771825 L330.21592293929075,105.27944690802639" fill-opacity="0" stroke="rgb(0,0,0)" stroke-width="7.9875195007800315" />
<path d="M-148.48530329749246,25.67744874708461 L-139.82209835172685,8.84779031600037" fill-opacity="0" stroke="rgb(0,0,0)" stroke-width="7.9875195007800315" />
<path d="M-239.09340644117142,289.2123164962043 L-244.1886601645329,291.20897870185166" fill-opacity="0" stroke="rgb(0,0,0)" stroke-width="7.9875195007800315" />
<path d="M-244.56117154364065,-279.33962417530597 L-223.86457228643036,-272.22649202489345" fill-opacity="0" stroke="rgb(0,0,0)" stroke-width="7.9875195007800315" />
<path d="M203.0549050880567,-330.0801193522303 L197.78339717809175,-329.50602753481405" fill-opacity="0" stroke="rgb(0,0,0)" stroke-width="7.9875195007800315" />
<path d="M-61.47132281970647,-331.7598311552592 L-77.29109890450087,-342.4960823145817" fill-opacity="0" stroke="rgb(0,0,0)" stroke-width="7.9875195007800315" />
<path d="M-283.1621937036209,146.59710878756596 L-245.48455504915006,130.59205799987984" fill-opacity="0" stroke="rgb(0,0,0)" stroke-width="7.9875195007800315" />
<path d="M248.83380874045517,-70.37811752200872 L223.76257132401062,-58.59789972514669" fill-opacity="0" stroke="rgb(0,0,0)" stroke-width="7.9875195007800315" />
<path d="M-76.63122148368193,-307.10238193393883 L-76.51925829288493,-302.9671159013194" fill-opacity="0" stroke="rgb(0,0,0)" stroke-width="7.9875195007800315" />
<path d="M167.79412115246447,218.39209555726586 L164.90559687527204,226.07143805915274" fill-opacity="0" stroke="rgb(0,0,0)" stroke-width="7.9875195007800315" />
<path d="M430.33679961318785,129.2785597489121 L396.3227779067769,114.36989916578" fill-opacity="0" stroke="rgb(0,0,0)" stroke-width="7.9875195007800315" />
<path d="M229.84392484662663,-20.977037057116718 L240.40448151647615,2.312255370787284" fill-opacity="0" stroke="rgb(0,0,0)" stroke-width="7.9875195007800315" />
<path d="M-49.966090043225165,-321.70084618002045 L-35.101738385556814,-351.3386066947205" fill-opacity="0" stroke="rgb(0,0,0)" stroke-width="7.9875195007800315" />
<path d="M220.6159580124504,257.502115729435 L232.16326177001386,270.6620068474006" fill-opacity="0" stroke="rgb(0,0,0)" stroke-width="7.9875195007800315" />
<path d="M-109.34441456746458,-369.0745121134608 L-125.9269260215874,-345.9015153598016" fill-opacity="0" stroke="rgb(0,0,0)" stroke-width="7.9875195007800315" />
<path d="M39.69139323767955,-93.43495964066031 L42.92293094075714,-109.60195580953051" fill-opacity="0" stroke="rgb(0,0,0)" stroke-width="7.9875195007800315" />
<path d="M16.841975708573642,-27.635054998169693 L29.470834673080077,-42.105078545555045" fill-opacity="0" stroke="rgb(0,0,0)" stroke-width="7.9875195007800315" />
<path d="M92.92060589498904,150.75522491903214 L81.41494107522703,157.84141801533224" fill-opacity="0" stroke="rgb(0,0,0)" stroke-width="7.9875195007800315" />
<path d="M431.9438399239575,150.14199603175217 L427.4100562654825,136.62104387887405" fill-opacity="0" stroke="rgb(0,0,0)" stroke-width="7.9875195007800315" />
<path d="M390.27168444835485,84.91595459951535 L387.16965265500727,70.07309265284425" fill-opacity="0" stroke="rgb(0,0,0)" stroke-width="7.9875195007800315" />
<path d="M212.33300988910221,-29.844901478561354 L205.46366790799146,-50.75425837223793" fill-opacity="0" stroke="rgb(0,0,0)" stroke-width="7.9875195007800315" />
<path d="M23.38916139965923,431.3805880654006 L16.483543844582655,410.00118142327017" fill-opacity="0" stroke="rgb(0,0,0)" stroke-width="7.9875195007800315" />
<path d="M308.941440647674,-0.15707382909873502 L303.9973739141543,8.406300949368543" fill-opacity="0" stroke="rgb(0,0,0)" stroke-width="7.9875195007800315" />
<path d="M327.066538800303,-265.8941336967611 L311.1772031045317,-265.9850019909202" fill-opacity="0" stroke="rgb(0,0,0)" stroke-width="7.9875195007800315" />
<path d="M79.93753554704347,412.11868262919813 L97.05590471360637,437.82987686807587" fill-opacity="0" stroke="rgb(0,0,0)" stroke-width="7.9875195007800315" />
<path d="M-67.8924591503627,-337.575407806093 L-75.26579527294119,-340.36879394037703" fill-opacity="0" stroke="rgb(0,0,0)" stroke-width="7.9875195007800315" />
<path d="M209.6462359917613,351.50049891276853 L221.4296276066161,325.0586344353461" fill-opacity="0" stroke="rgb(0,0,0)" stroke-width="7.9875195007800315" />
<path d="M-178.7069000882347,126.33731867161421 L-157.19360107543633,128.06812755589684" fill-opacity="0" stroke="rgb(0,0,0)" stroke-width="7.9875195007800315" />
<path d="M106.13380654812347,60.70014930319823 L101.212403285582,47.110851092178365" fill-opacity="0" stroke="rgb(0,0,0)" stroke-width="7.9875195007800315" />
<path d="M184.89066763345113,5.511505804634737 L190.8709420743926,15.85602373954066" fill-opacity="0" stroke="rgb(0,0,0)" stroke-width="7.9875195007800315" />
<path d="M-218.37719535514861,302.58429029272315 L-230.92936191710578,286.66520747058513" fill-opacity="0" stroke="rgb(0,0,0)" stroke-width="7.9875195007800315" />
<path d="M5.981641421148765,-43.28269430269859 L-10.52160458706794,-30.833015006947193" fill-opacity="0" stroke="rgb(0,0,0)" stroke-width="7.9875195007800315" />
<path d="M120.04530603075585,-157.49621924825604 L115.09207259306244,-162.88359792885043" fill-opacity="0" stroke="rgb(0,0,0)" stroke-width="7.9875195007800315" />
<path d="M-383.2553526081722,-92.10715354414896 L-391.2996941936753,-112.64947981721804" fill-opacity="0" stroke="rgb(0,0,0)" stroke-width="7.9875195007800315" />
<path d="M463.2648846742035,-211.07162622142184 L463.27608466470093,-208.10938098146084" fill-opacity="0" stroke="rgb(0,0,0)" stroke-width="7.9875195007800315" />
<path d="M-67.08054238133104,-416.92653518144857 L-84.58204050990855,-428.469942049138" fill-opacity="0" stroke="rgb(0,0,0)" stroke-width="7.9875195007800315" />
<path d="M-8.273867548402824e-14,408.1399575799128 L-8.713079971121765e-14,444.00437359151204" fill-opacity="0" stroke="rgb(0,0,0)" stroke-width="7.9875195007800315" />
<path d="M174.0672217300247,-201.33484292892376 L177.34932210225676,-197.59306130004381" fill-opacity="0" stroke="rgb(0,0,0)" stroke-width="7.9875195007800315" />
<path d="M44.820877333143414,-267.4725989680988 L36.17606867194091,-267.4725989680988" fill-opacity="0" stroke="rgb(0,0,0)" stroke-width="7.9875195007800315" />
<path d="M242.9225257785239,-363.33848763265934 L237.64556914935667,-330.5953137994582" fill-opacity="0" stroke="rgb(0,0,0)" stroke-width="7.9875195007800315" />
<path d="M-41.76879470062602,14.714054883607844 L-39.67207716962456,37.54539386903747" fill-opacity="0" stroke="rgb(0,0,0)" stroke-width="7.9875195007800315" />
<path d="M24.074570351128386,153.79868827237448 L37.21788265270419,142.3912228850571" fill-opacity="0" stroke="rgb(0,0,0)" stroke-width="7.9875195007800315" />
<path d="M-454.7861388204278,22.451605978696563 L-458.67213637517,33.43571324923627" fill-opacity="0" stroke="rgb(0,0,0)" stroke-width="7.9875195007800315" />
<path d="M445.95660375476774,246.38140189930036 L427.75170488837193,225.64742320635435" fill-opacity="0" stroke="rgb(0,0,0)" stroke-width="7.9875195007800315" />
<path d="M10.883230400438038,-226.25942628624864 L-9.89608574883681,-223.58671213734144" fill-opacity="0" stroke="rgb(0,0,0)" stroke-width="7.9875195007800315" />
<path d="M2.0514311142817405,91.29375279219911 L-22.97293670039653,96.32990400583111" fill-opacity="0" stroke="rgb(0,0,0)" stroke-width="7.9875195007800315" />
<path d="M-430.10872417783366,-267.4725989680989 L-409.9299681067677,-267.4725989680989" fill-opacity="0" stroke="rgb(0,0,0)" stroke-width="7.9875195007800315" />
<path d="M252.05171029756653,-198.92145562530084 L246.26094795999126,-187.80086815211445" fill-opacity="0" stroke="rgb(0,0,0)" stroke-width="7.9875195007800315" />
<path d="M178.5008732715532,-271.6926660063602 L187.30280158451518,-249.80821107733865" fill-opacity="0" stroke="rgb(0,0,0)" stroke-width="7.9875195007800315" />
<path d="M74.58599389526415,-141.25313129789646 L92.31688687741695,-154.87442800305394" fill-opacity="0" stroke="rgb(0,0,0)" stroke-width="7.9875195007800315" />
<path d="M375.0712322064215,-97.69279926300948 L381.4148721841494,-116.53464455043269" fill-opacity="0" stroke="rgb(0,0,0)" stroke-width="7.9875195007800315" />
<path d="M12.478806274684896,-6.672973449394149 L24.401992717810785,-13.252188354597099" fill-opacity="0" stroke="rgb(0,0,0)" stroke-width="7.9875195007800315" />
<path d="M95.90476877786416,479.0004813276265 L100.41421552460218,476.4745387824791" fill-opacity="0" stroke="rgb(0,0,0)" stroke-width="7.9875195007800315" />
<path d="M58.75440366313639,-247.3774466625448 L72.57980671490128,-226.1671705231622" fill-opacity="0" stroke="rgb(0,0,0)" stroke-width="7.9875195007800315" />
<path d="M-63.23556625872456,-28.222231214031353 L-53.851043107575876,-51.84995671835719" fill-opacity="0" stroke="rgb(0,0,0)" stroke-width="7.9875195007800315" />
<path d="M134.18735355523506,-78.60526190658476 L149.19761893643704,-110.31603489464732" fill-opacity="0" stroke="rgb(0,0,0)" stroke-width="7.9875195007800315" />
<path d="M-113.89454282255863,-182.86548498486772 L-105.61702850460091,-175.35149316864766" fill-opacity="0" stroke="rgb(0,0,0)" stroke-width="7.9875195007800315" />
<path d="M-26.409932801470177,-415.9578564631645 L-38.2179682397238,-430.8302272611172" fill-opacity="0" stroke="rgb(0,0,0)" stroke-width="7.9875195007800315" />
<path d="M45.36523433149167,-133.99669307085685 L48.45557197724801,-140.67747413362008" fill-opacity="0" stroke="rgb(0,0,0)" stroke-width="7.9875195007800315" />
<path d="M-165.6160491952362,-171.13172710106684 L-180.61817540696404,-170.91852524116885" fill-opacity="0" stroke="rgb(0,0,0)" stroke-width="7.9875195007800315" />
<path d="M93.23188905615586,222.4526981773516 L115.52662832145961,223.4206510199671" fill-opacity="0" stroke="rgb(0,0,0)" stroke-width="7.9875195007800315" />
<path d="M71.72725225478352,-268.4456039292276 L79.86028119187269,-277.929770119223" fill-opacity="0" stroke="rgb(0,0,0)" stroke-width="7.9875195007800315" />
<path d="M-323.0015689746895,164.181667560591 L-313.8564368281193,168.04059638343517" fill-opacity="0" stroke="rgb(0,0,0)" stroke-width="7.9875195007800315" />
<path d="M-223.70586397579166,-176.4394930982218 L-231.48369963483876,-165.7285437556696" fill-opacity="0" stroke="rgb(0,0,0)" stroke-width="7.9875195007800315" />
<path d="M-205.27493231157817,179.39858565228184 L-189.76655648871704,206.25988052035012" fill-opacity="0" stroke="rgb(0,0,0)" stroke-width="7.9875195007800315" />
<path d="M139.4601551054678,454.42783984482867 L141.74137090989763,453.1107792860615" fill-opacity="0" stroke="rgb(0,0,0)" stroke-width="7.9875195007800315" />
<path d="M-402.8542121623207,-60.316345891086456 L-419.2319696371358,-64.27523985320718" fill-opacity="0" stroke="rgb(0,0,0)" stroke-width="7.9875195007800315" />
<path d="M-191.81896467017145,273.9389925646853 L-179.35289093399876,289.4705718238463" fill-opacity="0" stroke="rgb(0,0,0)" stroke-width="7.9875195007800315" />
<path d="M147.23418347178568,433.98305102102233 L136.0376636370628,442.4792941047243" fill-opacity="0" stroke="rgb(0,0,0)" stroke-width="7.9875195007800315" />
<path d="M-68.37935222472686,-467.138610602895 L-59.65833106691383,-471.2487670058629" fill-opacity="0" stroke="rgb(0,0,0)" stroke-width="7.9875195007800315" />
<path d="M48.287714520291104,57.840826207080205 L59.65117364619664,57.29906526401092" fill-opacity="0" stroke="rgb(0,0,0)" stroke-width="7.9875195007800315" />
<path d="M296.1029811261461,-51.5772800623418 L322.23337276721713,-66.00336311744871" fill-opacity="0" stroke="rgb(0,0,0)" stroke-width="7.9875195007800315" />
<path d="M-205.19883923293264,-170.76028708086199 L-209.4317186671776,-204.9709160420963" fill-opacity="0" stroke="rgb(0,0,0)" stroke-width="7.9875195007800315" />
<path d="M-411.4543223535395,14.767979474896123 L-395.3997111154434,32.490541377544034" fill-opacity="0" stroke="rgb(0,0,0)" stroke-width="7.9875195007800315" />
<path d="M-133.21365698169865,177.81551242926565 L-140.2806466689123,170.094893013905" fill-opacity="0" stroke="rgb(0,0,0)" stroke-width="7.9875195007800315" />
<path d="M-113.21501100931823,-97.68086763789842 L-128.48089244437125,-120.10826856684304" fill-opacity="0" stroke="rgb(0,0,0)" stroke-width="7.9875195007800315" />
<path d="M-415.7167792778149,203.00242150373026 L-412.8972347382278,208.49796899625835" fill-opacity="0" stroke="rgb(0,0,0)" stroke-width="7.9875195007800315" />
<path d="M143.04470145525804,-446.1355368171611 L150.40890042955218,-437.49135882591287" fill-opacity="0" stroke="rgb(0,0,0)" stroke-width="7.9875195007800315" />
<path d="M328.1451386081164,191.77892721169889 L359.03964415045635,208.6809956320626" fill-opacity="0" stroke="rgb(0,0,0)" stroke-width="7.9875195007800315" />
<path d="M-18.57448707761762,-132.60381635228902 L16.093027993505927,-163.29324763515234" fill-opacity="0" stroke="rgb(0,0,0)" stroke-width="7.9875195007800315" />
<path d="M297.8799484921989,209.2932169895488 L292.99574772704517,205.11867049612997" fill-opacity="0" stroke="rgb(0,0,0)" stroke-width="7.9875195007800315" />
<path d="M192.09506835481153,-131.72274800839216 L185.76517771238622,-126.76101200083667" fill-opacity="0" stroke="rgb(0,0,0)" stroke-width="7.9875195007800315" />
<path d="M-110.82795687437724,-224.2995507042612 L-114.63421376902784,-245.12681174982157" fill-opacity="0" stroke="rgb(0,0,0)" stroke-width="7.9875195007800315" />
<path d="M-214.91987082953386,-168.16570100877613 L-207.74730934674142,-167.2240796577021" fill-opacity="0" stroke="rgb(0,0,0)" stroke-width="7.9875195007800315" />
<path d="M44.536231101219926,-170.91112009388772 L41.77920889516393,-194.52678478168136" fill-opacity="0" stroke="rgb(0,0,0)" stroke-width="7.9875195007800315" />
<path d="M139.68366952661546,276.1033907025328 L153.2096522637375,256.36966499088027" fill-opacity="0" stroke="rgb(0,0,0)" stroke-width="7.9875195007800315" />
<path d="M-463.2761310452419,199.949092349491 L-463.276131045242,202.50306860266483" fill-opacity="0" stroke="rgb(0,0,0)" stroke-width="7.9875195007800315" />
<path d="M365.0441272412369,-56.79657649317636 L364.5391515043248,-83.27407298300511" fill-opacity="0" stroke="rgb(0,0,0)" stroke-width="7.9875195007800315" />
<path d="M-414.12175994266073,246.19601466445488 L-415.1312690816881,245.19208681100562" fill-opacity="0" stroke="rgb(0,0,0)" stroke-width="7.9875195007800315" />
<path d="M-54.36392647518403,348.4509514662315 L-50.94991868576493,378.6450067506864" fill-opacity="0" stroke="rgb(0,0,0)" stroke-width="7.9875195007800315" />
<path d="M212.41187062768296,266.50123048530577 L231.7161964990177,265.72265694517904" fill-opacity="0" stroke="rgb(0,0,0)" stroke-width="7.9875195007800315" />
<path d="M412.28646582646854,-179.15590814825552 L412.3423396240132,-179.25268440441477" fill-opacity="0" stroke="rgb(0,0,0)" stroke-width="7.9875195007800315" />
<path d="M-78.21810554656145,422.6361916313663 L-67.15586755245829,430.3717468308672" fill-opacity="0" stroke="rgb(0,0,0)" stroke-width="7.9875195007800315" />
<path d="M-250.5302357600043,-75.2703096285367 L-261.3307520975701,-58.13840504988136" fill-opacity="0" stroke="rgb(0,0,0)" stroke-width="7.9875195007800315" />
<path d="M355.9249455735063,-90.83516704861938 L359.71388795267364,-97.93742308065413" fill-opacity="0" stroke="rgb(0,0,0)" stroke-width="7.9875195007800315" />
<path d="M-388.1627187306943,-191.25960217859375 L-374.9264118327453,-167.77615852649657" fill-opacity="0" stroke="rgb(0,0,0)" stroke-width="7.9875195007800315" />
<path d="M-11.367413085342124,-9.8677071268957 L0.7640336159118313,-16.205061067669277" fill-opacity="0" stroke="rgb(0,0,0)" stroke-width="7.9875195007800315" />
<path d="M-267.34502847602926,-57.58760141849325 L-264.2579266589558,-59.73947731594498" fill-opacity="0" stroke="rgb(0,0,0)" stroke-width="7.9875195007800315" />
<path d="M116.53003018178583,-49.21042143453586 L127.57772384620935,-55.50458025722391" fill-opacity="0" stroke="rgb(0,0,0)" stroke-width="7.9875195007800315" />
<path d="M-368.9710283160439,146.3342171420935 L-363.22514076930383,136.689220295444" fill-opacity="0" stroke="rgb(0,0,0)" stroke-width="7.9875195007800315" />
<path d="M-282.55673700891293,-179.51635412942173 L-273.2939384178871,-176.68076343179655" fill-opacity="0" stroke="rgb(0,0,0)" stroke-width="7.9875195007800315" />
<path d="M91.20782879556674,250.37403298322872 L114.65626372909924,242.63683151118593" fill-opacity="0" stroke="rgb(0,0,0)" stroke-width="7.9875195007800315" />
<path d="M-181.73945107211188,-182.10022248928792 L-211.92907694703598,-184.59056321408877" fill-opacity="0" stroke="rgb(0,0,0)" stroke-width="7.9875195007800315" />
<path d="M340.2489840487016,39.741303970659146 L334.28498470775264,22.641523404256333" fill-opacity="0" stroke="rgb(0,0,0)" stroke-width="7.9875195007800315" />
<path d="M44.64786403360648,-382.9656758661977 L38.80177909772078,-400.0693899634462" fill-opacity="0" stroke="rgb(0,0,0)" stroke-width="7.9875195007800315" />
<path d="M-157.80172066463422,44.36058922172265 L-141.66924690232037,31.766372733601855" fill-opacity="0" stroke="rgb(0,0,0)" stroke-width="7.9875195007800315" />
<path d="M317.29058106684664,-232.13060249765613 L309.9141385648229,-255.98470213696032" fill-opacity="0" stroke="rgb(0,0,0)" stroke-width="7.9875195007800315" />
<path d="M-25.330027176756488,313.29520257066224 L-23.493884974805987,303.7915883656673" fill-opacity="0" stroke="rgb(0,0,0)" stroke-width="7.9875195007800315" />
<path d="M-184.4798085505731,-128.1639863248314 L-194.2534101179208,-99.93767773544465" fill-opacity="0" stroke="rgb(0,0,0)" stroke-width="7.9875195007800315" />
<path d="M-133.49962247724733,183.3738909469324 L-123.45733978270783,196.5695758670452" fill-opacity="0" stroke="rgb(0,0,0)" stroke-width="7.9875195007800315" />
<path d="M26.97207019278271,12.189987069363674 L40.545264203526806,18.838129254520148" fill-opacity="0" stroke="rgb(0,0,0)" stroke-width="7.9875195007800315" />
<path d="M-238.98307186758282,-286.3670503725545 L-247.56832061148052,-277.41039813209676" fill-opacity="0" stroke="rgb(0,0,0)" stroke-width="7.9875195007800315" />
<path d="M291.0760864911628,1.8514790043012823 L292.32895254965234,-2.2128622831874623" fill-opacity="0" stroke="rgb(0,0,0)" stroke-width="7.9875195007800315" />
<path d="M-437.9818314095301,266.3386249821089 L-453.7157229867535,267.47259896809857" fill-opacity="0" stroke="rgb(0,0,0)" stroke-width="7.9875195007800315" />
<path d="M-402.6216645873319,54.33991319796252 L-400.90146700614184,69.59968294765736" fill-opacity="0" stroke="rgb(0,0,0)" stroke-width="7.9875195007800315" />
<path d="M367.95964568928514,196.78887428113143 L386.7294628510254,190.03635208086274" fill-opacity="0" stroke="rgb(0,0,0)" stroke-width="7.9875195007800315" />
<path d="M-194.49748695704795,-27.777896836787733 L-202.67076106793482,-14.556862696246384" fill-opacity="0" stroke="rgb(0,0,0)" stroke-width="7.9875195007800315" />
<path d="M103.64553326651121,450.50538921848124 L118.85022433350922,442.8288769026316" fill-opacity="0" stroke="rgb(0,0,0)" stroke-width="7.9875195007800315" />
<path d="M291.34295076218467,-106.23949265381259 L290.3823616747422,-82.88046587006812" fill-opacity="0" stroke="rgb(0,0,0)" stroke-width="7.9875195007800315" />
<path d="M83.91728425091543,158.5774015555404 L105.9633801121696,146.22933047200993" fill-opacity="0" stroke="rgb(0,0,0)" stroke-width="7.9875195007800315" />
<path d="M12.573947173945342,244.39809622399514 L6.8443502638616,228.57829206999182" fill-opacity="0" stroke="rgb(0,0,0)" stroke-width="7.9875195007800315" />
<path d="M-54.56944295966256,342.79546701408935 L-53.264296968934815,339.5198375173528" fill-opacity="0" stroke="rgb(0,0,0)" stroke-width="7.9875195007800315" />
<path d="M-131.27056137954597,-459.15610398704337 L-128.15748597280464,-460.9534389111331" fill-opacity="0" stroke="rgb(0,0,0)" stroke-width="7.9875195007800315" />
<path d="M180.62072196582614,-211.39514986227996 L197.73595250389417,-179.85422144380394" fill-opacity="0" stroke="rgb(0,0,0)" stroke-width="7.9875195007800315" />
<path d="M-389.4711785156174,-201.95378601513676 L-410.19110689442164,-214.82593438841158" fill-opacity="0" stroke="rgb(0,0,0)" stroke-width="7.9875195007800315" />
<path d="M129.506367013565,-98.30345976307018 L125.23644676002378,-87.39543665049365" fill-opacity="0" stroke="rgb(0,0,0)" stroke-width="7.9875195007800315" />
<path d="M-174.92457613972795,116.11429243136195 L-167.61286157360792,101.60992351162099" fill-opacity="0" stroke="rgb(0,0,0)" stroke-width="7.9875195007800315" />
<path d="M-194.93155116665315,-250.38993071731252 L-182.3771735184689,-247.92984528709349" fill-opacity="0" stroke="rgb(0,0,0)" stroke-width="7.9875195007800315" />
<path d="M389.89982397126266,277.8787445287629 L394.4035918507852,278.40058874844885" fill-opacity="0" stroke="rgb(0,0,0)" stroke-width="7.9875195007800315" />
<path d="M-200.12855365909945,27.562178370449203 L-198.778298206463,42.123057523062016" fill-opacity="0" stroke="rgb(0,0,0)" stroke-width="7.9875195007800315" />
<path d="M1485.678627145086,-267.4725989680987 L1022.402496099844,-534.9451979361975 L559.1263650546023,-267.4725989680989 L559.126365054602,267.47259896809857 L1022.4024960998439,534.9451979361975 L1485.6786271450858,267.47259896809896 Z" fill-opacity="0.225" stroke="rgb(0,0,0)" stroke-width="7.9875195007800315" />
<path d="M1435.601545540217,0.0 L1380.2433697347894,-206.59952472018657 L1229.0020208200308,-357.8408736349454 L1022.402496099844,-413.1990494403732 L815.8029713796575,-357.84087363494547 L664.5616224648986,-206.59952472018657 L609.2034466594708,-5.0602289330788195e-14 L664.5616224648986,206.59952472018648 L815.8029713796573,357.84087363494535 L1022.4024960998439,413.1990494403732 L1229.0020208200308,357.8408736349454 L1380.2433697347892,206.59952472018676 Z" fill-opacity="0" stroke="rgb(0,0,0)" stroke-width="7.9875195007800315" />
<path d="M1435.601545540217,0.0 L1380.2433697347894,-206.59952472018657 L1173.643845014603,-261.9577005256144 L1022.402496099844,-110.71635161085575 L1077.7606719052717,95.88317310933084 L1284.3601966254582,151.24134891475882 L1435.601545540217,1.9895196601282805e-13 L1435.601545540217,0.0 Z" fill-opacity="0" stroke="rgb(0,0,0)" stroke-width="7.9875195007800315" />
<path d="M1380.2433697347894,-206.59952472018657 L1229.0020208200308,-357.8408736349454 L1022.4024960998443,-302.48269782951786 L967.0443202944164,-95.88317310933141 L1118.285669209175,55.35817580542752 L1324.8851939293615,4.263256414560601e-14 L1380.2433697347897,-206.59952472018642 L1380.2433697347894,-206.59952472018657 Z" fill-opacity="0" stroke="rgb(0,0,0)" stroke-width="7.9875195007800315" />
<path d="M1229.0020208200308,-357.8408736349454 L1022.402496099844,-413.1990494403732 L871.1611471850852,-261.9577005256142 L926.5193229905129,-55.358175805427436 L1133.1188477106998,4.050093593832571e-13 L1284.3601966254587,-151.24134891475853 L1229.002020820031,-357.84087363494535 L1229.0020208200308,-357.8408736349454 Z" fill-opacity="0" stroke="rgb(0,0,0)" stroke-width="7.9875195007800315" />
<path d="M1022.402496099844,-413.1990494403732 L815.8029713796575,-357.84087363494547 L760.4447955742297,-151.24134891475896 L911.6861444889885,-1.1368683772161603e-13 L1118.285669209175,-55.35817580542775 L1173.643845014603,-261.9577005256142 L1022.4024960998443,-413.1990494403731 L1022.402496099844,-413.1990494403732 Z" fill-opacity="0" stroke="rgb(0,0,0)" stroke-width="7.9875195007800315" />
<path d="M815.8029713796575,-357.84087363494547 L664.5616224648986,-206.59952472018657 L719.9197982703264,1.1368683772161603e-13 L926.519322990513,55.35817580542794 L1077.760671905272,-95.88317310933087 L1022.4024960998443,-302.4826978295176 L815.8029713796576,-357.8408736349455 L815.8029713796575,-357.84087363494547 Z" fill-opacity="0" stroke="rgb(0,0,0)" stroke-width="7.9875195007800315" />
<path d="M664.5616224648986,-206.59952472018657 L609.2034466594708,-5.684341886080802e-14 L760.4447955742296,151.24134891475876 L967.0443202944161,95.88317310933108 L1022.402496099844,-110.7163516108554 L871.1611471850854,-261.95770052561426 L664.5616224648988,-206.5995247201867 L664.5616224648986,-206.59952472018657 Z" fill-opacity="0" stroke="rgb(0,0,0)" stroke-width="7.9875195007800315" />
<path d="M609.2034466594708,-5.0602289330788195e-14 L664.5616224648986,206.59952472018648 L871.1611471850852,261.95770052561426 L1022.402496099844,110.7163516108555 L967.0443202944164,-95.88317310933104 L760.4447955742298,-151.24134891475887 L609.203446659471,-1.7053025658242404e-13 L609.2034466594708,-5.0602289330788195e-14 Z" fill-opacity="0" stroke="rgb(0,0,0)" stroke-width="7.9875195007800315" />
<path d="M664.5616224648986,206.59952472018648 L815.8029713796573,357.84087363494535 L1022.4024960998438,302.4826978295178 L1077.7606719052717,95.88317310933138 L926.519322990513,-55.35817580542755 L719.9197982703265,-7.105427357601002e-14 L664.5616224648985,206.59952472018637 L664.5616224648986,206.59952472018648 Z" fill-opacity="0" stroke="rgb(0,0,0)" stroke-width="7.9875195007800315" />
<path d="M815.8029713796573,357.84087363494535 L1022.4024960998439,413.1990494403732 L1173.643845014603,261.95770052561437 L1118.2856692091752,55.35817580542766 L911.6861444889886,-2.7711166694643907e-13 L760.4447955742296,151.24134891475848 L815.8029713796573,357.8408736349452 L815.8029713796573,357.84087363494535 Z" fill-opacity="0" stroke="rgb(0,0,0)" stroke-width="7.9875195007800315" />
<path d="M1022.4024960998439,413.1990494403732 L1229.0020208200308,357.8408736349454 L1284.3601966254587,151.2413489147586 L1133.1188477106998,-5.115907697472721e-13 L926.5193229905129,55.358175805427194 L871.1611471850849,261.957700525614 L1022.4024960998438,413.19904944037313 L1022.4024960998439,413.1990494403732 Z" fill-opacity="0" stroke="rgb(0,0,0)" stroke-width="7.9875195007800315" />
<path d="M1229.0020208200308,357.8408736349454 L1380.2433697347892,206.59952472018676 L1324.8851939293613,6.252776074688882e-13 L1118.285669209175,-55.35817580542693 L967.0443202944166,95.88317310933166 L1022.4024960998443,302.48269782951786 L1229.0020208200306,357.8408736349455 L1229.0020208200308,357.8408736349454 Z" fill-opacity="0" stroke="rgb(0,0,0)" stroke-width="7.9875195007800315" />
<path d="M1380.2433697347892,206.59952472018676 L1435.601545540217,0.0 L1284.3601966254582,-151.24134891475904 L1077.7606719052715,-95.88317310933134 L1022.4024960998435,110.71635161085543 L1173.6438450146022,261.95770052561454 L1380.243369734789,206.59952472018693 L1380.2433697347892,206.59952472018676 Z" fill-opacity="0" stroke="rgb(0,0,0)" stroke-width="7.9875195007800315" />
<text x="1730.7437237119125" y="0.0" font-size="204" font-family="Helvetica" fill="rgb(0,0,0)" text-anchor="middle" dominant-baseline="central">d5</text>
</svg>