<?xml version="1.0" encoding="UTF-8"?>
<svg xmlns="http://www.w3.org/2000/svg" xmlns:xlink="http://www.w3.org/1999/xlink"
     width="28.8cm" height="28.8cm" viewBox="0 0 313.86973180076626 313.86973180076626">
<defs>
</defs>
<rect x="0" y="0" width="313.86973180076626" height="313.86973180076626" fill="white" />
<path d="M235.4022988505747,156.93486590038313 L234.93991474128296,166.73082098564225 L233.57959219648387,176.14712866506585 L231.39789702622977,184.8408272211809 L228.51039287347285,192.53508535378853 L225.05676664779932,199.0365159405332 L221.18512236624923,204.23905974312873 L217.03829179045178,208.11645409259768 L212.74387763708916,210.7072588046709 L208.4084980292954,212.0967685595091 L204.1157560278824,212.3993287143344 L199.92696897377834,211.74326163784409 L195.8836009329396,210.25935359262283 L192.01049630553527,208.0729342051521 L188.31926534300194,205.2990566745889 L184.81142256465813,202.04008207249245 L181.48107832653284,198.38497113378867 L178.31712035626595,194.4096907285587 L175.30490365601509,190.17828013261902 L172.42750825874955,185.74425503855394 L169.66663912292026,181.1521376749553 L167.003242144689,176.43898528066757 L164.41790255204688,171.63584889971276 L161.89108160853067,166.76913483426097 L159.40323730236304,161.86186717011094 L156.93486590038313,156.93486590038313 L154.46649449840322,152.00786463065532 L151.97865019223562,147.10059696650532 L149.45182924871938,142.2338829010535 L146.86648965607722,137.4307465200987 L144.203092677846,132.717594125811 L141.4422235420167,128.12547676221234 L138.56482814475117,123.69145166814724 L135.5526114445003,119.46004107220753 L132.38865347423342,115.48476066697756 L129.05830923610816,111.82964972827381 L125.55046645776433,108.57067512617735 L121.85923549523098,105.79679759561415 L117.98613086782669,103.61037820814343 L113.94276282698794,102.12647016292217 L109.75397577288386,101.4704030864319 L105.46123377147089,101.77296324125717 L101.1258541636771,103.16247299609537 L96.8314400103145,105.75327770816857 L92.68460943451704,109.63067205763753 L88.81296515296694,114.83321586023305 L85.35933892729344,121.33464644697767 L82.47183477453648,129.02890457958537 L80.2901396042824,137.72260313570035 L78.9298170594833,147.13891081512398 L78.46743295019157,156.9348659003831 L78.9298170594833,166.73082098564225 L80.2901396042824,176.14712866506588 L82.47183477453649,184.84082722118092 L85.35933892729338,192.53508535378853 L88.81296515296692,199.0365159405332 L92.68460943451703,204.23905974312873 L96.83144001031445,208.11645409259765 L101.1258541636771,210.7072588046709 L105.46123377147083,212.0967685595091 L109.75397577288382,212.3993287143344 L113.94276282698793,211.74326163784409 L117.98613086782665,210.25935359262286 L121.85923549523099,208.0729342051521 L125.55046645776434,205.29905667458888 L129.05830923610813,202.04008207249245 L132.38865347423345,198.38497113378864 L135.5526114445003,194.40969072855873 L138.5648281447512,190.17828013261897 L141.4422235420167,185.74425503855392 L144.203092677846,181.1521376749553 L146.86648965607725,176.43898528066754 L149.45182924871938,171.63584889971276 L151.9786501922356,166.76913483426097 L154.46649449840325,161.8618671701109 L156.93486590038313,156.93486590038316 L159.403237302363,152.00786463065538 L161.89108160853067,147.10059696650532 L164.41790255204688,142.23388290105353 L167.00324214468904,137.4307465200987 L169.66663912292026,132.71759412581096 L172.42750825874953,128.12547676221237 L175.30490365601503,123.69145166814731 L178.317120356266,119.4600410722075 L181.48107832653284,115.48476066697759 L184.8114225646581,111.82964972827381 L188.31926534300192,108.57067512617738 L192.0104963055352,105.7967975956142 L195.88360093293954,103.61037820814344 L199.92696897377834,102.12647016292217 L204.1157560278824,101.47040308643187 L208.40849802929537,101.77296324125717 L212.7438776370891,103.16247299609535 L217.03829179045175,105.75327770816855 L221.18512236624923,109.63067205763755 L225.0567666477993,114.83321586023303 L228.51039287347282,121.33464644697766 L231.39789702622977,129.02890457958537 L233.57959219648387,137.72260313570035 L234.93991474128296,147.138910815124 Z" fill-opacity="0" stroke="black" stroke-width="29.425287356321835" />
</svg>